
<svg xmlns="http://www.w3.org/2000/svg" version="1.1" xmlns:xlink="http://www.w3.org/1999/xlink" preserveAspectRatio="none" x="0px" y="0px" width="714px" height="112px" viewBox="0 0 714 112">
<defs>
<g id="Layer1_0_FILL">
<path fill="#CCCC66" stroke="none" d="
M 713.8 7.85
Q 713.8 0.2 706.1 0.2
L 7.9 0.2
Q 0.2 0.2 0.2 7.85
L 0.2 104.15
Q 0.2 111.8 7.9 111.8
L 706.1 111.8
Q 713.8 111.8 713.8 104.15
L 713.8 7.85 Z"/>
</g>

<g id="Layer0_0_FILL">
<path fill="#FFFFFF" stroke="none" d="
M 713.8 7.85
Q 713.8 0.2 706.1 0.2
L 7.9 0.2
Q 0.2 0.2 0.2 7.85
L 0.2 104.15
Q 0.2 111.8 7.9 111.8
L 706.1 111.8
Q 713.8 111.8 713.8 104.15
L 713.8 7.85
M 706.1 2.2
Q 711.8 2.2 711.8 7.85
L 711.8 104.15
Q 711.8 109.8 706.1 109.8
L 7.9 109.8
Q 2.2 109.8 2.2 104.15
L 2.2 7.85
Q 2.2 2.2 7.9 2.2
L 706.1 2.2 Z"/>

<path fill="#CCCC66" stroke="none" d="
M 711.8 7.85
Q 711.8 2.2 706.1 2.2
L 7.9 2.2
Q 2.2 2.2 2.2 7.85
L 2.2 104.15
Q 2.2 109.8 7.9 109.8
L 706.1 109.8
Q 711.8 109.8 711.8 104.15
L 711.8 7.85 Z"/>
</g>
</defs>

<g transform="matrix( 1, 0, 0, 1, 0,0) ">
<use xlink:href="#Layer1_0_FILL"/>
</g>

<g transform="matrix( 1, 0, 0, 1, 0,0) ">
<use xlink:href="#Layer0_0_FILL"/>
</g>
</svg>
