
<svg xmlns="http://www.w3.org/2000/svg" version="1.1" xmlns:xlink="http://www.w3.org/1999/xlink" preserveAspectRatio="none" x="0px" y="0px" width="616px" height="86px" viewBox="0 0 616 86">
<defs>
<g id="Layer1_0_FILL">
<path fill="#CCCC66" stroke="none" d="
M 615.75 6.5
Q 615.75 0.35 610.2 0.4
L 5.85 0.4
Q 0.3 0.35 0.3 6.5
L 0.3 79.55
Q 0.3 85.65 5.85 85.6
L 610.2 85.6
Q 615.75 85.65 615.75 79.55
L 615.75 6.5 Z"/>
</g>

<g id="Layer0_0_FILL">
<path fill="#FFFFFF" stroke="none" d="
M 609.2 -0.6
L 4.85 -0.6
Q -0.7 -0.65390625 -0.7 5.5
L -0.7 78.55
Q -0.7 84.649609375 4.85 84.6
L 609.2 84.6
Q 614.75 84.649609375 614.75 78.55
L 614.75 5.5
Q 614.75 -0.65390625 609.2 -0.6
M 609.2 1.4
Q 612.75 1.4529296875 612.75 5.5
L 612.75 78.55
Q 612.75 82.5509765625 609.2 82.6
L 4.85 82.6
Q 1.3 82.5509765625 1.3 78.55
L 1.3 5.5
Q 1.3 1.4529296875 4.85 1.4
L 609.2 1.4 Z"/>

<path fill="#CCCC66" stroke="none" d="
M 612.75 5.5
Q 612.75 1.4529296875 609.2 1.4
L 4.85 1.4
Q 1.3 1.4529296875 1.3 5.5
L 1.3 78.55
Q 1.3 82.5509765625 4.85 82.6
L 609.2 82.6
Q 612.75 82.5509765625 612.75 78.55
L 612.75 5.5 Z"/>
</g>
</defs>

<g transform="matrix( 1, 0, 0, 1, 0,0) ">
<use xlink:href="#Layer1_0_FILL"/>
</g>

<g transform="matrix( 1, 0, 0, 1, 1,1) ">
<use xlink:href="#Layer0_0_FILL"/>
</g>
</svg>
