
<svg xmlns="http://www.w3.org/2000/svg" version="1.1" xmlns:xlink="http://www.w3.org/1999/xlink" preserveAspectRatio="none" x="0px" y="0px" width="103px" height="103px" viewBox="0 0 103 103">
<defs>
<linearGradient id="Gradient_1" gradientUnits="userSpaceOnUse" x1="71.52499999999999" y1="83.25" x2="58.074999999999996" y2="87.15" spreadMethod="pad">
<stop  offset="0%" stop-color="#C196D0"/>

<stop  offset="15.294117647058824%" stop-color="#7A4E8A"/>

<stop  offset="48.23529411764706%" stop-color="#744A83"/>

<stop  offset="100%" stop-color="#3F184D"/>
</linearGradient>

<linearGradient id="Gradient_2" gradientUnits="userSpaceOnUse" x1="49.8125" y1="102.8875" x2="51.8875" y2="70.91250000000001" spreadMethod="pad">
<stop  offset="0%" stop-color="#E2A57C"/>

<stop  offset="15.294117647058824%" stop-color="#A475B4"/>

<stop  offset="48.23529411764706%" stop-color="#A475B4"/>

<stop  offset="100%" stop-color="#6D3580"/>
</linearGradient>

<linearGradient id="Gradient_3" gradientUnits="userSpaceOnUse" x1="30.8625" y1="98.82499999999999" x2="42.6375" y2="70.875" spreadMethod="pad">
<stop  offset="0%" stop-color="#C196D0"/>

<stop  offset="15.294117647058824%" stop-color="#7A4E8A"/>

<stop  offset="48.23529411764706%" stop-color="#744A83"/>

<stop  offset="100%" stop-color="#3F184D"/>
</linearGradient>

<linearGradient id="Gradient_4" gradientUnits="userSpaceOnUse" x1="14.174999999999997" y1="74.15" x2="42.625" y2="74.15" spreadMethod="pad">
<stop  offset="0%" stop-color="#E2A57C"/>

<stop  offset="15.294117647058824%" stop-color="#A475B4"/>

<stop  offset="48.23529411764706%" stop-color="#A475B4"/>

<stop  offset="100%" stop-color="#6D3580"/>
</linearGradient>

<linearGradient id="Gradient_5" gradientUnits="userSpaceOnUse" x1="14.1875" y1="58.262499999999996" x2="20.3125" y2="71.4375" spreadMethod="pad">
<stop  offset="0%" stop-color="#C196D0"/>

<stop  offset="15.294117647058824%" stop-color="#7A4E8A"/>

<stop  offset="48.23529411764706%" stop-color="#744A83"/>

<stop  offset="100%" stop-color="#3F184D"/>
</linearGradient>

<linearGradient id="Gradient_6" gradientUnits="userSpaceOnUse" x1="4" y1="31.375" x2="31.1" y2="42.325" spreadMethod="pad">
<stop  offset="0%" stop-color="#C196D0"/>

<stop  offset="15.294117647058824%" stop-color="#7A4E8A"/>

<stop  offset="48.23529411764706%" stop-color="#744A83"/>

<stop  offset="100%" stop-color="#3F184D"/>
</linearGradient>

<linearGradient id="Gradient_7" gradientUnits="userSpaceOnUse" x1="-0.05000000000000071" y1="51.05" x2="31.05" y2="51.05" spreadMethod="pad">
<stop  offset="0%" stop-color="#E2A57C"/>

<stop  offset="15.294117647058824%" stop-color="#A475B4"/>

<stop  offset="48.23529411764706%" stop-color="#A475B4"/>

<stop  offset="100%" stop-color="#6D3580"/>
</linearGradient>

<linearGradient id="Gradient_8" gradientUnits="userSpaceOnUse" x1="14.15" y1="27.75" x2="41.95" y2="27.75" spreadMethod="pad">
<stop  offset="0%" stop-color="#E2A57C"/>

<stop  offset="15.294117647058824%" stop-color="#A475B4"/>

<stop  offset="48.23529411764706%" stop-color="#A475B4"/>

<stop  offset="100%" stop-color="#6D3580"/>
</linearGradient>

<linearGradient id="Gradient_9" gradientUnits="userSpaceOnUse" x1="31.699999999999996" y1="3.4375" x2="42.9" y2="30.1625" spreadMethod="pad">
<stop  offset="0%" stop-color="#C196D0"/>

<stop  offset="15.294117647058824%" stop-color="#7A4E8A"/>

<stop  offset="48.23529411764706%" stop-color="#744A83"/>

<stop  offset="100%" stop-color="#3F184D"/>
</linearGradient>

<linearGradient id="Gradient_10" gradientUnits="userSpaceOnUse" x1="51.45" y1="-0.037499999999999645" x2="51.45" y2="29.8375" spreadMethod="pad">
<stop  offset="0%" stop-color="#E2A57C"/>

<stop  offset="15.294117647058824%" stop-color="#A475B4"/>

<stop  offset="48.23529411764706%" stop-color="#A475B4"/>

<stop  offset="100%" stop-color="#6D3580"/>
</linearGradient>

<linearGradient id="Gradient_11" gradientUnits="userSpaceOnUse" x1="62.575" y1="5.825000000000001" x2="69.325" y2="27.875" spreadMethod="pad">
<stop  offset="0%" stop-color="#C196D0"/>

<stop  offset="15.294117647058824%" stop-color="#7A4E8A"/>

<stop  offset="48.23529411764706%" stop-color="#744A83"/>

<stop  offset="100%" stop-color="#3F184D"/>
</linearGradient>

<linearGradient id="Gradient_12" gradientUnits="userSpaceOnUse" x1="90.64999999999999" y1="77.03750000000001" x2="60.55" y2="70.3625" spreadMethod="pad">
<stop  offset="0%" stop-color="#E2A57C"/>

<stop  offset="15.294117647058824%" stop-color="#A475B4"/>

<stop  offset="48.23529411764706%" stop-color="#A475B4"/>

<stop  offset="100%" stop-color="#6D3580"/>
</linearGradient>

<linearGradient id="Gradient_13" gradientUnits="userSpaceOnUse" x1="98.8375" y1="71.575" x2="71.6625" y2="60.025" spreadMethod="pad">
<stop  offset="0%" stop-color="#C196D0"/>

<stop  offset="15.294117647058824%" stop-color="#7A4E8A"/>

<stop  offset="48.23529411764706%" stop-color="#744A83"/>

<stop  offset="100%" stop-color="#3F184D"/>
</linearGradient>

<linearGradient id="Gradient_14" gradientUnits="userSpaceOnUse" x1="101.8625" y1="56.087500000000006" x2="71.2375" y2="49.3125" spreadMethod="pad">
<stop  offset="0%" stop-color="#E2A57C"/>

<stop  offset="15.294117647058824%" stop-color="#A475B4"/>

<stop  offset="48.23529411764706%" stop-color="#A475B4"/>

<stop  offset="100%" stop-color="#6D3580"/>
</linearGradient>

<linearGradient id="Gradient_15" gradientUnits="userSpaceOnUse" x1="99.2125" y1="33.4" x2="71.7875" y2="41.4" spreadMethod="pad">
<stop  offset="0%" stop-color="#C196D0"/>

<stop  offset="15.294117647058824%" stop-color="#7A4E8A"/>

<stop  offset="48.23529411764706%" stop-color="#744A83"/>

<stop  offset="100%" stop-color="#3F184D"/>
</linearGradient>

<linearGradient id="Gradient_16" gradientUnits="userSpaceOnUse" x1="87.4375" y1="14.2375" x2="66.36250000000001" y2="36.3625" spreadMethod="pad">
<stop  offset="0%" stop-color="#E2A57C"/>

<stop  offset="15.294117647058824%" stop-color="#A475B4"/>

<stop  offset="48.23529411764706%" stop-color="#A475B4"/>

<stop  offset="100%" stop-color="#6D3580"/>
</linearGradient>

<g id="Layer1_0_FILL">
<path fill="#754B85" stroke="none" d="
M 81.8 31.1
Q 84.7 27.35 86.6 23.65 90.25 16.85 88.05 14.6 85.65 12.3 78.8 15.95 75.55 17.6 72.2 20.2 73.2 16.3 73.5 12.9 74.4 5.15 71.35 3.95 68.45 2.65 63.4 8.55 60.95 11.35 58.8 15.05 58.1 10.9 57.1 7.4 54.75 0 51.55 0 48.3 0 46 7.4 44.95 10.85 44.35 14.8 42.25 11.15 39.9 8.2 34.95 2.15 32.05 3.4 29 4.55 29.7 12.3 29.9 16 30.95 20.2 27.55 17.6 24.35 15.95 17.4 12.3 15.1 14.6 12.8 16.85 16.5 23.65 18.15 27 20.7 30.3 16.75 29.25 13.25 28.9 5.45 28.05 4.15 30.95 2.9 34 8.85 39.1 11.7 41.55 15.5 43.75 11.15 44.3 7.5 45.4 0 47.7 0 51 0 54.2 7.5 56.5 10.65 57.45 14.45 58.05 10.85 60.05 8.1 62.3 2 67.3 3.2 70.35 4.4 73.15 12.2 72.55 16.35 72.25 21.15 71 18.3 74.65 16.45 78.15 12.8 85.1 15.2 87.45 17.4 89.7 24.25 85.95 27 84.5 29.85 82.6 28.95 86.2 28.6 89.4 27.75 97.25 30.75 98.6 33.7 99.75 38.75 93.7 41.6 90.5 44.2 86.1 44.65 91.2 46 95.4 47.7 100.85 49.85 102.35 51.45 103.65 53.2 102.35 55.35 100.85 57.1 95.4 57.95 92.4 58.65 88.85 60.35 91.7 62.3 94.15 67.2 100.1 70.15 99 73.15 97.85 72.5 90.1 72.25 85.75 70.9 80.8 74.85 83.95 78.8 86.05 85.65 89.7 87.95 87.45 90.25 85.1 86.6 78.2 85.15 75.4 83.1 72.55 86.6 73.45 89.75 73.85 97.55 74.65 98.8 71.65 100.1 68.7 94.15 63.65 90.95 60.9 86.55 58.35 91.55 57.75 95.55 56.5 103 54.2 103 51 103 47.7 95.55 45.4 92.25 44.45 88.5 43.9 91.6 42 94.15 39.95 100.15 35.2 98.95 32.1 97.8 29.1 90.05 29.7 86.1 30 81.8 31.1 Z"/>
</g>

<g id="Layer0_0_FILL">
<path fill="#B681C9" stroke="none" d="
M 51.05 72.2
Q 50.85 72.4 50.85 72.7
L 50.85 86.05
Q 50.85 86.3 51.05 86.5 51.2 86.75 51.5 86.75 51.8 86.75 52 86.5 52.2 86.3 52.2 86.05
L 52.2 72.7
Q 52.2 72.4 52 72.2 51.8 72 51.5 72 51.2 72 51.05 72.2
M 66.45 66.25
Q 66.45 66.5 66.65 66.7
L 77.6 77.3
Q 77.85 77.55 78.05 77.55 78.35 77.55 78.6 77.3 78.8 77.1 78.8 76.85 78.8 76.55 78.6 76.3
L 67.65 65.75
Q 67.4 65.5 67.15 65.5 66.85 65.5 66.65 65.75 66.45 65.95 66.45 66.25
M 36.35 65.5
Q 36.1 65.25 35.9 65.25 35.6 65.25 35.4 65.5
L 26.15 76.15
Q 25.9 76.3 25.9 76.6 25.9 76.9 26.2 77.1 26.45 77.25 26.7 77.25 27 77.25 27.2 77.05
L 36.35 66.5 36.4 66.4
Q 36.55 66.2 36.55 65.95 36.55 65.6 36.35 65.5
M 29.65 51.7
Q 29.85 51.7 30.05 51.5 30.25 51.3 30.25 51 30.25 50.7 30.05 50.55 29.85 50.3 29.6 50.3
L 18.2 50.3
Q 17.95 50.3 17.7 50.55 17.55 50.7 17.55 51 17.55 51.3 17.7 51.5 17.95 51.7 18.2 51.7
L 29.65 51.7
M 35.1 35.9
L 35.1 36
Q 35.35 36.15 35.65 36.15 35.95 36.15 36.15 35.9 36.3 35.75 36.3 35.45 36.3 35.05 36.1 34.95
L 26.85 26.25
Q 26.6 26 26.35 26 26 26 25.85 26.25 25.65 26.45 25.65 26.8 25.65 27.1 25.85 27.3
L 35.1 35.9
M 76.7 26.8
Q 76.9 26.6 76.9 26.3 76.9 26 76.7 25.85 76.45 25.6 76.2 25.6 75.9 25.6 75.7 25.85
L 66.85 34.6
Q 66.65 34.8 66.65 35.05 66.65 35.35 66.85 35.6 67.1 35.8 67.4 35.8 67.65 35.8 67.85 35.6
L 76.7 26.8
M 52.2 18.4
Q 52.2 18.1 52 17.9 51.8 17.7 51.5 17.7 51.2 17.7 51.05 17.9 50.85 18.1 50.85 18.4
L 50.85 28.45
Q 50.85 28.75 51.05 29 51.2 29.2 51.5 29.2 51.8 29.2 52 29 52.2 28.75 52.2 28.45
L 52.2 18.4
M 86.65 51
Q 86.65 50.7 86.45 50.55 86.2 50.3 85.95 50.3
L 73.75 50.3
Q 73.45 50.3 73.25 50.55 73.05 50.7 73.05 51 73.05 51.3 73.25 51.5 73.45 51.7 73.75 51.7
L 85.95 51.7
Q 86.2 51.7 86.45 51.5 86.65 51.3 86.65 51 Z"/>

<path fill="url(#Gradient_1)" stroke="none" d="
M 60.5 70.95
Q 59.8 71.25 59.2 71.4 59.35 74.3 59.35 77.55 59.35 83.85 58.6 89.05 60.35 91.9 62.25 94.3 67.15 100.3 70.15 99.15 73.15 98 72.45 90.25 72.2 85.9 70.85 81 67.65 78.35 64.25 75 62.25 72.95 60.5 70.95 Z"/>

<path fill="url(#Gradient_2)" stroke="none" d="
M 50.2 72.7
Q 46.85 72.4 43.85 71.35 43.7 74.3 43.7 77.55 43.7 82.15 44.15 86.2 44.65 91.35 46 95.55 47.7 101 49.85 102.5 51.25 103.55 53.2 102.5 55.35 101 57.05 95.55 57.95 92.55 58.6 89.05 59.35 83.85 59.35 77.55 59.35 74.3 59.2 71.4 55.95 72.6 52.2 72.7
L 52.2 86.05
Q 52.2 86.3 52 86.5 51.8 86.75 51.5 86.75 51.2 86.75 51.05 86.5 50.85 86.3 50.85 86.05
L 50.85 72.7
Q 50.45 72.7 50.2 72.7 Z"/>

<path fill="url(#Gradient_3)" stroke="none" d="
M 30.65 98.7
Q 33.7 100 38.8 93.95 41.55 90.65 44.15 86.2 43.7 82.15 43.7 77.55 43.7 74.3 43.85 71.35 43.25 71.1 42.7 70.85 40.85 72.9 38.7 75.1 34.2 79.55 29.85 82.75 28.95 86.3 28.6 89.5 27.75 97.4 30.65 98.7 Z"/>

<path fill="url(#Gradient_4)" stroke="none" d="
M 27.5 63.9
Q 23.85 67.65 21.1 71.15 18.3 74.8 16.45 78.3 12.8 85.25 15.1 87.55 17.4 89.8 24.2 86.1 27 84.65 29.85 82.75 34.2 79.55 38.7 75.1 40.85 72.9 42.7 70.85 39.25 69.35 36.35 66.5
L 27.2 77.05
Q 27 77.25 26.7 77.25 26.45 77.25 26.2 77.1 25.9 76.9 25.9 76.6 25.9 76.3 26.15 76.15
L 35.4 65.5
Q 33.05 62.95 31.65 60.05 29.65 61.8 27.5 63.9 Z"/>

<path fill="url(#Gradient_5)" stroke="none" d="
M 31.65 60.05
Q 31.35 59.45 31.1 58.8 28.35 58.9 25.5 58.9 19.4 58.9 14.4 58.15 10.85 60.2 8.1 62.45 2 67.4 3.2 70.45 4.4 73.3 12.15 72.7 16.3 72.4 21.1 71.15 23.85 67.65 27.5 63.9 29.65 61.8 31.65 60.05 Z"/>

<path fill="url(#Gradient_6)" stroke="none" d="
M 13.25 29
Q 5.35 28.15 4.1 31.05 2.85 34.1 8.8 39.15 11.7 41.6 15.45 43.85 20 43.25 25.5 43.25 28.2 43.25 30.75 43.35 30.95 42.55 31.35 41.8 29.45 40.1 27.5 38.25 23.55 34.2 20.7 30.4 16.75 29.3 13.25 29 Z"/>

<path fill="url(#Gradient_7)" stroke="none" d="
M 15.45 43.85
Q 11.1 44.4 7.5 45.55 0 47.85 0 51.1 0 54.3 7.5 56.6 10.65 57.6 14.4 58.15 19.4 58.9 25.5 58.9 28.35 58.9 31.1 58.8 29.8 55.5 29.65 51.7
L 18.2 51.7
Q 17.95 51.7 17.7 51.5 17.55 51.3 17.55 51 17.55 50.7 17.7 50.55 17.95 50.3 18.2 50.3
L 29.6 50.3
Q 29.65 46.65 30.75 43.35 28.2 43.25 25.5 43.25 20 43.25 15.45 43.85 Z"/>

<path fill="url(#Gradient_8)" stroke="none" d="
M 30.9 20.25
Q 27.5 17.7 24.3 16 17.4 12.35 15.1 14.65 12.8 16.9 16.55 23.8 18.15 27 20.7 30.4 23.55 34.2 27.5 38.25 29.45 40.1 31.35 41.8 32.65 38.65 35.1 36
L 35.1 35.9 25.85 27.3
Q 25.65 27.1 25.65 26.8 25.65 26.45 25.85 26.25 26 26 26.35 26 26.6 26 26.85 26.25
L 36.1 34.95
Q 36.1 34.9 36.15 34.8 38.9 32.15 42.05 30.65 40.45 28.85 38.7 27.1 34.7 23.1 30.9 20.25 Z"/>

<path fill="url(#Gradient_9)" stroke="none" d="
M 43.8 29.9
Q 43.7 27.75 43.7 25.55 43.7 19.8 44.4 14.95 42.25 11.15 39.85 8.3 34.95 2.15 32.05 3.45 29 4.6 29.65 12.35 29.9 16.05 30.9 20.25 34.7 23.1 38.7 27.1 40.45 28.85 42.05 30.65 42.9 30.25 43.8 29.9 Z"/>

<path fill="url(#Gradient_10)" stroke="none" d="
M 57.05 7.45
Q 54.75 0 51.5 0 48.3 0 46 7.45 44.95 10.9 44.4 14.95 43.7 19.8 43.7 25.55 43.7 27.75 43.8 29.9 46.9 28.7 50.4 28.55 50.6 28.45 50.85 28.45
L 50.85 18.4
Q 50.85 18.1 51.05 17.9 51.2 17.7 51.5 17.7 51.8 17.7 52 17.9 52.2 18.1 52.2 18.4
L 52.2 28.45
Q 52.3 28.45 52.35 28.45 56 28.6 59.3 29.75 59.35 27.7 59.35 25.55 59.35 19.85 58.75 15.2 58.1 10.95 57.05 7.45 Z"/>

<path fill="url(#Gradient_11)" stroke="none" d="
M 72.15 20.25
Q 73.15 16.4 73.55 12.95 74.4 5.3 71.4 4 68.4 2.7 63.35 8.6 60.9 11.45 58.75 15.2 59.35 19.85 59.35 25.55 59.35 27.7 59.3 29.75 60.2 30.1 61.1 30.5 62.6 28.85 64.25 27.15 68.25 23.15 72.15 20.25 Z"/>

<path fill="url(#Gradient_12)" stroke="none" d="
M 87.9 87.55
Q 90.25 85.25 86.6 78.35 85.1 75.55 83.05 72.7 79.9 68.35 75.45 63.85 73.45 61.9 71.55 60.3 70.1 63.2 67.65 65.75
L 78.6 76.3
Q 78.8 76.55 78.8 76.85 78.8 77.1 78.6 77.3 78.35 77.55 78.05 77.55 77.85 77.55 77.6 77.3
L 66.65 66.7
Q 66.25 67.15 65.8 67.5 63.3 69.65 60.5 70.95 62.25 72.95 64.25 75 67.65 78.35 70.85 81 74.85 84.15 78.8 86.15 85.65 89.8 87.9 87.55 Z"/>

<path fill="url(#Gradient_13)" stroke="none" d="
M 83.05 72.7
Q 86.6 73.6 89.75 73.95 97.55 74.8 98.8 71.8 100.05 68.8 94.15 63.8 90.95 60.95 86.5 58.45 82.3 58.9 77.45 58.9 74.75 58.9 72.3 58.8 71.95 59.5 71.55 60.3 73.45 61.9 75.45 63.85 79.9 68.35 83.05 72.7 Z"/>

<path fill="url(#Gradient_14)" stroke="none" d="
M 95.55 45.55
Q 92.25 44.55 88.5 44 83.45 43.25 77.45 43.25 74.95 43.25 72.6 43.35 73.7 46.55 73.75 50.3
L 85.95 50.3
Q 86.2 50.3 86.45 50.55 86.65 50.7 86.65 51 86.65 51.3 86.45 51.5 86.2 51.7 85.95 51.7
L 73.75 51.7
Q 73.7 52.15 73.7 52.55 73.4 55.85 72.3 58.8 74.75 58.9 77.45 58.9 82.3 58.9 86.5 58.45 91.5 57.9 95.55 56.6 103 54.3 103 51.1 103 47.85 95.55 45.55 Z"/>

<path fill="url(#Gradient_15)" stroke="none" d="
M 94.1 40.05
Q 100.1 35.2 98.9 32.2 97.7 29.2 90 29.85 86.1 30.1 81.75 31.2 79 34.75 75.45 38.3 73.7 40.05 71.95 41.65 72.3 42.45 72.6 43.35 74.95 43.25 77.45 43.25 83.45 43.25 88.5 44 91.55 42.1 94.1 40.05 Z"/>

<path fill="url(#Gradient_16)" stroke="none" d="
M 86.6 23.8
Q 90.25 16.9 87.95 14.65 85.65 12.35 78.8 16 75.5 17.7 72.15 20.25 68.25 23.15 64.25 27.15 62.6 28.85 61.1 30.5 64.15 32 66.7 34.45 66.8 34.5 66.85 34.6
L 75.7 25.85
Q 75.9 25.6 76.2 25.6 76.45 25.6 76.7 25.85 76.9 26 76.9 26.3 76.9 26.6 76.7 26.8
L 67.85 35.6
Q 68.1 35.8 68.25 36.05 70.6 38.65 71.95 41.65 73.7 40.05 75.45 38.3 79 34.75 81.75 31.2 84.65 27.45 86.6 23.8 Z"/>
</g>

<g id="Layer0_0_MEMBER_0_FILL">
<path fill="#FF9900" stroke="none" d="
M 351.85 377.1
Q 349.25 379.9 347.85 383.25 347.45 384.05 347.25 384.9 346 388.4 346 392.35 346 392.5 346 392.55 346 392.8 346 393 346 393.3 346.05 393.6 346.15 397.7 347.6 401.25 347.85 401.95 348.2 402.6 349.7 405.8 352.4 408.55 352.45 408.7 352.7 408.85 352.75 409 352.85 409.1 352.9 409.15 353.05 409.3 356.15 412.35 359.9 414.05 360.5 414.3 361.15 414.6 364.3 415.7 367.85 416 368.45 416 369.1 416 369.2 416 369.25 416 369.35 416 369.4 416 373.65 416 377.4 414.65 378.05 414.45 378.8 414.15 381.75 412.8 384.45 410.5 385.05 409.95 385.65 409.35 385.8 409.25 385.85 409.15
L 385.95 409.1
Q 388.85 406.15 390.55 402.85 390.95 402 391.3 401.25 392.5 398.15 392.8 394.65 392.85 393.8 392.85 393 392.85 392.8 392.85 392.55 392.85 388.45 391.65 384.9 391.3 383.9 390.95 383.1 389.5 379.9 387.05 377.15 386.55 376.55 386.1 376.1 386 376.05 385.95 375.95 385.65 375.65 385.4 375.45 382.65 372.85 379.45 371.25 378.5 370.85 377.55 370.45 374.05 369.25 370.15 369.1 369.8 369.1 369.4 369.1 369.35 369.1 369.25 369.1 368.7 369.1 368.1 369.2 364.35 369.35 361.1 370.6 360.1 371 359.25 371.4 355.9 373 352.95 375.8 352.9 375.9 352.85 375.95 352.6 376.2 352.4 376.5 352.1 376.8 351.85 377.1 Z"/>
</g>
</defs>

<g transform="matrix( 1, 0, 0, 1, 0,0) ">
<use xlink:href="#Layer1_0_FILL"/>
</g>

<g transform="matrix( 1, 0, 0, 1, 0,0) ">
<use xlink:href="#Layer0_0_FILL"/>
</g>

<g transform="matrix( 0.962432861328125, 0, 0, 0.962890625, -303.85,-327.4) ">
<use xlink:href="#Layer0_0_MEMBER_0_FILL"/>
</g>
</svg>
