
<svg xmlns="http://www.w3.org/2000/svg" version="1.1" xmlns:xlink="http://www.w3.org/1999/xlink" preserveAspectRatio="none" x="0px" y="0px" width="103px" height="103px" viewBox="0 0 103 103">
<defs>
<linearGradient id="Gradient_1" gradientUnits="userSpaceOnUse" x1="68.6625" y1="99.2875" x2="60.8375" y2="70.7125" spreadMethod="pad">
<stop  offset="0%" stop-color="#E2A57C"/>

<stop  offset="15.294117647058824%" stop-color="#BE5813"/>

<stop  offset="48.23529411764706%" stop-color="#984E1C"/>

<stop  offset="100%" stop-color="#41230F"/>
</linearGradient>

<linearGradient id="Gradient_2" gradientUnits="userSpaceOnUse" x1="49.762499999999996" y1="102.65" x2="51.8375" y2="70.75" spreadMethod="pad">
<stop  offset="0%" stop-color="#E2A57C"/>

<stop  offset="20.392156862745097%" stop-color="#FF6600"/>

<stop  offset="71.76470588235294%" stop-color="#EA6105"/>

<stop  offset="100%" stop-color="#874920"/>
</linearGradient>

<linearGradient id="Gradient_3" gradientUnits="userSpaceOnUse" x1="30.3625" y1="98.3125" x2="43.337500000000006" y2="70.88749999999999" spreadMethod="pad">
<stop  offset="0%" stop-color="#E2A57C"/>

<stop  offset="15.294117647058824%" stop-color="#BE5813"/>

<stop  offset="48.23529411764706%" stop-color="#984E1C"/>

<stop  offset="100%" stop-color="#41230F"/>
</linearGradient>

<linearGradient id="Gradient_4" gradientUnits="userSpaceOnUse" x1="14.237499999999999" y1="74.05" x2="42.6625" y2="74.05" spreadMethod="pad">
<stop  offset="0%" stop-color="#E2A57C"/>

<stop  offset="20.392156862745097%" stop-color="#FF6600"/>

<stop  offset="71.76470588235294%" stop-color="#EA6105"/>

<stop  offset="100%" stop-color="#874920"/>
</linearGradient>

<linearGradient id="Gradient_5" gradientUnits="userSpaceOnUse" x1="3.0124999999999993" y1="69.63749999999999" x2="31.4875" y2="59.56249999999999" spreadMethod="pad">
<stop  offset="0%" stop-color="#E2A57C"/>

<stop  offset="15.294117647058824%" stop-color="#BE5813"/>

<stop  offset="48.23529411764706%" stop-color="#984E1C"/>

<stop  offset="100%" stop-color="#41230F"/>
</linearGradient>

<linearGradient id="Gradient_6" gradientUnits="userSpaceOnUse" x1="3.8625000000000007" y1="36.1" x2="31.2375" y2="36.1" spreadMethod="pad">
<stop  offset="0%" stop-color="#E2A57C"/>

<stop  offset="15.294117647058824%" stop-color="#BE5813"/>

<stop  offset="48.23529411764706%" stop-color="#984E1C"/>

<stop  offset="100%" stop-color="#41230F"/>
</linearGradient>

<linearGradient id="Gradient_7" gradientUnits="userSpaceOnUse" x1="-0.05000000000000071" y1="50.9" x2="31.05" y2="50.9" spreadMethod="pad">
<stop  offset="0%" stop-color="#E2A57C"/>

<stop  offset="20.392156862745097%" stop-color="#FF6600"/>

<stop  offset="71.76470588235294%" stop-color="#EA6105"/>

<stop  offset="100%" stop-color="#874920"/>
</linearGradient>

<linearGradient id="Gradient_8" gradientUnits="userSpaceOnUse" x1="14.15" y1="27.6" x2="41.95" y2="27.6" spreadMethod="pad">
<stop  offset="0%" stop-color="#E2A57C"/>

<stop  offset="15.294117647058824%" stop-color="#FF6600"/>

<stop  offset="71.76470588235294%" stop-color="#EA6105"/>

<stop  offset="100%" stop-color="#874920"/>
</linearGradient>

<linearGradient id="Gradient_9" gradientUnits="userSpaceOnUse" x1="33.125" y1="2.9499999999999993" x2="41.575" y2="30.55" spreadMethod="pad">
<stop  offset="0%" stop-color="#E2A57C"/>

<stop  offset="15.294117647058824%" stop-color="#BE5813"/>

<stop  offset="48.23529411764706%" stop-color="#984E1C"/>

<stop  offset="100%" stop-color="#41230F"/>
</linearGradient>

<linearGradient id="Gradient_10" gradientUnits="userSpaceOnUse" x1="51.5" y1="-0.125" x2="51.5" y2="29.725" spreadMethod="pad">
<stop  offset="0%" stop-color="#E2A57C"/>

<stop  offset="20.392156862745097%" stop-color="#FF6600"/>

<stop  offset="71.76470588235294%" stop-color="#EA6105"/>

<stop  offset="100%" stop-color="#874920"/>
</linearGradient>

<linearGradient id="Gradient_11" gradientUnits="userSpaceOnUse" x1="62.587500000000006" y1="5.737499999999999" x2="69.3125" y2="27.762500000000003" spreadMethod="pad">
<stop  offset="0%" stop-color="#E2A57C"/>

<stop  offset="15.294117647058824%" stop-color="#BE5813"/>

<stop  offset="48.23529411764706%" stop-color="#984E1C"/>

<stop  offset="100%" stop-color="#41230F"/>
</linearGradient>

<linearGradient id="Gradient_12" gradientUnits="userSpaceOnUse" x1="90.63749999999999" y1="76.875" x2="60.56249999999999" y2="70.225" spreadMethod="pad">
<stop  offset="0%" stop-color="#E2A57C"/>

<stop  offset="20.392156862745097%" stop-color="#FF6600"/>

<stop  offset="71.76470588235294%" stop-color="#EA6105"/>

<stop  offset="100%" stop-color="#874920"/>
</linearGradient>

<linearGradient id="Gradient_13" gradientUnits="userSpaceOnUse" x1="98.875" y1="71.41250000000001" x2="71.725" y2="59.8875" spreadMethod="pad">
<stop  offset="0%" stop-color="#E2A57C"/>

<stop  offset="15.294117647058824%" stop-color="#BE5813"/>

<stop  offset="48.23529411764706%" stop-color="#984E1C"/>

<stop  offset="100%" stop-color="#41230F"/>
</linearGradient>

<linearGradient id="Gradient_14" gradientUnits="userSpaceOnUse" x1="101.8625" y1="55.9375" x2="71.2375" y2="49.162499999999994" spreadMethod="pad">
<stop  offset="0%" stop-color="#E2A57C"/>

<stop  offset="20.392156862745097%" stop-color="#FF6600"/>

<stop  offset="71.76470588235294%" stop-color="#EA6105"/>

<stop  offset="100%" stop-color="#874920"/>
</linearGradient>

<linearGradient id="Gradient_15" gradientUnits="userSpaceOnUse" x1="99.38749999999999" y1="33.800000000000004" x2="71.8125" y2="40.9" spreadMethod="pad">
<stop  offset="0%" stop-color="#E2A57C"/>

<stop  offset="15.294117647058824%" stop-color="#BE5813"/>

<stop  offset="48.23529411764706%" stop-color="#984E1C"/>

<stop  offset="100%" stop-color="#41230F"/>
</linearGradient>

<linearGradient id="Gradient_16" gradientUnits="userSpaceOnUse" x1="87.47500000000001" y1="14.099999999999998" x2="66.425" y2="36.2" spreadMethod="pad">
<stop  offset="0%" stop-color="#E2A57C"/>

<stop  offset="20.392156862745097%" stop-color="#FF6600"/>

<stop  offset="71.76470588235294%" stop-color="#EA6105"/>

<stop  offset="100%" stop-color="#874920"/>
</linearGradient>

<g id="Layer1_0_FILL">
<path fill="#974209" stroke="none" d="
M 81.8 31.1
Q 84.7 27.35 86.6 23.65 90.25 16.85 88.05 14.6 85.65 12.3 78.8 15.95 75.55 17.6 72.2 20.2 73.2 16.3 73.5 12.9 74.4 5.15 71.35 3.95 68.45 2.65 63.4 8.55 60.95 11.35 58.8 15.05 58.1 10.9 57.1 7.4 54.75 0 51.55 0 48.3 0 46 7.4 44.95 10.85 44.35 14.8 42.25 11.15 39.9 8.2 34.95 2.15 32.05 3.4 29 4.55 29.7 12.3 29.9 16 30.95 20.2 27.55 17.6 24.35 15.95 17.4 12.3 15.1 14.6 12.8 16.85 16.5 23.65 18.15 27 20.7 30.3 16.75 29.25 13.25 28.9 5.45 28.05 4.15 30.95 2.9 34 8.85 39.1 11.7 41.55 15.5 43.75 11.15 44.3 7.5 45.4 0 47.7 0 51 0 54.2 7.5 56.5 10.65 57.45 14.45 58.05 10.85 60.05 8.1 62.3 2 67.3 3.2 70.35 4.4 73.15 12.2 72.55 16.35 72.25 21.15 71 18.3 74.65 16.45 78.15 12.8 85.1 15.2 87.45 17.4 89.7 24.25 85.95 27 84.5 29.85 82.6 28.95 86.2 28.6 89.4 27.75 97.25 30.75 98.6 33.7 99.75 38.75 93.7 41.6 90.5 44.2 86.1 44.65 91.2 46 95.4 47.7 100.85 49.85 102.35 51.45 103.65 53.2 102.35 55.35 100.85 57.1 95.4 57.95 92.4 58.65 88.85 60.35 91.7 62.3 94.15 67.2 100.1 70.15 99 73.15 97.85 72.5 90.1 72.25 85.75 70.9 80.8 74.85 83.95 78.8 86.05 85.65 89.7 87.95 87.45 90.25 85.1 86.6 78.2 85.15 75.4 83.1 72.55 86.6 73.45 89.75 73.85 97.55 74.65 98.8 71.65 100.1 68.7 94.15 63.65 90.95 60.9 86.55 58.35 91.55 57.75 95.55 56.5 103 54.2 103 51 103 47.7 95.55 45.4 92.25 44.45 88.5 43.9 91.6 42 94.15 39.95 100.15 35.2 98.95 32.1 97.8 29.1 90.05 29.7 86.1 30 81.8 31.1 Z"/>
</g>

<g id="Layer0_0_FILL">
<path fill="url(#Gradient_1)" stroke="none" d="
M 60.5 70.8
Q 59.85 71.05 59.15 71.3 59.4 74.2 59.4 77.4 59.4 83.7 58.65 88.85 60.35 91.7 62.3 94.15 67.2 100.1 70.15 99 73.15 97.85 72.5 90.1 72.25 85.75 70.9 80.8 67.65 78.2 64.3 74.85 62.3 72.85 60.5 70.8 Z"/>

<path fill="#AF5214" stroke="none" d="
M 52.25 72.55
Q 52.25 72.25 52 72.05 51.8 71.9 51.55 71.9 51.25 71.9 51.05 72.05 50.8 72.25 50.8 72.55
L 50.8 85.9
Q 50.8 86.2 51.05 86.4 51.25 86.55 51.55 86.55 51.8 86.55 52 86.4 52.25 86.2 52.25 85.9
L 52.25 72.55
M 67.65 65.65
Q 67.4 65.4 67.2 65.4 66.9 65.4 66.7 65.65 66.45 65.8 66.45 66.1 66.45 66.4 66.7 66.6
L 77.6 77.2
Q 77.85 77.4 78.15 77.4 78.35 77.4 78.6 77.2 78.8 76.95 78.8 76.75 78.8 76.4 78.6 76.15
L 67.65 65.65
M 36.45 66.3
Q 36.6 66 36.6 65.8 36.6 65.5 36.4 65.35 36.1 65.1 35.85 65.1 35.65 65.1 35.4 65.35
L 35.4 65.4 26.1 75.95
Q 25.95 76.15 25.95 76.45 25.95 76.75 26.2 76.95 26.4 77.1 26.7 77.1 27 77.1 27.25 76.9
L 36.4 66.4 36.45 66.3
M 29.7 51.6
Q 29.85 51.6 30.05 51.4 30.3 51.25 30.3 50.9 30.3 50.6 30.05 50.4 29.85 50.15 29.6 50.15
L 18.25 50.15
Q 17.95 50.15 17.7 50.4 17.55 50.6 17.55 50.9 17.55 51.25 17.7 51.4 17.95 51.6 18.25 51.6
L 29.7 51.6
M 36.3 35.4
Q 36.3 35.05 36.1 34.9
L 26.85 26.2
Q 26.65 25.95 26.35 25.95 26.05 25.95 25.9 26.2 25.65 26.4 25.65 26.75 25.65 27 25.9 27.2
L 35.1 35.8 35.1 35.9
Q 35.35 36.05 35.7 36.05 35.95 36.05 36.15 35.8 36.3 35.65 36.3 35.4
M 76.7 26.75
Q 76.95 26.55 76.95 26.25 76.95 25.95 76.7 25.8 76.5 25.6 76.2 25.6 75.9 25.6 75.75 25.8
L 66.9 34.5
Q 66.7 34.75 66.7 35.05 66.7 35.35 66.9 35.5 67.1 35.65 67.4 35.65 67.65 35.65 67.85 35.5
L 76.7 26.75
M 51.05 17.85
Q 50.8 18.05 50.8 18.35
L 50.8 28.35
Q 50.8 28.65 51.05 28.9 51.25 29.1 51.55 29.1 51.8 29.1 52 28.9 52.25 28.65 52.25 28.35
L 52.25 18.35
Q 52.25 18.05 52 17.85 51.8 17.6 51.55 17.6 51.25 17.6 51.05 17.85
M 85.95 51.6
Q 86.25 51.6 86.45 51.4 86.7 51.25 86.7 50.9 86.7 50.6 86.45 50.4 86.25 50.15 85.95 50.15
L 73.75 50.15
Q 73.5 50.15 73.3 50.4 73.05 50.6 73.05 50.9 73.05 51.25 73.3 51.4 73.5 51.6 73.75 51.6
L 85.95 51.6 Z"/>

<path fill="url(#Gradient_2)" stroke="none" d="
M 50.25 72.55
Q 46.8 72.25 43.9 71.2 43.7 74.2 43.7 77.4 43.7 82 44.2 86.1 44.65 91.2 46 95.4 47.7 100.85 49.85 102.35 51.45 103.65 53.2 102.35 55.35 100.85 57.1 95.4 57.95 92.4 58.65 88.85 59.4 83.7 59.4 77.4 59.4 74.2 59.15 71.3 55.95 72.5 52.25 72.55
L 52.25 85.9
Q 52.25 86.2 52 86.4 51.8 86.55 51.55 86.55 51.25 86.55 51.05 86.4 50.8 86.2 50.8 85.9
L 50.8 72.55
Q 50.45 72.55 50.25 72.55 Z"/>

<path fill="url(#Gradient_3)" stroke="none" d="
M 30.75 98.6
Q 33.7 99.75 38.75 93.7 41.6 90.5 44.2 86.1 43.7 82 43.7 77.4 43.7 74.2 43.9 71.2 43.25 70.95 42.7 70.7 40.85 72.8 38.7 74.95 34.25 79.4 29.85 82.6 28.95 86.2 28.6 89.4 27.75 97.25 30.75 98.6 Z"/>

<path fill="url(#Gradient_4)" stroke="none" d="
M 27.55 63.8
Q 23.8 67.45 21.15 71 18.3 74.65 16.45 78.15 12.8 85.1 15.2 87.45 17.4 89.7 24.25 85.95 27 84.5 29.85 82.6 34.25 79.4 38.7 74.95 40.85 72.8 42.7 70.7 39.3 69.2 36.4 66.4
L 27.25 76.9
Q 27 77.1 26.7 77.1 26.4 77.1 26.2 76.95 25.95 76.75 25.95 76.45 25.95 76.15 26.1 75.95
L 35.4 65.4 35.4 65.35
Q 33.05 62.8 31.7 59.9 29.7 61.7 27.55 63.8 Z"/>

<path fill="url(#Gradient_5)" stroke="none" d="
M 31.7 59.9
Q 31.35 59.3 31.1 58.65 28.45 58.8 25.5 58.8 19.4 58.8 14.45 58.05 10.85 60.05 8.1 62.3 2 67.3 3.2 70.35 4.4 73.15 12.2 72.55 16.35 72.25 21.15 71 23.8 67.45 27.55 63.8 29.7 61.7 31.7 59.9 Z"/>

<path fill="url(#Gradient_6)" stroke="none" d="
M 13.25 28.9
Q 5.45 28.05 4.15 30.95 2.9 34 8.85 39.1 11.7 41.55 15.5 43.75 20 43.15 25.5 43.15 28.3 43.15 30.8 43.3 30.95 42.5 31.35 41.7 29.45 40.05 27.55 38.1 23.6 34.2 20.7 30.3 16.75 29.25 13.25 28.9 Z"/>

<path fill="url(#Gradient_7)" stroke="none" d="
M 15.5 43.75
Q 11.15 44.3 7.5 45.4 0 47.7 0 51 0 54.2 7.5 56.5 10.65 57.45 14.45 58.05 19.4 58.8 25.5 58.8 28.45 58.8 31.1 58.65 29.75 55.35 29.7 51.6
L 18.25 51.6
Q 17.95 51.6 17.7 51.4 17.55 51.25 17.55 50.9 17.55 50.6 17.7 50.4 17.95 50.15 18.25 50.15
L 29.6 50.15
Q 29.7 46.5 30.8 43.3 28.3 43.15 25.5 43.15 20 43.15 15.5 43.75 Z"/>

<path fill="url(#Gradient_8)" stroke="none" d="
M 30.95 20.2
Q 27.55 17.6 24.35 15.95 17.4 12.3 15.1 14.6 12.8 16.85 16.5 23.65 18.15 27 20.7 30.3 23.6 34.2 27.55 38.1 29.45 40.05 31.35 41.7 32.65 38.55 35.1 35.9
L 35.1 35.8 25.9 27.2
Q 25.65 27 25.65 26.75 25.65 26.4 25.9 26.2 26.05 25.95 26.35 25.95 26.65 25.95 26.85 26.2
L 36.1 34.9
Q 36.1 34.8 36.15 34.75 38.9 32 42.05 30.6 40.5 28.75 38.7 27 34.7 23 30.95 20.2 Z"/>

<path fill="url(#Gradient_9)" stroke="none" d="
M 42.05 30.6
Q 42.95 30.15 43.85 29.75 43.7 27.75 43.7 25.45 43.7 19.7 44.35 14.8 42.25 11.15 39.9 8.2 34.95 2.15 32.05 3.4 29 4.55 29.7 12.3 29.9 16 30.95 20.2 34.7 23 38.7 27 40.5 28.75 42.05 30.6 Z"/>

<path fill="url(#Gradient_10)" stroke="none" d="
M 58.8 15.05
Q 58.1 10.9 57.1 7.4 54.75 0 51.55 0 48.3 0 46 7.4 44.95 10.85 44.35 14.8 43.7 19.7 43.7 25.45 43.7 27.75 43.85 29.75 46.9 28.6 50.45 28.45 50.6 28.35 50.8 28.35
L 50.8 18.35
Q 50.8 18.05 51.05 17.85 51.25 17.6 51.55 17.6 51.8 17.6 52 17.85 52.25 18.05 52.25 18.35
L 52.25 28.35
Q 52.3 28.35 52.4 28.35 56.05 28.5 59.3 29.65 59.4 27.65 59.4 25.45 59.4 19.8 58.8 15.05 Z"/>

<path fill="url(#Gradient_11)" stroke="none" d="
M 71.35 3.95
Q 68.45 2.65 63.4 8.55 60.95 11.35 58.8 15.05 59.4 19.8 59.4 25.45 59.4 27.65 59.3 29.65 60.2 30 61.15 30.45 62.6 28.75 64.3 27.05 68.3 23.1 72.2 20.2 73.2 16.3 73.5 12.9 74.4 5.15 71.35 3.95 Z"/>

<path fill="url(#Gradient_12)" stroke="none" d="
M 87.95 87.45
Q 90.25 85.1 86.6 78.2 85.15 75.4 83.1 72.55 79.9 68.25 75.45 63.7 73.5 61.75 71.6 60.15 70.1 63.1 67.65 65.65
L 78.6 76.15
Q 78.8 76.4 78.8 76.75 78.8 76.95 78.6 77.2 78.35 77.4 78.15 77.4 77.85 77.4 77.6 77.2
L 66.7 66.6
Q 66.25 67.05 65.85 67.35 63.35 69.5 60.5 70.8 62.3 72.85 64.3 74.85 67.65 78.2 70.9 80.8 74.85 83.95 78.8 86.05 85.65 89.7 87.95 87.45 Z"/>

<path fill="url(#Gradient_13)" stroke="none" d="
M 83.1 72.55
Q 86.6 73.45 89.75 73.85 97.55 74.65 98.8 71.65 100.1 68.7 94.15 63.65 90.95 60.9 86.55 58.35 82.3 58.8 77.45 58.8 74.7 58.8 72.25 58.65 71.95 59.4 71.6 60.15 73.5 61.75 75.45 63.7 79.9 68.25 83.1 72.55 Z"/>

<path fill="url(#Gradient_14)" stroke="none" d="
M 95.55 45.4
Q 92.25 44.45 88.5 43.9 83.4 43.15 77.45 43.15 74.95 43.15 72.65 43.3 73.65 46.45 73.75 50.15
L 85.95 50.15
Q 86.25 50.15 86.45 50.4 86.7 50.6 86.7 50.9 86.7 51.25 86.45 51.4 86.25 51.6 85.95 51.6
L 73.75 51.6
Q 73.65 52 73.65 52.45 73.45 55.75 72.25 58.65 74.7 58.8 77.45 58.8 82.3 58.8 86.55 58.35 91.55 57.75 95.55 56.5 103 54.2 103 51 103 47.7 95.55 45.4 Z"/>

<path fill="url(#Gradient_15)" stroke="none" d="
M 90.05 29.7
Q 86.1 30 81.8 31.1 79.05 34.65 75.45 38.2 73.65 39.95 71.95 41.55 72.25 42.35 72.65 43.3 74.95 43.15 77.45 43.15 83.4 43.15 88.5 43.9 91.6 42 94.15 39.95 100.15 35.2 98.95 32.1 97.8 29.1 90.05 29.7 Z"/>

<path fill="url(#Gradient_16)" stroke="none" d="
M 86.6 23.65
Q 90.25 16.85 88.05 14.6 85.65 12.3 78.8 15.95 75.55 17.6 72.2 20.2 68.3 23.1 64.3 27.05 62.6 28.75 61.15 30.45 64.15 31.85 66.75 34.35 66.8 34.45 66.9 34.5
L 75.75 25.8
Q 75.9 25.6 76.2 25.6 76.5 25.6 76.7 25.8 76.95 25.95 76.95 26.25 76.95 26.55 76.7 26.75
L 67.85 35.5
Q 68.1 35.65 68.3 35.95 70.6 38.55 71.95 41.55 73.65 39.95 75.45 38.2 79.05 34.65 81.8 31.1 84.7 27.35 86.6 23.65 Z"/>
</g>

<g id="Layer0_0_MEMBER_0_FILL">
<path fill="#FF9900" stroke="none" d="
M 59.45 29.2
Q 56.15 28.1 52.4 27.95 52 27.95 51.65 27.95
L 51.55 27.95
Q 51 27.95 50.45 28 46.8 28.15 43.7 29.35 42.75 29.7 41.85 30.2 38.65 31.65 35.85 34.35 35.8 34.45 35.7 34.5 35.55 34.75 35.3 35.05 35 35.3 34.8 35.6 32.25 38.35 30.95 41.5 30.55 42.35 30.4 43.1 29.15 46.45 29.15 50.2 29.15 50.35 29.15 50.45 29.15 50.7 29.15 50.95 29.15 51.25 29.25 51.45 29.3 55.35 30.7 58.8 30.95 59.5 31.3 60.1 32.7 63.2 35.3 65.9 35.4 66.05 35.55 66.1 35.65 66.25 35.7 66.35 35.8 66.4 35.95 66.55 38.95 69.5 42.5 71.15 43.1 71.35 43.75 71.65 46.7 72.7 50.2 73 50.75 73 51.4 73 51.5 73 51.55 73
L 51.65 73
Q 55.75 73 59.3 71.7 60 71.5 60.7 71.2 63.6 69.9 66.15 67.7 66.7 67.25 67.3 66.65 67.4 66.5 67.5 66.4
L 67.55 66.35
Q 70.3 63.6 72 60.3 72.35 59.55 72.65 58.8 73.9 55.85 74.1 52.5 74.2 51.7 74.2 50.95 74.2 50.7 74.2 50.45 74.2 46.5 73.1 43.1 72.65 42.2 72.35 41.35 71 38.35 68.65 35.7 68.15 35.15 67.7 34.65 67.65 34.6 67.55 34.5 67.3 34.2 67.05 34 64.4 31.5 61.35 30.05 60.35 29.55 59.45 29.2 Z"/>
</g>
</defs>

<g transform="matrix( 1, 0, 0, 1, 0,0) ">
<use xlink:href="#Layer1_0_FILL"/>
</g>

<g transform="matrix( 1, 0, 0, 1, 0,0) ">
<use xlink:href="#Layer0_0_FILL"/>
</g>

<g transform="matrix( 1, 0, 0, 1, 0,0) ">
<use xlink:href="#Layer0_0_MEMBER_0_FILL"/>
</g>
</svg>
