
<svg xmlns="http://www.w3.org/2000/svg" version="1.1" xmlns:xlink="http://www.w3.org/1999/xlink" preserveAspectRatio="none" x="0px" y="0px" width="103px" height="103px" viewBox="0 0 103 103">
<defs>
<linearGradient id="Gradient_1" gradientUnits="userSpaceOnUse" x1="51.2875" y1="109.16250000000001" x2="53.512499999999996" y2="75.2375" spreadMethod="pad">
<stop  offset="0%" stop-color="#FF9999"/>

<stop  offset="15.294117647058824%" stop-color="#FF6699"/>

<stop  offset="48.23529411764706%" stop-color="#FF6699"/>

<stop  offset="96.86274509803921%" stop-color="#721333"/>
</linearGradient>

<linearGradient id="Gradient_2" gradientUnits="userSpaceOnUse" x1="74.3375" y1="88.325" x2="60.0625" y2="92.47500000000001" spreadMethod="pad">
<stop  offset="0%" stop-color="#AD3A3A"/>

<stop  offset="15.294117647058824%" stop-color="#AA2854"/>

<stop  offset="48.23529411764706%" stop-color="#721031"/>

<stop  offset="100%" stop-color="#3F184D"/>
</linearGradient>

<linearGradient id="Gradient_3" gradientUnits="userSpaceOnUse" x1="31.200000000000003" y1="104.875" x2="43.7" y2="75.225" spreadMethod="pad">
<stop  offset="0%" stop-color="#AD3A3A"/>

<stop  offset="15.294117647058824%" stop-color="#AA2854"/>

<stop  offset="48.23529411764706%" stop-color="#721031"/>

<stop  offset="100%" stop-color="#3F184D"/>
</linearGradient>

<linearGradient id="Gradient_4" gradientUnits="userSpaceOnUse" x1="12.399999999999999" y1="90.2125" x2="39.1" y2="69.2875" spreadMethod="pad">
<stop  offset="0%" stop-color="#FF9999"/>

<stop  offset="15.294117647058824%" stop-color="#FF6699"/>

<stop  offset="48.23529411764706%" stop-color="#FF6699"/>

<stop  offset="96.86274509803921%" stop-color="#721333"/>
</linearGradient>

<linearGradient id="Gradient_5" gradientUnits="userSpaceOnUse" x1="1.987499999999999" y1="75.0625" x2="31.512500000000003" y2="62.637499999999996" spreadMethod="pad">
<stop  offset="0%" stop-color="#AD3A3A"/>

<stop  offset="15.294117647058824%" stop-color="#AA2854"/>

<stop  offset="48.23529411764706%" stop-color="#721031"/>

<stop  offset="100%" stop-color="#3F184D"/>
</linearGradient>

<linearGradient id="Gradient_6" gradientUnits="userSpaceOnUse" x1="8.962499999999999" y1="43.7375" x2="27.3375" y2="65.7625" spreadMethod="pad">
<stop  offset="0%" stop-color="#FF9999"/>

<stop  offset="15.294117647058824%" stop-color="#FF6699"/>

<stop  offset="48.23529411764706%" stop-color="#FF6699"/>

<stop  offset="96.86274509803921%" stop-color="#721333"/>
</linearGradient>

<linearGradient id="Gradient_7" gradientUnits="userSpaceOnUse" x1="2.8625000000000007" y1="32.7375" x2="31.2375" y2="45.5625" spreadMethod="pad">
<stop  offset="0%" stop-color="#AD3A3A"/>

<stop  offset="15.294117647058824%" stop-color="#AA2854"/>

<stop  offset="48.23529411764706%" stop-color="#721031"/>

<stop  offset="100%" stop-color="#3F184D"/>
</linearGradient>

<linearGradient id="Gradient_8" gradientUnits="userSpaceOnUse" x1="16.3375" y1="13.949999999999998" x2="37.5625" y2="39.35" spreadMethod="pad">
<stop  offset="0%" stop-color="#FF9999"/>

<stop  offset="15.294117647058824%" stop-color="#FF6699"/>

<stop  offset="48.23529411764706%" stop-color="#FF6699"/>

<stop  offset="96.86274509803921%" stop-color="#721333"/>
</linearGradient>

<linearGradient id="Gradient_9" gradientUnits="userSpaceOnUse" x1="53.05" y1="-1.7763568394002505e-15" x2="53.05" y2="31.700000000000003" spreadMethod="pad">
<stop  offset="0%" stop-color="#FF9999"/>

<stop  offset="15.294117647058824%" stop-color="#FF6699"/>

<stop  offset="48.23529411764706%" stop-color="#FF6699"/>

<stop  offset="96.86274509803921%" stop-color="#721333"/>
</linearGradient>

<linearGradient id="Gradient_10" gradientUnits="userSpaceOnUse" x1="32.099999999999994" y1="3.6750000000000007" x2="44" y2="32.025000000000006" spreadMethod="pad">
<stop  offset="0%" stop-color="#AD3A3A"/>

<stop  offset="15.294117647058824%" stop-color="#AA2854"/>

<stop  offset="48.23529411764706%" stop-color="#721031"/>

<stop  offset="100%" stop-color="#3F184D"/>
</linearGradient>

<linearGradient id="Gradient_11" gradientUnits="userSpaceOnUse" x1="64.8125" y1="6.249999999999998" x2="71.98750000000001" y2="29.65" spreadMethod="pad">
<stop  offset="0%" stop-color="#AD3A3A"/>

<stop  offset="15.294117647058824%" stop-color="#AA2854"/>

<stop  offset="48.23529411764706%" stop-color="#721031"/>

<stop  offset="100%" stop-color="#3F184D"/>
</linearGradient>

<linearGradient id="Gradient_12" gradientUnits="userSpaceOnUse" x1="94.625" y1="81.75" x2="62.675000000000004" y2="74.65" spreadMethod="pad">
<stop  offset="0%" stop-color="#FF9999"/>

<stop  offset="15.294117647058824%" stop-color="#FF6699"/>

<stop  offset="48.23529411764706%" stop-color="#FF6699"/>

<stop  offset="96.86274509803921%" stop-color="#721333"/>
</linearGradient>

<linearGradient id="Gradient_13" gradientUnits="userSpaceOnUse" x1="102.8" y1="76.89999999999999" x2="74.89999999999999" y2="62.8" spreadMethod="pad">
<stop  offset="0%" stop-color="#AD3A3A"/>

<stop  offset="15.294117647058824%" stop-color="#AA2854"/>

<stop  offset="48.23529411764706%" stop-color="#721031"/>

<stop  offset="100%" stop-color="#3F184D"/>
</linearGradient>

<linearGradient id="Gradient_14" gradientUnits="userSpaceOnUse" x1="106.5" y1="59.550000000000004" x2="74" y2="52.35" spreadMethod="pad">
<stop  offset="0%" stop-color="#FF9999"/>

<stop  offset="15.294117647058824%" stop-color="#FF6699"/>

<stop  offset="48.23529411764706%" stop-color="#FF6699"/>

<stop  offset="96.86274509803921%" stop-color="#721333"/>
</linearGradient>

<linearGradient id="Gradient_15" gradientUnits="userSpaceOnUse" x1="103.7125" y1="35.5" x2="74.5875" y2="44" spreadMethod="pad">
<stop  offset="0%" stop-color="#AD3A3A"/>

<stop  offset="15.294117647058824%" stop-color="#AA2854"/>

<stop  offset="48.23529411764706%" stop-color="#721031"/>

<stop  offset="100%" stop-color="#3F184D"/>
</linearGradient>

<linearGradient id="Gradient_16" gradientUnits="userSpaceOnUse" x1="91.2875" y1="15.1125" x2="68.9125" y2="38.587500000000006" spreadMethod="pad">
<stop  offset="0%" stop-color="#FF9999"/>

<stop  offset="15.294117647058824%" stop-color="#FF6699"/>

<stop  offset="48.23529411764706%" stop-color="#FF6699"/>

<stop  offset="96.86274509803921%" stop-color="#721333"/>
</linearGradient>

<g id="Layer1_0_FILL">
<path fill="#86183D" stroke="none" d="
M 81.8 31.1
Q 84.7 27.35 86.6 23.65 90.25 16.85 88.05 14.6 85.65 12.3 78.8 15.95 75.55 17.6 72.2 20.2 73.2 16.3 73.5 12.9 74.4 5.15 71.35 3.95 68.45 2.65 63.4 8.55 60.95 11.35 58.8 15.05 58.1 10.9 57.1 7.4 54.75 0 51.55 0 48.3 0 46 7.4 44.95 10.85 44.35 14.8 42.25 11.15 39.9 8.2 34.95 2.15 32.05 3.4 29 4.55 29.7 12.3 29.9 16 30.95 20.2 27.55 17.6 24.35 15.95 17.4 12.3 15.1 14.6 12.8 16.85 16.5 23.65 18.15 27 20.7 30.3 16.75 29.25 13.25 28.9 5.45 28.05 4.15 30.95 2.9 34 8.85 39.1 11.7 41.55 15.5 43.75 11.15 44.3 7.5 45.4 0 47.7 0 51 0 54.2 7.5 56.5 10.65 57.45 14.45 58.05 10.85 60.05 8.1 62.3 2 67.3 3.2 70.35 4.4 73.15 12.2 72.55 16.35 72.25 21.15 71 18.3 74.65 16.45 78.15 12.8 85.1 15.2 87.45 17.4 89.7 24.25 85.95 27 84.5 29.85 82.6 28.95 86.2 28.6 89.4 27.75 97.25 30.75 98.6 33.7 99.75 38.75 93.7 41.6 90.5 44.2 86.1 44.65 91.2 46 95.4 47.7 100.85 49.85 102.35 51.45 103.65 53.2 102.35 55.35 100.85 57.1 95.4 57.95 92.4 58.65 88.85 60.35 91.7 62.3 94.15 67.2 100.1 70.15 99 73.15 97.85 72.5 90.1 72.25 85.75 70.9 80.8 74.85 83.95 78.8 86.05 85.65 89.7 87.95 87.45 90.25 85.1 86.6 78.2 85.15 75.4 83.1 72.55 86.6 73.45 89.75 73.85 97.55 74.65 98.8 71.65 100.1 68.7 94.15 63.65 90.95 60.9 86.55 58.35 91.55 57.75 95.55 56.5 103 54.2 103 51 103 47.7 95.55 45.4 92.25 44.45 88.5 43.9 91.6 42 94.15 39.95 100.15 35.2 98.95 32.1 97.8 29.1 90.05 29.7 86.1 30 81.8 31.1 Z"/>
</g>

<g id="Layer0_0_FILL">
<path fill="url(#Gradient_1)" stroke="none" d="
M 52.35 77.1
Q 51.95 77.1 51.7 77.1 48.1 76.8 45 75.7 44.75 78.8 44.75 82.25 44.75 87.15 45.3 91.5 45.8 96.9 47.2 101.35 49 107.2 51.3 108.75 53.1 110.05 54.9 108.75 57.2 107.2 58.95 101.35 59.95 98.15 60.6 94.45 61.4 88.95 61.4 82.25 61.4 78.8 61.2 75.75 57.8 77.05 53.85 77.1
L 53.85 91.25
Q 53.85 91.55 53.6 91.75 53.4 92 53.1 92 52.8 92 52.55 91.75 52.35 91.55 52.35 91.25
L 52.35 77.1 Z"/>

<path fill="url(#Gradient_2)" stroke="none" d="
M 66.65 79.55
Q 64.5 77.4 62.6 75.25 61.85 75.55 61.2 75.75 61.4 78.8 61.4 82.25 61.4 88.95 60.6 94.45 62.45 97.5 64.5 100.05 69.7 106.45 72.9 105.15 76 104 75.35 95.7 75.05 91.1 73.65 85.9 70.2 83.15 66.65 79.55 Z"/>

<path fill="#FF6699" stroke="none" d="
M 53.85 77.1
Q 53.85 76.8 53.6 76.6 53.4 76.35 53.1 76.35 52.8 76.35 52.55 76.6 52.35 76.8 52.35 77.1
L 52.35 91.25
Q 52.35 91.55 52.55 91.75 52.8 92 53.1 92 53.4 92 53.6 91.75 53.85 91.55 53.85 91.25
L 53.85 77.1
M 36 69.45
L 36 69.5 26.15 80.75
Q 25.95 81 25.95 81.3 25.95 81.6 26.25 81.8 26.45 81.95 26.75 81.95 27.05 81.95 27.25 81.75
L 37 70.55 37.1 70.5
Q 37.25 70.2 37.25 69.95 37.25 69.6 37 69.45 36.7 69.25 36.5 69.25 36.2 69.25 36 69.45
M 29.85 54.85
Q 30.1 54.85 30.3 54.65 30.55 54.4 30.55 54.1 30.55 53.8 30.3 53.6 30.1 53.4 29.8 53.4
L 17.75 53.4
Q 17.45 53.4 17.2 53.6 17 53.8 17 54.1 17 54.4 17.2 54.65 17.45 54.85 17.75 54.85
L 29.85 54.85
M 26.9 27.85
Q 26.65 27.65 26.4 27.65 26 27.65 25.85 27.85 25.65 28.05 25.65 28.45 25.65 28.75 25.85 28.95
L 35.7 38.1 35.7 38.2
Q 35.9 38.35 36.25 38.35 36.55 38.35 36.8 38.1 36.95 37.9 36.95 37.6 36.95 37.25 36.7 37.1
L 26.9 27.85
M 79.8 28.45
Q 80.05 28.2 80.05 27.95 80.05 27.65 79.8 27.4 79.6 27.2 79.3 27.2 79 27.2 78.75 27.4
L 69.4 36.7
Q 69.15 36.95 69.15 37.25 69.15 37.55 69.4 37.75 69.6 37.95 69.9 37.95 70.2 37.95 70.45 37.75
L 79.8 28.45
M 52.55 19
Q 52.35 19.2 52.35 19.5
L 52.35 30.25
Q 52.35 30.55 52.55 30.75 52.8 31 53.1 31 53.4 31 53.6 30.75 53.85 30.55 53.85 30.25
L 53.85 19.5
Q 53.85 19.2 53.6 19 53.4 18.75 53.1 18.75 52.8 18.75 52.55 19
M 82.05 81.5
Q 82.05 81.2 81.8 81
L 70.2 69.75
Q 70 69.5 69.7 69.5 69.4 69.5 69.15 69.75 68.95 69.95 68.95 70.25 68.95 70.55 69.15 70.8
L 80.75 82
Q 81 82.25 81.3 82.25 81.6 82.25 81.8 82 82.05 81.8 82.05 81.5
M 89.65 54.85
Q 89.95 54.85 90.15 54.65 90.35 54.4 90.35 54.1 90.35 53.8 90.15 53.6 89.95 53.4 89.65 53.4
L 76.7 53.4
Q 76.4 53.4 76.15 53.6 75.95 53.8 75.95 54.1 75.95 54.4 76.15 54.65 76.4 54.85 76.7 54.85
L 89.65 54.85 Z"/>

<path fill="url(#Gradient_3)" stroke="none" d="
M 39.45 79.65
Q 34.7 84.4 30.1 87.75 29.15 91.55 28.75 94.95 27.85 103.3 31 104.7 34.2 106.05 39.55 99.65 42.5 96.15 45.3 91.5 44.75 87.15 44.75 82.25 44.75 78.8 45 75.7 44.3 75.4 43.7 75.2 41.8 77.35 39.45 79.65 Z"/>

<path fill="url(#Gradient_4)" stroke="none" d="
M 36 69.5
L 36 69.45
Q 33.45 66.75 32.05 63.7 29.85 65.6 27.65 67.8 23.7 71.75 20.8 75.5 17.8 79.35 15.9 83.05 12 90.45 14.45 92.9 16.85 95.25 24.15 91.35 27.05 89.85 30.1 87.75 34.7 84.4 39.45 79.65 41.8 77.35 43.7 75.2 40.05 73.55 37 70.55
L 27.25 81.75
Q 27.05 81.95 26.75 81.95 26.45 81.95 26.25 81.8 25.95 81.6 25.95 81.3 25.95 81 26.15 80.75
L 36 69.5 Z"/>

<path fill="url(#Gradient_5)" stroke="none" d="
M 32.05 63.7
Q 31.65 63.05 31.45 62.4 28.55 62.55 25.5 62.55 19 62.55 13.75 61.7 9.95 63.85 7.05 66.25 0.55 71.55 1.8 74.75 3.1 77.8 11.35 77.1 15.75 76.8 20.8 75.5 23.7 71.75 27.65 67.8 29.85 65.6 32.05 63.7 Z"/>

<path fill="url(#Gradient_6)" stroke="none" d="
M 14.85 46.55
Q 10.25 47.1 6.35 48.3 -1.6 50.75 -1.6 54.2 -1.6 57.6 6.35 60.05 9.7 61.1 13.75 61.7 19 62.55 25.5 62.55 28.55 62.55 31.45 62.4 30 58.9 29.85 54.85
L 17.75 54.85
Q 17.45 54.85 17.2 54.65 17 54.4 17 54.1 17 53.8 17.2 53.6 17.45 53.4 17.75 53.4
L 29.8 53.4
Q 29.85 49.5 31.05 46 28.4 45.85 25.5 45.85 19.7 45.85 14.85 46.55 Z"/>

<path fill="url(#Gradient_7)" stroke="none" d="
M 2.8 33
Q 1.45 36.2 7.75 41.55 10.8 44.15 14.85 46.55 19.7 45.85 25.5 45.85 28.4 45.85 31.05 46 31.3 45.2 31.65 44.35 29.65 42.6 27.65 40.6 23.4 36.35 20.35 32.25 16.2 31.15 12.45 30.75 4.15 29.85 2.8 33 Z"/>

<path fill="url(#Gradient_8)" stroke="none" d="
M 31.2 21.55
Q 27.65 18.75 24.2 17 16.85 13.1 14.4 15.55 12 17.95 15.95 25.25 17.65 28.65 20.35 32.25 23.4 36.35 27.65 40.6 29.65 42.6 31.65 44.35 33.05 41 35.7 38.2
L 35.7 38.1 25.85 28.95
Q 25.65 28.75 25.65 28.45 25.65 28.05 25.85 27.85 26 27.65 26.4 27.65 26.65 27.65 26.9 27.85
L 36.7 37.1
Q 36.7 37 36.8 36.95 39.7 34.1 43.05 32.55 41.35 30.6 39.45 28.75 35.25 24.5 31.2 21.55 Z"/>

<path fill="url(#Gradient_9)" stroke="none" d="
M 47.2 7.9
Q 46.1 11.55 45.5 15.85 44.75 21 44.75 27.1 44.75 29.5 44.9 31.7 48.2 30.45 51.9 30.3 52.1 30.25 52.35 30.25
L 52.35 19.5
Q 52.35 19.2 52.55 19 52.8 18.75 53.1 18.75 53.4 18.75 53.6 19 53.85 19.2 53.85 19.5
L 53.85 30.25
Q 53.9 30.25 54 30.25 57.85 30.4 61.35 31.55 61.4 29.4 61.4 27.1 61.4 21.1 60.75 16.1 60.1 11.65 58.95 7.9 56.5 0 53.1 0 49.65 0 47.2 7.9 Z"/>

<path fill="url(#Gradient_10)" stroke="none" d="
M 45.5 15.85
Q 43.25 11.85 40.75 8.8 35.55 2.35 32.4 3.65 29.2 4.95 29.85 13.1 30.15 17.05 31.2 21.55 35.25 24.5 39.45 28.75 41.35 30.6 43.05 32.55 43.95 32.1 44.9 31.7 44.75 29.5 44.75 27.1 44.75 21 45.5 15.85 Z"/>

<path fill="url(#Gradient_11)" stroke="none" d="
M 65.65 9.1
Q 63.05 12.15 60.75 16.1 61.4 21.1 61.4 27.1 61.4 29.4 61.35 31.55 62.3 31.95 63.3 32.4 64.85 30.6 66.65 28.8 70.9 24.6 74.95 21.55 76.1 17.45 76.45 13.8 77.35 5.6 74.15 4.25 71 2.85 65.65 9.1 Z"/>

<path fill="url(#Gradient_12)" stroke="none" d="
M 82.05 91.4
Q 89.35 95.25 91.7 92.9 94.15 90.45 90.3 83.15 88.75 80.15 86.6 77.1 83.25 72.5 78.45 67.75 76.4 65.65 74.35 63.95 72.8 67.05 70.2 69.75
L 81.8 81
Q 82.05 81.2 82.05 81.5 82.05 81.8 81.8 82 81.6 82.25 81.3 82.25 81 82.25 80.75 82
L 69.15 70.8
Q 68.7 71.25 68.25 71.6 65.6 73.9 62.6 75.25 64.5 77.4 66.65 79.55 70.2 83.15 73.65 85.9 77.85 89.25 82.05 91.4 Z"/>

<path fill="url(#Gradient_13)" stroke="none" d="
M 98.35 67.65
Q 94.9 64.7 90.2 62 85.75 62.55 80.6 62.55 77.7 62.55 75.1 62.4 74.75 63.1 74.35 63.95 76.4 65.65 78.45 67.75 83.25 72.5 86.6 77.1 90.3 78.1 93.65 78.45 101.9 79.35 103.25 76.15 104.6 73 98.35 67.65 Z"/>

<path fill="url(#Gradient_14)" stroke="none" d="
M 99.8 48.3
Q 96.3 47.25 92.3 46.7 86.95 45.85 80.6 45.85 77.95 45.85 75.5 46 76.6 49.45 76.7 53.4
L 89.65 53.4
Q 89.95 53.4 90.15 53.6 90.35 53.8 90.35 54.1 90.35 54.4 90.15 54.65 89.95 54.85 89.65 54.85
L 76.7 54.85
Q 76.6 55.3 76.6 55.75 76.3 59.25 75.1 62.4 77.7 62.55 80.6 62.55 85.75 62.55 90.2 62 95.5 61.4 99.8 60.05 107.7 57.6 107.7 54.2 107.7 50.75 99.8 48.3 Z"/>

<path fill="url(#Gradient_15)" stroke="none" d="
M 98.25 42.5
Q 104.65 37.4 103.4 34.2 102.15 31 93.95 31.65 89.8 31.95 85.15 33.15 82.25 36.85 78.45 40.65 76.6 42.5 74.75 44.2 75.1 45.05 75.5 46 77.95 45.85 80.6 45.85 86.95 45.85 92.3 46.7 95.6 44.65 98.25 42.5 Z"/>

<path fill="url(#Gradient_16)" stroke="none" d="
M 90.3 25.25
Q 94.15 17.95 91.8 15.55 89.35 13.1 82.05 17 78.55 18.75 74.95 21.55 70.9 24.6 66.65 28.8 64.85 30.6 63.3 32.4 66.5 33.95 69.25 36.55 69.3 36.65 69.4 36.7
L 78.75 27.4
Q 79 27.2 79.3 27.2 79.6 27.2 79.8 27.4 80.05 27.65 80.05 27.95 80.05 28.2 79.8 28.45
L 70.45 37.75
Q 70.65 37.95 70.9 38.25 73.35 41 74.75 44.2 76.6 42.5 78.45 40.65 82.25 36.85 85.15 33.15 88.3 29.1 90.3 25.25 Z"/>
</g>

<g id="Layer0_0_MEMBER_0_FILL">
<path fill="#FF9900" stroke="none" d="
M 611.55 295.35
Q 610.95 295.35 610.35 295.4 606.65 295.55 603.35 296.8 602.4 297.2 601.5 297.65 598.15 299.2 595.25 302.05 595.15 302.1 595.1 302.2 594.85 302.4 594.65 302.7 594.35 303 594.15 303.3 591.5 306.1 590.1 309.45 589.75 310.3 589.5 311.1 588.25 314.6 588.25 318.55 588.25 318.7 588.25 318.75 588.25 319 588.25 319.2 588.25 319.5 588.3 319.8 588.4 323.9 589.9 327.5 590.1 328.15 590.5 328.8 591.95 332 594.65 334.75 594.7 334.9 594.95 335.05 595 335.2 595.1 335.3 595.15 335.35 595.3 335.5 598.45 338.55 602.15 340.3 602.75 340.5 603.45 340.8 606.55 341.9 610.15 342.2 610.7 342.2 611.4 342.2 611.45 342.2 611.55 342.2 611.6 342.2 611.7 342.2 615.95 342.2 619.65 340.85 620.3 340.65 621.05 340.35 624.05 339 626.7 336.7 627.3 336.2 627.9 335.6 628.05 335.45 628.15 335.35
L 628.2 335.3
Q 631.1 332.4 632.8 329.05 633.2 328.2 633.55 327.5 634.75 324.35 635.05 320.85 635.15 320.05 635.15 319.2 635.15 319 635.15 318.75 635.15 314.7 633.95 311.1 633.55 310.15 633.2 309.3 631.8 306.1 629.35 303.35 628.8 302.75 628.35 302.35 628.3 302.25 628.2 302.2 627.9 301.9 627.7 301.65 624.95 299.05 621.75 297.5 620.75 297.05 619.8 296.65 616.3 295.5 612.45 295.35 612.05 295.35 611.7 295.35 611.6 295.35 611.55 295.35 Z"/>
</g>
</defs>

<g transform="matrix( 1, 0, 0, 1, 0,0) ">
<use xlink:href="#Layer1_0_FILL"/>
</g>

<g transform="matrix( 0.9423675537109375, 0, 0, 0.941497802734375, 1.5,0) ">
<use xlink:href="#Layer0_0_FILL"/>
</g>

<g transform="matrix( 0.9423675537109375, 0, 0, 0.941497802734375, -524.75,-249.55) ">
<use xlink:href="#Layer0_0_MEMBER_0_FILL"/>
</g>
</svg>
