
<svg xmlns="http://www.w3.org/2000/svg" version="1.1" xmlns:xlink="http://www.w3.org/1999/xlink" preserveAspectRatio="none" x="0px" y="0px" width="103px" height="103px" viewBox="0 0 103 103">
<defs>
<linearGradient id="Gradient_1" gradientUnits="userSpaceOnUse" x1="130.23749999999998" y1="84.3125" x2="132.4625" y2="50.38749999999999" spreadMethod="pad">
<stop  offset="0%" stop-color="#FFFFFF"/>

<stop  offset="15.294117647058824%" stop-color="#FFFFFF"/>

<stop  offset="60.3921568627451%" stop-color="#ECECBA"/>

<stop  offset="100%" stop-color="#A1A09F"/>
</linearGradient>

<linearGradient id="Gradient_2" gradientUnits="userSpaceOnUse" x1="151.7625" y1="80.3125" x2="140.4375" y2="50.787499999999994" spreadMethod="pad">
<stop  offset="0%" stop-color="#FFFFFF"/>

<stop  offset="15.294117647058824%" stop-color="#FFFFFF"/>

<stop  offset="90.19607843137256%" stop-color="#A1A09F"/>
</linearGradient>

<linearGradient id="Gradient_3" gradientUnits="userSpaceOnUse" x1="110.15" y1="79.97500000000001" x2="122.65" y2="50.325" spreadMethod="pad">
<stop  offset="0%" stop-color="#FFFFFF"/>

<stop  offset="15.294117647058824%" stop-color="#FFFFFF"/>

<stop  offset="90.19607843137256%" stop-color="#A1A09F"/>
</linearGradient>

<linearGradient id="Gradient_4" gradientUnits="userSpaceOnUse" x1="91.35" y1="65.3625" x2="118.05000000000001" y2="44.4375" spreadMethod="pad">
<stop  offset="0%" stop-color="#FFFFFF"/>

<stop  offset="15.294117647058824%" stop-color="#FFFFFF"/>

<stop  offset="60.3921568627451%" stop-color="#ECECBA"/>

<stop  offset="100%" stop-color="#A1A09F"/>
</linearGradient>

<linearGradient id="Gradient_5" gradientUnits="userSpaceOnUse" x1="80.9375" y1="50.1625" x2="110.4625" y2="37.737500000000004" spreadMethod="pad">
<stop  offset="0%" stop-color="#FFFFFF"/>

<stop  offset="15.294117647058824%" stop-color="#FFFFFF"/>

<stop  offset="90.19607843137256%" stop-color="#A1A09F"/>
</linearGradient>

<linearGradient id="Gradient_6" gradientUnits="userSpaceOnUse" x1="77.33749999999999" y1="29.3" x2="110.3625" y2="29.3" spreadMethod="pad">
<stop  offset="0%" stop-color="#FFFFFF"/>

<stop  offset="15.294117647058824%" stop-color="#FFFFFF"/>

<stop  offset="60.3921568627451%" stop-color="#ECECBA"/>

<stop  offset="100%" stop-color="#A1A09F"/>
</linearGradient>

<linearGradient id="Gradient_7" gradientUnits="userSpaceOnUse" x1="81.6125" y1="8.5375" x2="110.3875" y2="20.1625" spreadMethod="pad">
<stop  offset="0%" stop-color="#FFFFFF"/>

<stop  offset="15.294117647058824%" stop-color="#FFFFFF"/>

<stop  offset="90.19607843137256%" stop-color="#A1A09F"/>
</linearGradient>

<linearGradient id="Gradient_8" gradientUnits="userSpaceOnUse" x1="173.625" y1="56.9" x2="141.675" y2="49.800000000000004" spreadMethod="pad">
<stop  offset="0%" stop-color="#FFFFFF"/>

<stop  offset="15.294117647058824%" stop-color="#FFFFFF"/>

<stop  offset="60.3921568627451%" stop-color="#ECECBA"/>

<stop  offset="100%" stop-color="#A1A09F"/>
</linearGradient>

<linearGradient id="Gradient_9" gradientUnits="userSpaceOnUse" x1="181.5625" y1="52.362500000000004" x2="154.03750000000002" y2="37.5375" spreadMethod="pad">
<stop  offset="0%" stop-color="#FFFFFF"/>

<stop  offset="15.294117647058824%" stop-color="#FFFFFF"/>

<stop  offset="90.19607843137256%" stop-color="#A1A09F"/>
</linearGradient>

<linearGradient id="Gradient_10" gradientUnits="userSpaceOnUse" x1="182.6" y1="9.962499999999999" x2="153.9" y2="19.7375" spreadMethod="pad">
<stop  offset="0%" stop-color="#FFFFFF"/>

<stop  offset="15.294117647058824%" stop-color="#FFFFFF"/>

<stop  offset="90.19607843137256%" stop-color="#A1A09F"/>
</linearGradient>

<linearGradient id="Gradient_11" gradientUnits="userSpaceOnUse" x1="185.5" y1="34.7" x2="153" y2="27.5" spreadMethod="pad">
<stop  offset="0%" stop-color="#FFFFFF"/>

<stop  offset="15.294117647058824%" stop-color="#FFFFFF"/>

<stop  offset="60.3921568627451%" stop-color="#ECECBA"/>

<stop  offset="100%" stop-color="#A1A09F"/>
</linearGradient>

<linearGradient id="Gradient_12" gradientUnits="userSpaceOnUse" x1="143.28750000000002" y1="-18.1" x2="151.3125" y2="4.2" spreadMethod="pad">
<stop  offset="0%" stop-color="#FFFFFF"/>

<stop  offset="15.294117647058824%" stop-color="#FFFFFF"/>

<stop  offset="90.19607843137256%" stop-color="#A1A09F"/>
</linearGradient>

<linearGradient id="Gradient_13" gradientUnits="userSpaceOnUse" x1="170.2375" y1="-9.7375" x2="147.8625" y2="13.7375" spreadMethod="pad">
<stop  offset="0%" stop-color="#FFFFFF"/>

<stop  offset="15.294117647058824%" stop-color="#FFFFFF"/>

<stop  offset="60.3921568627451%" stop-color="#ECECBA"/>

<stop  offset="100%" stop-color="#A1A09F"/>
</linearGradient>

<linearGradient id="Gradient_14" gradientUnits="userSpaceOnUse" x1="132.05" y1="-24.85" x2="132.05" y2="6.850000000000001" spreadMethod="pad">
<stop  offset="0%" stop-color="#FFFFFF"/>

<stop  offset="15.294117647058824%" stop-color="#FFFFFF"/>

<stop  offset="60.3921568627451%" stop-color="#ECECBA"/>

<stop  offset="100%" stop-color="#A1A09F"/>
</linearGradient>

<linearGradient id="Gradient_15" gradientUnits="userSpaceOnUse" x1="95.28750000000001" y1="-10.950000000000001" x2="116.5125" y2="14.450000000000001" spreadMethod="pad">
<stop  offset="0%" stop-color="#FFFFFF"/>

<stop  offset="15.294117647058824%" stop-color="#FFFFFF"/>

<stop  offset="60.3921568627451%" stop-color="#ECECBA"/>

<stop  offset="100%" stop-color="#A1A09F"/>
</linearGradient>

<linearGradient id="Gradient_16" gradientUnits="userSpaceOnUse" x1="111.85" y1="-21.3125" x2="122.25" y2="7.612500000000001" spreadMethod="pad">
<stop  offset="0%" stop-color="#FFFFFF"/>

<stop  offset="15.294117647058824%" stop-color="#FFFFFF"/>

<stop  offset="90.19607843137256%" stop-color="#A1A09F"/>
</linearGradient>

<g id="Layer1_0_FILL">
<path fill="#FFFFFF" stroke="none" d="
M 81.8 31.1
Q 84.7 27.35 86.6 23.65 90.25 16.85 88.05 14.6 85.65 12.3 78.8 15.95 75.55 17.6 72.2 20.2 73.2 16.3 73.5 12.9 74.4 5.15 71.35 3.95 68.45 2.65 63.4 8.55 60.95 11.35 58.8 15.05 58.1 10.9 57.1 7.4 54.75 0 51.55 0 48.3 0 46 7.4 44.95 10.85 44.35 14.8 42.25 11.15 39.9 8.2 34.95 2.15 32.05 3.4 29 4.55 29.7 12.3 29.9 16 30.95 20.2 27.55 17.6 24.35 15.95 17.4 12.3 15.1 14.6 12.8 16.85 16.5 23.65 18.15 27 20.7 30.3 16.75 29.25 13.25 28.9 5.45 28.05 4.15 30.95 2.9 34 8.85 39.1 11.7 41.55 15.5 43.75 11.15 44.3 7.5 45.4 0 47.7 0 51 0 54.2 7.5 56.5 10.65 57.45 14.45 58.05 10.85 60.05 8.1 62.3 2 67.3 3.2 70.35 4.4 73.15 12.2 72.55 16.35 72.25 21.15 71 18.3 74.65 16.45 78.15 12.8 85.1 15.2 87.45 17.4 89.7 24.25 85.95 27 84.5 29.85 82.6 28.95 86.2 28.6 89.4 27.75 97.25 30.75 98.6 33.7 99.75 38.75 93.7 41.6 90.5 44.2 86.1 44.65 91.2 46 95.4 47.7 100.85 49.85 102.35 51.45 103.65 53.2 102.35 55.35 100.85 57.1 95.4 57.95 92.4 58.65 88.85 60.35 91.7 62.3 94.15 67.2 100.1 70.15 99 73.15 97.85 72.5 90.1 72.25 85.75 70.9 80.8 74.85 83.95 78.8 86.05 85.65 89.7 87.95 87.45 90.25 85.1 86.6 78.2 85.15 75.4 83.1 72.55 86.6 73.45 89.75 73.85 97.55 74.65 98.8 71.65 100.1 68.7 94.15 63.65 90.95 60.9 86.55 58.35 91.55 57.75 95.55 56.5 103 54.2 103 51 103 47.7 95.55 45.4 92.25 44.45 88.5 43.9 91.6 42 94.15 39.95 100.15 35.2 98.95 32.1 97.8 29.1 90.05 29.7 86.1 30 81.8 31.1 Z"/>
</g>

<g id="Layer0_0_FILL">
<path fill="url(#Gradient_1)" stroke="none" d="
M 140.4 57.4
Q 140.4 53.95 140.15 50.9 136.75 52.15 132.8 52.25
L 132.8 66.4
Q 132.8 66.7 132.6 66.9 132.35 67.15 132.05 67.15 131.75 67.15 131.55 66.9 131.3 66.7 131.3 66.4
L 131.3 52.25
Q 130.95 52.25 130.65 52.25 127.05 51.95 123.95 50.85 123.7 53.95 123.7 57.4 123.7 62.3 124.25 66.6 124.75 72.05 126.2 76.5 127.95 82.3 130.25 83.85 132.05 84.85 133.85 83.85 136.15 82.3 137.95 76.5 138.9 73.3 139.55 69.6 140.4 64.1 140.4 57.4 Z"/>

<path fill="#CCCCCC" stroke="none" d="
M 132.8 52.25
Q 132.8 51.95 132.6 51.75 132.35 51.5 132.05 51.5 131.75 51.5 131.55 51.75 131.3 51.95 131.3 52.25
L 131.3 66.4
Q 131.3 66.7 131.55 66.9 131.75 67.15 132.05 67.15 132.35 67.15 132.6 66.9 132.8 66.7 132.8 66.4
L 132.8 52.25
M 116.2 45.1
Q 116.2 44.75 116 44.6 115.7 44.35 115.45 44.35 115.15 44.35 114.95 44.6
L 114.95 44.65 105.1 55.9
Q 104.9 56.1 104.9 56.4 104.9 56.7 105.2 56.95 105.4 57.1 105.7 57.1 106 57.1 106.25 56.85
L 116 45.7 116.05 45.6
Q 116.2 45.35 116.2 45.1
M 96.2 29.75
Q 96.4 30 96.7 30
L 108.85 30
Q 109.05 30 109.3 29.75 109.5 29.55 109.5 29.25 109.5 28.95 109.3 28.75 109.05 28.5 108.75 28.5
L 96.7 28.5
Q 96.4 28.5 96.2 28.75 95.95 28.95 95.95 29.25 95.95 29.55 96.2 29.75
M 105.85 3
Q 105.65 2.75 105.35 2.75 104.95 2.75 104.8 3 104.6 3.2 104.6 3.6 104.6 3.9 104.8 4.1
L 114.65 13.25 114.65 13.35
Q 114.85 13.5 115.25 13.5 115.55 13.5 115.75 13.25 115.9 13.05 115.9 12.75 115.9 12.35 115.7 12.2
L 105.85 3
M 147.9 45.4
Q 147.9 45.7 148.15 45.9
L 159.75 57.15
Q 159.95 57.4 160.25 57.4 160.55 57.4 160.8 57.15 161 56.95 161 56.65 161 56.35 160.8 56.1
L 149.15 44.9
Q 148.95 44.65 148.65 44.65 148.35 44.65 148.15 44.9 147.9 45.1 147.9 45.4
M 158.75 3.6
Q 159 3.35 159 3.05 159 2.75 158.75 2.55 158.55 2.3 158.25 2.3 157.95 2.3 157.75 2.55
L 148.35 11.85
Q 148.15 12.05 148.15 12.35 148.15 12.65 148.35 12.9 148.6 13.1 148.85 13.1 149.15 13.1 149.4 12.9
L 158.75 3.6
M 168.6 30
Q 168.9 30 169.1 29.75 169.35 29.55 169.35 29.25 169.35 28.95 169.1 28.75 168.9 28.5 168.6 28.5
L 155.65 28.5
Q 155.35 28.5 155.1 28.75 154.9 28.95 154.9 29.25 154.9 29.55 155.1 29.75 155.35 30 155.65 30
L 168.6 30
M 132.05 -6.1
Q 131.75 -6.1 131.55 -5.85 131.3 -5.65 131.3 -5.35
L 131.3 5.35
Q 131.3 5.65 131.55 5.9 131.75 6.1 132.05 6.1 132.35 6.1 132.6 5.9 132.8 5.65 132.8 5.35
L 132.8 -5.35
Q 132.8 -5.65 132.6 -5.85 132.35 -6.1 132.05 -6.1 Z"/>

<path fill="url(#Gradient_2)" stroke="none" d="
M 154.3 70.85
Q 154 66.25 152.6 61.05 149.15 58.3 145.6 54.7 143.45 52.55 141.6 50.4 140.85 50.7 140.15 50.9 140.4 53.95 140.4 57.4 140.4 64.1 139.55 69.6 141.45 72.65 143.45 75.15 148.65 81.55 151.85 80.3 155 79.1 154.3 70.85 Z"/>

<path fill="url(#Gradient_3)" stroke="none" d="
M 109.05 62.9
Q 108.1 66.7 107.7 70.1 106.85 78.45 109.95 79.85 113.15 81.2 118.5 74.8 121.5 71.3 124.25 66.6 123.7 62.3 123.7 57.4 123.7 53.95 123.95 50.85 123.3 50.55 122.7 50.3 120.75 52.45 118.45 54.8 113.7 59.55 109.05 62.9 Z"/>

<path fill="url(#Gradient_4)" stroke="none" d="
M 111 38.85
Q 108.85 40.7 106.6 42.95 102.65 46.9 99.75 50.6 96.8 54.5 94.85 58.2 91 65.55 93.45 68 95.8 70.4 103.1 66.45 106 64.95 109.05 62.9 113.7 59.55 118.45 54.8 120.75 52.45 122.7 50.3 119.05 48.7 116 45.7
L 106.25 56.85
Q 106 57.1 105.7 57.1 105.4 57.1 105.2 56.95 104.9 56.7 104.9 56.4 104.9 56.1 105.1 55.9
L 114.95 44.65 114.95 44.6
Q 112.4 41.9 111 38.85 Z"/>

<path fill="url(#Gradient_5)" stroke="none" d="
M 92.7 36.85
Q 88.9 39 86 41.4 79.5 46.65 80.8 49.85 82.05 52.9 90.3 52.25 94.7 51.95 99.75 50.6 102.65 46.9 106.6 42.95 108.85 40.7 111 38.85 110.65 38.2 110.4 37.5 107.5 37.65 104.45 37.65 97.95 37.65 92.7 36.85 Z"/>

<path fill="url(#Gradient_6)" stroke="none" d="
M 110.05 21.15
Q 107.35 21 104.45 21 98.65 21 93.8 21.65 89.2 22.25 85.3 23.45 77.35 25.9 77.35 29.35 77.35 32.75 85.3 35.2 88.65 36.25 92.7 36.85 97.95 37.65 104.45 37.65 107.5 37.65 110.4 37.5 109 34 108.85 30
L 96.7 30
Q 96.4 30 96.2 29.75 95.95 29.55 95.95 29.25 95.95 28.95 96.2 28.75 96.4 28.5 96.7 28.5
L 108.75 28.5
Q 108.85 24.65 110.05 21.15 Z"/>

<path fill="url(#Gradient_7)" stroke="none" d="
M 104.45 21
Q 107.35 21 110.05 21.15 110.25 20.3 110.65 19.5 108.6 17.7 106.6 15.7 102.35 11.45 99.3 7.4 95.15 6.25 91.45 5.9 83.1 5 81.75 8.1 80.4 11.3 86.75 16.7 89.8 19.3 93.8 21.65 98.65 21 104.45 21 Z"/>

<path fill="url(#Gradient_8)" stroke="none" d="
M 170.7 68
Q 173.15 65.55 169.25 58.3 167.7 55.3 165.55 52.25 162.2 47.65 157.45 42.85 155.35 40.8 153.35 39.1 151.8 42.2 149.15 44.9
L 160.8 56.1
Q 161 56.35 161 56.65 161 56.95 160.8 57.15 160.55 57.4 160.25 57.4 159.95 57.4 159.75 57.15
L 148.15 45.9
Q 147.7 46.35 147.25 46.75 144.55 49.05 141.6 50.4 143.45 52.55 145.6 54.7 149.15 58.3 152.6 61.05 156.85 64.4 161 66.55 168.3 70.4 170.7 68 Z"/>

<path fill="url(#Gradient_9)" stroke="none" d="
M 177.3 42.8
Q 173.9 39.8 169.2 37.15 164.7 37.65 159.6 37.65 156.7 37.65 154.1 37.5 153.7 38.25 153.35 39.1 155.35 40.8 157.45 42.85 162.2 47.65 165.55 52.25 169.25 53.2 172.6 53.6 180.85 54.5 182.2 51.3 183.55 48.15 177.3 42.8 Z"/>

<path fill="url(#Gradient_10)" stroke="none" d="
M 171.25 21.8
Q 174.55 19.8 177.25 17.65 183.65 12.5 182.35 9.3 181.1 6.1 172.9 6.8 168.75 7.1 164.15 8.25 161.25 12 157.45 15.8 155.55 17.65 153.7 19.35 154.1 20.2 154.45 21.15 156.9 21 159.6 21 165.9 21 171.25 21.8 Z"/>

<path fill="url(#Gradient_11)" stroke="none" d="
M 178.8 23.45
Q 175.3 22.4 171.25 21.8 165.9 21 159.6 21 156.9 21 154.45 21.15 155.55 24.55 155.65 28.5
L 168.6 28.5
Q 168.9 28.5 169.1 28.75 169.35 28.95 169.35 29.25 169.35 29.55 169.1 29.75 168.9 30 168.6 30
L 155.65 30
Q 155.55 30.45 155.55 30.9 155.25 34.4 154.1 37.5 156.7 37.65 159.6 37.65 164.7 37.65 169.2 37.15 174.45 36.55 178.8 35.2 186.7 32.75 186.7 29.35 186.7 25.9 178.8 23.45 Z"/>

<path fill="url(#Gradient_12)" stroke="none" d="
M 153.1 -20.6
Q 150 -22 144.65 -15.75 142.05 -12.7 139.7 -8.75 140.4 -3.8 140.4 2.25 140.4 4.55 140.3 6.7 141.3 7.1 142.25 7.5 143.8 5.75 145.6 3.95 149.85 -0.3 153.95 -3.35 155.05 -7.45 155.4 -11.1 156.3 -19.25 153.1 -20.6 Z"/>

<path fill="url(#Gradient_13)" stroke="none" d="
M 161 -7.9
Q 157.5 -6.1 153.95 -3.35 149.85 -0.3 145.6 3.95 143.8 5.75 142.25 7.5 145.45 9.1 148.2 11.7 148.3 11.75 148.35 11.85
L 157.75 2.55
Q 157.95 2.3 158.25 2.3 158.55 2.3 158.75 2.55 159 2.75 159 3.05 159 3.35 158.75 3.6
L 149.4 12.9
Q 149.6 13.1 149.85 13.4 152.3 16.15 153.7 19.35 155.55 17.65 157.45 15.8 161.25 12 164.15 8.25 167.25 4.25 169.25 0.4 173.15 -6.9 170.75 -9.3 168.3 -11.75 161 -7.9 Z"/>

<path fill="url(#Gradient_14)" stroke="none" d="
M 131.55 -5.85
Q 131.75 -6.1 132.05 -6.1 132.35 -6.1 132.6 -5.85 132.8 -5.65 132.8 -5.35
L 132.8 5.35
Q 132.85 5.35 132.95 5.35 136.8 5.5 140.3 6.7 140.4 4.55 140.4 2.25 140.4 -3.8 139.7 -8.75 139.05 -13.25 137.95 -16.95 135.5 -24.85 132.05 -24.85 128.65 -24.85 126.2 -16.95 125.05 -13.3 124.45 -9 123.7 -3.85 123.7 2.25 123.7 4.6 123.85 6.85 127.15 5.6 130.85 5.45 131.1 5.35 131.3 5.35
L 131.3 -5.35
Q 131.3 -5.65 131.55 -5.85 Z"/>

<path fill="url(#Gradient_15)" stroke="none" d="
M 110.2 -3.35
Q 106.6 -6.1 103.2 -7.9 95.8 -11.75 93.35 -9.3 91 -6.9 94.9 0.4 96.65 3.8 99.3 7.4 102.35 11.45 106.6 15.7 108.6 17.7 110.65 19.5 112.05 16.15 114.65 13.35
L 114.65 13.25 104.8 4.1
Q 104.6 3.9 104.6 3.6 104.6 3.2 104.8 3 104.95 2.75 105.35 2.75 105.65 2.75 105.85 3
L 115.7 12.2
Q 115.7 12.15 115.75 12.05 118.65 9.25 122 7.65 120.3 5.75 118.45 3.9 114.2 -0.35 110.2 -3.35 Z"/>

<path fill="url(#Gradient_16)" stroke="none" d="
M 108.85 -11.75
Q 109.15 -7.8 110.2 -3.35 114.2 -0.35 118.45 3.9 120.3 5.75 122 7.65 122.9 7.25 123.85 6.85 123.7 4.6 123.7 2.25 123.7 -3.85 124.45 -9 122.25 -13 119.7 -16.05 114.5 -22.55 111.35 -21.2 108.15 -19.95 108.85 -11.75 Z"/>
</g>

<g id="Layer0_0_MEMBER_0_FILL">
<path fill="#FF9900" stroke="none" d="
M 1087.8 295.45
Q 1084.1 295.6 1080.8 296.85 1079.85 297.25 1078.95 297.65 1075.6 299.25 1072.7 302.05 1072.65 302.15 1072.55 302.2 1072.35 302.45 1072.1 302.75 1071.8 303.05 1071.6 303.35 1069 306.15 1067.6 309.5 1067.2 310.3 1067 311.15 1065.7 314.65 1065.7 318.6 1065.7 318.75 1065.7 318.8 1065.7 319.05 1065.7 319.25 1065.7 319.55 1065.8 319.85 1065.85 323.95 1067.35 327.5 1067.6 328.2 1067.95 328.85 1069.45 332.05 1072.1 334.8 1072.2 334.95 1072.4 335.1 1072.5 335.25 1072.55 335.35 1072.65 335.4 1072.8 335.55 1075.9 338.6 1079.65 340.3 1080.25 340.55 1080.9 340.85 1084 341.95 1087.6 342.25 1088.2 342.25 1088.85 342.25 1088.95 342.25 1089 342.25 1089.1 342.25 1089.15 342.25 1093.4 342.25 1097.1 340.9 1097.8 340.7 1098.55 340.4 1101.5 339.05 1104.2 336.75 1104.8 336.2 1105.4 335.6 1105.55 335.5 1105.6 335.4
L 1105.7 335.35
Q 1108.6 332.45 1110.3 329.1 1110.65 328.25 1111.05 327.5 1112.2 324.4 1112.5 320.9 1112.6 320.05 1112.6 319.25 1112.6 319.05 1112.6 318.8 1112.6 314.7 1111.4 311.15 1111.05 310.2 1110.65 309.35 1109.25 306.15 1106.8 303.4 1106.25 302.8 1105.8 302.35 1105.75 302.3 1105.7 302.2 1105.4 301.9 1105.15 301.7 1102.4 299.1 1099.2 297.5 1098.25 297.1 1097.25 296.7 1093.75 295.5 1089.9 295.35 1089.55 295.35 1089.15 295.35 1089.1 295.35 1089 295.35 1088.4 295.35 1087.8 295.45 Z"/>
</g>
</defs>

<g transform="matrix( 1, 0, 0, 1, 0,0) ">
<use xlink:href="#Layer1_0_FILL"/>
</g>

<g transform="matrix( 0.941925048828125, 0, 0, 0.9432220458984375, -72.85,23.45) ">
<use xlink:href="#Layer0_0_FILL"/>
</g>

<g transform="matrix( 0.941925048828125, 0, 0, 0.9432220458984375, -974.2,-250.05) ">
<use xlink:href="#Layer0_0_MEMBER_0_FILL"/>
</g>
</svg>
