
<svg xmlns="http://www.w3.org/2000/svg" version="1.1" xmlns:xlink="http://www.w3.org/1999/xlink" preserveAspectRatio="none" x="0px" y="0px" width="103px" height="103px" viewBox="0 0 103 103">
<defs>
<linearGradient id="Gradient_1" gradientUnits="userSpaceOnUse" x1="50.087500000000006" y1="109.11250000000001" x2="52.3125" y2="75.1875" spreadMethod="pad">
<stop  offset="0%" stop-color="#FFFF00"/>

<stop  offset="15.294117647058824%" stop-color="#FFCC00"/>

<stop  offset="48.23529411764706%" stop-color="#FFCC00"/>

<stop  offset="96.86274509803921%" stop-color="#FF6600"/>
</linearGradient>

<linearGradient id="Gradient_2" gradientUnits="userSpaceOnUse" x1="71.6125" y1="105.1125" x2="60.2875" y2="75.58749999999999" spreadMethod="pad">
<stop  offset="0%" stop-color="#FFCC00"/>

<stop  offset="15.294117647058824%" stop-color="#D2891C"/>

<stop  offset="49.411764705882355%" stop-color="#FF6600"/>

<stop  offset="96.86274509803921%" stop-color="#8C4313"/>
</linearGradient>

<linearGradient id="Gradient_3" gradientUnits="userSpaceOnUse" x1="30" y1="104.825" x2="42.5" y2="75.175" spreadMethod="pad">
<stop  offset="0%" stop-color="#FFCC00"/>

<stop  offset="15.294117647058824%" stop-color="#D2891C"/>

<stop  offset="49.411764705882355%" stop-color="#FF6600"/>

<stop  offset="96.86274509803921%" stop-color="#8C4313"/>
</linearGradient>

<linearGradient id="Gradient_4" gradientUnits="userSpaceOnUse" x1="11.2" y1="90.16250000000001" x2="37.900000000000006" y2="69.2375" spreadMethod="pad">
<stop  offset="0%" stop-color="#FFFF00"/>

<stop  offset="15.294117647058824%" stop-color="#FFCC00"/>

<stop  offset="48.23529411764706%" stop-color="#FFCC00"/>

<stop  offset="96.86274509803921%" stop-color="#FF6600"/>
</linearGradient>

<linearGradient id="Gradient_5" gradientUnits="userSpaceOnUse" x1="0.7874999999999996" y1="75.0125" x2="30.3125" y2="62.5875" spreadMethod="pad">
<stop  offset="0%" stop-color="#FFCC00"/>

<stop  offset="15.294117647058824%" stop-color="#D2891C"/>

<stop  offset="49.411764705882355%" stop-color="#FF6600"/>

<stop  offset="96.86274509803921%" stop-color="#8C4313"/>
</linearGradient>

<linearGradient id="Gradient_6" gradientUnits="userSpaceOnUse" x1="-2.8125" y1="54.15" x2="30.2125" y2="54.15" spreadMethod="pad">
<stop  offset="0%" stop-color="#FFFF00"/>

<stop  offset="15.294117647058824%" stop-color="#FFCC00"/>

<stop  offset="48.23529411764706%" stop-color="#FFCC00"/>

<stop  offset="96.86274509803921%" stop-color="#FF6600"/>
</linearGradient>

<linearGradient id="Gradient_7" gradientUnits="userSpaceOnUse" x1="1.3124999999999982" y1="38.4" x2="30.387500000000003" y2="38.4" spreadMethod="pad">
<stop  offset="0%" stop-color="#FFCC00"/>

<stop  offset="15.294117647058824%" stop-color="#D2891C"/>

<stop  offset="49.411764705882355%" stop-color="#FF6600"/>

<stop  offset="96.86274509803921%" stop-color="#8C4313"/>
</linearGradient>

<linearGradient id="Gradient_8" gradientUnits="userSpaceOnUse" x1="15.1375" y1="13.9" x2="36.3625" y2="39.300000000000004" spreadMethod="pad">
<stop  offset="0%" stop-color="#FFFF00"/>

<stop  offset="15.294117647058824%" stop-color="#FFCC00"/>

<stop  offset="48.23529411764706%" stop-color="#FFCC00"/>

<stop  offset="96.86274509803921%" stop-color="#FF6600"/>
</linearGradient>

<linearGradient id="Gradient_9" gradientUnits="userSpaceOnUse" x1="30.900000000000002" y1="3.625" x2="42.800000000000004" y2="31.975" spreadMethod="pad">
<stop  offset="0%" stop-color="#FFCC00"/>

<stop  offset="15.294117647058824%" stop-color="#D2891C"/>

<stop  offset="49.411764705882355%" stop-color="#FF6600"/>

<stop  offset="96.86274509803921%" stop-color="#8C4313"/>
</linearGradient>

<linearGradient id="Gradient_10" gradientUnits="userSpaceOnUse" x1="51.9" y1="-0.05000000000000071" x2="51.9" y2="31.650000000000002" spreadMethod="pad">
<stop  offset="0%" stop-color="#FFFF00"/>

<stop  offset="15.294117647058824%" stop-color="#FFCC00"/>

<stop  offset="48.23529411764706%" stop-color="#FFCC00"/>

<stop  offset="96.86274509803921%" stop-color="#FF6600"/>
</linearGradient>

<linearGradient id="Gradient_11" gradientUnits="userSpaceOnUse" x1="63.612500000000004" y1="6.1999999999999975" x2="70.78750000000001" y2="29.6" spreadMethod="pad">
<stop  offset="0%" stop-color="#FFCC00"/>

<stop  offset="15.294117647058824%" stop-color="#D2891C"/>

<stop  offset="49.411764705882355%" stop-color="#FF6600"/>

<stop  offset="96.86274509803921%" stop-color="#8C4313"/>
</linearGradient>

<linearGradient id="Gradient_12" gradientUnits="userSpaceOnUse" x1="93.475" y1="81.7" x2="61.525" y2="74.60000000000001" spreadMethod="pad">
<stop  offset="0%" stop-color="#FFFF00"/>

<stop  offset="15.294117647058824%" stop-color="#FFCC00"/>

<stop  offset="48.23529411764706%" stop-color="#FFCC00"/>

<stop  offset="96.86274509803921%" stop-color="#FF6600"/>
</linearGradient>

<linearGradient id="Gradient_13" gradientUnits="userSpaceOnUse" x1="101.60000000000001" y1="76.89999999999999" x2="73.7" y2="62.8" spreadMethod="pad">
<stop  offset="0%" stop-color="#FFCC00"/>

<stop  offset="15.294117647058824%" stop-color="#D2891C"/>

<stop  offset="49.411764705882355%" stop-color="#FF6600"/>

<stop  offset="96.86274509803921%" stop-color="#8C4313"/>
</linearGradient>

<linearGradient id="Gradient_14" gradientUnits="userSpaceOnUse" x1="102.5125" y1="35.45" x2="73.3875" y2="43.95" spreadMethod="pad">
<stop  offset="0%" stop-color="#FFCC00"/>

<stop  offset="15.294117647058824%" stop-color="#D2891C"/>

<stop  offset="49.411764705882355%" stop-color="#FF6600"/>

<stop  offset="96.86274509803921%" stop-color="#8C4313"/>
</linearGradient>

<linearGradient id="Gradient_15" gradientUnits="userSpaceOnUse" x1="105.35" y1="59.5" x2="72.85" y2="52.3" spreadMethod="pad">
<stop  offset="0%" stop-color="#FFFF00"/>

<stop  offset="15.294117647058824%" stop-color="#FFCC00"/>

<stop  offset="48.23529411764706%" stop-color="#FFCC00"/>

<stop  offset="96.86274509803921%" stop-color="#FF6600"/>
</linearGradient>

<linearGradient id="Gradient_16" gradientUnits="userSpaceOnUse" x1="90.0875" y1="15.0625" x2="67.7125" y2="38.5375" spreadMethod="pad">
<stop  offset="0%" stop-color="#FFFF00"/>

<stop  offset="15.294117647058824%" stop-color="#FFCC00"/>

<stop  offset="48.23529411764706%" stop-color="#FFCC00"/>

<stop  offset="96.86274509803921%" stop-color="#FF6600"/>
</linearGradient>

<g id="Layer1_0_FILL">
<path fill="#F86301" stroke="none" d="
M 81.8 31.1
Q 84.7 27.35 86.6 23.65 90.25 16.85 88.05 14.6 85.65 12.3 78.8 15.95 75.55 17.6 72.2 20.2 73.2 16.3 73.5 12.9 74.4 5.15 71.35 3.95 68.45 2.65 63.4 8.55 60.95 11.35 58.8 15.05 58.1 10.9 57.1 7.4 54.75 0 51.55 0 48.3 0 46 7.4 44.95 10.85 44.35 14.8 42.25 11.15 39.9 8.2 34.95 2.15 32.05 3.4 29 4.55 29.7 12.3 29.9 16 30.95 20.2 27.55 17.6 24.35 15.95 17.4 12.3 15.1 14.6 12.8 16.85 16.5 23.65 18.15 27 20.7 30.3 16.75 29.25 13.25 28.9 5.45 28.05 4.15 30.95 2.9 34 8.85 39.1 11.7 41.55 15.5 43.75 11.15 44.3 7.5 45.4 0 47.7 0 51 0 54.2 7.5 56.5 10.65 57.45 14.45 58.05 10.85 60.05 8.1 62.3 2 67.3 3.2 70.35 4.4 73.15 12.2 72.55 16.35 72.25 21.15 71 18.3 74.65 16.45 78.15 12.8 85.1 15.2 87.45 17.4 89.7 24.25 85.95 27 84.5 29.85 82.6 28.95 86.2 28.6 89.4 27.75 97.25 30.75 98.6 33.7 99.75 38.75 93.7 41.6 90.5 44.2 86.1 44.65 91.2 46 95.4 47.7 100.85 49.85 102.35 51.45 103.65 53.2 102.35 55.35 100.85 57.1 95.4 57.95 92.4 58.65 88.85 60.35 91.7 62.3 94.15 67.2 100.1 70.15 99 73.15 97.85 72.5 90.1 72.25 85.75 70.9 80.8 74.85 83.95 78.8 86.05 85.65 89.7 87.95 87.45 90.25 85.1 86.6 78.2 85.15 75.4 83.1 72.55 86.6 73.45 89.75 73.85 97.55 74.65 98.8 71.65 100.1 68.7 94.15 63.65 90.95 60.9 86.55 58.35 91.55 57.75 95.55 56.5 103 54.2 103 51 103 47.7 95.55 45.4 92.25 44.45 88.5 43.9 91.6 42 94.15 39.95 100.15 35.2 98.95 32.1 97.8 29.1 90.05 29.7 86.1 30 81.8 31.1 Z"/>
</g>

<g id="Layer0_0_FILL">
<path fill="url(#Gradient_1)" stroke="none" d="
M 60 75.75
Q 56.6 77 52.65 77.05
L 52.65 91.2
Q 52.65 91.5 52.45 91.75 52.2 91.95 51.9 91.95 51.6 91.95 51.4 91.75 51.15 91.5 51.15 91.2
L 51.15 77.05
Q 50.8 77.05 50.5 77.05 46.9 76.75 43.8 75.65 43.55 78.8 43.55 82.2 43.55 87.1 44.1 91.45 44.6 96.85 46.05 101.35 47.8 107.15 50.1 108.7 51.9 109.9458984375 53.7 108.7 56 107.15 57.8 101.35 58.75 98.15 59.4 94.4 60.25 88.9 60.25 82.2 60.25 78.8 60 75.75 Z"/>

<path fill="url(#Gradient_2)" stroke="none" d="
M 60 75.75
Q 60.25 78.8 60.25 82.2 60.25 88.9 59.4 94.4 61.3 97.45 63.3 100 68.5 106.4 71.7 105.1 74.8 103.95 74.15 95.65 73.85 91.05 72.45 85.85 69 83.1 65.45 79.55 63.3 77.35 61.45 75.2 60.7 75.5 60 75.75 Z"/>

<path fill="#FF9900" stroke="none" d="
M 51.9 76.35
Q 51.6 76.35 51.4 76.55 51.15 76.75 51.15 77.05
L 51.15 91.2
Q 51.15 91.5 51.4 91.75 51.6 91.95 51.9 91.95 52.2 91.95 52.45 91.75 52.65 91.5 52.65 91.2
L 52.65 77.05
Q 52.65 76.75 52.45 76.55 52.2 76.35 51.9 76.35
M 67.75 70.2
Q 67.75 70.5 68 70.75
L 79.6 82
Q 79.8 82.2 80.1 82.2 80.4 82.2 80.65 82 80.85 81.75 80.85 81.45 80.85 81.15 80.65 80.95
L 69 69.7
Q 68.8 69.5 68.5 69.5 68.2 69.5 68 69.7 67.75 69.95 67.75 70.2
M 35.85 69.4
Q 35.55 69.2 35.3 69.2 35 69.2 34.8 69.4
L 34.8 69.5 24.95 80.7
Q 24.75 80.95 24.75 81.25 24.75 81.55 25.05 81.75 25.25 81.9 25.55 81.9 25.85 81.9 26.1 81.7
L 35.85 70.5 35.9 70.45
Q 36.05 70.15 36.05 69.95 36.05 69.55 35.85 69.4
M 29.15 53.55
Q 28.9 53.35 28.6 53.35
L 16.55 53.35
Q 16.25 53.35 16.05 53.55 15.8 53.8 15.8 54.1 15.8 54.35 16.05 54.6 16.25 54.8 16.55 54.8
L 28.7 54.8
Q 28.9 54.8 29.15 54.6 29.35 54.35 29.35 54.1 29.35 53.8 29.15 53.55
M 24.45 28.4
Q 24.45 28.7 24.65 28.9
L 34.5 38.1 34.5 38.15
Q 34.7 38.3 35.1 38.3 35.4 38.3 35.6 38.1 35.75 37.85 35.75 37.55 35.75 37.2 35.55 37.05
L 25.7 27.8
Q 25.5 27.6 25.2 27.6 24.8 27.6 24.65 27.8 24.45 28.05 24.45 28.4
M 78.1 27.15
Q 77.8 27.15 77.6 27.35
L 68.2 36.65
Q 68 36.9 68 37.2 68 37.5 68.2 37.7 68.4 37.95 68.7 37.95 69 37.95 69.25 37.7
L 78.6 28.4
Q 78.85 28.2 78.85 27.9 78.85 27.6 78.6 27.35 78.4 27.15 78.1 27.15
M 52.45 18.95
Q 52.2 18.75 51.9 18.75 51.6 18.75 51.4 18.95 51.15 19.2 51.15 19.45
L 51.15 30.2
Q 51.15 30.5 51.4 30.7 51.6 30.95 51.9 30.95 52.2 30.95 52.45 30.7 52.65 30.5 52.65 30.2
L 52.65 19.45
Q 52.65 19.2 52.45 18.95
M 88.45 54.8
Q 88.75 54.8 88.95 54.6 89.2 54.35 89.2 54.1 89.2 53.8 88.95 53.55 88.75 53.35 88.45 53.35
L 75.5 53.35
Q 75.2 53.35 74.95 53.55 74.75 53.8 74.75 54.1 74.75 54.35 74.95 54.6 75.2 54.8 75.5 54.8
L 88.45 54.8 Z"/>

<path fill="url(#Gradient_3)" stroke="none" d="
M 28.9 87.7
Q 27.95 91.5 27.55 94.95 26.7 103.25 29.8 104.7 33 106 38.35 99.6 41.35 96.1 44.1 91.45 43.55 87.1 43.55 82.2 43.55 78.8 43.8 75.65 43.1 75.35 42.55 75.15 40.6 77.3 38.3 79.6 33.5 84.35 28.9 87.7 Z"/>

<path fill="url(#Gradient_4)" stroke="none" d="
M 34.8 69.5
L 34.8 69.4
Q 32.25 66.75 30.85 63.7 28.7 65.55 26.45 67.75 22.5 71.7 19.6 75.45 16.65 79.3 14.7 83 10.85 90.4 13.3 92.85 15.65 95.25 22.95 91.3 25.85 89.8 28.9 87.7 33.5 84.35 38.3 79.6 40.6 77.3 42.55 75.15 38.9 73.5 35.85 70.5
L 26.1 81.7
Q 25.85 81.9 25.55 81.9 25.25 81.9 25.05 81.75 24.75 81.55 24.75 81.25 24.75 80.95 24.95 80.7
L 34.8 69.5 Z"/>

<path fill="url(#Gradient_5)" stroke="none" d="
M 30.25 62.35
Q 27.35 62.5 24.3 62.5 17.8 62.5 12.55 61.65 8.75 63.8 5.85 66.2 -0.65 71.5 0.65 74.7 1.9 77.75 10.15 77.05 14.55 76.75 19.6 75.45 22.5 71.7 26.45 67.75 28.7 65.55 30.85 63.7 30.45 63 30.25 62.35 Z"/>

<path fill="url(#Gradient_6)" stroke="none" d="
M 13.65 46.5
Q 9.05 47.1 5.15 48.25 -2.8 50.75 -2.8 54.15 -2.8 57.55 5.15 60.05 8.5 61.05 12.55 61.65 17.8 62.5 24.3 62.5 27.35 62.5 30.25 62.35 28.85 58.85 28.7 54.8
L 16.55 54.8
Q 16.25 54.8 16.05 54.6 15.8 54.35 15.8 54.1 15.8 53.8 16.05 53.55 16.25 53.35 16.55 53.35
L 28.6 53.35
Q 28.7 49.45 29.9 45.95 27.2 45.8 24.3 45.8 18.5 45.8 13.65 46.5 Z"/>

<path fill="url(#Gradient_7)" stroke="none" d="
M 1.6 32.95
Q 0.25 36.15 6.6 41.5 9.65 44.1 13.65 46.5 18.5 45.8 24.3 45.8 27.2 45.8 29.9 45.95 30.1 45.15 30.45 44.35 28.45 42.55 26.45 40.55 22.2 36.3 19.15 32.2 15 31.1 11.25 30.7 2.95 29.8 1.6 32.95 Z"/>

<path fill="url(#Gradient_8)" stroke="none" d="
M 30.05 21.5
Q 26.45 18.75 23.05 16.95 15.65 13.05 13.2 15.55 10.85 17.9 14.75 25.2 16.5 28.65 19.15 32.2 22.2 36.3 26.45 40.55 28.45 42.55 30.45 44.35 31.9 41 34.5 38.15
L 34.5 38.1 24.65 28.9
Q 24.45 28.7 24.45 28.4 24.45 28.05 24.65 27.8 24.8 27.6 25.2 27.6 25.5 27.6 25.7 27.8
L 35.55 37.05
Q 35.55 36.95 35.6 36.9 38.5 34.05 41.85 32.5 40.15 30.55 38.3 28.7 34.05 24.45 30.05 21.5 Z"/>

<path fill="url(#Gradient_9)" stroke="none" d="
M 43.7 31.7
Q 43.55 29.45 43.55 27.05 43.55 20.95 44.3 15.85 42.1 11.8 39.55 8.75 34.35 2.3 31.2 3.6 28 4.9 28.7 13.05 29 17 30.05 21.5 34.05 24.45 38.3 28.7 40.15 30.55 41.85 32.5 42.75 32.05 43.7 31.7 Z"/>

<path fill="url(#Gradient_10)" stroke="none" d="
M 46.05 7.85
Q 44.9 11.5 44.3 15.85 43.55 20.95 43.55 27.05 43.55 29.45 43.7 31.7 47 30.4 50.7 30.25 50.95 30.2 51.15 30.2
L 51.15 19.45
Q 51.15 19.2 51.4 18.95 51.6 18.75 51.9 18.75 52.2 18.75 52.45 18.95 52.65 19.2 52.65 19.45
L 52.65 30.2
Q 52.7 30.2 52.8 30.2 56.65 30.35 60.15 31.55 60.25 29.35 60.25 27.05 60.25 21.05 59.55 16.05 58.9 11.6 57.8 7.85 55.35 0 51.9 0 48.5 0 46.05 7.85 Z"/>

<path fill="url(#Gradient_11)" stroke="none" d="
M 73.8 21.5
Q 74.9 17.4 75.25 13.75 76.15 5.55 72.95 4.2 69.85 2.8 64.5 9.05 61.9 12.1 59.55 16.05 60.25 21.05 60.25 27.05 60.25 29.35 60.15 31.55 61.15 31.9 62.1 32.35 63.65 30.55 65.45 28.8 69.7 24.55 73.8 21.5 Z"/>

<path fill="url(#Gradient_12)" stroke="none" d="
M 90.55 92.85
Q 93 90.4 89.1 83.1 87.55 80.1 85.4 77.05 82.05 72.45 77.3 67.7 75.2 65.6 73.2 63.9 71.6 67 69 69.7
L 80.65 80.95
Q 80.85 81.15 80.85 81.45 80.85 81.75 80.65 82 80.4 82.2 80.1 82.2 79.8 82.2 79.6 82
L 68 70.75
Q 67.55 71.2 67.1 71.55 64.4 73.85 61.45 75.2 63.3 77.35 65.45 79.55 69 83.1 72.45 85.85 76.7 89.2 80.85 91.35 88.15 95.25 90.55 92.85 Z"/>

<path fill="url(#Gradient_13)" stroke="none" d="
M 97.15 67.6
Q 93.75 64.65 89.05 61.95 84.55 62.5 79.45 62.5 76.55 62.5 73.95 62.35 73.55 63.1 73.2 63.9 75.2 65.6 77.3 67.7 82.05 72.45 85.4 77.05 89.1 78.05 92.45 78.4 100.7 79.3 102.05 76.1 103.4 73 97.15 67.6 Z"/>

<path fill="url(#Gradient_14)" stroke="none" d="
M 102.2 34.15
Q 100.95 30.95 92.75 31.6 88.6 31.9 84 33.1 81.1 36.8 77.3 40.6 75.4 42.45 73.55 44.2 73.95 45 74.3 45.95 76.75 45.8 79.45 45.8 85.75 45.8 91.1 46.65 94.4 44.65 97.05 42.45 103.45 37.35 102.2 34.15 Z"/>

<path fill="url(#Gradient_15)" stroke="none" d="
M 98.65 48.25
Q 95.15 47.25 91.1 46.65 85.75 45.8 79.45 45.8 76.75 45.8 74.3 45.95 75.4 49.4 75.5 53.35
L 88.45 53.35
Q 88.75 53.35 88.95 53.55 89.2 53.8 89.2 54.1 89.2 54.35 88.95 54.6 88.75 54.8 88.45 54.8
L 75.5 54.8
Q 75.4 55.25 75.4 55.7 75.1 59.2 73.95 62.35 76.55 62.5 79.45 62.5 84.55 62.5 89.05 61.95 94.3 61.35 98.65 60.05 106.5 57.55 106.5 54.15 106.5 50.75 98.65 48.25 Z"/>

<path fill="url(#Gradient_16)" stroke="none" d="
M 84 33.1
Q 87.1 29.05 89.1 25.2 93 17.9 90.6 15.55 88.15 13.05 80.85 16.95 77.35 18.75 73.8 21.5 69.7 24.55 65.45 28.8 63.65 30.55 62.1 32.35 65.3 33.9 68.05 36.5 68.15 36.6 68.2 36.65
L 77.6 27.35
Q 77.8 27.15 78.1 27.15 78.4 27.15 78.6 27.35 78.85 27.6 78.85 27.9 78.85 28.2 78.6 28.4
L 69.25 37.7
Q 69.45 37.95 69.7 38.25 72.15 41 73.55 44.2 75.4 42.45 77.3 40.6 81.1 36.8 84 33.1 Z"/>
</g>

<g id="Layer0_0_MEMBER_0_FILL">
<path fill="#FF9900" stroke="none" d="
M 829.2 393
Q 829.2 393.25 829.3 393.55 829.35 397.65 830.85 401.25 831.05 401.9 831.45 402.6 832.95 405.8 835.6 408.55 835.7 408.7 835.9 408.85 836 409 836.05 409.05 836.15 409.1 836.3 409.25 839.4 412.3 843.15 414.05 843.7 414.25 844.4 414.55 847.5 415.65 851.1 415.95 851.7 415.95 852.35 415.95 852.45 415.95 852.5 415.95 852.6 415.95 852.65 415.95 856.9 415.95 860.6 414.65 861.3 414.4 862.05 414.1 865 412.75 867.7 410.45 868.3 409.95 868.9 409.35 869 409.2 869.1 409.1
L 869.15 409.05
Q 872.1 406.15 873.8 402.8 874.15 402 874.55 401.25 875.7 398.1 876 394.6 876.1 393.8 876.1 393 876.1 392.75 876.1 392.55 876.1 388.45 874.9 384.85 874.55 383.9 874.15 383.1 872.75 379.9 870.3 377.15 869.75 376.55 869.3 376.1 869.25 376 869.15 375.95 868.9 375.65 868.65 375.4 865.9 372.8 862.7 371.25 861.75 370.8 860.75 370.45 857.25 369.25 853.4 369.1 853.05 369.1 852.65 369.1 852.6 369.1 852.5 369.1 851.9 369.1 851.3 369.15 847.6 369.3 844.3 370.6 843.35 370.95 842.45 371.4 839.1 372.95 836.2 375.8 836.15 375.85 836.05 375.95 835.85 376.15 835.6 376.45 835.3 376.75 835.1 377.05 832.5 379.9 831.05 383.25 830.7 384.05 830.5 384.85 829.2 388.35 829.2 392.3 829.2 392.45 829.2 392.55 829.2 392.75 829.2 393 Z"/>
</g>
</defs>

<g transform="matrix( 1, 0, 0, 1, 0,0) ">
<use xlink:href="#Layer1_0_FILL"/>
</g>

<g transform="matrix( 0.9423675537109375, 0, 0, 0.9423675537109375, 2.65,0) ">
<use xlink:href="#Layer0_0_FILL"/>
</g>

<g transform="matrix( 0.9423675537109375, 0, 0, 0.9423675537109375, -751.75,-319.3) ">
<use xlink:href="#Layer0_0_MEMBER_0_FILL"/>
</g>
</svg>
