
<svg xmlns="http://www.w3.org/2000/svg" version="1.1" xmlns:xlink="http://www.w3.org/1999/xlink" preserveAspectRatio="none" x="0px" y="0px" width="473px" height="473px" viewBox="0 0 473 473">
<defs>
<linearGradient id="Gradient_1" gradientUnits="userSpaceOnUse" x1="321.825" y1="454.08750000000003" x2="272.77500000000003" y2="326.5125" spreadMethod="pad">
<stop  offset="0%" stop-color="#FFFFFF"/>

<stop  offset="15.294117647058824%" stop-color="#FFFFFF"/>

<stop  offset="90.19607843137256%" stop-color="#A1A09F"/>
</linearGradient>

<linearGradient id="Gradient_2" gradientUnits="userSpaceOnUse" x1="142.0875" y1="453.025" x2="196.01250000000002" y2="324.975" spreadMethod="pad">
<stop  offset="0%" stop-color="#FFFFFF"/>

<stop  offset="15.294117647058824%" stop-color="#FFFFFF"/>

<stop  offset="90.19607843137256%" stop-color="#A1A09F"/>
</linearGradient>

<linearGradient id="Gradient_3" gradientUnits="userSpaceOnUse" x1="229.0875" y1="471.4875" x2="238.61249999999998" y2="325.0125" spreadMethod="pad">
<stop  offset="0%" stop-color="#FFFFFF"/>

<stop  offset="15.294117647058824%" stop-color="#FFFFFF"/>

<stop  offset="60.3921568627451%" stop-color="#ECECBA"/>

<stop  offset="100%" stop-color="#A1A09F"/>
</linearGradient>

<linearGradient id="Gradient_4" gradientUnits="userSpaceOnUse" x1="61.099999999999994" y1="389.82500000000005" x2="176.5" y2="299.275" spreadMethod="pad">
<stop  offset="0%" stop-color="#FFFFFF"/>

<stop  offset="15.294117647058824%" stop-color="#FFFFFF"/>

<stop  offset="60.3921568627451%" stop-color="#ECECBA"/>

<stop  offset="100%" stop-color="#A1A09F"/>
</linearGradient>

<linearGradient id="Gradient_5" gradientUnits="userSpaceOnUse" x1="16.012499999999996" y1="324.3625" x2="143.5875" y2="270.6375" spreadMethod="pad">
<stop  offset="0%" stop-color="#FFFFFF"/>

<stop  offset="15.294117647058824%" stop-color="#FFFFFF"/>

<stop  offset="90.19607843137256%" stop-color="#A1A09F"/>
</linearGradient>

<linearGradient id="Gradient_6" gradientUnits="userSpaceOnUse" x1="0.44999999999998863" y1="234.05" x2="143.15" y2="234.05" spreadMethod="pad">
<stop  offset="0%" stop-color="#FFFFFF"/>

<stop  offset="15.294117647058824%" stop-color="#FFFFFF"/>

<stop  offset="60.3921568627451%" stop-color="#ECECBA"/>

<stop  offset="100%" stop-color="#A1A09F"/>
</linearGradient>

<linearGradient id="Gradient_7" gradientUnits="userSpaceOnUse" x1="19.075000000000003" y1="144.1125" x2="143.325" y2="194.4875" spreadMethod="pad">
<stop  offset="0%" stop-color="#FFFFFF"/>

<stop  offset="15.294117647058824%" stop-color="#FFFFFF"/>

<stop  offset="90.19607843137256%" stop-color="#A1A09F"/>
</linearGradient>

<linearGradient id="Gradient_8" gradientUnits="userSpaceOnUse" x1="77.8875" y1="60.287499999999994" x2="169.5125" y2="169.9125" spreadMethod="pad">
<stop  offset="0%" stop-color="#FFFFFF"/>

<stop  offset="15.294117647058824%" stop-color="#FFFFFF"/>

<stop  offset="60.3921568627451%" stop-color="#ECECBA"/>

<stop  offset="100%" stop-color="#A1A09F"/>
</linearGradient>

<linearGradient id="Gradient_9" gradientUnits="userSpaceOnUse" x1="149.58749999999998" y1="15.337499999999991" x2="194.6125" y2="140.2625" spreadMethod="pad">
<stop  offset="0%" stop-color="#FFFFFF"/>

<stop  offset="15.294117647058824%" stop-color="#FFFFFF"/>

<stop  offset="90.19607843137256%" stop-color="#A1A09F"/>
</linearGradient>

<linearGradient id="Gradient_10" gradientUnits="userSpaceOnUse" x1="236.45" y1="-0.012500000000002842" x2="236.45" y2="136.91250000000002" spreadMethod="pad">
<stop  offset="0%" stop-color="#FFFFFF"/>

<stop  offset="15.294117647058824%" stop-color="#FFFFFF"/>

<stop  offset="60.3921568627451%" stop-color="#ECECBA"/>

<stop  offset="100%" stop-color="#A1A09F"/>
</linearGradient>

<linearGradient id="Gradient_11" gradientUnits="userSpaceOnUse" x1="416.1125" y1="353.2125" x2="278.08750000000003" y2="322.5875" spreadMethod="pad">
<stop  offset="0%" stop-color="#FFFFFF"/>

<stop  offset="15.294117647058824%" stop-color="#FFFFFF"/>

<stop  offset="60.3921568627451%" stop-color="#ECECBA"/>

<stop  offset="100%" stop-color="#A1A09F"/>
</linearGradient>

<linearGradient id="Gradient_12" gradientUnits="userSpaceOnUse" x1="450.875" y1="333.5" x2="331.92499999999995" y2="269.4" spreadMethod="pad">
<stop  offset="0%" stop-color="#FFFFFF"/>

<stop  offset="15.294117647058824%" stop-color="#FFFFFF"/>

<stop  offset="90.19607843137256%" stop-color="#A1A09F"/>
</linearGradient>

<linearGradient id="Gradient_13" gradientUnits="userSpaceOnUse" x1="467.4375" y1="257.075" x2="326.9625" y2="226.025" spreadMethod="pad">
<stop  offset="0%" stop-color="#FFFFFF"/>

<stop  offset="15.294117647058824%" stop-color="#FFFFFF"/>

<stop  offset="60.3921568627451%" stop-color="#ECECBA"/>

<stop  offset="100%" stop-color="#A1A09F"/>
</linearGradient>

<linearGradient id="Gradient_14" gradientUnits="userSpaceOnUse" x1="455.16249999999997" y1="150.8125" x2="331.1375" y2="192.9875" spreadMethod="pad">
<stop  offset="0%" stop-color="#FFFFFF"/>

<stop  offset="15.294117647058824%" stop-color="#FFFFFF"/>

<stop  offset="90.19607843137256%" stop-color="#A1A09F"/>
</linearGradient>

<linearGradient id="Gradient_15" gradientUnits="userSpaceOnUse" x1="401.575" y1="65.3" x2="304.825" y2="166.7" spreadMethod="pad">
<stop  offset="0%" stop-color="#FFFFFF"/>

<stop  offset="15.294117647058824%" stop-color="#FFFFFF"/>

<stop  offset="60.3921568627451%" stop-color="#ECECBA"/>

<stop  offset="100%" stop-color="#A1A09F"/>
</linearGradient>

<linearGradient id="Gradient_16" gradientUnits="userSpaceOnUse" x1="285.3375" y1="29.137499999999996" x2="319.9625" y2="125.4625" spreadMethod="pad">
<stop  offset="0%" stop-color="#FFFFFF"/>

<stop  offset="15.294117647058824%" stop-color="#FFFFFF"/>

<stop  offset="90.19607843137256%" stop-color="#A1A09F"/>
</linearGradient>

<radialGradient id="Gradient_17" gradientUnits="userSpaceOnUse" cx="0" cy="0" r="111.07499999999999" fx="0" fy="0" gradientTransform="matrix( 1, 0, 0, 1, 234.75,224.9) " spreadMethod="pad">
<stop  offset="0%" stop-color="#FFFF00"/>

<stop  offset="37.64705882352941%" stop-color="#FFFF00"/>

<stop  offset="100%" stop-color="#D48205"/>
</radialGradient>

<g id="Layer1_0_FILL">
<path fill="#FFFFFF" stroke="none" d="
M 361.65 73.4
Q 346.6 80.9 331.1 92.9 335.95 75.15 337.75 59.65 341.25 24.1 327.5 18.35 314.2 12.1 291.1 39.15 279.55 52.45 269.8 69.45 266.65 50.25 262.3 34.25 251.6 0.15 236.5 0.15 221.85 0.15 211.2 34.25 206.35 49.85 204.15 68.5 194.4 51.25 183.25 37.9 161.1 9.9 147.25 15.6 133.55 21.45 136.6 56.5 137.6 73.8 142.5 92.9 126.9 80.9 112.2 73.4 80.25 56.5 69.65 67.15 59.45 77.3 76.3 108.85 83.8 123.95 95.35 139 77.15 134.65 61.25 132.9 25.25 128.85 19.5 142.65 13.7 156.35 41.3 179.45 54.05 190.5 71.4 200.8 51.45 203.45 35 208.7 0.4 219.45 0.4 234.1 0.4 248.7 35 259.4 49.15 263.75 66.5 266.45 50.5 275.85 37.7 286 9.7 309.1 15.45 322.85 20.8 335.7 56.35 333 75.35 331.65 97.1 326 84.3 342.8 75.75 358.8 59.45 390.35 70.1 400.95 80.25 411.6 111.75 394.3 124.25 388.05 137.6 378.8 133.1 395.15 131.8 410.3 127.8 446.2 141.1 452.05 155.25 457.75 178.35 430.25 191.25 415.1 202.8 395.15 204.95 418.25 211.2 437.75 219.25 462.65 229.05 469.7 236.8 476.05 244.55 469.7 254.25 462.65 262.3 437.75 266.25 424.05 268.95 408 277.35 420.95 285.85 432.05 308.4 459.55 322.2 454.2 335.55 448.9 332.85 413.35 331.45 393.35 325.25 370.8 343.45 385.45 361.65 394.7 393.15 411.6 403.4 400.95 414.1 390.35 397.2 359.25 390.55 346.35 381.2 333 397.2 337 411.9 338.85 447.35 342.8 453.1 328.55 458.9 315.2 431.85 292.25 417.2 279.35 397.2 267.8 419.8 265.1 438.5 259.4 472.65 248.7 472.65 234.1 472.65 219.45 438.5 208.7 423.35 204.35 406.05 201.6 420.3 192.8 431.85 183.4 459.35 161.25 454 147.55 448.2 133.7 413.1 136.85 394.9 138.15 374.95 143.05 388.8 125.7 397.2 108.85 414.1 77.3 403.85 67.15 393.15 56.5 361.65 73.4 Z"/>
</g>

<g id="Layer0_0_FILL">
<path fill="url(#Gradient_1)" stroke="none" d="
M 277.8 325
Q 274.65 326.35 271.55 327.3 272.45 340.6 272.45 355.2 272.45 384.1 268.95 408 277.35 420.95 285.85 432.05 308.4 459.55 322.2 454.2 335.55 448.9 332.85 413.35 331.45 393.35 325.25 370.8 310.7 359.25 295.05 343.65 285.85 334.4 277.8 325 Z"/>

<path fill="url(#Gradient_2)" stroke="none" d="
M 196.15 324.6
Q 187.75 333.95 177.95 344.15 157.55 364.5 137.6 378.8 133.1 395.15 131.8 410.3 127.8 446.2 141.1 452.05 155.25 457.75 178.35 430.25 191.25 415.1 202.8 395.15 200.5 376.5 200.5 355.2 200.5 340.6 201.45 326.75 198.75 325.55 196.15 324.6 Z"/>

<path fill="url(#Gradient_3)" stroke="none" d="
M 240.05 333
Q 231.7 333 230.8 333 215.2 331.65 201.45 326.75 200.5 340.6 200.5 355.2 200.5 376.5 202.8 395.15 204.95 418.25 211.2 437.75 219.25 462.65 229.05 469.7 236.8 476.05 244.55 469.7 254.25 462.65 262.3 437.75 266.25 424.05 268.95 408 272.45 384.1 272.45 355.2 272.45 340.6 271.55 327.3 258.7 332 244.1 332.9 244.85 332.9 245.55 333 242.45 333 240.05 333 Z"/>

<path fill="url(#Gradient_4)" stroke="none" d="
M 146 275.3
Q 136.6 283.3 126.9 292.65 109.6 309.95 97.1 326 84.3 342.8 75.75 358.8 59.45 390.35 70.1 400.95 80.25 411.6 111.75 394.3 124.25 388.05 137.6 378.8 157.55 364.5 177.95 344.15 187.75 333.95 196.15 324.6 180.55 317.5 167.25 304.65
L 167.55 304.4
Q 151.3 287.4 146 275.3 Z"/>

<path fill="url(#Gradient_5)" stroke="none" d="
M 126.9 292.65
Q 136.6 283.3 146 275.3 144.25 272.25 143.25 269.55 130.9 269.95 117.6 269.95 89.6 269.95 66.5 266.45 50.5 275.85 37.7 286 9.7 309.1 15.45 322.85 20.8 335.7 56.35 333 75.35 331.65 97.1 326 109.6 309.95 126.9 292.65 Z"/>

<path fill="url(#Gradient_6)" stroke="none" d="
M 136.75 227
Q 136.4 230.45 136.25 230.45 136.6 213.6 141.5 198.55 129.95 198.1 117.6 198.1 92.2 198.1 71.4 200.8 51.45 203.45 35 208.7 0.4 219.45 0.4 234.1 0.4 248.7 35 259.4 49.15 263.75 66.5 266.45 89.6 269.95 117.6 269.95 130.9 269.95 143.25 269.55 137.25 255 136.75 227 Z"/>

<path fill="url(#Gradient_7)" stroke="none" d="
M 61.25 132.9
Q 25.25 128.85 19.5 142.65 13.7 156.35 41.3 179.45 54.05 190.5 71.4 200.8 92.2 198.1 117.6 198.1 129.95 198.1 141.5 198.55 142.5 194.95 144.25 191.45 135.3 183.85 126.9 175 108.65 156.8 95.35 139 77.15 134.65 61.25 132.9 Z"/>

<path fill="url(#Gradient_8)" stroke="none" d="
M 193.4 140.35
Q 185.95 131.95 177.95 123.95 159.7 105.75 142.5 92.9 126.9 80.9 112.2 73.4 80.25 56.5 69.65 67.15 59.45 77.3 76.3 108.85 83.8 123.95 95.35 139 108.65 156.8 126.9 175 135.3 183.85 144.25 191.45 150 178.05 165.95 159.95
L 166.4 159.5
Q 166.9 159 167.55 158.45 179.4 147.2 193.4 140.35 Z"/>

<path fill="url(#Gradient_9)" stroke="none" d="
M 204.15 68.5
Q 194.4 51.25 183.25 37.9 161.1 9.9 147.25 15.6 133.55 21.45 136.6 56.5 137.6 73.8 142.5 92.9 159.7 105.75 177.95 123.95 185.95 131.95 193.4 140.35 197 138.6 201.45 136.85 200.5 127.55 200.5 116.85 200.5 90.6 204.15 68.5 Z"/>

<path fill="url(#Gradient_10)" stroke="none" d="
M 269.8 69.45
Q 266.65 50.25 262.3 34.25 251.6 0.15 236.5 0.15 221.85 0.15 211.2 34.25 206.35 49.85 204.15 68.5 200.5 90.6 200.5 116.85 200.5 127.55 201.45 136.85 213.1 132.45 225.8 131.4
L 232.55 130.8 247.7 131.15
Q 260.65 132.25 272.45 136.4 272.45 127.05 272.45 116.85 272.45 91.15 269.8 69.45 Z"/>

<path fill="url(#Gradient_11)" stroke="none" d="
M 346.15 292.65
Q 337.3 283.3 328.35 276.2 321.7 289.55 311.7 300.6
L 311.2 301.6
Q 304.05 307.75 302.25 309.1 290.7 319.25 277.8 325 285.85 334.4 295.05 343.65 310.7 359.25 325.25 370.8 343.45 385.45 361.65 394.7 393.15 411.6 403.4 400.95 414.1 390.35 397.2 359.25 390.55 346.35 381.2 333 367.05 313.05 346.15 292.65 Z"/>

<path fill="url(#Gradient_12)" stroke="none" d="
M 328.35 276.2
Q 337.3 283.3 346.15 292.65 367.05 313.05 381.2 333 397.2 337 411.9 338.85 447.35 342.8 453.1 328.55 458.9 315.2 431.85 292.25 417.2 279.35 397.2 267.8 377.65 269.95 355.5 269.95 343 269.95 331.9 269.55 330.15 272.7 328.35 276.2 Z"/>

<path fill="url(#Gradient_13)" stroke="none" d="
M 438.5 208.7
Q 423.35 204.35 406.05 201.6 383 198.1 355.5 198.1 343.95 198.1 333.25 198.55 337.95 212.85 338.55 229 338.55 229.2 338.55 229.4 338.55 229.95 338.55 230.45 338.1 239.2 338.1 240.75 336.8 255.8 331.9 269.55 343 269.95 355.5 269.95 377.65 269.95 397.2 267.8 419.8 265.1 438.5 259.4 472.65 248.7 472.65 234.1 472.65 219.45 438.5 208.7 Z"/>

<path fill="url(#Gradient_14)" stroke="none" d="
M 346.15 175.45
Q 338.1 183.4 330.15 191.05 331.9 194.6 333.25 198.55 343.95 198.1 355.5 198.1 383 198.1 406.05 201.6 420.3 192.8 431.85 183.4 459.35 161.25 454 147.55 448.2 133.7 413.1 136.85 394.9 138.15 374.95 143.05 362.6 159 346.15 175.45 Z"/>

<path fill="url(#Gradient_15)" stroke="none" d="
M 361.65 73.4
Q 346.6 80.9 331.1 92.9 313.25 106.3 295.05 124.45 287.6 131.95 280.95 139.95 293.95 146.3 305.05 156.6 304.75 156.25 304.45 155.95 305.9 157.35 307.15 158.55 312.55 164.1 313.25 165.2 324 177.2 330.15 191.05 338.1 183.4 346.15 175.45 362.6 159 374.95 143.05 388.8 125.7 397.2 108.85 414.1 77.3 403.85 67.15 393.15 56.5 361.65 73.4 Z"/>

<path fill="url(#Gradient_16)" stroke="none" d="
M 331.1 92.9
Q 335.95 75.15 337.75 59.65 341.25 24.1 327.5 18.35 314.2 12.1 291.1 39.15 279.55 52.45 269.8 69.45 272.45 91.15 272.45 116.85 272.45 127.05 272.45 136.4 276.45 138.15 280.95 139.95 287.6 131.95 295.05 124.45 313.25 106.3 331.1 92.9 Z"/>
</g>

<g id="Layer0_0_MEMBER_0_FILL">
<path fill="url(#Gradient_17)" stroke="none" d="
M 336.25 196.2
Q 334.9 192.15 333.05 188.4 326.7 174.25 315.65 161.85 313.45 159.1 311.5 157.35 311.05 156.9 311.05 156.5 309.7 155.4 308.4 154.1 296.5 142.75 282.25 135.9 277.8 134 273.55 132.15 258.05 126.6 240.7 126.2 238.75 126.2 237.45 126.2 237 126.2 236.5 126.2 234.2 126.2 231.55 126.6 215.1 127.15 200.3 132.65 195.8 134.45 192.1 136.3 177.15 143.6 164.2 155.85 163.85 156.5 163.4 156.5 162.35 157.7 161.55 159.1 160.15 160.1 159.15 161.5 147.7 174.25 141.3 188.95 139.55 192.55 138.65 196.2 133.1 211.8 133.1 229.7 133.1 230.1 133.1 230.5 133.1 231.45 133.1 232.25 133.1 233.75 133.55 235.1 133.55 253.5 140.4 269.4 141.3 272.25 143.25 275.35 149.65 289.6 161.55 301.9 161.9 302.35 162.85 302.8 163.4 303.75 163.4 304.2 163.85 304.2 164.65 305.1 178.35 318.4 194.9 326.1 197.75 327.1 200.3 328.5 214.55 333.5 230.55 334.85 232.85 334.85 236.1 334.85
L 236.5 334.85
Q 237 334.85 237.45 334.85 256.15 334.85 272.65 328.95 275.9 327.95 279.05 326.65 292.35 320.7 304.25 310.2 307 307.8 309.7 305.1 310.25 304.65 310.7 304.2
L 311.05 304.2
Q 324 290.95 331.3 276.3 333.05 272.65 334.9 269.4 339.9 255.25 341.35 239.65 341.75 236.05 341.75 232.25 341.75 231.45 341.75 230.5 341.75 212.2 336.25 196.2 Z"/>
</g>
</defs>

<g transform="matrix( 1, 0, 0, 1, 0,0) ">
<use xlink:href="#Layer1_0_FILL"/>
</g>

<g transform="matrix( 1, 0, 0, 1, 0,0) ">
<use xlink:href="#Layer0_0_FILL"/>
</g>

<g transform="matrix( 1, 0, 0, 1, 0,0) ">
<use xlink:href="#Layer0_0_MEMBER_0_FILL"/>
</g>
</svg>
