
<svg xmlns="http://www.w3.org/2000/svg" version="1.1" xmlns:xlink="http://www.w3.org/1999/xlink" preserveAspectRatio="none" x="0px" y="0px" width="1200px" height="548px" viewBox="0 0 1200 548">
<defs>
<g id="Layer1_0_FILL">
<path fill="#336600" stroke="none" d="
M 616.9 86.55
Q 617 86.2 617.1 85.9
L 609.75 85.9
Q 609.5 86.15 609.3 86.4 608.15 87.5 608 88.35 607.45 91.05 607.45 94.7 607.45 96.95 607.65 100.9 607.65 101.25 607.45 107.85 607.25 112 607.65 114.05 608 116.8 605.25 119.45 602.1 122.05 602.5 126.25 610.85 125.15 619.85 125 620.35 125 620.5 125 620.9 125 621.25 125 621.25 123.15 620.5 121.65 619.7 120.2 618.05 118.45 616.55 117 616 115.3 615.25 113.1 615.25 107.5 615.65 102.35 615.65 101.8 615.65 92.9 615.8 91.4 616.05 89.15 616.9 86.55 Z"/>

<path fill="#88B11A" stroke="none" d="
M 685.8 147.95
Q 685.1 147.4 684.7 146.85 678.35 140.45 669.7 135 666.7 133.55 663.9 132.25 655.35 128.1 646.65 126.8 637.7 125.55 629.5 125.15 625.3 125 621.25 125 620.9 125 620.5 125 620.35 125 619.85 125 610.85 125.15 602.5 126.25 562.55 131.9 537.25 161.6 533.8 165.65 530.55 170.3 529.8 171.25 529.25 172.15 528.55 173.1 527.8 174.2 527.05 175.3 526.35 176.55 524.1 176.95 522.1 177.3 510.35 180.15 504.25 189.65 494.95 203.5 494.95 216.65 494.95 250.35 506.1 310.85 506.1 311.05 506.1 311.2 507.55 319.2 509.2 327.95 511.25 338.7 513.55 348.75 514.1 351.5 514.85 354.25 517.6 367.9 520.7 380.5 520.7 380.85 520.9 381.2 526.15 403.95 527.25 432.45 527.25 434.35 527.45 436.2 527.45 439.15 527.45 442.1 527.45 455.7 526.15 468.3 525.6 473.55 524.85 478.5 523.55 486.35 521.65 493.8 515.2 520.1 514.45 524.8 509.75 536.65 513.35 542.45 513.9 543.75 515.2 544.65 520 548.7 532.5 547.05 550.45 544.65 559.7 543.2 559.9 543.2 560.1 543.2 564.95 542.25 567.55 541.9 574.45 540.15 578.3 539.4 583 540.35 587.4 540.5 602.85 540.9 616 532.6 616.75 532.05 617.5 531.5 617.85 531.05 618.2 530.85 628.8 523.5 639.35 516.4 645.9 512.2 652.25 508.05 655.9 505.65 659.25 502.9 662.25 500.4 665.05 497.65 671.75 490.95 677.05 482.5 686 470.9 690.7 460.15 690.85 459.95 690.85 459.6 691.05 459.4 691.25 459 691.25 458.85 691.4 458.65 691.95 456.8 692.7 455 695.3 447 695.65 439.35 695.85 436.6 695.85 433.8 695.85 426.35 695.3 418.35 694.75 413.95 694.35 409.25 694.2 408 694 406.85 693.1 399.25 691.8 391.05 691.6 390.3 691.8 389.6
L 691.8 389.4
Q 691.6 385.15 691.6 377.15 691.6 376.8 691.6 376.25 691.6 362.8 704.55 341.5 704.55 341.3 704.75 341.1 706.25 338.55 707.7 336.15 717.15 319.4 718.55 312.9 718.55 312.5 718.55 312.35 718.9 308.3 719.1 305.05 719.1 302.65 719.1 300.65 718.75 296.25 717.9 294.1 717.35 292.85 717 291.55 716.45 290.45 716.05 289.5
L 715.9 289.35
Q 714.6 286.2 714.05 283.35 714.05 283 714.05 282.6 713.15 276.55 716.05 271.85 715.7 271.65 715.35 271.65
L 717.75 269.45 731.5 254
Q 743.4 233.4 731.5 212.65
L 718.9 197.8
Q 718.9 197.65 719.1 197.45 720.6 193.15 720.4 190.2 720.2 187.35 718.9 185.5 718.1 184.95 717.35 184.4 714.05 181.8 711.45 179.6 709.25 177.75 707.35 176 704.55 173.25 702.55 170.85 701.8 169.95 701.1 169.05 699.8 167.1 699.05 165.45 697.3 162.3 694.75 158.8 691.25 153.75 685.8 147.95
M 648.45 135
Q 651.15 136.1 653.9 137.2 670.45 144.5 678.2 156.35 678 156.9 677.8 157.65 676.15 161.95 666.3 162.3 664.65 163.05 663.35 163.6 660.6 164.15 658.3 163.6 654.65 162.5 652.4 162.5 648.1 162.5 625.85 165.65 625.65 165.65 625.5 165.8 623.25 166 620.9 166.35 619.15 166.55 617.65 166.9 617.5 166.9 617.3 166.9 616.2 167.1 615.25 167.3 593.95 170.3 593 170.3 587.05 170.3 583.55 170.15 580.95 169.95 579.4 169.6 571.85 167.95 571.85 162.7 571.85 160.65 575.55 157.65 577.75 155.95 583 152.3 584.45 151.2 585 147.05 585.55 142.45 588.5 139.5 593 135.2 603.2 132.45 612.15 130.05 620.35 130.05 624.2 130.05 628.05 130.4 637.55 131.3 646.65 134.45
L 648.45 135
M 674.7 172.15
Q 678.9 172.35 682.3 172.7 685.65 173.1 688 173.45 691.4 174 693.25 174.55 695.3 174.9 697.3 175.65 698.85 176.2 700 176.75 700.35 176.75 700.9 177.15 703.1 178.15 704.55 179.45 706.8 181.65 706.8 184.2 706.8 184.4 706.8 184.75 706.8 185.5 706.6 186.25 706.4 186.95 706.25 187.35 705.5 188.9 703.1 189.1 702.55 189.1 702.2 189.1 700.35 189.1 697.5 188.55 696.4 188.35 695.1 188.15 690.7 186.95 684.5 184.95 683.6 184.6 682.85 184.4 678.2 182.9 672.3 182.2 671 181.8 669.55 181.8 667.4 181.45 665.2 181.25 661.35 180.9 656.85 180.9
L 656.65 180.9
Q 656.3 180.7 655.9 180.9 653.15 180.7 650.4 180.7 639.8 180.7 628.05 182.35
L 627.85 182.35
Q 623.45 183.1 619.15 183.85 610.05 185.7 606.55 186.4 604.3 186.8 603.95 186.8 602.1 187.15 601.4 187.15 600.2 186.95 597.45 185.3
L 597.45 180.15
Q 601 176 609.3 173.25 611.2 172.55 613.05 172.15 615.65 171.4 618.2 171.05 622.15 170.3 626.05 170.15 626.2 170.15 626.4 170.15 626.75 170.15 627.15 170.15 641.3 170.15 657.6 171.05 661.7 171.25 665.95 171.4 667.25 171.6 668.5 171.6 671.75 171.8 674.7 172.15
M 669.55 194.95
Q 672.5 195.35 676.9 196.05 683.95 197 694.55 198.75 696.55 199.5 698.6 200.4 699.4 200.75 700.15 201.15 704.2 203.15 707.7 205.35 708.7 205.75 709.65 206.3 709.65 206.45 709.8 206.45 726.1 217.3 726.1 230.45 726.1 233.95 723.15 240.15 721.5 243.45 719.65 247.05
L 716.05 247.05
Q 714.4 246.2 699.25 234.35 698.85 233.95 698.4 233.8 685.45 223.75 671.75 220.25 667.4 220.1 663.35 220.1 659.05 219.9 655.2 219.7 649.4 219.35 644.25 219.15 638.45 218.8 633.5 218.4 612.7 216.85 607.65 209.5 605.8 206.85 605.8 203.7 605.8 195.7 613.8 194.05 614.15 193.85 614.55 193.85 615.45 193.7 622.35 193.7 628.05 193.5 638.65 193.5 640.4 193.5 642.05 193.5 643.15 193.5 644.05 193.5 659.25 193.5 661.9 193.85 663.75 194.05 669.55 194.95
M 667.4 293.2
Q 671 291 674.85 289.5 684.35 285.55 694.75 285.55 696.95 285.55 698.85 285.85 701.65 287.3 704.2 290.05 704.4 290.25 704.55 290.6 712.2 298.8 712.2 309.75
L 712.2 309.95
Q 712.2 314.55 702.2 333.1 700.7 335.95 699.4 338.35 690.3 353.35 685.1 353.35 676.5 351.7 675.05 351.15 673.75 350.4 672.85 346 671.9 340.4 669.9 337.25 669.55 336.7 669.05 336.35 665.6 331.8 655.75 327.6 654.65 327.05 653.7 326.65 650.75 325.2 649 323.8 646.45 321.6 646.45 319.6 646.45 317.55 647 315.55 649.2 306.6 661.35 297.35 664.3 295.05 667.4 293.2
M 679.35 410.2
Q 681.2 412.95 682.5 415.25 685.45 420.05 686 422.4 686.2 422.95 686.35 424.15 686.75 427.5 686.75 435.85 686.75 439.35 686.2 443.5 685.25 449.2 683.25 456.45 682.7 458.1 678 465.9 673.05 474.5 669.55 477.4 665.95 480.2 660.8 487.25 659.05 489.45 656.65 491.85 651.5 496.55 642.4 501.5 629.15 509.35 627.7 500.95 637.15 484.85 637.15 473.2 637.15 462.8 634.6 451.95 633.65 448.45 633.1 444.75 632.75 442.45 632.55 440.45 632.35 438.25 632.2 436.2 632 433.25 632 430.4 632 418.75 635.85 413.15 640.95 405.95 653.7 404.85 655.75 404.65 658.15 404.65 659.6 404.25 662 404.2 665.8 404.2 667.95 404.7 669.3 405 671.05 405.75 671.45 405.75 671.55 405.75 674.3 406.15 676.15 407.25 678.2 408.35 679.35 410.2
M 517.8 194.4
Q 517.8 186.4 523.95 185.15 526.9 184.6 529.65 184.75 529.8 184.75 530 184.75 530.2 184.75 530.4 184.75 546.55 185.15 560.1 198.55 569.55 207.85 584.1 230.85
L 584.1 231
Q 585.75 233.8 589.6 237 593.4 240.15 599.25 243.6 605.25 247.4 609.1 250.35 612.9 253.3 614.35 255.5 614.55 255.65 614.55 255.85 620.9 265.35 622.35 275.35 622.7 278.2 623.1 283.35 623.45 284.65 624.2 286.2 624.95 288.05 625.5 289.7 626.2 292.1 626.75 294.3 628.25 299.9 628.25 304.15 628.25 317 621.45 334.05 621.05 335.05 620.7 335.95 618.05 342.05 614.55 348.55 614 349.65 613.45 350.75 609.85 357.65 607.45 363.9 607.25 364.1 607.25 364.4 607.1 364.4 607.1 364.55
L 607.1 364.65
Q 606.9 365.3 606.55 366.05 605.05 369.55 603.75 386.1 602.5 402 603.05 416.7 604.85 430.25 604.85 442.45
L 603.75 478.7
Q 601.55 491.3 599.25 494.9 596.7 498.4 594.1 492.85 593.75 485.05 593.55 480.35 593.2 476.15 593 473.75 592.85 470.7 592.65 470.15 592.1 468.7 591.7 467.2 590.8 460.85 590.55 454.05 590.35 453.85 590.55 453.7 590.35 452.5 590.35 451.4 590.35 450.65 590.35 448.8 590.15 441.75 590.15 419.5 590.15 414.9 590.15 410.75 590.15 399.6 590.35 392.15 590.55 383.4 590.8 379.55 590.8 378.1 591 377.35 592.1 368.8 595.6 356.4 598 348.2 598 333.85 598 332.4 598 330.9 598 330.55 598 330.35 598 327.8 597.8 325.4 596.7 302.85 589.6 283.9 589.4 283.55 589.25 283.15 589.05 282.6 588.85 282.05 582.05 264.4 572.2 254.2
L 572.05 254
Q 570.3 252.35 568.65 250.9 565.7 248.5 563.1 246.2 557.7 241.6 553.1 237.55 546 231.2 540.05 225.6 533.4 219.15 528.7 213.75 528.55 213.55 528.35 213.55 517.8 201.15 517.8 194.4 Z"/>

<path fill="#ACDA30" stroke="none" d="
M 523.95 185.15
Q 517.8 186.4 517.8 194.4 517.8 201.15 528.35 213.55 528.55 213.55 528.7 213.75 533.4 219.15 540.05 225.6 546 231.2 553.1 237.55 557.7 241.6 563.1 246.2 565.7 248.5 568.65 250.9 570.3 252.35 572.05 254
L 572.2 254.2
Q 582.05 264.4 588.85 282.05 589.05 282.6 589.25 283.15 589.4 283.55 589.6 283.9 596.7 302.85 597.8 325.4 598 327.8 598 330.35 598 330.55 598 330.9 598 332.4 598 333.85 598 348.2 595.6 356.4 592.1 368.8 591 377.35 590.8 378.1 590.8 379.55 590.55 383.4 590.35 392.15 590.15 399.6 590.15 410.75 590.15 414.9 590.15 419.5 590.15 441.75 590.35 448.8 590.35 450.65 590.35 451.4 590.35 452.5 590.55 453.7 590.35 453.85 590.55 454.05 590.8 460.85 591.7 467.2 592.1 468.7 592.65 470.15 592.85 470.7 593 473.75 593.2 476.15 593.55 480.35 593.75 485.05 594.1 492.85 596.7 498.4 599.25 494.9 601.55 491.3 603.75 478.7
L 604.85 442.45
Q 604.85 430.25 603.05 416.7 602.5 402 603.75 386.1 605.05 369.55 606.55 366.05 606.9 365.3 607.1 364.65
L 607.1 364.55
Q 607.1 364.4 607.25 364.4 607.25 364.1 607.45 363.9 609.85 357.65 613.45 350.75 614 349.65 614.55 348.55 618.05 342.05 620.7 335.95 621.05 335.05 621.45 334.05 628.25 317 628.25 304.15 628.25 299.9 626.75 294.3 626.2 292.1 625.5 289.7 624.95 288.05 624.2 286.2 623.45 284.65 623.1 283.35 622.7 278.2 622.35 275.35 620.9 265.35 614.55 255.85 614.55 255.65 614.35 255.5 612.9 253.3 609.1 250.35 605.25 247.4 599.25 243.6 593.4 240.15 589.6 237 585.75 233.8 584.1 231
L 584.1 230.85
Q 569.55 207.85 560.1 198.55 546.55 185.15 530.4 184.75 530.2 184.75 530 184.75 529.8 184.75 529.65 184.75 526.9 184.6 523.95 185.15
M 682.5 415.25
Q 681.2 412.95 679.35 410.2 678.2 408.35 676.15 407.25 674.3 406.15 671.55 405.75 671.45 405.75 671.05 405.75 669.3 405 667.95 404.7 665.8 404.2 662 404.2 659.6 404.25 658.15 404.65 655.75 404.65 653.7 404.85 640.95 405.95 635.85 413.15 632 418.75 632 430.4 632 433.25 632.2 436.2 632.35 438.25 632.55 440.45 632.75 442.45 633.1 444.75 633.65 448.45 634.6 451.95 637.15 462.8 637.15 473.2 637.15 484.85 627.7 500.95 629.15 509.35 642.4 501.5 651.5 496.55 656.65 491.85 659.05 489.45 660.8 487.25 665.95 480.2 669.55 477.4 673.05 474.5 678 465.9 682.7 458.1 683.25 456.45 685.25 449.2 686.2 443.5 686.75 439.35 686.75 435.85 686.75 427.5 686.35 424.15 686.2 422.95 686 422.4 685.45 420.05 682.5 415.25
M 674.85 289.5
Q 671 291 667.4 293.2 664.3 295.05 661.35 297.35 649.2 306.6 647 315.55 646.45 317.55 646.45 319.6 646.45 321.6 649 323.8 650.75 325.2 653.7 326.65 654.65 327.05 655.75 327.6 665.6 331.8 669.05 336.35 669.55 336.7 669.9 337.25 671.9 340.4 672.85 346 673.75 350.4 675.05 351.15 676.5 351.7 685.1 353.35 690.3 353.35 699.4 338.35 700.7 335.95 702.2 333.1 712.2 314.55 712.2 309.95
L 712.2 309.75
Q 712.2 298.8 704.55 290.6 704.4 290.25 704.2 290.05 701.65 287.3 698.85 285.85 696.95 285.55 694.75 285.55 684.35 285.55 674.85 289.5
M 676.9 196.05
Q 672.5 195.35 669.55 194.95 663.75 194.05 661.9 193.85 659.25 193.5 644.05 193.5 643.15 193.5 642.05 193.5 640.4 193.5 638.65 193.5 628.05 193.5 622.35 193.7 615.45 193.7 614.55 193.85 614.15 193.85 613.8 194.05 605.8 195.7 605.8 203.7 605.8 206.85 607.65 209.5 612.7 216.85 633.5 218.4 638.45 218.8 644.25 219.15 649.4 219.35 655.2 219.7 659.05 219.9 663.35 220.1 667.4 220.1 671.75 220.25 685.45 223.75 698.4 233.8 698.85 233.95 699.25 234.35 714.4 246.2 716.05 247.05
L 719.65 247.05
Q 721.5 243.45 723.15 240.15 726.1 233.95 726.1 230.45 726.1 217.3 709.8 206.45 709.65 206.45 709.65 206.3 708.7 205.75 707.7 205.35 704.2 203.15 700.15 201.15 699.4 200.75 698.6 200.4 696.55 199.5 694.55 198.75 683.95 197 676.9 196.05
M 682.3 172.7
Q 678.9 172.35 674.7 172.15 671.75 171.8 668.5 171.6 667.25 171.6 665.95 171.4 661.7 171.25 657.6 171.05 641.3 170.15 627.15 170.15 626.75 170.15 626.4 170.15 626.2 170.15 626.05 170.15 622.15 170.3 618.2 171.05 615.65 171.4 613.05 172.15 611.2 172.55 609.3 173.25 601 176 597.45 180.15
L 597.45 185.3
Q 600.2 186.95 601.4 187.15 602.1 187.15 603.95 186.8 604.3 186.8 606.55 186.4 610.05 185.7 619.15 183.85 623.45 183.1 627.85 182.35
L 628.05 182.35
Q 639.8 180.7 650.4 180.7 653.15 180.7 655.9 180.9 656.3 180.7 656.65 180.9
L 656.85 180.9
Q 661.35 180.9 665.2 181.25 667.4 181.45 669.55 181.8 671 181.8 672.3 182.2 678.2 182.9 682.85 184.4 683.6 184.6 684.5 184.95 690.7 186.95 695.1 188.15 696.4 188.35 697.5 188.55 700.35 189.1 702.2 189.1 702.55 189.1 703.1 189.1 705.5 188.9 706.25 187.35 706.4 186.95 706.6 186.25 706.8 185.5 706.8 184.75 706.8 184.4 706.8 184.2 706.8 181.65 704.55 179.45 703.1 178.15 700.9 177.15 700.35 176.75 700 176.75 698.85 176.2 697.3 175.65 695.3 174.9 693.25 174.55 691.4 174 688 173.45 685.65 173.1 682.3 172.7
M 653.9 137.2
Q 651.15 136.1 648.45 135
L 646.65 134.45
Q 637.55 131.3 628.05 130.4 624.2 130.05 620.35 130.05 612.15 130.05 603.2 132.45 593 135.2 588.5 139.5 585.55 142.45 585 147.05 584.45 151.2 583 152.3 577.75 155.95 575.55 157.65 571.85 160.65 571.85 162.7 571.85 167.95 579.4 169.6 580.95 169.95 583.55 170.15 587.05 170.3 593 170.3 593.95 170.3 615.25 167.3 616.2 167.1 617.3 166.9 617.5 166.9 617.65 166.9 619.15 166.55 620.9 166.35 623.25 166 625.5 165.8 625.65 165.65 625.85 165.65 648.1 162.5 652.4 162.5 654.65 162.5 658.3 163.6 660.6 164.15 663.35 163.6 664.65 163.05 666.3 162.3 676.15 161.95 677.8 157.65 678 156.9 678.2 156.35 670.45 144.5 653.9 137.2 Z"/>

<path fill="#7B570F" stroke="none" d="
M 1186.85 74.6
Q 1194 74.95 1200 75.15
L 1200 0.5
Q 1150.1 5.95 1068.65 16.7 920.45 36.3 913.35 35.2 913.75 35.05 914.45 35.05 896.3 35 872.5 30.5 846.6 25.75 812.1 24.9 789.65 24.35 769.3 20.15 749 15.9 713.05 12.75 711.75 12.7 710.3 12.6 685.35 11.1 605.6 17.45 577.85 19.65 543.35 22.8 518.4 25.1 490.1 27.85 433.9 33.3 393.35 37.4 389 37.9 384.9 38.35 298.3 47.1 289 49.2 276.1 51.95 256.15 53.4 247.7 53.95 240.45 54.45 226.8 55.35 217.55 56 162.6 60.05 113.15 73.45 76.7 85.35 55.85 88.9 34.85 92.5 0 92.65
L 0 172.35
Q 23.65 164.65 50.6 157.7 61.7 154.8 73.5 152 79.85 150.45 86.3 149 134.75 137.95 142.5 137.95 144.8 137.95 147 138.05 173.2 130.7 201.35 125.8 218.55 122.85 229.85 120.4 236 119 240.45 117.9 244.1 116.9 246.5 115.95 255.25 112.65 268 110.45 279.25 108.35 293.7 107.15 300.5 106.5 308.05 106.05 329.7 104.85 357.55 103.8 371.7 101.8 384.9 100.15 389.2 99.5 393.35 99.05 441.6 92.9 476.2 91.3 480.55 91.05 484.75 90.95 488 90.85 491.1 90.75 509.05 90.4 532.95 89.5 556.75 88.45 575.1 88.9 593.4 89.3 600.3 86.9 601.95 86.3 609.3 86.4 609.5 86.15 609.75 85.9
L 617.1 85.9
Q 617 86.2 616.9 86.55 643.25 87.45 710.3 92.9 741.25 95.35 781.55 99.3 825.5 103.65 902.3 111.65 937.55 115.15 950.15 115.95 950.25 115.95 950.35 115.95 957.2 116.4 957.2 115.95 957.2 115.85 957.2 115.8 981.05 114.3 1024.25 103.8 1076.3 91.15 1094.6 79.55 1099.1 76.7 1108.1 75.05 1116.55 73.4 1129.15 73 1138.55 72.65 1150.25 72.9 1159.05 73.2 1186.85 74.6
M 680.2 63.25
Q 680.1 63.45 680.1 62.05 681.65 62 682.7 62 681.05 62.05 680.2 63.25 Z"/>

<path fill="#996600" stroke="none" d="
M 680.1 62.05
Q 680.1 63.45 680.2 63.25 681.05 62.05 682.7 62 681.65 62 680.1 62.05 Z"/>
</g>

<g id="Layer0_0_FILL">
<path fill="#7B570F" stroke="none" d="
M 1199.95 46.35
Q 1192.85 47.75 1185.15 49.3 1160.95 54.25 1146.95 57.1 1132.05 60.05 1128.65 60.6 1117.15 62.55 1106.2 64.45
L 1106.15 64.45
Q 1099.15 65.65 1092.35 66.95 1043.7 75.7 1006.15 84.4 993.75 87.35 986.3 88 978.2 88.75 956.75 88.75 929.25 88.75 885.75 85.5 839.4 82.1 811.7 77.5 766.85 70.05 724.8 65 716.8 64 710.3 63.35 680.1 60.05 680.1 62
L 680.1 62.05
Q 681.65 62 682.7 62 681.05 62.05 680.2 63.25 680.1 63.45 680.1 62.05 666.6 62.45 605.6 66.1 592.85 66.85 577.95 67.75 558.9 68.95 543.35 69.9 500.3 72.35 484 73 477.3 73.3 475.1 73.2 449.2724609375 72.4904296875 399.1 76.95 396.2396484375 77.2275390625 393.3 77.5 390.8 77.7 388.3 78 386.55 78.15 384.85 78.35 316.95 84.9 292.6 94.65 282.9 98.6 266.45 101.35 255.05 103.25 240.45 104.75 233.9 105.3 226.7 105.85 201.5 107.4 189.55 108.25 170.023828125 109.5951171875 158.5 111.2 157.6005859375 111.3232421875 156.75 111.45 142.55 113.65 117.1 120.75 85.9 129.85 69.25 134.65 57.2 138.05 46.35 140.9 20.05 147.65 0 151
L 0 172.35
Q 23.65 164.65 50.6 157.7 61.7 154.8 73.5 152 79.85 150.45 86.3 149 134.75 137.95 142.5 137.95 144.8 137.95 147 138.05 152.7037109375 136.45 158.5 134.95 179.328125 129.633203125 201.35 125.8 218.55 122.85 229.85 120.4 236 119 240.45 117.9 244.1 116.9 246.5 115.95 255.25 112.65 268 110.45 279.25 108.35 293.7 107.15 300.5 106.5 308.05 106.05 329.65 104.85 357.5 103.8 371.65 101.8 384.85 100.15 389.15 99.5 393.3 99.05 396.2251953125 98.6775390625 399.1 98.3 443.6955078125 92.803125 476.2 91.3 480.55 91.05 484.75 90.95 488 90.85 491.1 90.75 509.05 90.4 532.95 89.5 556.75 88.45 575.1 88.9 593.4 89.3 600.3 86.9 601.914453125 86.3302734375 608.95 86.35 609.0353515625 86.3119140625 609.1 86.25
L 609.1 86.2
Q 609.325 85.973828125 609.55 85.7 609.647265625 85.65078125 609.75 85.65 609.8525390625 85.65078125 609.9 85.7 609.9990234375 85.797265625 610 85.9
L 616.85 85.9
Q 616.8609375 85.8623046875 616.85 85.8 616.9076171875 85.7244140625 617 85.65 617.084765625 85.6353515625 617.15 85.65 617.2755859375 85.7076171875 617.3 85.8 617.364453125 85.884765625 617.3 85.95 617.2458984375 86.2466796875 617.15 86.55 643.5876953125 87.469921875 710.3 92.9 740.8576171875 95.3189453125 780.5 99.2 781.0390625 99.25 781.55 99.3 807.7244140625 101.890625 845.55 105.75 871.23828125 108.414453125 902.3 111.65 937.55 115.15 950.15 115.95 950.25 115.95 950.35 115.95 957.2 116.4 957.2 115.95 957.2 115.85 957.2 115.8 981.05 114.3 1024.2 103.8 1076.25 91.15 1094.55 79.55 1099.05 76.7 1108.05 75.05 1116.5 73.4 1129.1 73 1138.5 72.65 1150.2 72.9 1159 73.2 1186.8 74.6 1193.95 74.95 1199.95 75.15
L 1199.95 46.35
M 18.15 119.9
L 18.7 121.5
Q 61.65 113.4 98.6 106.4 138.4037109375 98.8392578125 158.5 95.1 175.08515625 91.997265625 178.25 91.5 169.7232421875 91.6015625 158.5 92.6 136.5546875 94.6591796875 104.3 100.25 53.1 109.05 18.15 119.9
M 533.05 55.45
Q 541.95 51.85 543.35 50.85 543.8 50.55 543.45 50.5
L 542.35 49.4
Q 539.3 49.4 534.05 51.1
L 436.85 51.95
Q 428.4 52.85 424.7 53.9 422.2 54.55 421.3 55.45 410.65 56.75 407.9 57.65 407.25 57.95 405.45 59.6 406 60.5 406.7 60.8 407.55 61.15 410.1 61.15 421.95 61.15 422.95 60.4 423.15 60.25 423.15 59.3 423.25 58.3 424.25 57.45 432.7 56.85 434.7 56.1
L 533.05 55.45
M 739.35 51.5
Q 742.95 55.1 752.5 58.3 761.25 61.15 766.55 61.15 768.7 61.15 768.6 60.5 768.15 59.6 768.3 59.05 744.1 50.95 740.35 48
L 582.9 47.35
Q 581.6 46.9 576.25 46.6
L 571.3 46.35
Q 570.95 45.95 570.5 45.9 569.65 45.7 569.65 47.8 569.65 51.3 570.3 49.4 580.8 50.1 582.9 50.75
L 739.35 51.5
M 786.5 33.1
Q 796.45 35.6 798.95 35.6 801.05 35.6 801.05 34.95 800.7 34.1 800.85 33.55 781.1 27.6 767.2 25.2 738.8 20.3 716.35 24.35
L 650.5 24.9
Q 649.55 24.65 649.2 24.65 648.75 24.55 648.75 26.65 648.75 28.75 649.1 28.7 649.3 28.7 649.5 28.2
L 714.15 28.5
Q 734.9 22.7 765.85 28.5 773.2 29.9 786.5 33.1
M 1021.4 46.35
Q 1006.9 46.7 990.6 51.1 968.25 57.2 958.7 58.75
L 817.4 59.05
Q 816.5 58.65 816.15 58.55 815.7 58.5 815.7 60.6 815.7 62.8 816.05 62.7 816.25 62.6 816.4 62.15
L 956.05 62.55
Q 978.85 59.7 994.1 55.15 1003.1 52.5 1021.4 46.35
M 1157.35 26.45
Q 1156.7 25.75 1151.75 25.3
L 1146.95 24.9
Q 1137.3 33.1 1094.65 44.2 1069.6 50.85 1005.25 64.9
L 1005.25 66.65
Q 1006.05 68.25 1012.6 68.25 1023.35 68.25 1089.55 48.35 1152.85 29.25 1157.35 26.45
M 354.3 61.15
Q 343.45 60.6 343.45 61.15 331 61.6 322.95 62.55 316.5 63.15 314.85 63.9
L 278.5 64.55
Q 264.05 69.5 256.05 71.35 251.1 72.45 240.45 74.1 225 76.3 197.4 79.55 198.5 80.9 204.85 80.9 222.7 80.9 240.45 78.05 258.9 75.05 277.4 68.85
L 313.8 68.25
Q 330.2 65 351.15 64.85 362.5 64.65 378.5 65.3
L 379.2 63.15
Q 365.8 61.7 354.3 61.15 Z"/>

<path fill="#996600" stroke="none" d="
M 1199.95 46.35
L 1199.95 0.5
Q 1150.05 5.95 1068.6 16.7 920.45 36.3 913.35 35.2 913.75 35.05 914.45 35.05 896.3 35 872.5 30.5 846.6 25.75 812.1 24.9 789.65 24.35 769.3 20.15 749 15.9 713.05 12.75 711.75 12.7 710.3 12.6 685.35 11.1 605.6 17.45 577.85 19.65 543.35 22.8 518.4 25.1 490.1 27.85 437.8609375 32.9158203125 399.1 36.8 396.1615234375 37.1109375 393.3 37.4 388.95 37.9 384.85 38.35 298.3 47.1 289 49.2 276.1 51.95 256.15 53.4 247.7 53.95 240.45 54.45 226.8 55.35 217.55 56 187.185546875 58.237890625 158.5 63.3 135.2748046875 67.4546875 113.15 73.45 76.7 85.35 55.85 88.9 34.85 92.5 0 92.65
L 0 151
Q 20.05 147.65 46.35 140.9 57.2 138.05 69.25 134.65 85.9 129.85 117.1 120.75 142.55 113.65 156.75 111.45 157.6005859375 111.3232421875 158.5 111.2 170.023828125 109.5951171875 189.55 108.25 201.5 107.4 226.7 105.85 233.9 105.3 240.45 104.75 255.05 103.25 266.45 101.35 282.9 98.6 292.6 94.65 316.95 84.9 384.85 78.35 386.55 78.15 388.3 78 390.8 77.7 393.3 77.5 396.2396484375 77.2275390625 399.1 76.95 449.2724609375 72.4904296875 475.1 73.2 477.3 73.3 484 73 500.3 72.35 543.35 69.9 558.9 68.95 577.95 67.75 592.85 66.85 605.6 66.1 666.6 62.45 680.1 62.05
L 680.1 62
Q 680.1 60.05 710.3 63.35 716.8 64 724.8 65 766.85 70.05 811.7 77.5 839.4 82.1 885.75 85.5 929.25 88.75 956.75 88.75 978.2 88.75 986.3 88 993.75 87.35 1006.15 84.4 1043.7 75.7 1092.35 66.95 1099.15 65.65 1106.15 64.45
L 1106.2 64.45
Q 1117.15 62.55 1128.65 60.6 1132.05 60.05 1146.95 57.1 1160.95 54.25 1185.15 49.3 1192.85 47.75 1199.95 46.35
M 343.45 61.15
Q 343.45 60.6 354.3 61.15 365.8 61.7 379.2 63.15
L 378.5 65.3
Q 362.5 64.65 351.15 64.85 330.2 65 313.8 68.25
L 277.4 68.85
Q 258.9 75.05 240.45 78.05 222.7 80.9 204.85 80.9 198.5 80.9 197.4 79.55 225 76.3 240.45 74.1 251.1 72.45 256.05 71.35 264.05 69.5 278.5 64.55
L 314.85 63.9
Q 316.5 63.15 322.95 62.55 331 61.6 343.45 61.15
M 1151.75 25.3
Q 1156.7 25.75 1157.35 26.45 1152.85 29.25 1089.55 48.35 1023.35 68.25 1012.6 68.25 1006.05 68.25 1005.25 66.65
L 1005.25 64.9
Q 1069.6 50.85 1094.65 44.2 1137.3 33.1 1146.95 24.9
L 1151.75 25.3
M 990.6 51.1
Q 1006.9 46.7 1021.4 46.35 1003.1 52.5 994.1 55.15 978.85 59.7 956.05 62.55
L 816.4 62.15
Q 816.25 62.6 816.05 62.7 815.7 62.8 815.7 60.6 815.7 58.5 816.15 58.55 816.5 58.65 817.4 59.05
L 958.7 58.75
Q 968.25 57.2 990.6 51.1
M 798.95 35.6
Q 796.45 35.6 786.5 33.1 773.2 29.9 765.85 28.5 734.9 22.7 714.15 28.5
L 649.5 28.2
Q 649.3 28.7 649.1 28.7 648.75 28.75 648.75 26.65 648.75 24.55 649.2 24.65 649.55 24.65 650.5 24.9
L 716.35 24.35
Q 738.8 20.3 767.2 25.2 781.1 27.6 800.85 33.55 800.7 34.1 801.05 34.95 801.05 35.6 798.95 35.6
M 752.5 58.3
Q 742.95 55.1 739.35 51.5
L 582.9 50.75
Q 580.8 50.1 570.3 49.4 569.65 51.3 569.65 47.8 569.65 45.7 570.5 45.9 570.95 45.95 571.3 46.35
L 576.25 46.6
Q 581.6 46.9 582.9 47.35
L 740.35 48
Q 744.1 50.95 768.3 59.05 768.15 59.6 768.6 60.5 768.7 61.15 766.55 61.15 761.25 61.15 752.5 58.3
M 543.35 50.85
Q 541.95 51.85 533.05 55.45
L 434.7 56.1
Q 432.7 56.85 424.25 57.45 423.25 58.3 423.15 59.3 423.15 60.25 422.95 60.4 421.95 61.15 410.1 61.15 407.55 61.15 406.7 60.8 406 60.5 405.45 59.6 407.25 57.95 407.9 57.65 410.65 56.75 421.3 55.45 422.2 54.55 424.7 53.9 428.4 52.85 436.85 51.95
L 534.05 51.1
Q 539.3 49.4 542.35 49.4
L 543.45 50.5
Q 543.8 50.55 543.35 50.85
M 18.7 121.5
L 18.15 119.9
Q 53.1 109.05 104.3 100.25 136.5546875 94.6591796875 158.5 92.6 169.7232421875 91.6015625 178.25 91.5 175.08515625 91.997265625 158.5 95.1 138.4037109375 98.8392578125 98.6 106.4 61.65 113.4 18.7 121.5
M 680.1 62.05
Q 680.1 63.45 680.2 63.25 681.05 62.05 682.7 62 681.65 62 680.1 62.05 Z"/>

<path fill="#336600" stroke="none" d="
M 610 85.9
Q 609.9990234375 86.0025390625 609.9 86.05 609.68828125 86.3125 609.5 86.55
L 609.45 86.55
Q 608.4017578125 87.6083984375 608.25 88.4 607.7025390625 91.0787109375 607.7 94.7 607.700390625 96.3390625 607.85 98.9 607.8498046875 99.004296875 607.8 99.05 607.84921875 99.1279296875 607.85 99.2 607.8501953125 99.987890625 607.9 100.85
L 607.9 100.9
Q 607.9 101.246484375 607.7 107.85 607.5041015625 111.96484375 607.9 114
L 607.9 114
Q 608.279296875 116.88046875 605.4 119.6
L 605.4 119.65
Q 602.4529296875 122.082421875 602.7 125.95 610.9736328125 124.8966796875 619.85 124.75 620.35 124.75 620.5 124.75 620.7583984375 124.75 621 124.75 620.9486328125 123.1013671875 620.25 121.75
L 620.25 121.75
Q 619.4927734375 120.348046875 617.85 118.6 616.3212890625 117.1296875 615.75 115.35
L 615.75 115.35
Q 615.005859375 113.1552734375 615 107.5
L 615 107.45
Q 615.3990234375 102.3453125 615.4 101.8 615.4 100.4 615.4 99.2 615.4005859375 99.1302734375 615.4 99.05 615.4005859375 99.0193359375 615.4 98.95 615.4498046875 92.6314453125 615.55 91.35 615.796484375 89.1017578125 616.65 86.45 616.7482421875 86.16796875 616.85 85.9
L 610 85.9 Z"/>

<path fill="#333333" stroke="none" d="
M 669.8 134.8
L 669.8 134.75
Q 666.7998046875 133.3248046875 664 132 655.412890625 127.85625 646.65 126.55 637.7119140625 125.2994140625 629.5 124.9 625.427734375 124.754296875 621.5 124.75 621.448046875 122.9923828125 620.7 121.55
L 620.7 121.5
Q 619.90703125 120.0517578125 618.2 118.25 616.77890625 116.8703125 616.25 115.2
L 616.2 115.2
Q 615.4958984375 113.04921875 615.5 107.5 615.9009765625 102.3546875 615.9 101.8 615.9 100.4 615.9 99.2 615.8994140625 99.13046875 615.85 99.05 615.89921875 99.01953125 615.9 98.95 615.9501953125 92.6685546875 616.05 91.4 616.3033203125 89.198046875 617.15 86.6 617.1583984375 86.5916015625 617.15 86.55 617.2458984375 86.2466796875 617.3 85.95 617.364453125 85.884765625 617.3 85.8 617.2755859375 85.7076171875 617.15 85.65 617.084765625 85.6353515625 617 85.65 616.9076171875 85.7244140625 616.85 85.8 616.8609375 85.8623046875 616.85 85.9 616.7482421875 86.16796875 616.65 86.45 615.796484375 89.1017578125 615.55 91.35 615.4498046875 92.6314453125 615.4 98.95 615.4005859375 99.0193359375 615.4 99.05 615.4005859375 99.1302734375 615.4 99.2 615.4 100.4 615.4 101.8 615.3990234375 102.3453125 615 107.45
L 615 107.5
Q 615.005859375 113.1552734375 615.75 115.35
L 615.75 115.35
Q 616.3212890625 117.1296875 617.85 118.6 619.4927734375 120.348046875 620.25 121.75
L 620.25 121.75
Q 620.9486328125 123.1013671875 621 124.75 620.7583984375 124.75 620.5 124.75 620.35 124.75 619.85 124.75 610.9736328125 124.8966796875 602.7 125.95 602.4529296875 122.082421875 605.4 119.65
L 605.4 119.6
Q 608.279296875 116.88046875 607.9 114
L 607.9 114
Q 607.5041015625 111.96484375 607.7 107.85 607.9 101.246484375 607.9 100.9
L 607.9 100.85
Q 607.8501953125 99.987890625 607.85 99.2 607.84921875 99.1279296875 607.8 99.05 607.8498046875 99.004296875 607.85 98.9 607.700390625 96.3390625 607.7 94.7 607.7025390625 91.0787109375 608.25 88.4 608.4017578125 87.6083984375 609.45 86.55
L 609.5 86.55
Q 609.68828125 86.3125 609.9 86.05 609.9990234375 86.0025390625 610 85.9 609.9990234375 85.797265625 609.9 85.7 609.8525390625 85.65078125 609.75 85.65 609.647265625 85.65078125 609.55 85.7 609.325 85.973828125 609.1 86.2
L 609.1 86.25
Q 609.0353515625 86.3119140625 608.95 86.35 607.888671875 87.4494140625 607.75 88.3 607.1974609375 91.0212890625 607.2 94.7 607.199609375 96.3609375 607.35 98.95 607.351171875 99.034375 607.35 99.05 607.3505859375 99.133203125 607.35 99.2 607.3498046875 100.00078125 607.4 100.9 607.3998046875 101.2533203125 607.2 107.85 606.996875 112.0111328125 607.4 114.05
L 607.4 114.1
Q 607.7068359375 116.71875 605.1 119.25
L 605.05 119.25
Q 601.9361328125 121.8806640625 602.2 126 562.3419921875 131.7615234375 537.05 161.45 533.599609375 165.49921875 530.35 170.15 529.5859375 171.1126953125 529 172 528.3388671875 172.9658203125 527.6 174.05 526.8689453125 175.1158203125 526.15 176.3 523.9982421875 176.708984375 522.05 177.05 510.1998046875 179.9330078125 504.05 189.5
L 504.05 189.5
Q 494.6986328125 203.42578125 494.7 216.65 494.6984375 237.4091796875 498.95 268.35 498.9619140625 268.4556640625 499 268.5 498.9919921875 268.565625 499 268.6 501.599609375 287.837109375 505.85 310.9 505.85 311.06875 505.85 311.2
L 505.85 311.25
Q 507.2998046875 319.2498046875 508.95 328 509.0216796875 328.375390625 509.1 328.75 511.080078125 339.101171875 513.3 348.8 513.849609375 351.5625 514.6 354.3 517.352734375 367.961328125 520.45 380.55 520.4576171875 380.9255859375 520.65 381.3 525.8990234375 404.009375 527 432.45 526.99921875 434.3626953125 527.2 436.2 527.2 439.1625 527.2 442.1 527.19921875 455.6869140625 525.9 468.25 525.3498046875 473.5248046875 524.6 478.45 523.296484375 486.3111328125 521.4 493.75 514.94765625 520.05703125 514.2 524.75 509.4763671875 536.7123046875 513.15 542.55
L 513.1 542.55
Q 513.6935546875 543.9103515625 515.05 544.85 519.89140625 548.972265625 532.5 547.3 550.48828125 544.9 559.75 543.45 559.925 543.45 560.1 543.45 560.125 543.45234375 560.15 543.45 564.98515625 542.5005859375 567.55 542.15
L 567.6 542.15
Q 574.421484375 540.4201171875 578.25 539.65
L 578.3 539.65
Q 583.004296875 540.6029296875 587.4 540.75 602.91796875 541.1462890625 616.1 532.8
L 616.15 532.8
Q 616.9 532.25 617.65 531.7 617.6779296875 531.6783203125 617.7 531.65 618.0134765625 531.2513671875 618.3 531.05
L 618.35 531.05
Q 628.95 523.7 639.5 516.6
L 639.45 516.6
Q 646.025 512.4 652.35 508.25 656.037890625 505.8505859375 659.4 503.1 662.412890625 500.5876953125 665.2 497.8 671.939453125 491.10234375 677.25 482.6
L 677.25 482.65
Q 686.196484375 471.0517578125 690.9 460.3 691.0779296875 460.075 691.1 459.7 691.287109375 459.476953125 691.45 459.1 691.5005859375 459.053125 691.5 459 691.5119140625 458.9173828125 691.6 458.8 691.63203125 458.7654296875 691.65 458.7 692.1880859375 456.8875 692.9 455.1
L 692.95 455.05
Q 695.5505859375 447.0498046875 695.9 439.35 696.1001953125 436.6125 696.1 433.8 696.1001953125 426.337890625 695.55 418.3 695 413.9248046875 694.6 409.2 694.4517578125 407.9751953125 694.25 406.8 693.35 399.2126953125 692.05 391
L 692.05 390.95
Q 691.8689453125 390.30234375 692.05 389.65 692.0546875 389.6375 692.05 389.6
L 692.05 389.4
Q 691.85 385.1482421875 691.85 377.15 691.85 376.8 691.85 376.25 691.8662109375 362.850390625 704.75 341.6 704.8056640625 341.5669921875 704.8 341.5 704.8109375 341.390625 704.9 341.25 704.9533203125 341.251953125 704.95 341.2 706.4748046875 338.675 707.9 336.25 710.216796875 332.212109375 712 328.75 717.7400390625 317.8958984375 718.8 312.95 718.802734375 312.925 718.8 312.9 718.8 312.5310546875 718.8 312.35 719.1498046875 308.324609375 719.35 305.05
L 719.35 305.05
Q 719.35 302.65 719.35 300.65
L 719.35 300.6
Q 718.9919921875 296.1748046875 718.1 294 717.5888671875 292.762109375 717.25 291.45
L 717.2 291.45
Q 716.675390625 290.350390625 716.25 289.4 716.2576171875 289.3576171875 716.2 289.3
L 716.1 289.2
Q 714.8369140625 286.1068359375 714.3 283.3 714.3 282.9716796875 714.3 282.6
L 714.3 282.55
Q 713.41875 276.6109375 716.25 271.95 717.0140625 270.7015625 717.95 269.6
L 717.9 269.6 718.65 268.75
Q 718.709375 268.74140625 718.7 268.7 718.816796875 268.698046875 718.85 268.6
L 731.65 254.15
Q 731.7017578125 254.1513671875 731.7 254.1 743.696875 233.4001953125 731.7 212.5
L 731.7 212.5 719.15 197.75
Q 719.208984375 197.6927734375 719.25 197.6 719.3490234375 197.5525390625 719.35 197.45 720.8494140625 193.140625 720.65 190.15 720.4419921875 187.2482421875 719.1 185.35 719.0802734375 185.3193359375 719.05 185.3 718.25 184.7498046875 717.5 184.2 714.200390625 181.6001953125 711.6 179.4 709.4126953125 177.5625 707.5 175.8 704.7390625 173.0880859375 702.75 170.7 702 169.7998046875 701.3 168.9 700.0154296875 166.9763671875 699.25 165.35
L 699.25 165.3
Q 697.5140625 162.1630859375 694.95 158.65 691.440234375 153.58828125 685.95 147.75
L 685.95 147.75
Q 685.28203125 147.2244140625 684.9 146.7
L 684.85 146.65
Q 678.503515625 140.2609375 669.8 134.8
M 669.6 135.2
L 669.55 135.2
Q 678.1794921875 140.628125 684.5 147
L 684.5 147
Q 684.566796875 147.082421875 684.6 147.15 685.0001953125 147.63515625 685.6 148.1
L 685.65 148.15
Q 691.0673828125 153.9228515625 694.55 158.95 697.0859375 162.4369140625 698.8 165.55
L 698.8 165.55
Q 699.5845703125 167.2236328125 700.9 169.2 701.5998046875 170.0998046875 702.35 171 704.3609375 173.4119140625 707.15 176.15 709.087109375 177.9373046875 711.3 179.8 713.8994140625 181.9998046875 717.2 184.6 717.9357421875 185.139453125 718.7 185.65 719.9396484375 187.4451171875 720.15 190.1 720.146875 190.18046875 720.15 190.2 720.34453125 193.071484375 718.9 197.2 717.0564453125 196.3638671875 715.4 195.8 714.4736328125 195.46171875 713.75 195.25 713.5416015625 195.0951171875 713.3 195.1 707.1849609375 193.05703125 700.75 191.6 698.67578125 191.0533203125 696.8 190.65 695.7115234375 190.29921875 694.8 190.1 688.0494140625 188.6521484375 681.1 187.75 676.1873046875 186.8994140625 671.35 186.55 663.7625 185.799609375 656.1 185.6
L 655.9 185.6
Q 642.5880859375 185.0490234375 628.35 186.15 628.269921875 186.1646484375 628.2 186.25 628.137109375 186.325390625 628.15 186.4 628.1646484375 186.530078125 628.25 186.6 628.325390625 186.6626953125 628.4 186.65 642.6119140625 185.55078125 655.9 186.1
L 656.1 186.1
Q 663.7373046875 186.300390625 671.3 187.05 676.1126953125 187.4005859375 681 188.25
L 681 188.25
Q 687.9623046875 189.150390625 694.7 190.6 695.5884765625 190.80078125 696.65 191.15
L 696.7 191.15
Q 698.5376953125 191.55 700.6 192.1
L 700.65 192.1
Q 707.087109375 193.537890625 713.2 195.55 713.262109375 195.5939453125 713.3 195.6 713.423828125 195.60546875 713.55 195.7 713.5841796875 195.7322265625 713.6 195.75 714.326171875 195.93828125 715.25 196.25 716.8603515625 196.808203125 718.65 197.6 718.642578125 197.714453125 718.65 197.8 718.6451171875 197.8853515625 718.7 197.95
L 722.1 202 731.25 212.75
Q 743.103125 233.399609375 731.25 253.85
L 718.5 268.25
Q 718.494140625 268.3109375 718.45 268.35 718.3888671875 268.359375 718.3 268.4
L 717.55 269.25 717.55 269.25
Q 717.04453125 269.8638671875 716.6 270.5 716.1869140625 271.09375 715.8 271.7
L 715.8 271.75
Q 712.9103515625 276.4533203125 713.75 282.5 713.7931640625 282.5541015625 713.8 282.6
L 713.8 282.6
Q 713.8 283.0109375 713.8 283.35
L 713.8 283.4
Q 714.359375 286.2736328125 715.65 289.45 715.691796875 289.4923828125 715.7 289.5
L 715.85 289.65
Q 716.2369140625 290.5744140625 716.75 291.65
L 716.75 291.6
Q 717.1111328125 292.937890625 717.65 294.2 718.5080078125 296.325390625 718.85 300.65 718.85 302.659375 718.85 305
L 718.85 305.05
Q 718.6486328125 308.290625 718.3 312.3
L 718.3 312.35
Q 718.3 312.4904296875 718.3 312.85 718.2328125 313.160546875 718.15 313.5 716.86640625 318.4931640625 711.45 328.75 709.68671875 332.1056640625 707.45 336 706.025 338.425 704.5 340.95 704.3294921875 341.19140625 704.3 341.4 691.3337890625 362.7607421875 691.35 376.25 691.35 376.8 691.35 377.15 691.3498046875 385.1517578125 691.55 389.4
L 691.55 389.5
Q 691.3310546875 390.29765625 691.55 391.1 692.851171875 399.2986328125 693.75 406.85
L 693.75 406.9
Q 693.9498046875 408.037890625 694.1 409.25 694.42421875 413.085546875 694.85 416.7 694.9458984375 417.5421875 695.05 418.35 695.599609375 426.362109375 695.6 433.8 695.599609375 436.5873046875 695.4 439.3
L 695.4 439.35
Q 695.0451171875 446.96328125 692.45 454.9
L 692.45 454.9
Q 691.71171875 456.7123046875 691.15 458.55 691.0109375 458.778515625 691 458.95 690.83671875 459.262890625 690.65 459.4 690.60078125 459.497265625 690.6 459.6 690.6 459.853125 690.5 460 690.4845703125 460.023828125 690.45 460.05 685.7822265625 470.77578125 676.85 482.35
L 676.85 482.35
Q 671.5603515625 490.7974609375 664.85 497.45 662.0873046875 500.212109375 659.1 502.7 655.7619140625 505.4494140625 652.1 507.85 645.7748046875 511.9998046875 639.2 516.2
L 639.2 516.2
Q 628.65 523.3 618.05 530.65
L 618.05 530.6
Q 617.7095703125 530.83515625 617.35 531.3
L 617.3 531.35
Q 616.573046875 531.8697265625 615.85 532.4
L 615.85 532.4
Q 602.9048828125 540.5763671875 587.7 540.25 587.54453125 540.2537109375 587.4 540.25 583.2845703125 540.10703125 578.9 539.25 593.3037109375 528.45078125 600.85 517.3
L 600.85 517.25
Q 601.061328125 516.941015625 601.2 516.75
L 601.2 516.7
Q 601.6142578125 515.9880859375 602.15 515.3
L 602.15 515.25
Q 603.075390625 513.7748046875 603.8 512.3 603.841015625 512.28828125 603.85 512.25 603.9845703125 511.6537109375 604.35 511.15 604.3642578125 511.1259765625 604.35 511.1 606.2390625 507.037109375 607.35 503.15
L 607.35 503.15
Q 607.6998046875 501.56328125 608.05 500.3 608.0544921875 500.287890625 608.05 500.25 608.0529296875 499.32578125 608.25 498.45 612.20390625 477.6166015625 612.2 467.95 612 462.6009765625 612 459
L 612 458.95
Q 611.852734375 458.27421875 611.85 457.55
L 611.85 457.5
Q 611.65078125 455.3404296875 611.65 454.05
L 611.65 454
Q 611.3015625 451.9185546875 611.3 447.9
L 611.3 447.85
Q 611.107421875 446.796484375 611.3 445.55 611.3060546875 445.5 611.3 445.45 611.1013671875 444.175390625 611.1 442.95 611.1 440.25 611.1 437.15 611.0951171875 424.1978515625 614 416.2 616.7904296875 408.0595703125 617.75 401.85
L 617.75 401.8
Q 617.751171875 400.5634765625 617.9 399.45
L 617.9 399.45
Q 617.9017578125 396.0751953125 617.35 392.65 617.0001953125 390.799609375 616.6 389.15
L 616.6 389.1
Q 614.6189453125 382.846875 615.5 378.3 616.260546875 373.581640625 615.9 371.7 616.0568359375 369.3501953125 616.45 367
L 616.45 366.95
Q 617.3509765625 360.6505859375 619 354.8
L 619 354.8
Q 619.18984375 353.9765625 619.5 353.25
L 619.55 353.2
Q 621.838671875 345.6875 625.3 338.1
L 625.3 338.05
Q 625.525 337.539453125 625.7 337.15 627.767578125 332.8669921875 629.35 328.75 634.0873046875 316.3896484375 634.65 305.5 635.40546875 292.080859375 633.2 282.75 633.189453125 282.724609375 633.15 282.7 632.7900390625 281.82421875 632.6 280.9 632.2388671875 279.423828125 631.65 278.1
L 631.7 278.1
Q 630.105078125 273.31328125 627.9 268.6 627.8982421875 268.55 627.85 268.5 627.84453125 268.44296875 627.8 268.4 627.799609375 268.3537109375 627.75 268.3 626.175390625 264.7875 624.2 261.3 621.6546875 256.8994140625 617.45 252.55 614.875 249.975 612.1 247.4 611.9123046875 247.2111328125 611.7 247.15 608.6896484375 244.5330078125 605.4 242.15 597.431640625 236.1638671875 593.2 231.2
L 593.2 231.25
Q 590.5685546875 227.9765625 589.25 225.15 588.725 224 588.15 222.75 580.1564453125 206.1486328125 558.4 189.05 545.186328125 178.451953125 533.05 176.7 532.9783203125 176.68671875 532.9 176.75 532.8376953125 176.7998046875 532.8 176.85 532.8041015625 176.896875 532.8 176.9 532.7865234375 177.021875 532.85 177.1 532.9171875 177.1837890625 533 177.2 545.013671875 178.948046875 558.1 189.45 579.743359375 206.451171875 587.7 222.95 588.2748046875 224.2001953125 588.8 225.35 590.13125 228.2232421875 592.8 231.55
L 592.8 231.55
Q 597.0681640625 236.5361328125 605.1 242.55 608.387109375 244.9501953125 611.4 247.6 611.5009765625 247.6556640625 611.6 247.65 611.667578125 247.6693359375 611.75 247.75 614.5248046875 250.325 617.1 252.9 621.2453125 257.200390625 623.75 261.55 625.724609375 265.0125 627.3 268.5 627.3541015625 268.555078125 627.4 268.6 627.4021484375 268.650390625 627.4 268.7 629.62421875 273.4375 631.2 278.25
L 631.2 278.3
Q 631.7609375 279.5759765625 632.1 281 632.30390625 281.9490234375 632.7 282.85 634.89453125 292.119140625 634.15 305.45 633.5837890625 316.359375 628.8 328.75 627.2654296875 332.7708984375 625.25 336.95 625.0748046875 337.3603515625 624.85 337.9
L 624.85 337.9
Q 621.3611328125 345.5125 619.05 353.05
L 619.05 353.05
Q 618.7150390625 353.812890625 618.5 354.65 616.851953125 360.537890625 615.95 366.9 615.54921875 369.3125 615.4 371.7 615.3962890625 371.7625 615.4 371.8 615.739453125 373.618359375 615 378.2 614.080859375 382.852734375 616.1 389.25 616.50234375 390.9134765625 616.85 392.75 617.39609375 396.112109375 617.4 399.4 617.2517578125 400.5142578125 617.25 401.75 616.3095703125 407.940234375 613.55 416.05 610.6046875 424.101953125 610.6 437.15 610.6 440.25 610.6 442.95 610.5984375 444.2005859375 610.8 445.5 610.596484375 446.825 610.8 447.95 610.800390625 451.9947265625 611.15 454.1 611.1529296875 455.394140625 611.35 457.55
L 611.35 457.55
Q 611.3498046875 458.3376953125 611.5 459.05 611.501171875 462.6361328125 611.7 467.95 611.69609375 477.5830078125 607.75 498.35 607.5548828125 499.238671875 607.55 500.15 607.2025390625 501.4271484375 606.85 503 605.767578125 506.838671875 603.95 510.85 603.538671875 511.4142578125 603.35 512.05
L 603.35 512.1
Q 603.3619140625 512.1248046875 603.35 512.15 602.6015625 513.562890625 601.7 515 601.17734375 515.7265625 600.75 516.45 600.6251953125 516.681640625 600.4 517
L 600.45 517
Q 592.829296875 528.25234375 578.2 539.15 574.362109375 539.909375 567.5 541.65 564.8919921875 542.0037109375 560.05 542.95 559.875 542.95 559.7 542.95
L 559.65 542.95
Q 550.411328125 544.4001953125 532.45 546.8 520.1083984375 548.4275390625 515.35 544.45 515.3 544.4154296875 515.25 544.35 514.08515625 543.5396484375 513.55 542.35
L 513.55 542.3
Q 510.0439453125 536.6005859375 514.65 524.9 514.690234375 524.875390625 514.7 524.85 515.4521484375 520.1427734375 521.9 493.85 523.800390625 486.4001953125 525.1 478.55 525.85 473.5876953125 526.4 468.3 527.7005859375 455.712890625 527.7 442.1 527.7 439.15 527.7 436.2
L 527.7 436.15
Q 527.5005859375 434.3373046875 527.5 432.45 526.4021484375 403.9220703125 521.15 381.15 521.1423828125 381.1107421875 521.1 381.05 520.95625 380.787109375 520.95 380.5 520.953515625 380.475 520.95 380.45 517.85 367.849609375 515.1 354.2
L 515.1 354.15
Q 514.350390625 351.4375 513.8 348.7 511.591015625 339.0478515625 509.6 328.75 509.53125 328.32578125 509.45 327.9 507.8 319.149609375 506.35 311.15 506.35 311.017578125 506.35 310.85
L 506.35 310.8
Q 502.1029296875 287.7779296875 499.5 268.6
L 499.5 268.55
Q 499.4880859375 268.49453125 499.45 268.4 499.4580078125 268.3841796875 499.45 268.3 495.2015625 237.3908203125 495.2 216.65 495.201171875 203.57421875 504.45 189.8
L 504.45 189.75
Q 510.4998046875 180.3669921875 522.15 177.55 524.1263671875 177.20390625 526.35 176.8
L 526.4 176.8
Q 528.617578125 176.6822265625 530.95 176.85 531.5185546875 176.934765625 532.05 177 532.173046875 177.0130859375 532.25 176.95 532.3345703125 176.8814453125 532.35 176.75 532.36328125 176.676953125 532.3 176.6 532.2314453125 176.5154296875 532.1 176.5 529.3568359375 176.178125 526.8 176.25 527.3822265625 175.2615234375 528 174.35 528.75 173.250390625 529.45 172.3
L 529.45 172.25
Q 529.496875 172.2388671875 529.5 172.2 530.04375 171.34921875 530.75 170.45 530.7841796875 170.4009765625 530.8 170.35 534.0365234375 165.7578125 537.45 161.75 562.6759765625 132.1337890625 602.5 126.5 610.8650390625 125.40078125 619.85 125.25 620.35 125.25 620.5 125.25 620.896484375 125.25 621.25 125.25 625.306640625 125.250390625 629.5 125.4 637.687890625 125.8005859375 646.6 127.05 655.2869140625 128.34375 663.8 132.45 666.6 133.775 669.6 135.2 Z"/>

<path fill="#74951C" stroke="none" d="
M 532.85 386.65
Q 533.05 390.5 532.85 393.1 532.5 396.65 532.7 401.45 532.7 403.95 532.85 408
L 532.85 413.6
Q 532.85 413.75 532.85 414.9 532.85 419.1 532.5 436.6 532.5 437.5 532.5 438.8 532.5 440.45 532.5 442.3 532.3 445.15 532.7 456.8 533.05 468.5 530.55 476.7 530.4 476.85 530.4 477.25 530.95 477.8 531.65 477.95 532.1 478.15 532.7 478.15 534.35 478.15 535.45 477.4 536.9 476.3 537.85 474.1 538.95 470.9 538.95 465.75 538.95 453.15 538.95 446.4 538.75 444.05 538.95 442.45 538.95 439.7 538.95 439.35 539.1 438.25 539.3 436.75 539.85 430.05 540.6 415.8 540.75 410 541.15 402.9 541.6 392.15 541.95 385.9
L 532.85 386.65
M 617.1 252.9
Q 614.5248046875 250.325 611.75 247.75
L 609.1 250.35
Q 612.9 253.3 614.35 255.5 614.55 255.65 614.55 255.85 618.7384765625 262.1162109375 620.8 268.6 621.8564453125 271.94609375 622.35 275.35 622.7 278.2 623.1 283.35 623.45 284.65 624.2 286.2 624.95 288.05 625.5 289.7 626.2 292.1 626.75 294.3 628.25 299.9 628.25 304.15 628.25 314.962890625 623.4 328.75 622.5279296875 331.347265625 621.45 334.05 621.05 335.05 620.7 335.95 618.05 342.05 614.55 348.55 614 349.65 613.45 350.75 609.85 357.65 607.45 363.9 607.25 364.1 607.25 364.4 607.1 364.4 607.1 364.55
L 607.1 364.65
Q 605.6 370.65 604.85 377.7 604.15 384.05 604.15 398.3 604.15 418 607.1 436.05 607.65 439.55 608.2 442.65 608.55 445.5 608.9 447.9 610.05 456.1 610.05 459.4 610.05 474.1 604.5 489.85 603.6 492.3 602.1 496 598.9 503.25 593.2 515.3 587.75 526.25 568.45 533.35 564.75 534.65 560.45 535.9 559.55 536.1 558.8 536.45 538.2 542.1 515.75 542.45 515.44296875 543.4150390625 515.25 544.35 515.3 544.4154296875 515.35 544.45 520.1083984375 548.4275390625 532.45 546.8 550.411328125 544.4001953125 559.65 542.95
L 559.7 542.95
Q 559.875 542.95 560.05 542.95 564.8919921875 542.0037109375 567.5 541.65 574.362109375 539.909375 578.2 539.15 592.829296875 528.25234375 600.45 517
L 600.4 517
Q 600.6251953125 516.681640625 600.75 516.45 601.17734375 515.7265625 601.7 515 602.6015625 513.562890625 603.35 512.15 603.3619140625 512.1248046875 603.35 512.1
L 603.35 512.05
Q 603.538671875 511.4142578125 603.95 510.85 605.767578125 506.838671875 606.85 503 607.2025390625 501.4271484375 607.55 500.15 607.5548828125 499.238671875 607.75 498.35 611.69609375 477.5830078125 611.7 467.95 611.501171875 462.6361328125 611.5 459.05 611.3498046875 458.3376953125 611.35 457.55
L 611.35 457.55
Q 611.1529296875 455.394140625 611.15 454.1 610.800390625 451.9947265625 610.8 447.95 610.596484375 446.825 610.8 445.5 610.5984375 444.2005859375 610.6 442.95 610.6 440.25 610.6 437.15 610.6046875 424.101953125 613.55 416.05 616.3095703125 407.940234375 617.25 401.75 617.2517578125 400.5142578125 617.4 399.4 617.39609375 396.112109375 616.85 392.75 616.50234375 390.9134765625 616.1 389.25 614.080859375 382.852734375 615 378.2 615.739453125 373.618359375 615.4 371.8 615.3962890625 371.7625 615.4 371.7 615.54921875 369.3125 615.95 366.9 616.851953125 360.537890625 618.5 354.65 618.7150390625 353.812890625 619.05 353.05
L 619.05 353.05
Q 621.3611328125 345.5125 624.85 337.9
L 624.85 337.9
Q 625.0748046875 337.3603515625 625.25 336.95 627.2654296875 332.7708984375 628.8 328.75 633.5837890625 316.359375 634.15 305.45 634.89453125 292.119140625 632.7 282.85 632.30390625 281.9490234375 632.1 281 631.7609375 279.5759765625 631.2 278.3
L 631.2 278.25
Q 629.62421875 273.4375 627.4 268.7 627.4021484375 268.650390625 627.4 268.6 627.3541015625 268.555078125 627.3 268.5 625.724609375 265.0125 623.75 261.55 621.2453125 257.200390625 617.1 252.9
M 677.05 391.8
L 677.05 389.2
Q 675.95 387.2 675.25 385.7 672.85 381.95 671.2 381.2 669.9 380.65 660.8 380.65 649.85 380.65 644.6 384.6 637.15 390.15 627.7 392.35
L 619.7 392.35 619.7 380.5
Q 621.45 375.15 626.05 361.55 628.6 353.35 632.35 342.2 632.55 341.5 632.95 340.55 634.4 336.15 636.05 331.1 636.44375 329.9416015625 636.8 328.75 638.8544921875 322.0720703125 640 314.35 640.4 310.3 640.75 306.05 641.1 300.45 641.1 294.3 641.1 284.85 640.95 284.1 638.45 277.85 637.15 273.5 636.4 271.3 635.85 269.85 635.5953125 269.1587890625 635.4 268.6 635.3544921875 268.390625 635.3 268.2 634.6 266.15 633.85 264.2 632.2 260.55 629.5 257.4 624.75 251.25 623.65 249.25 623.1 247.95 622.15 246.65 620.05 243.05 616.35 239.4 612.7 235.45 609.1 233.05 602.5 229 599.65 227 595.05 223.75 593.75 220.8 592.85 218.95 591.9 217.15 591.7 216.5 591.55 216.1 587.95 209.85 583.15 204.25 581.7 202.8 580.3 201.3 572.95 193.7 567.35 187.35 559.35 178.7 546.4 175.3 537.066796875 173.67890625 529.5 172.2 529.496875 172.2388671875 529.45 172.25
L 529.45 172.3
Q 528.75 173.250390625 528 174.35 527.3822265625 175.2615234375 526.8 176.25 529.3568359375 176.178125 532.1 176.5 532.2314453125 176.5154296875 532.3 176.6 532.36328125 176.676953125 532.35 176.75 532.564453125 176.7984375 532.8 176.85 532.8376953125 176.7998046875 532.9 176.75 532.9783203125 176.68671875 533.05 176.7 545.186328125 178.451953125 558.4 189.05 580.1564453125 206.1486328125 588.15 222.75 588.725 224 589.25 225.15 590.5685546875 227.9765625 593.2 231.25
L 593.2 231.2
Q 597.431640625 236.1638671875 605.4 242.15 608.6896484375 244.5330078125 611.7 247.15 611.9123046875 247.2111328125 612.1 247.4 614.875 249.975 617.45 252.55 621.6546875 256.8994140625 624.2 261.3 626.175390625 264.7875 627.75 268.3 627.799609375 268.3537109375 627.8 268.4 627.84453125 268.44296875 627.85 268.5 627.8982421875 268.55 627.9 268.6 630.105078125 273.31328125 631.7 278.1
L 631.65 278.1
Q 632.2388671875 279.423828125 632.6 280.9 632.7900390625 281.82421875 633.15 282.7 633.189453125 282.724609375 633.2 282.75 635.40546875 292.080859375 634.65 305.5 634.0873046875 316.3896484375 629.35 328.75 627.767578125 332.8669921875 625.7 337.15 625.525 337.539453125 625.3 338.05
L 625.3 338.1
Q 621.838671875 345.6875 619.55 353.2
L 619.5 353.25
Q 619.18984375 353.9765625 619 354.8
L 619 354.8
Q 617.3509765625 360.6505859375 616.45 366.95
L 616.45 367
Q 616.0568359375 369.3501953125 615.9 371.7 616.260546875 373.581640625 615.5 378.3 614.6189453125 382.846875 616.6 389.1
L 616.6 389.15
Q 617.0001953125 390.799609375 617.35 392.65 617.9017578125 396.0751953125 617.9 399.45
L 617.9 399.45
Q 617.751171875 400.5634765625 617.75 401.8
L 617.75 401.85
Q 616.7904296875 408.0595703125 614 416.2 611.0951171875 424.1978515625 611.1 437.15 611.1 440.25 611.1 442.95 611.1013671875 444.175390625 611.3 445.45 611.3060546875 445.5 611.3 445.55 611.107421875 446.796484375 611.3 447.85
L 611.3 447.9
Q 611.3015625 451.9185546875 611.65 454
L 611.65 454.05
Q 611.65078125 455.3404296875 611.85 457.5
L 611.85 457.55
Q 611.852734375 458.27421875 612 458.95
L 612 459
Q 612 462.6009765625 612.2 467.95 612.20390625 477.6166015625 608.25 498.45 608.0529296875 499.32578125 608.05 500.25 608.0544921875 500.287890625 608.05 500.3 607.6998046875 501.56328125 607.35 503.15
L 607.35 503.15
Q 606.2390625 507.037109375 604.35 511.1 604.3642578125 511.1259765625 604.35 511.15 603.9845703125 511.6537109375 603.85 512.25 603.841015625 512.28828125 603.8 512.3 603.075390625 513.7748046875 602.15 515.25
L 602.15 515.3
Q 601.6142578125 515.9880859375 601.2 516.7
L 601.2 516.75
Q 601.061328125 516.941015625 600.85 517.25
L 600.85 517.3
Q 593.3037109375 528.45078125 578.9 539.25 583.2845703125 540.10703125 587.4 540.25 587.54453125 540.2537109375 587.7 540.25 592.797265625 535.9349609375 598 530.1 602.1 525.7 605.45 521.4 612.7 512.2 616 503.45 618.75 495.8 618.75 488.75 618.75 480.9 618.6 477.05 618.6 476.6 618.6 476.3 618.5 475.5 618.4 474.85 618.05 470.5 617.3 467.2 617.5 466.3 617.65 465.35 618.05 463.7 618.2 461.95 618.75 457.9 619.15 452.95 618.95 452.5 619.15 452.3 619.3 447.55 619.15 441.9 619.15 441.35 619.15 441 618.6 424.15 618.75 423.15 620.9 406.85 635.3 398.85 637.55 397.6 640.2 396.65 654.25 390.7 677.05 391.8
M 704.5 340.95
Q 706.025 338.425 707.45 336 709.68671875 332.1056640625 711.45 328.75 716.86640625 318.4931640625 718.15 313.5 712.33359375 322.075 707.8 328.75 704.6990234375 333.3513671875 702.2 337.05 683.8 364.1 683.8 379.75 683.8 389.2 690.15 403.45 693.2017578125 410.9486328125 694.85 416.7 694.42421875 413.085546875 694.1 409.25 693.9498046875 408.037890625 693.75 406.9
L 693.75 406.85
Q 692.851171875 399.2986328125 691.55 391.1 691.3310546875 390.29765625 691.55 389.5
L 691.55 389.4
Q 691.3498046875 385.1517578125 691.35 377.15 691.35 376.8 691.35 376.25 691.3337890625 362.7607421875 704.3 341.4 704.3294921875 341.19140625 704.5 340.95
M 684.5 268.6
Q 685.521875 269.1974609375 686.55 269.85 691.95 273.35 706.05 279.5
L 706.25 279.5
Q 707.35 280.05 708.9 280.6 711.3208984375 281.6443359375 713.75 282.5 712.9103515625 276.4533203125 715.8 271.75 715.583203125 271.65 715.35 271.65 712.8666015625 270.814453125 709.1 268.6 704.8244140625 266.04375 698.85 261.65 693.1 257.4 687.45 254.95 678.9 251.05 670.8 251.05 662.1 251.05 659.05 252.55 647.2 258.15 645.9 258.7
L 645.35 259.25
Q 652.4 260.75 665.05 261.65 673.6 262.95 681.4 266.9 682.9416015625 267.6859375 684.5 268.6
M 656.1 186.1
L 655.9 186.1
Q 642.6119140625 185.55078125 628.4 186.65 628.325390625 186.6626953125 628.25 186.6 628.1646484375 186.530078125 628.15 186.4 628.137109375 186.325390625 628.2 186.25 628.269921875 186.1646484375 628.35 186.15 642.5880859375 185.0490234375 655.9 185.6
L 656.1 185.6
Q 663.7625 185.799609375 671.35 186.55 676.1873046875 186.8994140625 681.1 187.75 688.0494140625 188.6521484375 694.8 190.1 695.7115234375 190.29921875 696.8 190.65 698.67578125 191.0533203125 700.75 191.6 707.1849609375 193.05703125 713.3 195.1 713.5416015625 195.0951171875 713.75 195.25 714.4736328125 195.46171875 715.4 195.8 717.0564453125 196.3638671875 718.9 197.2 720.34453125 193.071484375 720.15 190.2 720.146875 190.18046875 720.15 190.1 713.5916015625 188.5125 708.05 186.6 707.35 186.4 706.6 186.25 706.4 186.95 706.25 187.35 705.5 188.9 703.1 189.1 702.55 189.1 702.2 189.1 700.35 189.1 697.5 188.55 696.4 188.35 695.1 188.15 690.7 186.95 684.5 184.95 683.6 184.6 682.85 184.4 678.2 182.9 672.3 182.2 671 181.8 669.55 181.8 667.4 181.45 665.2 181.25 661.55 181.8 657.95 182.55 649.85 184.4 636.4 184.4 622.7 184.4 621.25 184.6 609.45 185.85 609.45 192.4
L 609.45 192.6 622.35 193.7
Q 628.05 193.5 638.65 193.5 640.4 193.5 642.05 193.5 643.15 193.5 644.05 193.5 659.25 193.5 661.9 193.85 663.75 194.05 669.55 194.95 672.5 195.35 676.9 196.05 683.95 197 694.55 198.75 696.55 199.5 698.6 200.4 702 200.4 705.85 200.4 715.3162109375 200.743359375 722.1 202
L 718.7 197.95
Q 718.6451171875 197.8853515625 718.65 197.8 718.642578125 197.714453125 718.65 197.6 716.8603515625 196.808203125 715.25 196.25 714.326171875 195.93828125 713.6 195.75 713.5841796875 195.7322265625 713.55 195.7 713.423828125 195.60546875 713.3 195.6 713.262109375 195.5939453125 713.2 195.55 707.087109375 193.537890625 700.65 192.1
L 700.6 192.1
Q 698.5376953125 191.55 696.7 191.15
L 696.65 191.15
Q 695.5884765625 190.80078125 694.7 190.6 687.9623046875 189.150390625 681 188.25
L 681 188.25
Q 676.1126953125 187.4005859375 671.3 187.05 663.7373046875 186.300390625 656.1 186.1 Z"/>

<path fill="#749912" stroke="none" d="
M 527.8 280.25
Q 527.8 282.6 527.6 285.4 527.25 301 527.25 307.2 527.25 310.65 528 327.25 528.017578125 327.985546875 528.05 328.75 528.2146484375 334.4826171875 528.7 341.85 528.9 350.6 529.45 361.15 529.45 361.35 530.4 366.95 530.75 370.1 531.5 375.15 531.65 376.6 531.95 378.25 531.95 378.65 532.1 379 532.3 380.5 532.5 381.95 532.5 382.3 532.5 382.85 532.7 384.8 532.85 386.65
L 541.95 385.9
Q 542.15 383.6 542.15 381.95 542.35 377.9 542.35 377
L 542.35 376.45
Q 542.35 364.55 541.8 355.65 541.15 348.75 540.2 343.5 539.5 339.65 538.55 336.9 538.4 336.5 538.2 333.5 537.9275390625 331.6296875 537.6 328.75 537.0505859375 323.7013671875 536.35 315.55 536.35 314.7 536.35 314.15 534.7 298.25 529.1 283.35 528.35 281.7 527.8 280.25
M 584.25 485.25
Q 584.8 481.85 585.2 480 584.1 482.3 583 484.5 580.7 488.35 578.3 491.65 571.5 499.7 562.2 502.35 553.65 504.75 552.15 505.85 548.05 508.6 548.05 516.95 548.05 522.75 556.6 522.75 560.45 522.75 564.05 521.2 567.35 519.75 570.5 516.8 576.45 511.15 580.3 501.5 581.35 499.3 582.25 496 583 492.85 583.7 488.55 584.1 486.7 584.25 485.25
M 566.05 381.95
Q 565.5 383.25 565.15 384.6 563.65 389.05 562.75 392.55 560.8 398.15 560.1 401.45 558.8 407.25 558.05 416
L 556.75 442.95
Q 556.75 448.45 556.75 457 557.3 462.8 560.45 462.8 564.4 462.8 569.75 458.65 575.7 454.05 575.7 449.35 573.35 445.5 570.65 439.9 567.35 432.45 566.25 424 565.7 419.65 565.7 415.25 565.7 404.65 572.05 381.95 573.35 377 575 371.35 584.25 340.75 584.25 330.9 584.25 329.9609375 584.15 328.75 583.6029296875 322.2904296875 580.15 308.1 579.5529296875 318.4091796875 578.25 328.75 577.92734375 331.3990234375 577.55 334.05 574.25 356.2 567.15 378.65
L 567.15 378.8
Q 567 379.35 566.8 379.95 566.45 380.85 566.05 381.95
M 557.65 268.6
Q 556.8712890625 260.223828125 554.4 256.5 551.15 251.8 544.15 252.55 544 252.75 544.15 252.9 543.8 256.5 543.45 262 543.2712890625 265.7353515625 543.15 268.6 542.9 274.5556640625 542.9 276.75 542.9 291.7 543.05 303.2 543.45 319.4 544.15 327.95 544.15 328.3599609375 544.15 328.75 544.2130859375 329.596875 544.35 330.35 544.7 334.6 545.85 342.4 545.85 342.6 545.85 342.75 546.4 346.7 547.1 351.5 548.6 361.55 550.6 375.15
L 552.9 375.15
Q 555.3 360.45 555.3 349.65 555.3 348 555.3 346.35 554.9697265625 336.7265625 555.05 328.75 555.0916015625 328.2720703125 555.1 327.8 555.5 322 555.85 317 557.9 286.4 558.05 278.4 558.05 278 558.05 277.65 558.05 272.595703125 557.65 268.6 Z"/>

<path fill="#88B11A" stroke="none" d="
M 517.8 194.4
Q 517.8 186.4 523.95 185.15 526.9 184.6 529.65 184.75 529.8 184.75 530 184.75 530.2 184.75 530.4 184.75 546.55 185.15 560.1 198.55 569.55 207.85 584.1 230.85
L 584.1 231
Q 585.75 233.8 589.6 237 593.4 240.15 599.25 243.6 605.25 247.4 609.1 250.35
L 611.75 247.75
Q 611.667578125 247.6693359375 611.6 247.65 611.5009765625 247.6556640625 611.4 247.6 608.387109375 244.9501953125 605.1 242.55 597.0681640625 236.5361328125 592.8 231.55
L 592.8 231.55
Q 590.13125 228.2232421875 588.8 225.35 588.2748046875 224.2001953125 587.7 222.95 579.743359375 206.451171875 558.1 189.45 545.013671875 178.948046875 533 177.2 532.9171875 177.1837890625 532.85 177.1 532.7865234375 177.021875 532.8 176.9 532.8041015625 176.896875 532.8 176.85 532.564453125 176.7984375 532.35 176.75 532.3345703125 176.8814453125 532.25 176.95 532.173046875 177.0130859375 532.05 177 531.5185546875 176.934765625 530.95 176.85 529.7392578125 177.057421875 528.7 177.3 517.05 180.15 510.9 189.65 501.6 203.5 501.6 216.65 501.6 237.4970703125 505.85 268.6 508.5283203125 287.77578125 512.8 310.85 512.8 311.05 512.8 311.2 514.3 319.2 515.95 327.95 516.024609375 328.3505859375 516.1 328.75 518.03203125 339.0744140625 520.15 348.75 520.7 351.5 521.45 354.25 524.3 367.9 527.45 380.5 527.45 380.85 527.6 381.2 531.1 396.65 532.85 414.9 532.85 413.75 532.85 413.6
L 532.85 408
Q 532.7 403.95 532.7 401.45 532.5 396.65 532.85 393.1 533.05 390.5 532.85 386.65 532.7 384.8 532.5 382.85 532.5 382.3 532.5 381.95 532.3 380.5 532.1 379 531.95 378.65 531.95 378.25 531.65 376.6 531.5 375.15 530.75 370.1 530.4 366.95 529.45 361.35 529.45 361.15 528.9 350.6 528.7 341.85 528.2146484375 334.4826171875 528.05 328.75 528.017578125 327.985546875 528 327.25 527.25 310.65 527.25 307.2 527.25 301 527.6 285.4 527.8 282.6 527.8 280.25 528.35 281.7 529.1 283.35 534.7 298.25 536.35 314.15 536.35 314.7 536.35 315.55 537.0505859375 323.7013671875 537.6 328.75 537.9275390625 331.6296875 538.2 333.5 538.4 336.5 538.55 336.9 539.5 339.65 540.2 343.5 541.15 348.75 541.8 355.65 542.35 364.55 542.35 376.45
L 542.35 377
Q 542.35 377.9 542.15 381.95 542.15 383.6 541.95 385.9 541.6 392.15 541.15 402.9 540.75 410 540.6 415.8 539.85 430.05 539.3 436.75 539.1 438.25 538.95 439.35 538.95 439.7 538.95 442.45 538.75 444.05 538.95 446.4 538.95 453.15 538.95 465.75 538.95 470.9 537.85 474.1 536.9 476.3 535.45 477.4 534.35 478.15 532.7 478.15 532.1 478.15 531.65 477.95 531.5 478.35 531.5 478.5 530.2 486.35 528.35 493.8 523.55 513.45 515.75 542.45 538.2 542.1 558.8 536.45 559.55 536.1 560.45 535.9 564.75 534.65 568.45 533.35 587.75 526.25 593.2 515.3 598.9 503.25 602.1 496 603.6 492.3 604.5 489.85 610.05 474.1 610.05 459.4 610.05 456.1 608.9 447.9 608.55 445.5 608.2 442.65 607.65 439.55 607.1 436.05 604.15 418 604.15 398.3 604.15 384.05 604.85 377.7 605.6 370.65 607.1 364.65 606.9 365.3 606.55 366.05 605.05 369.55 603.75 386.1 602.5 402 603.05 416.7 604.85 430.25 604.85 442.45
L 603.75 478.7
Q 601.55 491.3 599.25 494.9 596.7 498.4 594.1 492.85 593.75 485.05 593.55 480.35 593.2 476.15 593 473.75 592.85 470.7 592.65 470.15 592.1 468.7 591.7 467.2 590.8 460.85 590.55 454.05 590.35 453.85 590.55 453.7 590.35 452.5 590.35 451.4 590.35 450.65 590.35 448.8 590.15 441.75 590.15 419.5 590.15 414.9 590.15 410.75 590.15 399.6 590.35 392.15 590.55 383.4 590.8 379.55 590.8 378.1 591 377.35 592.1 368.8 595.6 356.4 598 348.2 598 333.85 598 332.4 598 330.9 598 330.55 598 330.35 598 329.5423828125 597.95 328.75 597.93671875 327.0400390625 597.8 325.4 596.7 302.85 589.6 283.9 589.4 283.55 589.25 283.15 589.05 282.6 588.85 282.05 586.0083984375 274.6744140625 582.6 268.6 577.933984375 260.1376953125 572.2 254.2
L 572.05 254
Q 570.3 252.35 568.65 250.9 565.7 248.5 563.1 246.2 557.7 241.6 553.1 237.55 546 231.2 540.05 225.6 533.4 219.15 528.7 213.75 528.55 213.55 528.35 213.55 517.8 201.15 517.8 194.4
M 554.4 256.5
Q 556.8712890625 260.223828125 557.65 268.6 558.05 272.595703125 558.05 277.65 558.05 278 558.05 278.4 557.9 286.4 555.85 317 555.5 322 555.1 327.8 555.0916015625 328.2720703125 555.05 328.75 554.9697265625 336.7265625 555.3 346.35 555.3 348 555.3 349.65 555.3 360.45 552.9 375.15
L 550.6 375.15
Q 548.6 361.55 547.1 351.5 546.4 346.7 545.85 342.75 545.85 342.6 545.85 342.4 544.7 334.6 544.35 330.35 544.2130859375 329.596875 544.15 328.75 544.15 328.3599609375 544.15 327.95 543.45 319.4 543.05 303.2 542.9 291.7 542.9 276.75 542.9 274.5556640625 543.15 268.6 543.2712890625 265.7353515625 543.45 262 543.8 256.5 544.15 252.9 544 252.75 544.15 252.55 551.15 251.8 554.4 256.5
M 565.15 384.6
Q 565.5 383.25 566.05 381.95 566.45 380.85 566.8 379.95 567 379.35 567.15 378.8
L 567.15 378.65
Q 574.25 356.2 577.55 334.05 577.92734375 331.3990234375 578.25 328.75 579.5529296875 318.4091796875 580.15 308.1 583.6029296875 322.2904296875 584.15 328.75 584.25 329.9609375 584.25 330.9 584.25 340.75 575 371.35 573.35 377 572.05 381.95 565.7 404.65 565.7 415.25 565.7 419.65 566.25 424 567.35 432.45 570.65 439.9 573.35 445.5 575.7 449.35 575.7 454.05 569.75 458.65 564.4 462.8 560.45 462.8 557.3 462.8 556.75 457 556.75 448.45 556.75 442.95
L 558.05 416
Q 558.8 407.25 560.1 401.45 560.8 398.15 562.75 392.55 563.65 389.05 565.15 384.6
M 585.2 480
Q 585.75 477.25 585.75 477.05
L 585.75 474.3
Q 586.3 477.25 585.2 480 584.8 481.85 584.25 485.25 584.1 486.7 583.7 488.55 583 492.85 582.25 496 581.35 499.3 580.3 501.5 576.45 511.15 570.5 516.8 567.35 519.75 564.05 521.2 560.45 522.75 556.6 522.75 548.05 522.75 548.05 516.95 548.05 508.6 552.15 505.85 553.65 504.75 562.2 502.35 571.5 499.7 578.3 491.65 580.7 488.35 583 484.5 584.1 482.3 585.2 480
M 685.65 148.15
L 685.6 148.1
Q 685.0001953125 147.63515625 684.6 147.15 666.3580078125 134.8482421875 645.15 130.2 633.5 127.75 621.6 128.75 614.55 129.3 607.45 130.95 587.05 135 568.25 143.75 548.6 153.6 535.45 171.25
L 530.8 170.35
Q 530.7841796875 170.4009765625 530.75 170.45 530.04375 171.34921875 529.5 172.2 537.066796875 173.67890625 546.4 175.3 559.35 178.7 567.35 187.35 572.95 193.7 580.3 201.3 581.7 202.8 583.15 204.25 587.95 209.85 591.55 216.1 591.7 216.5 591.9 217.15 592.85 218.95 593.75 220.8 595.05 223.75 599.65 227 602.5 229 609.1 233.05 612.7 235.45 616.35 239.4 620.05 243.05 622.15 246.65 623.1 247.95 623.65 249.25 624.75 251.25 629.5 257.4 632.2 260.55 633.85 264.2 634.6 266.15 635.3 268.2 635.3544921875 268.390625 635.4 268.6 635.5953125 269.1587890625 635.85 269.85 636.4 271.3 637.15 273.5 638.45 277.85 640.95 284.1 641.1 284.85 641.1 294.3 641.1 300.45 640.75 306.05 640.4 310.3 640 314.35 638.8544921875 322.0720703125 636.8 328.75 636.44375 329.9416015625 636.05 331.1 634.4 336.15 632.95 340.55 632.55 341.5 632.35 342.2 628.6 353.35 626.05 361.55 621.45 375.15 619.7 380.5
L 619.7 392.35 627.7 392.35
Q 637.15 390.15 644.6 384.6 649.85 380.65 660.8 380.65 669.9 380.65 671.2 381.2 672.85 381.95 675.25 385.7 675.95 387.2 677.05 389.2
L 677.05 391.8
Q 654.25 390.7 640.2 396.65 637.55 397.6 635.3 398.85 620.9 406.85 618.75 423.15 618.6 424.15 619.15 441 619.15 441.35 619.15 441.9 619.3 447.55 619.15 452.3 618.95 452.5 619.15 452.95 618.75 457.9 618.2 461.95
L 618.6 476.3
Q 618.6 476.6 618.6 477.05 618.75 480.9 618.75 488.75 618.75 495.8 616 503.45 612.7 512.2 605.45 521.4 602.1 525.7 598 530.1 592.797265625 535.9349609375 587.7 540.25 602.9048828125 540.5763671875 615.85 532.4
L 615.85 532.4
Q 616.573046875 531.8697265625 617.3 531.35
L 617.35 531.3
Q 617.7095703125 530.83515625 618.05 530.6
L 618.05 530.65
Q 628.65 523.3 639.2 516.2
L 639.2 516.2
Q 645.7748046875 511.9998046875 652.1 507.85 655.7619140625 505.4494140625 659.1 502.7 662.0873046875 500.212109375 664.85 497.45 671.5603515625 490.7974609375 676.85 482.35
L 676.85 482.35
Q 685.7822265625 470.77578125 690.45 460.05 690.4845703125 460.023828125 690.5 460 690.6 459.853125 690.6 459.6 690.60078125 459.497265625 690.65 459.4 690.83671875 459.262890625 691 458.95 691.0109375 458.778515625 691.15 458.55 691.71171875 456.7123046875 692.45 454.9
L 692.45 454.9
Q 695.0451171875 446.96328125 695.4 439.35
L 695.4 439.3
Q 695.599609375 436.5873046875 695.6 433.8 695.599609375 426.362109375 695.05 418.35 694.9458984375 417.5421875 694.85 416.7 693.2017578125 410.9486328125 690.15 403.45 683.8 389.2 683.8 379.75 683.8 364.1 702.2 337.05 704.6990234375 333.3513671875 707.8 328.75 712.33359375 322.075 718.15 313.5 718.2328125 313.160546875 718.3 312.85 718.3 312.4904296875 718.3 312.35
L 718.3 312.3
Q 718.6486328125 308.290625 718.85 305.05
L 718.85 305
Q 718.85 302.659375 718.85 300.65 718.5080078125 296.325390625 717.65 294.2 717.1111328125 292.937890625 716.75 291.6
L 716.75 291.65
Q 716.2369140625 290.5744140625 715.85 289.65
L 715.7 289.5
Q 715.691796875 289.4923828125 715.65 289.45 714.359375 286.2736328125 713.8 283.4
L 713.8 283.35
Q 713.8 283.0109375 713.8 282.6
L 713.8 282.6
Q 713.7931640625 282.5541015625 713.75 282.5 711.3208984375 281.6443359375 708.9 280.6 707.35 280.05 706.25 279.5
L 706.05 279.5
Q 691.95 273.35 686.55 269.85 685.521875 269.1974609375 684.5 268.6 682.9416015625 267.6859375 681.4 266.9 673.6 262.95 665.05 261.65 652.4 260.75 645.35 259.25
L 645.9 258.7
Q 647.2 258.15 659.05 252.55 662.1 251.05 670.8 251.05 678.9 251.05 687.45 254.95 693.1 257.4 698.85 261.65 704.8244140625 266.04375 709.1 268.6 712.8666015625 270.814453125 715.35 271.65
L 716.6 270.5
Q 717.04453125 269.8638671875 717.55 269.25
L 717.55 269.25 718.3 268.4
Q 718.3888671875 268.359375 718.45 268.35 718.494140625 268.3109375 718.5 268.25
L 731.25 253.85
Q 743.103125 233.399609375 731.25 212.75
L 722.1 202
Q 715.3162109375 200.743359375 705.85 200.4 702 200.4 698.6 200.4 699.4 200.75 700.15 201.15 704.2 203.15 707.7 205.35 708.7 205.75 709.65 206.3 709.65 206.45 709.8 206.45 726.1 217.3 726.1 230.45 726.1 233.95 723.15 240.15 721.5 243.45 719.65 247.05
L 716.05 247.05
Q 714.4 246.2 699.25 234.35 698.85 233.95 698.4 233.8 685.45 223.75 671.75 220.25 667.4 220.1 663.35 220.1 659.05 219.9 655.2 219.7 649.4 219.35 644.25 219.15 638.45 218.8 633.5 218.4 612.7 216.85 607.65 209.5 605.8 206.85 605.8 203.7 605.8 195.7 613.8 194.05 614.15 193.85 614.55 193.85 615.45 193.7 622.35 193.7
L 609.45 192.6 609.45 192.4
Q 609.45 185.85 621.25 184.6 622.7 184.4 636.4 184.4 649.85 184.4 657.95 182.55 661.55 181.8 665.2 181.25 661.35 180.9 656.85 180.9
L 656.65 180.9
Q 656.3 180.7 655.9 180.9 653.15 180.7 650.4 180.7 639.8 180.7 628.05 182.35
L 627.85 182.35
Q 623.45 183.1 619.15 183.85 610.05 185.7 606.55 186.4 604.3 186.8 603.95 186.8 602.1 187.15 601.4 187.15 600.2 186.95 597.45 185.3
L 597.45 180.15
Q 601 176 609.3 173.25 611.2 172.55 613.05 172.15 615.65 171.4 618.2 171.05 622.15 170.3 626.05 170.15 626.2 170.15 626.4 170.15 626.75 170.15 627.15 170.15 641.3 170.15 657.6 171.05 661.7 171.25 665.95 171.4 667.25 171.6 668.5 171.6 671.75 171.8 674.7 172.15 678.9 172.35 682.3 172.7 685.65 173.1 688 173.45 691.4 174 693.25 174.55 695.3 174.9 697.3 175.65 698.85 176.2 700 176.75 700.35 176.75 700.9 177.15 703.1 178.15 704.55 179.45 706.8 181.65 706.8 184.2 706.8 184.4 706.8 184.75 706.8 185.5 706.6 186.25 707.35 186.4 708.05 186.6 713.5916015625 188.5125 720.15 190.1 719.9396484375 187.4451171875 718.7 185.65 717.9357421875 185.139453125 717.2 184.6 713.8994140625 181.9998046875 711.3 179.8 709.087109375 177.9373046875 707.15 176.15 704.3609375 173.4119140625 702.35 171 701.5998046875 170.0998046875 700.9 169.2 699.5845703125 167.2236328125 698.8 165.55
L 698.8 165.55
Q 697.0859375 162.4369140625 694.55 158.95 691.0673828125 153.9228515625 685.65 148.15
M 648.45 135
Q 651.15 136.1 653.9 137.2 670.45 144.5 678.2 156.35 678 156.9 677.8 157.65 676.15 161.95 666.3 162.3 664.65 163.05 663.35 163.6 660.6 164.15 658.3 163.6 654.65 162.5 652.4 162.5 648.1 162.5 625.85 165.65 625.65 165.65 625.5 165.8 623.25 166 620.9 166.35 619.15 166.55 617.65 166.9 617.5 166.9 617.3 166.9 616.2 167.1 615.25 167.3 593.95 170.3 593 170.3 587.05 170.3 583.55 170.15 580.95 169.95 579.4 169.6 571.85 167.95 571.85 162.7 571.85 160.65 575.55 157.65 577.75 155.95 583 152.3 584.45 151.2 585 147.05 585.55 142.45 588.5 139.5 593 135.2 603.2 132.45 612.15 130.05 620.35 130.05 624.2 130.05 628.05 130.4 637.55 131.3 646.65 134.45
L 648.45 135
M 667.4 293.2
Q 671 291 674.85 289.5 684.35 285.55 694.75 285.55 696.95 285.55 698.85 285.85 701.65 287.3 704.2 290.05 704.4 290.25 704.55 290.6 712.2 298.8 712.2 309.75
L 712.2 309.95
Q 712.2 313.9845703125 704.5 328.75 703.4294921875 330.81953125 702.2 333.1 700.7 335.95 699.4 338.35 690.3 353.35 685.1 353.35 676.5 351.7 675.05 351.15 673.75 350.4 672.85 346 671.9 340.4 669.9 337.25 669.55 336.7 669.05 336.35 666.0697265625 332.4193359375 658.3 328.75 657.091015625 328.171875 655.75 327.6 654.65 327.05 653.7 326.65 650.75 325.2 649 323.8 646.45 321.6 646.45 319.6 646.45 317.55 647 315.55 649.2 306.6 661.35 297.35 664.3 295.05 667.4 293.2
M 668.7 405.75
Q 669.9 405.75 670.45 405.75 671.35 405.75 671.55 405.75 674.3 406.15 676.15 407.25 678.2 408.35 679.35 410.2 681.2 412.95 682.5 415.25 685.45 420.05 686 422.4 686.2 422.95 686.35 424.15 686.75 427.5 686.75 435.85 686.75 439.35 686.2 443.5 685.25 449.2 683.25 456.45 682.7 458.1 678 465.9 673.05 474.5 669.55 477.4 665.95 480.2 660.8 487.25 659.05 489.45 656.65 491.85 651.5 496.55 642.4 501.5 629.15 509.35 627.7 500.95 637.15 484.85 637.15 473.2 637.15 462.8 634.6 451.95 633.65 448.45 633.1 444.75 632.75 442.45 632.55 440.45 632.35 438.25 632.2 436.2 632 433.25 632 430.4 632 418.75 635.85 413.15 640.95 405.95 653.7 404.85 655.9 404.65 658.5 404.65 658.85 404.65 659.25 404.65 661.9 404.65 663.55 404.85 666.85 405.05 668.7 405.75 Z"/>

<path fill="#ACDA30" stroke="none" d="
M 523.95 185.15
Q 517.8 186.4 517.8 194.4 517.8 201.15 528.35 213.55 528.55 213.55 528.7 213.75 533.4 219.15 540.05 225.6 546 231.2 553.1 237.55 557.7 241.6 563.1 246.2 565.7 248.5 568.65 250.9 570.3 252.35 572.05 254
L 572.2 254.2
Q 577.933984375 260.1376953125 582.6 268.6 586.0083984375 274.6744140625 588.85 282.05 589.05 282.6 589.25 283.15 589.4 283.55 589.6 283.9 596.7 302.85 597.8 325.4 597.93671875 327.0400390625 597.95 328.75 598 329.5423828125 598 330.35 598 330.55 598 330.9 598 332.4 598 333.85 598 348.2 595.6 356.4 592.1 368.8 591 377.35 590.8 378.1 590.8 379.55 590.55 383.4 590.35 392.15 590.15 399.6 590.15 410.75 590.15 414.9 590.15 419.5 590.15 441.75 590.35 448.8 590.35 450.65 590.35 451.4 590.35 452.5 590.55 453.7 590.35 453.85 590.55 454.05 590.8 460.85 591.7 467.2 592.1 468.7 592.65 470.15 592.85 470.7 593 473.75 593.2 476.15 593.55 480.35 593.75 485.05 594.1 492.85 596.7 498.4 599.25 494.9 601.55 491.3 603.75 478.7
L 604.85 442.45
Q 604.85 430.25 603.05 416.7 602.5 402 603.75 386.1 605.05 369.55 606.55 366.05 606.9 365.3 607.1 364.65
L 607.1 364.55
Q 607.1 364.4 607.25 364.4 607.25 364.1 607.45 363.9 609.85 357.65 613.45 350.75 614 349.65 614.55 348.55 618.05 342.05 620.7 335.95 621.05 335.05 621.45 334.05 622.5279296875 331.347265625 623.4 328.75 628.25 314.962890625 628.25 304.15 628.25 299.9 626.75 294.3 626.2 292.1 625.5 289.7 624.95 288.05 624.2 286.2 623.45 284.65 623.1 283.35 622.7 278.2 622.35 275.35 621.8564453125 271.94609375 620.8 268.6 618.7384765625 262.1162109375 614.55 255.85 614.55 255.65 614.35 255.5 612.9 253.3 609.1 250.35 605.25 247.4 599.25 243.6 593.4 240.15 589.6 237 585.75 233.8 584.1 231
L 584.1 230.85
Q 569.55 207.85 560.1 198.55 546.55 185.15 530.4 184.75 530.2 184.75 530 184.75 529.8 184.75 529.65 184.75 526.9 184.6 523.95 185.15
M 532.85 196.45
L 536.9 196.45
Q 540.6 197.65 547.1 204.8 553.1 211.5 559.35 215 559.9 215.95 560.25 216.85 560.8 218.6 560.8 219.9 561.85 225.25 558.45 225.25 555.85 225.25 544.55 216.3 538.4 211.5 535.45 207.65 532.3 203.9 532.3 201.15
L 532.85 196.45
M 596.25 268.6
Q 593.75 263.2740234375 593.75 260 593.75 252.2 601.2 254.95 608.35 257.6 611.05 264.8 612.361328125 266.809765625 613.25 268.6 615.59296875 273.0900390625 615.45 276.2 615.45 278.75 614.35 284.65 614.35 291.9 614.35 292.1 613.25 298.25 608 298.25 600.85 298.25 600.85 291 601.95 282.05 601.2 279.1 600.65 277.3 596.85 269.85 596.5306640625 269.2115234375 596.25 268.6
M 609.65 308.85
Q 616.75 309.2 616.75 317.75 616.75 326.65 610.5 326.65 606.15 326.65 603.95 321.25 602.5 317.75 602.5 315.1 602.5 308.3 609.65 308.85
M 504.45 189.75
L 504.45 189.8
Q 495.201171875 203.57421875 495.2 216.65 495.2015625 237.3908203125 499.45 268.3 499.4580078125 268.3841796875 499.45 268.4 499.4880859375 268.49453125 499.5 268.55
L 499.5 268.6
Q 502.1029296875 287.7779296875 506.35 310.8
L 506.35 310.85
Q 506.35 311.017578125 506.35 311.15 507.8 319.149609375 509.45 327.9 509.53125 328.32578125 509.6 328.75 511.591015625 339.0478515625 513.8 348.7 514.350390625 351.4375 515.1 354.15
L 515.1 354.2
Q 517.85 367.849609375 520.95 380.45 520.953515625 380.475 520.95 380.5 520.95625 380.787109375 521.1 381.05 521.1423828125 381.1107421875 521.15 381.15 526.4021484375 403.9220703125 527.5 432.45 527.5005859375 434.3373046875 527.7 436.15
L 527.7 436.2
Q 527.7 439.15 527.7 442.1 527.7005859375 455.712890625 526.4 468.3 525.85 473.5876953125 525.1 478.55 523.800390625 486.4001953125 521.9 493.85 515.4521484375 520.1427734375 514.7 524.85 514.690234375 524.875390625 514.65 524.9 510.0439453125 536.6005859375 513.55 542.3
L 513.55 542.35
Q 514.08515625 543.5396484375 515.25 544.35 515.44296875 543.4150390625 515.75 542.45 523.55 513.45 528.35 493.8 530.2 486.35 531.5 478.5 531.5 478.35 531.65 477.95 530.95 477.8 530.4 477.25 530.4 476.85 530.55 476.7 533.05 468.5 532.7 456.8 532.3 445.15 532.5 442.3 532.5 440.45 532.5 438.8 532.5 437.5 532.5 436.6 532.85 419.1 532.85 414.9 531.1 396.65 527.6 381.2 527.45 380.85 527.45 380.5 524.3 367.9 521.45 354.25 520.7 351.5 520.15 348.75 518.03203125 339.0744140625 516.1 328.75 516.024609375 328.3505859375 515.95 327.95 514.3 319.2 512.8 311.2 512.8 311.05 512.8 310.85 508.5283203125 287.77578125 505.85 268.6 501.6 237.4970703125 501.6 216.65 501.6 203.5 510.9 189.65 517.05 180.15 528.7 177.3 529.7392578125 177.057421875 530.95 176.85 528.617578125 176.6822265625 526.4 176.8
L 526.35 176.8
Q 524.1263671875 177.20390625 522.15 177.55 510.4998046875 180.3669921875 504.45 189.75
M 676.9 196.05
Q 672.5 195.35 669.55 194.95 663.75 194.05 661.9 193.85 659.25 193.5 644.05 193.5 643.15 193.5 642.05 193.5 640.4 193.5 638.65 193.5 628.05 193.5 622.35 193.7 615.45 193.7 614.55 193.85 614.15 193.85 613.8 194.05 605.8 195.7 605.8 203.7 605.8 206.85 607.65 209.5 612.7 216.85 633.5 218.4 638.45 218.8 644.25 219.15 649.4 219.35 655.2 219.7 659.05 219.9 663.35 220.1 667.4 220.1 671.75 220.25 685.45 223.75 698.4 233.8 698.85 233.95 699.25 234.35 714.4 246.2 716.05 247.05
L 719.65 247.05
Q 721.5 243.45 723.15 240.15 726.1 233.95 726.1 230.45 726.1 217.3 709.8 206.45 709.65 206.45 709.65 206.3 708.7 205.75 707.7 205.35 704.2 203.15 700.15 201.15 699.4 200.75 698.6 200.4 696.55 199.5 694.55 198.75 683.95 197 676.9 196.05
M 682.3 172.7
Q 678.9 172.35 674.7 172.15 671.75 171.8 668.5 171.6 667.25 171.6 665.95 171.4 661.7 171.25 657.6 171.05 641.3 170.15 627.15 170.15 626.75 170.15 626.4 170.15 626.2 170.15 626.05 170.15 622.15 170.3 618.2 171.05 615.65 171.4 613.05 172.15 611.2 172.55 609.3 173.25 601 176 597.45 180.15
L 597.45 185.3
Q 600.2 186.95 601.4 187.15 602.1 187.15 603.95 186.8 604.3 186.8 606.55 186.4 610.05 185.7 619.15 183.85 623.45 183.1 627.85 182.35
L 628.05 182.35
Q 639.8 180.7 650.4 180.7 653.15 180.7 655.9 180.9 656.3 180.7 656.65 180.9
L 656.85 180.9
Q 661.35 180.9 665.2 181.25 667.4 181.45 669.55 181.8 671 181.8 672.3 182.2 678.2 182.9 682.85 184.4 683.6 184.6 684.5 184.95 690.7 186.95 695.1 188.15 696.4 188.35 697.5 188.55 700.35 189.1 702.2 189.1 702.55 189.1 703.1 189.1 705.5 188.9 706.25 187.35 706.4 186.95 706.6 186.25 706.8 185.5 706.8 184.75 706.8 184.4 706.8 184.2 706.8 181.65 704.55 179.45 703.1 178.15 700.9 177.15 700.35 176.75 700 176.75 698.85 176.2 697.3 175.65 695.3 174.9 693.25 174.55 691.4 174 688 173.45 685.65 173.1 682.3 172.7
M 670.45 405.75
Q 669.9 405.75 668.7 405.75 667.25 405.6 664.85 405.4 662.45 405.2 659.25 404.65 658.85 404.65 658.5 404.65 655.9 404.65 653.7 404.85 640.95 405.95 635.85 413.15 632 418.75 632 430.4 632 433.25 632.2 436.2 632.35 438.25 632.55 440.45 632.75 442.45 633.1 444.75 633.65 448.45 634.6 451.95 637.15 462.8 637.15 473.2 637.15 484.85 627.7 500.95 629.15 509.35 642.4 501.5 651.5 496.55 656.65 491.85 659.05 489.45 660.8 487.25 665.95 480.2 669.55 477.4 673.05 474.5 678 465.9 682.7 458.1 683.25 456.45 685.25 449.2 686.2 443.5 686.75 439.35 686.75 435.85 686.75 427.5 686.35 424.15 686.2 422.95 686 422.4 685.45 420.05 682.5 415.25 681.2 412.95 679.35 410.2 678.2 408.35 676.15 407.25 674.3 406.15 671.55 405.75 671.35 405.75 670.45 405.75
M 650.05 424.15
Q 651.15 422.8 653 421.5 653.35 421.3 653.9 420.95 659.85 423.45 666.5 425.45 666.7 425.45 667.05 425.65 671.75 428.6 671.75 439.35 671.75 451 671.2 453.7 671.2 454.05 671 454.6 670.25 457.75 668.7 459.75 666.3 462.8 662.1 462.8 655.55 462.8 653.15 461.25 650.4 459.6 650.6 454.8 650.75 452.75 648.85 444.6 647.75 439.7 647.35 436.75 647 434.35 647 433.25 647 427.3 650.05 424.15
M 674.85 289.5
Q 671 291 667.4 293.2 664.3 295.05 661.35 297.35 649.2 306.6 647 315.55 646.45 317.55 646.45 319.6 646.45 321.6 649 323.8 650.75 325.2 653.7 326.65 654.65 327.05 655.75 327.6 657.091015625 328.171875 658.3 328.75 666.0697265625 332.4193359375 669.05 336.35 669.55 336.7 669.9 337.25 671.9 340.4 672.85 346 673.75 350.4 675.05 351.15 676.5 351.7 685.1 353.35 690.3 353.35 699.4 338.35 700.7 335.95 702.2 333.1 703.4294921875 330.81953125 704.5 328.75 712.2 313.9845703125 712.2 309.95
L 712.2 309.75
Q 712.2 298.8 704.55 290.6 704.4 290.25 704.2 290.05 701.65 287.3 698.85 285.85 696.95 285.55 694.75 285.55 684.35 285.55 674.85 289.5
M 692.35 299.15
Q 692.55 299.15 692.7 299.35 697.85 302.85 697.85 316.85 697.85 317.75 697.85 318.85 697.7 322.55 696.75 324 695.3 326.65 690.5 326.65 688.2 326.3 686.35 325.75 680.1 324.2 678.75 322.9 674.15 318.5 669.55 317.55 668.7 317.4 668.35 316.45 667.6 315.1 667.6 312.15 667.6 305.5 673.6 301.55 676.9 299.35 683.6 297.35
L 692.35 299.15
M 653.9 137.2
Q 651.15 136.1 648.45 135
L 646.65 134.45
Q 637.55 131.3 628.05 130.4 624.2 130.05 620.35 130.05 612.15 130.05 603.2 132.45 593 135.2 588.5 139.5 585.55 142.45 585 147.05 584.45 151.2 583 152.3 577.75 155.95 575.55 157.65 571.85 160.65 571.85 162.7 571.85 167.95 579.4 169.6 580.95 169.95 583.55 170.15 587.05 170.3 593 170.3 593.95 170.3 615.25 167.3 616.2 167.1 617.3 166.9 617.5 166.9 617.65 166.9 619.15 166.55 620.9 166.35 623.25 166 625.5 165.8 625.65 165.65 625.85 165.65 648.1 162.5 652.4 162.5 654.65 162.5 658.3 163.6 660.6 164.15 663.35 163.6 664.65 163.05 666.3 162.3 676.15 161.95 677.8 157.65 678 156.9 678.2 156.35 670.45 144.5 653.9 137.2
M 669.55 135.2
L 669.6 135.2
Q 666.6 133.775 663.8 132.45 655.2869140625 128.34375 646.6 127.05 637.687890625 125.8005859375 629.5 125.4 625.306640625 125.250390625 621.25 125.25 620.896484375 125.25 620.5 125.25 620.35 125.25 619.85 125.25 610.8650390625 125.40078125 602.5 126.5 562.6759765625 132.1337890625 537.45 161.75 534.0365234375 165.7578125 530.8 170.35
L 535.45 171.25
Q 548.6 153.6 568.25 143.75 587.05 135 607.45 130.95 614.55 129.3 621.6 128.75 633.5 127.75 645.15 130.2 666.3580078125 134.8482421875 684.6 147.15 684.566796875 147.082421875 684.5 147
L 684.5 147
Q 678.1794921875 140.628125 669.55 135.2 Z"/>

<path fill="#CFEE7C" stroke="none" d="
M 616.75 317.75
Q 616.75 309.2 609.65 308.85 602.5 308.3 602.5 315.1 602.5 317.75 603.95 321.25 606.15 326.65 610.5 326.65 616.75 326.65 616.75 317.75
M 593.75 260
Q 593.75 263.2740234375 596.25 268.6 596.5306640625 269.2115234375 596.85 269.85 600.65 277.3 601.2 279.1 601.95 282.05 600.85 291 600.85 298.25 608 298.25 613.25 298.25 614.35 292.1 614.35 291.9 614.35 284.65 615.45 278.75 615.45 276.2 615.59296875 273.0900390625 613.25 268.6 612.361328125 266.809765625 611.05 264.8 608.35 257.6 601.2 254.95 593.75 252.2 593.75 260
M 536.9 196.45
L 532.85 196.45 532.3 201.15
Q 532.3 203.9 535.45 207.65 538.4 211.5 544.55 216.3 555.85 225.25 558.45 225.25 561.85 225.25 560.8 219.9 560.8 218.6 560.25 216.85 559.9 215.95 559.35 215 553.1 211.5 547.1 204.8 540.6 197.65 536.9 196.45
M 653 421.5
Q 651.15 422.8 650.05 424.15 647 427.3 647 433.25 647 434.35 647.35 436.75 647.75 439.7 648.85 444.6 650.75 452.75 650.6 454.8 650.4 459.6 653.15 461.25 655.55 462.8 662.1 462.8 666.3 462.8 668.7 459.75 670.25 457.75 671 454.6 671.2 454.05 671.2 453.7 671.75 451 671.75 439.35 671.75 428.6 667.05 425.65 666.7 425.45 666.5 425.45 659.85 423.45 653.9 420.95 653.35 421.3 653 421.5
M 692.7 299.35
Q 692.55 299.15 692.35 299.15
L 683.6 297.35
Q 676.9 299.35 673.6 301.55 667.6 305.5 667.6 312.15 667.6 315.1 668.35 316.45 668.7 317.4 669.55 317.55 674.15 318.5 678.75 322.9 680.1 324.2 686.35 325.75 688.2 326.3 690.5 326.65 695.3 326.65 696.75 324 697.7 322.55 697.85 318.85 697.85 317.75 697.85 316.85 697.85 302.85 692.7 299.35 Z"/>
</g>
</defs>

<g transform="matrix( 1, 0, 0, 1, 0,0) ">
<use xlink:href="#Layer1_0_FILL"/>
</g>

<g transform="matrix( 1, 0, 0, 1, 0,0) ">
<use xlink:href="#Layer0_0_FILL"/>
</g>
</svg>
