
<svg xmlns="http://www.w3.org/2000/svg" version="1.1" xmlns:xlink="http://www.w3.org/1999/xlink" preserveAspectRatio="none" x="0px" y="0px" width="201px" height="150px" viewBox="0 0 201 150">
<defs>
<g id="Layer1_0_FILL">
<path fill="#CCCC99" stroke="none" d="
M 197.65 60.5
L 200.75 57.1 200.95 0.25 68.65 0.45
Q 62.4 0.45 56.15 0.45
L 4.75 0.5 0.25 3.8 0.05 3.8 0.05 60.65 77.7 60.7 74.6 60.5 82 60.5 84.3 60.7 82 60.7 81.85 149.75 124.65 149.75 124.25 60.5 197.65 60.5 Z"/>
</g>

<g id="Layer0_0_FILL">
<path fill="#CCCC99" stroke="none" d="
M 124.25 69.25
L 82 69.25 81.85 149.75 124.65 149.75 124.25 69.25
M 197.35 60.5
L 197.35 3.7 52.3 3.7 52.3 3.8 0.25 3.8 0.05 3.8 0.05 60.65 77.7 60.7 74.6 60.5 82 60.5 124.25 60.5 197.35 60.5 Z"/>

<path fill="#858543" stroke="none" d="
M 82 60.5
L 84.3 60.7 82 60.7 82 69.25 124.25 69.25 124.25 60.5 82 60.5
M 197.65 60.5
L 200.75 57.1 200.95 0.25 68.65 0.45
Q 62.4 0.45 56.15 0.45
L 4.75 0.5 0.25 3.8 52.3 3.8 52.3 3.7 197.35 3.7 197.35 60.5 197.65 60.5 Z"/>
</g>

<g id="Layer0_0_MEMBER_0_FILL">
<path fill="#996633" stroke="none" d="
M 25.95 22.2
Q 25.4 22.2 24.05 22.3 21.95 22.45 20.65 22.45 19.9 22.45 19.55 22.45 17.7 22.3 17.2 22.3 16.15 22.3 15.55 22.45 14.85 22.65 14.45 23.05 14.05 23.4 14.05 23.95 14.05 24.3 14.25 24.6 14.45 24.8 15.1 25.1 15.7 25.45 15.9 26.15 16.1 26.85 16.1 28.8 16.1 35 16.05 36 15.95 37.35 15.75 37.95 15.55 38.5 14.9 38.9 14.35 39.25 14.2 39.45 14.05 39.65 14.05 40 14.05 42 19.25 42 22.1 42 23.25 41.6 24.45 41.2 24.45 40.25 24.45 39.5 23.6 39.05 23.2 38.8 23.05 38.65 22.9 38.5 22.85 38.25 22.6 37.25 22.6 35.45 22.6 34.25 22.75 33.9 22.9 33.6 23.45 33.6 24.4 33.65 24.9 34.2 25.4 34.75 25.7 36.1 26.2 38.15 26.6 39.15 26.95 40.15 27.5 40.8 28.7 42.25 31.45 42.25 33.5 42.25 34.7 41.7 35.2 41.45 35.55 41 35.9 40.55 35.9 40.1 35.9 39.8 35.7 39.5 35.55 39.25 35.25 39.15 34.4 38.9 34.15 38.6 33.9 38.35 33.8 37.4 33.5 35.15 32.8 34.1 32.1 33 30.6 32.45 29.9 32.2 29.9 31.8 29.9 31.5 30.4 31.25 31.45 30.7 32.1 29.65 32.7 28.6 32.7 27.3 32.7 24.95 30.95 23.65 28.95 22.2 25.95 22.2
M 22.65 30.5
Q 22.45 30.3 22.45 29.8 22.45 29.75 22.45 29.7
L 22.65 26.4
Q 22.65 25.75 22.9 25.5 23.1 25.25 23.65 25.25 25.6 25.25 25.6 27.95 25.6 29.4 25.05 30.05 24.45 30.65 23.2 30.65 22.75 30.65 22.65 30.5
M 50.05 22.35
Q 49.05 22.45 46.85 22.45
L 39.6 22.45
Q 38 22.45 37.45 22.55 37 22.65 36.75 23.05 36.5 23.4 36.5 23.85 36.5 24.65 37.3 24.9 37.8 25.05 38 25.15 38.15 25.3 38.3 25.55 39 27 39 32.45 39 36.05 38.5 38.2 38.4 38.7 38.2 39 38 39.25 37.55 39.45 36.95 39.7 36.8 39.9 36.6 40.1 36.6 40.5 36.6 41.05 37 41.4 37.4 41.7 38.15 41.7
L 50.1 41.7
Q 51.6 41.75 52.5 41.9 53 42 53.3 42 53.6 42 53.85 41.85 54.05 41.65 54.35 41.2 55 40.2 55.45 38.95 55.9 37.65 55.9 36.8 55.9 36.05 55.5 35.55 55.1 35 54.5 35 54 35 53.7 35.3 53.35 35.55 52.95 36.4 52.3 37.8 51.2 38.35 50.15 38.9 48.05 38.9 46.65 38.9 46.1 38.75 45.5 38.6 45.35 38.15 45.25 37.8 45.2 36.75 45.1 35.7 45.1 35.05 45.1 33.95 45.35 33.55 45.55 33.15 46.2 33.15 47.85 33.15 48.05 34.75 48.15 35.55 48.35 35.8 48.5 36.05 49 36.05 49.8 36.05 50.15 35.25 50.85 33.8 50.85 31.6 50.85 30.45 50.65 29.45 50.45 28.4 50.15 28 49.75 27.45 49.15 27.45 48.75 27.45 48.45 27.7 48.2 27.9 48.1 28.2 47.95 28.5 47.85 29.35 47.8 29.95 47.55 30.2 47.25 30.45 46.65 30.45 45.45 30.45 45.2 30.25 44.9 30.05 44.9 29.2 44.9 27.05 44.95 26.55 45 26 45.15 25.7 45.5 25.15 47.15 25.15 49.3 25.15 50.25 25.45 51.2 25.75 51.85 26.7 52.3 27.35 52.55 27.55 52.8 27.75 53.25 27.75 53.95 27.75 54.35 27.25 54.7 26.7 54.7 25.8 54.7 23.95 53.8 22.65 53.2 21.9 52.5 21.9 52.3 21.9 52 21.95 51.05 22.25 50.05 22.35
M 65.75 22.4
Q 64.3 22.15 62.7 22.15 60.9 22.15 59.15 22.5 57.65 22.75 57.05 23.15 56.5 23.5 56.5 24.1 56.5 24.5 56.7 24.75 56.9 25 57.45 25.4 58.2 25.85 58.4 26.45 58.75 27.45 58.75 31.05 58.75 36.3 58.5 37.9 58.35 38.6 57.7 39.05 56.8 39.6 56.8 40.25 56.8 42 61.4 42 64.1 42 65.95 41.55 67.65 41.1 67.65 40 67.65 39.15 66.75 38.75 66.2 38.5 66 38.3 65.8 38.05 65.7 37.65 65.45 36.35 65.45 30.95 65.45 27.8 65.65 26.7 65.85 25.6 66.5 25.25 67.3 24.85 67.5 24.65 67.65 24.45 67.65 24.05 67.65 22.8 65.75 22.4
M 91.65 23.9
Q 91.65 22.8 90.35 22.4 89.55 22.15 87.4 22.15 85.75 22.15 85.1 22.3 83.45 22.6 83.45 23.8 83.45 24.3 83.7 24.6 83.9 24.9 84.45 25.15 85.15 25.5 85.35 26.15 85.55 26.8 85.55 28.55 85.55 30.15 84.85 30.15 84.4 30.15 83.4 29.25
L 76.4 23.1
Q 75.65 22.5 75.15 22.3 74.65 22.15 73.5 22.15 71.55 22.15 70.75 22.25 68.4 22.6 68.4 23.95 68.4 24.4 68.65 24.7 68.9 24.95 69.55 25.3 70.1 25.55 70.35 25.85 70.6 26.15 70.75 26.75 71.15 28.4 71.15 32.05 71.15 35.5 70.9 37.3 70.75 38.3 70.1 38.7 69.4 39.1 69.2 39.35 69 39.6 69 40.05 69 41 70.1 41.5 71.15 42 73.05 42 77.25 42 77.25 40 77.25 39.25 76.3 38.8 75.65 38.45 75.4 37.75 75.2 37.05 75.2 35.05 75.2 32.7 76.05 32.7 76.65 32.7 77.5 33.45
L 85.9 40.95
Q 86.6 41.65 86.95 41.8 87.25 42 87.7 42 88.7 42 89.05 40.65 89.4 39.55 89.35 37.05 89.35 35.2 89.35 34.15
L 89.35 29.55
Q 89.35 26.95 89.75 26 89.85 25.75 90 25.6 90.15 25.45 90.6 25.25 91.65 24.8 91.65 23.9
M 103.5 24.65
Q 103.65 24.45 103.65 24.05 103.65 22.8 101.75 22.4 100.3 22.15 98.7 22.15 96.9 22.15 95.15 22.5 93.65 22.75 93.05 23.15 92.5 23.5 92.5 24.1 92.5 24.5 92.7 24.75 92.9 25 93.45 25.4 94.2 25.85 94.4 26.45 94.75 27.45 94.75 31.05 94.75 36.3 94.5 37.9 94.35 38.6 93.7 39.05 92.8 39.6 92.8 40.25 92.8 42 97.4 42 100.1 42 101.95 41.55 103.65 41.1 103.65 40 103.65 39.15 102.75 38.75 102.2 38.5 102 38.3 101.8 38.05 101.7 37.65 101.45 36.35 101.45 30.95 101.45 27.8 101.65 26.7 101.85 25.6 102.5 25.25 103.3 24.85 103.5 24.65
M 123.1 23.85
Q 122.55 23.2 121.85 23.2 121.6 23.2 121.45 23.25 120.85 23.35 120.6 23.35 120.25 23.35 119.35 22.95 117.45 22.05 115.35 22.05 113.15 22.05 111.1 22.95 108.35 24.15 106.7 26.35 104.75 28.95 104.75 32.1 104.75 34.8 106.3 37.25 107.85 39.8 110.6 41 112.95 42.1 115.3 42.1 117.55 42.1 119.65 41.1 120.5 40.65 121.05 40.55 122 40.35 122.3 40.15 123 39.55 123.45 38.55 123.95 37.5 123.95 36.7 123.95 36.05 123.6 35.6 123.25 35.15 122.75 35.15 122.45 35.15 121.9 35.65 121.25 36.25 120.15 36.65 119.05 37 117.9 37 114.8 37 113.1 34.3 111.9 32.3 111.9 29.85 111.9 28.1 112.75 27.05 113.6 26 115.05 26 116.55 26 117.9 26.95 118.45 27.35 118.85 27.85 119.2 28.35 119.85 29.45 120.25 30.25 120.7 30.55 121.15 30.85 121.9 30.85 122.65 30.85 123.3 30.45 124.45 29.65 124.45 27.95 124.45 25.5 123.1 23.85
M 127.85 22.5
Q 126.35 22.75 125.75 23.15 125.2 23.5 125.2 24.1 125.2 24.5 125.4 24.75 125.6 25 126.15 25.4 126.9 25.85 127.1 26.45 127.45 27.45 127.45 31.05 127.45 36.3 127.2 37.9 127.05 38.6 126.4 39.05 125.5 39.6 125.5 40.25 125.5 42 130.1 42 132.8 42 134.65 41.55 136.35 41.1 136.35 40 136.35 39.15 135.45 38.75 134.9 38.5 134.7 38.3 134.5 38.05 134.4 37.65 134.15 36.35 134.15 30.95 134.15 27.8 134.35 26.7 134.55 25.6 135.2 25.25 136 24.85 136.2 24.65 136.35 24.45 136.35 24.05 136.35 22.8 134.45 22.4 133 22.15 131.4 22.15 129.6 22.15 127.85 22.5
M 147.6 21.95
Q 146.05 21.95 145.1 22.95 144.65 23.4 144.5 23.85 144.35 24.35 144.35 25.55 144.35 26.7 143.95 27.9 143.6 29.1 142.5 31.5
L 140.5 35.85
Q 139.6 37.75 139.15 38.35 138.65 38.95 137.75 39.25 137.2 39.45 137 39.7 136.75 39.95 136.75 40.35 136.75 41.4 137.75 41.65 138.8 42 141.1 42 145.1 42 145.1 40.3 145.1 39.55 144.25 39.3 143.6 39.05 143.5 39 143.35 38.9 143.35 38.6 143.35 38.25 143.55 37.85 143.7 37.5 143.9 37.35 144.3 37.15 146.15 37.15 148.4 37.15 149.6 37.3 150.75 37.5 150.75 38.45 150.75 38.95 150.1 39.2 149.5 39.4 149.3 39.65 149.05 39.85 149.05 40.25 149.05 40.8 149.5 41.2 149.9 41.6 150.6 41.75 152.15 42 155.35 42 158.15 42 159.4 41.55 160.65 41.1 160.65 40.05 160.65 39.2 159.65 39.05 159.1 38.95 158.85 38.7 158.6 38.45 158.2 37.65
L 155.55 31.95
Q 152.1 24.6 150.3 23.05 149 21.95 147.6 21.95
M 146.95 29.7
Q 147.2 29.7 147.45 30 147.7 30.25 148.2 31.1 149.25 32.9 149.25 33.4 149.25 33.7 148.5 33.7
L 145.75 33.7
Q 145.1 33.7 145.1 33.35 145.1 33.1 145.65 31.65 146 30.75 146.1 30.65 146.4 29.7 146.95 29.7
M 173 22.2
Q 172.45 22.2 171.1 22.3 169 22.45 167.7 22.45 166.95 22.45 166.6 22.45 164.75 22.3 164.25 22.3 163.2 22.3 162.6 22.45 161.9 22.65 161.5 23.05 161.1 23.4 161.1 23.95 161.1 24.3 161.3 24.6 161.5 24.8 162.15 25.1 162.75 25.45 162.95 26.15 163.15 26.85 163.15 28.8 163.15 35 163.1 36 163 37.35 162.8 37.95 162.6 38.5 161.95 38.9 161.4 39.25 161.25 39.45 161.1 39.65 161.1 40 161.1 42 166.3 42 169.15 42 170.3 41.6 171.5 41.2 171.5 40.25 171.5 39.5 170.65 39.05 170.25 38.8 170.1 38.65 169.95 38.5 169.9 38.25 169.65 37.25 169.65 35.45 169.65 34.25 169.8 33.9 169.95 33.6 170.5 33.6 171.45 33.65 171.95 34.2 172.45 34.75 172.75 36.1 173.25 38.15 173.65 39.15 174 40.15 174.55 40.8 175.75 42.25 178.5 42.25 180.55 42.25 181.75 41.7 182.25 41.45 182.6 41 182.95 40.55 182.95 40.1 182.95 39.8 182.75 39.5 182.6 39.25 182.3 39.15 181.45 38.9 181.2 38.6 180.95 38.35 180.85 37.4 180.55 35.15 179.85 34.1 179.15 33 177.65 32.45 176.95 32.2 176.95 31.8 176.95 31.5 177.45 31.25 178.5 30.7 179.15 29.65 179.75 28.6 179.75 27.3 179.75 24.95 178 23.65 176 22.2 173 22.2
M 169.7 26.4
Q 169.7 25.75 169.95 25.5 170.15 25.25 170.7 25.25 172.65 25.25 172.65 27.95 172.65 29.4 172.1 30.05 171.5 30.65 170.25 30.65 169.8 30.65 169.7 30.5 169.5 30.3 169.5 29.8 169.5 29.75 169.5 29.7
L 169.7 26.4 Z"/>
</g>
</defs>

<g transform="matrix( 1, 0, 0, 1, 0,0) ">
<use xlink:href="#Layer1_0_FILL"/>
</g>

<g transform="matrix( 1, 0, 0, 1, 0,0) ">
<use xlink:href="#Layer0_0_FILL"/>
</g>

<g transform="matrix( 1, 0, 0, 1, 0,0) ">
<use xlink:href="#Layer0_0_MEMBER_0_FILL"/>
</g>
</svg>
