
<svg xmlns="http://www.w3.org/2000/svg" version="1.1" xmlns:xlink="http://www.w3.org/1999/xlink" preserveAspectRatio="none" x="0px" y="0px" width="149px" height="105px" viewBox="0 0 149 105">
<defs>
<g id="Layer1_0_FILL">
<path fill="#CCCC99" stroke="none" d="
M 145.55 60.65
L 148.65 57.25 148.85 0.4 4.05 0.6 0.2 3.85 0.2 60.65 57.95 60.65 56.8 104.6 92.8 104.6 92.65 60.65 145.55 60.65 Z"/>
</g>

<g id="Layer0_0_FILL">
<path fill="#CCCC99" stroke="none" d="
M 56.8 104.6
L 92.8 104.6 92.65 69.4 57.95 69.4 56.8 104.6
M 145.25 60.65
L 145.25 3.85 0.2 3.85 0.2 60.65 57.95 60.65 92.65 60.65 145.25 60.65 Z"/>

<path fill="#858543" stroke="none" d="
M 145.55 60.65
L 148.65 57.25 148.85 0.4 4.05 0.6 0.2 3.85 145.25 3.85 145.25 60.65 145.55 60.65
M 92.65 69.4
L 92.65 60.65 57.95 60.65 57.95 69.4 92.65 69.4 Z"/>
</g>

<g id="Layer0_0_MEMBER_0_FILL">
<path fill="#996633" stroke="none" d="
M 41.65 29.2
Q 42.35 28.65 42.35 27.5 42.35 25.85 41.35 24.25 40.35 22.65 39.25 22.65 38.95 22.65 38.55 22.75 37.65 23.05 36.5 23.05
L 29.55 23.05
Q 28.95 23.05 28.5 23 28.05 22.95 27.3 22.8 26.95 22.75 26.7 22.75 25.7 22.75 24.7 24.1 24.1 24.95 23.7 25.9 23.35 26.9 23.35 27.7 23.35 28.55 23.8 29.1 24.3 29.65 25 29.65 25.65 29.65 26.3 29.1 26.85 28.65 27.75 27.3 28.25 26.6 28.75 26.6 29.2 26.6 29.4 27.1 29.55 27.6 29.55 28.8 29.55 30.5 29.45 32.8 29.4 35.1 29.25 36.15 29.15 37.3 28.95 37.7 28.75 38.1 28.25 38.25 27.45 38.5 27.3 38.6 26.85 38.9 26.85 39.45 26.85 40.45 28.2 40.9 29.75 41.45 33.05 41.45 35.75 41.45 37.05 40.95 38.3 40.5 38.3 39.55 38.3 39.05 38.05 38.8 37.8 38.55 37.1 38.2 36.4 37.95 36.2 37.45 35.95 36.9 35.95 35.75
L 35.95 28.35
Q 35.95 27.4 36.15 27 36.35 26.6 36.85 26.6 37.2 26.6 37.45 26.85 37.7 27.1 38.15 27.9 38.65 28.8 39.2 29.2 39.7 29.6 40.4 29.6 41.15 29.6 41.65 29.2
M 52.45 23.05
L 45.6 23.05
Q 44.15 23.05 43.6 23.2 43.2 23.3 42.95 23.65 42.7 23.95 42.7 24.4 42.7 25.15 43.45 25.4 43.95 25.55 44.1 25.65 44.3 25.75 44.4 26 45.05 27.35 45.05 32.45 45.05 35.85 44.6 37.85 44.5 38.35 44.3 38.6 44.1 38.85 43.75 39 43.15 39.3 43 39.45 42.85 39.65 42.85 40 42.85 40.55 43.2 40.85 43.6 41.15 44.25 41.15
L 55.5 41.15
Q 56.9 41.2 57.75 41.35 58.25 41.45 58.5 41.45 58.8 41.45 59 41.3 59.2 41.1 59.5 40.65 60.1 39.75 60.5 38.55 60.9 37.35 60.9 36.55 60.9 35.85 60.55 35.35 60.2 34.85 59.6 34.85 59.15 34.85 58.85 35.15 58.55 35.4 58.2 36.15 57.55 37.5 56.55 38 55.55 38.55 53.55 38.55 52.25 38.55 51.7 38.4 51.15 38.2 51.05 37.85 50.95 37.5 50.9 36.55 50.8 35.55 50.8 34.9 50.8 33.9 51 33.5 51.2 33.15 51.8 33.15 53.35 33.15 53.55 34.65 53.65 35.35 53.85 35.6 54 35.85 54.45 35.85 55.2 35.85 55.55 35.1 56.2 33.75 56.2 31.65 56.2 30.6 56 29.65 55.8 28.65 55.55 28.3 55.15 27.75 54.6 27.75 54.25 27.75 53.95 28 53.7 28.2 53.6 28.5 53.5 28.8 53.4 29.55 53.35 30.15 53.1 30.4 52.85 30.6 52.25 30.6 51.15 30.6 50.9 30.4 50.6 30.2 50.6 29.45 50.6 27.4 50.65 26.95 50.7 26.45 50.85 26.15 51.2 25.6 52.7 25.6 54.75 25.6 55.65 25.9 56.55 26.2 57.1 27.1 57.55 27.7 57.8 27.9 58 28.05 58.45 28.05 59.1 28.05 59.45 27.6 59.8 27.05 59.8 26.2 59.8 24.5 58.95 23.3 58.4 22.55 57.75 22.55 57.55 22.55 57.3 22.65 56.4 22.9 55.45 23 54.5 23.05 52.45 23.05
M 82.3 40.25
Q 82.6 39.85 82.6 39.35 82.6 38.85 82.3 38.55 82 38.25 81.3 38 80.8 37.85 80.55 37.65 80.3 37.45 79.85 36.9
L 74.8 30.55
Q 74.65 30.35 74.65 30.25 74.65 30.15 74.8 29.95
L 76.35 27.95
Q 77.3 26.8 78 26.25 78.7 25.75 79.35 25.7 80.35 25.6 80.6 25.5 81.2 25.15 81.2 24.45 81.2 23.4 80.05 23.05 79.1 22.8 77.4 22.8 75.05 22.8 74.05 23.15 73 23.55 73 24.35 73 24.95 73.4 25.25 73.85 25.6 73.9 25.65 74 25.75 74 25.9 74 26.15 73.4 26.85 72.85 27.5 72.65 27.5 72.4 27.5 71.9 26.85 71.45 26.25 71.45 25.95 71.45 25.8 71.5 25.7 71.55 25.65 71.85 25.45 72.35 25.1 72.35 24.45 72.35 24 72.1 23.65 71.85 23.3 71.45 23.15 70.5 22.8 67.85 22.8 65.35 22.8 63.35 23.25 61.5 23.7 61.5 24.85 61.5 25.45 61.95 25.85 62.2 26.05 62.95 26.3 63.55 26.5 63.8 26.7 64.05 26.95 64.8 27.95
L 68.2 32.3
Q 68.4 32.5 68.4 32.6 68.4 32.7 68.2 32.95
L 66.15 35.5
Q 64.65 37.4 64.05 37.9 63.45 38.4 62.55 38.4 61.85 38.45 61.45 38.8 61.05 39.1 61.05 39.7 61.05 40.15 61.35 40.55 61.7 40.9 62.15 41.05 63.3 41.45 65.4 41.45 67.25 41.45 68.65 41 69.65 40.7 69.65 39.75 69.65 39.15 69.15 38.75 68.6 38.35 68.6 38.15 68.6 37.9 69.1 37.15 69.55 36.35 70.2 35.6 70.35 35.4 70.5 35.4 70.65 35.4 70.85 35.65 72.35 37.65 72.35 38.35 72.35 38.55 71.85 38.9 71.3 39.25 71.3 39.85 71.3 40.3 71.7 40.65 72.1 41 72.75 41.15 73.85 41.4 76.15 41.4 78.25 41.4 79.45 41.3 80.65 41.15 81.45 40.85 81.95 40.65 82.3 40.25
M 95.7 23.05
L 88.75 23.05
Q 88.15 23.05 87.7 23 87.25 22.95 86.5 22.8 86.15 22.75 85.9 22.75 84.9 22.75 83.9 24.1 83.3 24.95 82.9 25.9 82.55 26.9 82.55 27.7 82.55 28.55 83 29.1 83.5 29.65 84.2 29.65 84.85 29.65 85.5 29.1 86.05 28.65 86.95 27.3 87.45 26.6 87.95 26.6 88.4 26.6 88.6 27.1 88.75 27.6 88.75 28.8 88.75 30.5 88.65 32.8 88.6 35.1 88.45 36.15 88.35 37.3 88.15 37.7 87.95 38.1 87.45 38.25 86.65 38.5 86.5 38.6 86.05 38.9 86.05 39.45 86.05 40.45 87.4 40.9 88.95 41.45 92.25 41.45 94.95 41.45 96.25 40.95 97.5 40.5 97.5 39.55 97.5 39.05 97.25 38.8 97 38.55 96.3 38.2 95.6 37.95 95.4 37.45 95.15 36.9 95.15 35.75
L 95.15 28.35
Q 95.15 27.4 95.35 27 95.55 26.6 96.05 26.6 96.4 26.6 96.65 26.85 96.9 27.1 97.35 27.9 97.85 28.8 98.4 29.2 98.9 29.6 99.6 29.6 100.35 29.6 100.85 29.2 101.55 28.65 101.55 27.5 101.55 25.85 100.55 24.25 99.55 22.65 98.45 22.65 98.15 22.65 97.75 22.75 96.85 23.05 95.7 23.05
M 118.2 24.65
Q 115.65 22.7 112.25 22.7 110.05 22.7 108.25 23.4 105.55 24.4 103.95 26.55 102.2 28.95 102.2 32.1 102.2 34.8 103.6 37.05 105 39.4 107.55 40.55 109.65 41.5 111.9 41.5 113.65 41.5 115.4 40.95 118.2 40.05 119.95 37.95 122.05 35.5 122.05 32.35 122.05 30.25 121 28.1 119.9 26 118.2 24.65
M 112.35 27
Q 113 27.45 113.5 28.25 114.3 29.55 114.85 31.45 115.35 33.3 115.35 34.9 115.35 36.1 114.75 36.85 114.1 37.65 113.1 37.65 112.5 37.65 111.9 37.25 111.3 36.85 110.85 36.2 109.95 34.7 109.35 32.75 108.75 30.75 108.75 29.25 108.75 28.25 109.25 27.5 109.9 26.5 111 26.5 111.65 26.55 112.35 27 Z"/>
</g>
</defs>

<g transform="matrix( 1, 0, 0, 1, 0,0) ">
<use xlink:href="#Layer1_0_FILL"/>
</g>

<g transform="matrix( 1, 0, 0, 1, 0,0) ">
<use xlink:href="#Layer0_0_FILL"/>
</g>

<g transform="matrix( 1, 0, 0, 1, 0,0) ">
<use xlink:href="#Layer0_0_MEMBER_0_FILL"/>
</g>
</svg>
