
<svg xmlns="http://www.w3.org/2000/svg" version="1.1" xmlns:xlink="http://www.w3.org/1999/xlink" preserveAspectRatio="none" x="0px" y="0px" width="201px" height="103px" viewBox="0 0 201 103">
<defs>
<g id="Layer1_0_FILL">
<path fill="#CCCC99" stroke="none" d="
M 197.65 60.3
L 200.75 56.9 200.95 0.05 68.65 0.25
Q 62.4 0.25 56.15 0.25
L 4.75 0.3 0.25 3.6 0.05 3.6 0.05 60.45 77.7 60.5 74.6 60.3 82 60.3 84.3 60.5 82 60.5 81.95 102.95 124.45 102.95 124.25 60.3 197.65 60.3 Z"/>
</g>

<g id="Layer0_0_FILL">
<path fill="#CCCC99" stroke="none" d="
M 124.25 69.05
L 82 69.05 81.95 102.95 124.45 102.95 124.25 69.05
M 197.35 60.3
L 197.35 3.5 52.3 3.5 52.3 3.6 0.25 3.6 0.05 3.6 0.05 60.45 77.7 60.5 74.6 60.3 82 60.3 124.25 60.3 197.35 60.3 Z"/>

<path fill="#858543" stroke="none" d="
M 82 60.3
L 84.3 60.5 82 60.5 82 69.05 124.25 69.05 124.25 60.3 82 60.3
M 197.65 60.3
L 200.75 56.9 200.95 0.05 68.65 0.25
Q 62.4 0.25 56.15 0.25
L 4.75 0.3 0.25 3.6 52.3 3.6 52.3 3.5 197.35 3.5 197.35 60.3 197.65 60.3 Z"/>
</g>

<g id="Layer0_0_MEMBER_0_FILL">
<path fill="#996633" stroke="none" d="
M 25.85 24.35
Q 25.35 23.75 24.65 23.75 24.45 23.75 24.25 23.8 23.7 23.9 23.5 23.9 23.15 23.9 22.3 23.5 20.5 22.65 18.55 22.65 16.5 22.65 14.55 23.5 12 24.6 10.4 26.7 8.6 29.15 8.6 32.1 8.6 34.6 10.05 36.95 11.55 39.3 14.1 40.45 16.3 41.45 18.5 41.45 20.6 41.45 22.55 40.5 23.4 40.1 23.9 40.05 24.8 39.85 25.05 39.65 25.7 39.1 26.15 38.15 26.65 37.2 26.65 36.4 26.65 35.8 26.3 35.4 25.95 34.95 25.5 34.95 25.2 34.95 24.7 35.4 24.1 36 23.05 36.35 22 36.7 20.95 36.7 18 36.7 16.45 34.15 15.3 32.3 15.3 30 15.3 28.35 16.1 27.35 16.9 26.35 18.25 26.35 19.65 26.35 20.95 27.25 21.45 27.65 21.85 28.1 22.2 28.55 22.75 29.6 23.15 30.35 23.6 30.65 24 30.95 24.7 30.95 25.4 30.95 26 30.55 27.1 29.8 27.1 28.2 27.1 25.9 25.85 24.35
M 48 32.3
Q 48 30.2 46.95 28.05 45.85 25.95 44.15 24.6 41.6 22.65 38.2 22.65 36 22.65 34.2 23.35 31.5 24.35 29.9 26.5 28.15 28.9 28.15 32.05 28.15 34.75 29.55 37 30.95 39.35 33.5 40.5 35.6 41.45 37.85 41.45 39.6 41.45 41.35 40.9 44.15 40 45.9 37.9 48 35.45 48 32.3
M 41.3 34.85
Q 41.3 36.05 40.7 36.8 40.05 37.6 39.05 37.6 38.45 37.6 37.85 37.2 37.25 36.8 36.8 36.15 35.9 34.65 35.3 32.7 34.7 30.7 34.7 29.2 34.7 28.2 35.2 27.45 35.85 26.45 36.95 26.45 37.6 26.5 38.3 26.95 38.95 27.4 39.45 28.2 40.25 29.5 40.8 31.4 41.3 33.25 41.3 34.85
M 69.5 23
Q 68.7 22.75 66.7 22.75 65.15 22.75 64.55 22.9 63 23.2 63 24.3 63 24.75 63.2 25.05 63.45 25.35 63.95 25.6 64.6 25.9 64.8 26.5 65 27.1 65 28.75 65 30.25 64.3 30.25 63.9 30.25 62.95 29.45
L 56.35 23.65
Q 55.7 23.1 55.2 22.9 54.75 22.75 53.7 22.75 51.8 22.75 51.1 22.85 48.9 23.2 48.9 24.45 48.9 24.85 49.15 25.15 49.35 25.4 49.95 25.7 50.45 25.95 50.7 26.25 50.9 26.5 51.05 27.05 51.45 28.65 51.45 32.05 51.45 35.25 51.25 36.95 51.1 37.9 50.5 38.3 49.85 38.65 49.65 38.9 49.45 39.1 49.45 39.55 49.45 40.4 50.45 40.9 51.45 41.35 53.25 41.35 57.2 41.35 57.2 39.5 57.2 38.8 56.3 38.4 55.65 38.05 55.45 37.4 55.25 36.7 55.25 34.9 55.25 32.65 56.05 32.65 56.6 32.65 57.4 33.4
L 65.3 40.4
Q 65.95 41.05 66.25 41.2 66.55 41.4 66.95 41.4 67.9 41.4 68.25 40.1 68.55 39.05 68.55 36.75 68.55 35 68.55 34
L 68.55 29.7
Q 68.55 27.25 68.9 26.4 69 26.1 69.15 26 69.3 25.85 69.7 25.7 70.7 25.25 70.7 24.4 70.7 23.35 69.5 23
M 88 23.35
Q 87.6 22.8 87.1 22.8 87 22.8 86.75 22.8 85.1 23.1 80.3 23.1 77.3 23.1 75.15 22.9 74.1 22.85 73.6 22.85 72.75 22.85 72.2 23.25 71.6 23.6 71.6 24.2 71.6 24.6 71.8 24.85 72 25.05 72.7 25.35 73.35 25.65 73.5 26.35 73.7 27.1 73.7 29.6 73.7 35.4 73.45 37.05 73.3 38.1 72.55 38.4 71.95 38.65 71.85 38.75 71.4 39.1 71.4 39.65 71.4 40.15 71.7 40.5 72 40.9 72.45 41.05 73.5 41.35 76.2 41.35 79.35 41.35 81.05 40.95 82.25 40.65 82.25 39.65 82.25 39.25 82 38.95 81.75 38.65 81.4 38.6 80.7 38.5 80.55 38.4 80.4 38.35 80.25 38.15 79.75 37.65 79.75 35.35 79.75 34.25 79.75 34.15 79.75 33.55 79.95 33.35 80.15 33.1 80.75 33.1 81.6 33.1 82.05 33.5 82.3 33.8 82.4 34.05 82.5 34.35 82.55 35 82.7 36.05 83.45 36.05 84.2 36.05 84.65 35.35 85.35 34.2 85.35 31.75 85.35 27.9 83.7 27.9 82.8 27.9 82.5 29.35 82.35 29.85 82.1 30.05 81.8 30.25 81.25 30.25 80.35 30.25 80.05 30.05 79.7 29.9 79.7 29.4 79.7 28.55 79.85 27.55 80 26.55 80.15 26.2 80.35 25.75 81.3 25.75 83.6 25.8 84.45 26.05 85.25 26.25 85.85 26.95 86.85 28.05 87.1 28.25 87.3 28.4 87.8 28.4 88.4 28.4 88.8 27.9 89.15 27.45 89.15 26.6 89.15 24.8 88 23.35
M 98 23
Q 96.65 22.75 95.15 22.75 93.45 22.75 91.8 23.1 90.4 23.35 89.85 23.7 89.3 24 89.3 24.6 89.3 24.95 89.5 25.2 89.7 25.45 90.2 25.8 90.9 26.25 91.1 26.75 91.45 27.7 91.45 31.1 91.45 36 91.2 37.5 91.1 38.2 90.45 38.6 89.6 39.15 89.6 39.7 89.6 41.35 93.9 41.35 96.45 41.35 98.2 40.95 99.8 40.55 99.8 39.5 99.8 38.75 98.9 38.35 98.45 38.1 98.25 37.9 98.05 37.7 97.95 37.3 97.7 36.1 97.7 31.05 97.7 28.05 97.9 27 98.1 26 98.7 25.65 99.45 25.3 99.6 25.1 99.8 24.9 99.8 24.55 99.8 23.35 98 23
M 109.9 22.9
Q 107.9 23.05 106.75 23.05 106 23.05 105.7 23 103.95 22.9 103.5 22.9 102.5 22.9 101.95 23.05 101.25 23.2 100.9 23.6 100.5 23.95 100.5 24.45 100.5 24.8 100.7 25.05 100.9 25.25 101.5 25.55 102.1 25.85 102.3 26.5 102.45 27.15 102.45 29 102.45 34.8 102.4 35.75 102.3 37.05 102.1 37.55 101.9 38.1 101.35 38.45 100.8 38.8 100.65 39 100.5 39.2 100.5 39.5 100.5 41.35 105.4 41.35 108.05 41.35 109.15 41 110.25 40.65 110.25 39.75 110.25 39.05 109.45 38.6 109.1 38.4 108.95 38.25 108.85 38.1 108.75 37.85 108.55 36.9 108.55 35.2 108.55 34.1 108.7 33.8 108.85 33.5 109.35 33.5 110.2 33.55 110.7 34.05 111.15 34.55 111.45 35.85 111.95 37.8 112.3 38.7 112.65 39.65 113.15 40.25 114.25 41.6 116.85 41.6 118.75 41.6 119.9 41.1 120.4 40.85 120.7 40.45 121 40.05 121 39.6 121 39.3 120.85 39.05 120.7 38.8 120.45 38.7 119.6 38.45 119.4 38.2 119.15 37.95 119.05 37.05 118.75 34.95 118.1 33.95 117.45 32.95 116.05 32.45 115.4 32.2 115.4 31.8 115.4 31.5 115.85 31.3 116.85 30.8 117.45 29.8 118.05 28.8 118.05 27.6 118.05 25.4 116.35 24.15 114.5 22.8 111.65 22.8 111.15 22.8 109.9 22.9
M 108.55 30.6
Q 108.45 30.45 108.45 29.95
L 108.55 26.75
Q 108.6 26.15 108.8 25.9 109 25.65 109.55 25.65 111.35 25.65 111.35 28.2 111.35 29.55 110.8 30.15 110.3 30.75 109.15 30.75 108.7 30.75 108.55 30.6
M 126.2 22.75
Q 125.5 22.75 124.55 22.9 123.55 23 122.95 23.15 122.4 23.35 122.05 23.7 121.7 24.1 121.7 24.55 121.7 25.25 122.65 25.7 123.05 25.95 123.2 26.05 123.35 26.2 123.45 26.45 123.8 27.25 123.8 29.4 123.8 31.1 123.7 33.55 123.6 35.95 123.45 37 123.35 38 123.2 38.35 123.05 38.7 122.65 38.9 121.95 39.2 121.8 39.4 121.6 39.55 121.6 39.9 121.6 41.35 124.8 41.35 128.6 41.35 128.6 39.9 128.6 39.35 128.2 39.1 127.5 38.75 127.35 38.6 127.2 38.5 127.1 38.2 126.95 37.7 126.95 36.35 126.95 35 127.05 33.45 127.1 32.75 127.55 32.75 127.9 32.75 128.3 33.55
L 130.05 37.5
Q 130.4 38.3 130.9 39.3 131.4 40.3 131.55 40.45 131.8 40.7 132.1 40.7 132.4 40.7 132.65 40.4 132.9 40.1 133.3 39.2
L 134.9 35.6
Q 135.6 34.1 135.9 33.6 136.25 33.05 136.65 33.05 136.95 33.05 137.05 33.4 137.15 33.75 137.15 34.8 137.15 36.7 137.05 37.5 136.9 38.3 136.55 38.55 135.9 39.1 135.75 39.35 135.6 39.5 135.6 39.85 135.6 40.7 136.8 41.05 137.9 41.4 140.15 41.4 141.6 41.4 142.3 41.3 143 41.25 143.65 41.05 144.85 40.65 144.85 39.7 144.85 39.2 144.4 38.9 143.7 38.4 143.55 38.2 143.35 37.95 143.3 37.35 142.95 34.8 142.95 31.45 142.95 28.8 143.25 27 143.45 26.1 144.05 25.65 144.5 25.3 144.65 25.1 144.8 24.85 144.8 24.45 144.8 22.75 141.05 22.75 138.9 22.75 138.1 23.35 137.45 23.75 136.8 25.1 136.7 25.3 136.35 26
L 134.5 29.65
Q 134.2 30.2 134 30.4 133.8 30.6 133.55 30.6 133.25 30.6 133.05 30.4 132.9 30.2 132.45 29.4
L 129.7 24.3
Q 129.3 23.6 129.1 23.4 128.9 23.15 128.55 23 127.85 22.75 126.2 22.75
M 162.65 41.4
Q 165.3 41.4 166.45 40.95 167.6 40.55 167.6 39.55 167.6 38.75 166.65 38.6 166.2 38.5 165.95 38.3 165.7 38.05 165.35 37.3
L 162.85 31.95
Q 159.6 25.05 157.9 23.6 156.7 22.55 155.35 22.55 153.95 22.55 153.05 23.5 152.6 23.9 152.45 24.35 152.35 24.8 152.35 25.95 152.3 27 151.95 28.15 151.6 29.25 150.6 31.5
L 148.7 35.6
Q 147.9 37.4 147.45 37.95 147 38.5 146.15 38.8 145.6 39 145.4 39.2 145.2 39.45 145.2 39.85 145.2 40.8 146.15 41.05 147.15 41.35 149.3 41.35 153.05 41.35 153.05 39.8 153.05 39.05 152.25 38.85 151.6 38.65 151.5 38.55 151.4 38.45 151.4 38.15 151.4 37.85 151.55 37.5 151.7 37.15 151.95 37.05 152.25 36.8 154.05 36.8 156.15 36.8 157.3 37 158.35 37.15 158.35 38.05 158.35 38.55 157.75 38.75 157.15 38.95 156.95 39.15 156.75 39.35 156.75 39.75 156.75 40.3 157.15 40.65 157.55 41 158.2 41.15 159.65 41.4 162.65 41.4
M 153.95 30.75
Q 154.25 29.85 154.75 29.85 155 29.85 155.25 30.1 155.5 30.35 155.95 31.15 156.95 32.85 156.95 33.3 156.95 33.6 156.2 33.6
L 153.6 33.6
Q 153 33.6 153 33.3 153 33 153.55 31.65 153.9 30.85 153.95 30.75
M 179.1 22.8
Q 178.6 22.8 177.35 22.9 175.35 23.05 174.2 23.05 173.45 23.05 173.15 23 171.4 22.9 170.95 22.9 169.95 22.9 169.4 23.05 168.7 23.2 168.35 23.6 167.95 23.95 167.95 24.45 167.95 24.8 168.15 25.05 168.35 25.25 168.95 25.55 169.55 25.85 169.75 26.5 169.9 27.15 169.9 29 169.9 34.8 169.85 35.75 169.75 37.05 169.55 37.55 169.35 38.1 168.8 38.45 168.25 38.8 168.1 39 167.95 39.2 167.95 39.5 167.95 41.35 172.85 41.35 175.5 41.35 176.6 41 177.7 40.65 177.7 39.75 177.7 39.05 176.9 38.6 176.55 38.4 176.4 38.25 176.3 38.1 176.2 37.85 176 36.9 176 35.2 176 34.1 176.15 33.8 176.3 33.5 176.8 33.5 177.65 33.55 178.15 34.05 178.6 34.55 178.9 35.85 179.4 37.8 179.75 38.7 180.1 39.65 180.6 40.25 181.7 41.6 184.3 41.6 186.2 41.6 187.35 41.1 187.85 40.85 188.15 40.45 188.45 40.05 188.45 39.6 188.45 39.3 188.3 39.05 188.15 38.8 187.9 38.7 187.05 38.45 186.85 38.2 186.6 37.95 186.5 37.05 186.2 34.95 185.55 33.95 184.9 32.95 183.5 32.45 182.85 32.2 182.85 31.8 182.85 31.5 183.3 31.3 184.3 30.8 184.9 29.8 185.5 28.8 185.5 27.6 185.5 25.4 183.8 24.15 181.95 22.8 179.1 22.8
M 178.8 28.2
Q 178.8 29.55 178.25 30.15 177.75 30.75 176.6 30.75 176.15 30.75 176 30.6 175.9 30.45 175.9 29.95
L 176 26.75
Q 176.05 26.15 176.25 25.9 176.45 25.65 177 25.65 178.8 25.65 178.8 28.2 Z"/>
</g>
</defs>

<g transform="matrix( 1, 0, 0, 1, 0,0) ">
<use xlink:href="#Layer1_0_FILL"/>
</g>

<g transform="matrix( 1, 0, 0, 1, 0,0) ">
<use xlink:href="#Layer0_0_FILL"/>
</g>

<g transform="matrix( 1, 0, 0, 1, 0,0) ">
<use xlink:href="#Layer0_0_MEMBER_0_FILL"/>
</g>
</svg>
