
<svg xmlns="http://www.w3.org/2000/svg" version="1.1" xmlns:xlink="http://www.w3.org/1999/xlink" preserveAspectRatio="none" x="0px" y="0px" width="201px" height="150px" viewBox="0 0 201 150">
<defs>
<g id="Layer1_0_FILL">
<path fill="#CCCC99" stroke="none" d="
M 197.65 60.5
L 200.75 57.1 200.95 0.25 68.65 0.45
Q 62.4 0.45 56.15 0.45
L 4.75 0.5 0.25 3.8 0.05 3.8 0.05 60.65 77.7 60.7 74.6 60.5 82 60.5 84.3 60.7 82 60.7 81.85 149.75 124.65 149.75 124.25 60.5 197.65 60.5 Z"/>
</g>

<g id="Layer0_0_FILL">
<path fill="#CCCC99" stroke="none" d="
M 124.25 69.25
L 82 69.25 81.85 149.75 124.65 149.75 124.25 69.25
M 197.35 60.5
L 197.35 3.7 52.3 3.7 52.3 3.8 0.25 3.8 0.05 3.8 0.05 60.65 77.7 60.7 74.6 60.5 82 60.5 124.25 60.5 197.35 60.5 Z"/>

<path fill="#858543" stroke="none" d="
M 82 60.7
L 82 69.25 124.25 69.25 124.25 60.5 82 60.5 84.3 60.7 82 60.7
M 197.65 60.5
L 200.75 57.1 200.95 0.25 68.65 0.45
Q 62.4 0.45 56.15 0.45
L 4.75 0.5 0.25 3.8 52.3 3.8 52.3 3.7 197.35 3.7 197.35 60.5 197.65 60.5 Z"/>
</g>

<g id="Layer0_0_MEMBER_0_FILL">
<path fill="#996633" stroke="none" d="
M 23.4 23.7
Q 23.05 23.7 22.2 23.3 20.4 22.45 18.45 22.45 16.4 22.45 14.45 23.3 11.9 24.4 10.3 26.5 8.5 28.95 8.5 31.9 8.5 34.4 9.95 36.75 11.45 39.1 14 40.25 16.2 41.25 18.4 41.25 20.5 41.25 22.45 40.3 23.3 39.9 23.8 39.85 24.7 39.65 24.95 39.45 25.6 38.9 26.05 37.95 26.55 37 26.55 36.2 26.55 35.6 26.2 35.2 25.85 34.75 25.4 34.75 25.1 34.75 24.6 35.2 24 35.8 22.95 36.15 21.9 36.5 20.85 36.5 17.9 36.5 16.35 33.95 15.2 32.1 15.2 29.8 15.2 28.15 16 27.15 16.8 26.15 18.15 26.15 19.55 26.15 20.85 27.05 21.35 27.45 21.75 27.9 22.1 28.35 22.65 29.4 23.05 30.15 23.5 30.45 23.9 30.75 24.6 30.75 25.3 30.75 25.9 30.35 27 29.6 27 28 27 25.7 25.75 24.15 25.25 23.55 24.55 23.55 24.35 23.55 24.15 23.6 23.6 23.7 23.4 23.7
M 47.9 32.1
Q 47.9 30 46.85 27.85 45.75 25.75 44.05 24.4 41.5 22.45 38.1 22.45 35.9 22.45 34.1 23.15 31.4 24.15 29.8 26.3 28.05 28.7 28.05 31.85 28.05 34.55 29.45 36.8 30.85 39.15 33.4 40.3 35.5 41.25 37.75 41.25 39.5 41.25 41.25 40.7 44.05 39.8 45.8 37.7 47.9 35.25 47.9 32.1
M 41.2 34.65
Q 41.2 35.85 40.6 36.6 39.95 37.4 38.95 37.4 38.35 37.4 37.75 37 37.15 36.6 36.7 35.95 35.8 34.45 35.2 32.5 34.6 30.5 34.6 29 34.6 28 35.1 27.25 35.75 26.25 36.85 26.25 37.5 26.3 38.2 26.75 38.85 27.2 39.35 28 40.15 29.3 40.7 31.2 41.2 33.05 41.2 34.65
M 70.6 24.2
Q 70.6 23.15 69.4 22.8 68.6 22.55 66.6 22.55 65.05 22.55 64.45 22.7 62.9 23 62.9 24.1 62.9 24.55 63.1 24.85 63.35 25.15 63.85 25.4 64.5 25.7 64.7 26.3 64.9 26.9 64.9 28.55 64.9 30.05 64.2 30.05 63.8 30.05 62.85 29.25
L 56.25 23.45
Q 55.6 22.9 55.1 22.7 54.65 22.55 53.6 22.55 51.7 22.55 51 22.65 48.8 23 48.8 24.25 48.8 24.65 49.05 24.95 49.25 25.2 49.85 25.5 50.35 25.75 50.6 26.05 50.8 26.3 50.95 26.85 51.35 28.45 51.35 31.85 51.35 35.05 51.15 36.75 51 37.7 50.4 38.1 49.75 38.45 49.55 38.7 49.35 38.9 49.35 39.35 49.35 40.2 50.35 40.7 51.35 41.15 53.15 41.15 57.1 41.15 57.1 39.3 57.1 38.6 56.2 38.2 55.55 37.85 55.35 37.2 55.15 36.5 55.15 34.7 55.15 32.45 55.95 32.45 56.5 32.45 57.3 33.2
L 65.2 40.2
Q 65.85 40.85 66.15 41 66.45 41.2 66.85 41.2 67.8 41.2 68.15 39.9 68.45 38.85 68.45 36.55 68.45 34.8 68.45 33.8
L 68.45 29.5
Q 68.45 27.05 68.8 26.2 68.9 25.9 69.05 25.8 69.2 25.65 69.6 25.5 70.6 25.05 70.6 24.2
M 86.85 22.4
Q 86.55 22.4 86.15 22.5 85.25 22.8 84.1 22.8
L 77.15 22.8
Q 76.55 22.8 76.1 22.75 75.65 22.7 74.9 22.55 74.55 22.5 74.3 22.5 73.3 22.5 72.3 23.85 71.7 24.7 71.3 25.65 70.95 26.65 70.95 27.45 70.95 28.3 71.4 28.85 71.9 29.4 72.6 29.4 73.25 29.4 73.9 28.85 74.45 28.4 75.35 27.05 75.85 26.35 76.35 26.35 76.8 26.35 77 26.85 77.15 27.35 77.15 28.55 77.15 30.25 77.05 32.55 77 34.85 76.85 35.9 76.75 37.05 76.55 37.45 76.35 37.85 75.85 38 75.05 38.25 74.9 38.35 74.45 38.65 74.45 39.2 74.45 40.2 75.8 40.65 77.35 41.2 80.65 41.2 83.35 41.2 84.65 40.7 85.9 40.25 85.9 39.3 85.9 38.8 85.65 38.55 85.4 38.3 84.7 37.95 84 37.7 83.8 37.2 83.55 36.65 83.55 35.5
L 83.55 28.1
Q 83.55 27.15 83.75 26.75 83.95 26.35 84.45 26.35 84.8 26.35 85.05 26.6 85.3 26.85 85.75 27.65 86.25 28.55 86.8 28.95 87.3 29.35 88 29.35 88.75 29.35 89.25 28.95 89.95 28.4 89.95 27.25 89.95 25.6 88.95 24 87.95 22.4 86.85 22.4
M 92.8 22.9
Q 91.4 23.15 90.85 23.5 90.3 23.8 90.3 24.4 90.3 24.75 90.5 25 90.7 25.25 91.2 25.6 91.9 26.05 92.1 26.55 92.45 27.5 92.45 30.9 92.45 35.8 92.2 37.3 92.1 38 91.45 38.4 90.6 38.95 90.6 39.5 90.6 41.15 94.9 41.15 97.45 41.15 99.2 40.75 100.8 40.35 100.8 39.3 100.8 38.55 99.9 38.15 99.45 37.9 99.25 37.7 99.05 37.5 98.95 37.1 98.7 35.9 98.7 30.85 98.7 27.85 98.9 26.8 99.1 25.8 99.7 25.45 100.45 25.1 100.6 24.9 100.8 24.7 100.8 24.35 100.8 23.15 99 22.8 97.65 22.55 96.15 22.55 94.45 22.55 92.8 22.9
M 123.3 24.2
Q 123.3 23.15 122.1 22.8 121.3 22.55 119.3 22.55 117.75 22.55 117.15 22.7 115.6 23 115.6 24.1 115.6 24.55 115.8 24.85 116.05 25.15 116.55 25.4 117.2 25.7 117.4 26.3 117.6 26.9 117.6 28.55 117.6 30.05 116.9 30.05 116.5 30.05 115.55 29.25
L 108.95 23.45
Q 108.3 22.9 107.8 22.7 107.35 22.55 106.3 22.55 104.4 22.55 103.7 22.65 101.5 23 101.5 24.25 101.5 24.65 101.75 24.95 101.95 25.2 102.55 25.5 103.05 25.75 103.3 26.05 103.5 26.3 103.65 26.85 104.05 28.45 104.05 31.85 104.05 35.05 103.85 36.75 103.7 37.7 103.1 38.1 102.45 38.45 102.25 38.7 102.05 38.9 102.05 39.35 102.05 40.2 103.05 40.7 104.05 41.15 105.85 41.15 109.8 41.15 109.8 39.3 109.8 38.6 108.9 38.2 108.25 37.85 108.05 37.2 107.85 36.5 107.85 34.7 107.85 32.45 108.65 32.45 109.2 32.45 110 33.2
L 117.9 40.2
Q 118.55 40.85 118.85 41 119.15 41.2 119.55 41.2 120.5 41.2 120.85 39.9 121.15 38.85 121.15 36.55 121.15 34.8 121.15 33.8
L 121.15 29.5
Q 121.15 27.05 121.5 26.2 121.6 25.9 121.75 25.8 121.9 25.65 122.3 25.5 123.3 25.05 123.3 24.2
M 145.35 24.6
Q 145.5 24.45 145.5 24.05 145.5 23.25 144.6 22.9 143.65 22.55 141.6 22.55 139.55 22.55 138.6 22.95 137.65 23.3 137.65 24.1 137.65 24.45 137.9 24.7 138.15 24.95 138.85 25.25 139.55 25.6 139.7 26.15 139.8 26.75 139.85 30.1
L 139.85 33
Q 139.85 34.1 139.75 34.75 139.6 35.4 139.25 35.9 138.8 36.55 137.95 36.95 137.1 37.35 136 37.35 134.35 37.35 133.3 36.35 132 35.2 132.05 32.9 132.15 29.05 132.15 27.9 132.15 26.8 132.3 26.3 132.45 25.8 132.9 25.65 133.6 25.3 133.7 25.2 134.1 24.9 134.1 24.35 134.1 23.2 132.7 22.9 131.25 22.55 129.05 22.55 127.05 22.55 125.6 22.85 124.9 23 124.45 23.4 124 23.8 124 24.3 124 25 124.85 25.6 125.4 25.95 125.6 26.35 125.75 26.8 125.75 27.9 125.75 28.4 125.7 29.95 125.65 32.15 125.65 33.15 125.65 35.6 126.15 36.95 126.6 38.25 127.85 39.25 130.4 41.25 134.65 41.25 137.1 41.25 139.05 40.55 142.2 39.4 143.15 36.8 143.6 35.6 143.6 32.7
L 143.6 29.45
Q 143.6 26.5 143.75 26.05 143.8 25.6 144.5 25.2 145.2 24.8 145.35 24.6
M 166.05 37.1
L 163.55 31.75
Q 160.3 24.85 158.6 23.4 157.4 22.35 156.05 22.35 154.65 22.35 153.75 23.3 153.3 23.7 153.15 24.15 153.05 24.6 153.05 25.75 153 26.8 152.65 27.95 152.3 29.05 151.3 31.3
L 149.4 35.4
Q 148.6 37.2 148.15 37.75 147.7 38.3 146.85 38.6 146.3 38.8 146.1 39 145.9 39.25 145.9 39.65 145.9 40.6 146.85 40.85 147.85 41.15 150 41.15 153.75 41.15 153.75 39.6 153.75 38.85 152.95 38.65 152.3 38.45 152.2 38.35 152.1 38.25 152.1 37.95 152.1 37.65 152.25 37.3 152.4 36.95 152.65 36.85 152.95 36.6 154.75 36.6 156.85 36.6 158 36.8 159.05 36.95 159.05 37.85 159.05 38.35 158.45 38.55 157.85 38.75 157.65 38.95 157.45 39.15 157.45 39.55 157.45 40.1 157.85 40.45 158.25 40.8 158.9 40.95 160.35 41.2 163.35 41.2 166 41.2 167.15 40.75 168.3 40.35 168.3 39.35 168.3 38.55 167.35 38.4 166.9 38.3 166.65 38.1 166.4 37.85 166.05 37.1
M 154.65 30.55
Q 154.95 29.65 155.45 29.65 155.7 29.65 155.95 29.9 156.2 30.15 156.65 30.95 157.65 32.65 157.65 33.1 157.65 33.4 156.9 33.4
L 154.3 33.4
Q 153.7 33.4 153.7 33.1 153.7 32.8 154.25 31.45 154.6 30.65 154.65 30.55
M 179.85 22.6
Q 179.35 22.6 178.1 22.7 176.1 22.85 174.95 22.85 174.2 22.85 173.9 22.8 172.15 22.7 171.7 22.7 170.7 22.7 170.15 22.85 169.45 23 169.1 23.4 168.7 23.75 168.7 24.25 168.7 24.6 168.9 24.85 169.1 25.05 169.7 25.35 170.3 25.65 170.5 26.3 170.65 26.95 170.65 28.8 170.65 34.6 170.6 35.55 170.5 36.85 170.3 37.35 170.1 37.9 169.55 38.25 169 38.6 168.85 38.8 168.7 39 168.7 39.3 168.7 41.15 173.6 41.15 176.25 41.15 177.35 40.8 178.45 40.45 178.45 39.55 178.45 38.85 177.65 38.4 177.3 38.2 177.15 38.05 177.05 37.9 176.95 37.65 176.75 36.7 176.75 35 176.75 33.9 176.9 33.6 177.05 33.3 177.55 33.3 178.4 33.35 178.9 33.85 179.35 34.35 179.65 35.65 180.15 37.6 180.5 38.5 180.85 39.45 181.35 40.05 182.45 41.4 185.05 41.4 186.95 41.4 188.1 40.9 188.6 40.65 188.9 40.25 189.2 39.85 189.2 39.4 189.2 39.1 189.05 38.85 188.9 38.6 188.65 38.5 187.8 38.25 187.6 38 187.35 37.75 187.25 36.85 186.95 34.75 186.3 33.75 185.65 32.75 184.25 32.25 183.6 32 183.6 31.6 183.6 31.3 184.05 31.1 185.05 30.6 185.65 29.6 186.25 28.6 186.25 27.4 186.25 25.2 184.55 23.95 182.7 22.6 179.85 22.6
M 179 29.95
Q 178.5 30.55 177.35 30.55 176.9 30.55 176.75 30.4 176.65 30.25 176.65 29.75
L 176.75 26.55
Q 176.8 25.95 177 25.7 177.2 25.45 177.75 25.45 179.55 25.45 179.55 28 179.55 29.35 179 29.95 Z"/>
</g>
</defs>

<g transform="matrix( 1, 0, 0, 1, 0,0) ">
<use xlink:href="#Layer1_0_FILL"/>
</g>

<g transform="matrix( 1, 0, 0, 1, 0,0) ">
<use xlink:href="#Layer0_0_FILL"/>
</g>

<g transform="matrix( 1, 0, 0, 1, 0,0) ">
<use xlink:href="#Layer0_0_MEMBER_0_FILL"/>
</g>
</svg>
