
<svg xmlns="http://www.w3.org/2000/svg" version="1.1" xmlns:xlink="http://www.w3.org/1999/xlink" preserveAspectRatio="none" x="0px" y="0px" width="149px" height="149px" viewBox="0 0 149 149">
<defs>
<g id="Layer1_0_FILL">
<path fill="#CCCC99" stroke="none" d="
M 145.55 60.5
L 148.65 57.1 148.85 0.25 4.05 0.45 0.2 3.7 0.2 60.5 57.95 60.5 56.15 148.75 94.5 148.75 92.65 60.5 145.55 60.5 Z"/>
</g>

<g id="Layer0_0_FILL">
<path fill="#CCCC99" stroke="none" d="
M 92.65 69.25
L 57.95 69.25 56.15 148.75 94.5 148.75 92.65 69.25
M 145.25 60.5
L 145.25 3.7 0.2 3.7 0.2 60.5 57.95 60.5 92.65 60.5 145.25 60.5 Z"/>

<path fill="#858543" stroke="none" d="
M 145.55 60.5
L 148.65 57.1 148.85 0.25 4.05 0.45 0.2 3.7 145.25 3.7 145.25 60.5 145.55 60.5
M 92.65 69.25
L 92.65 60.5 57.95 60.5 57.95 69.25 92.65 69.25 Z"/>
</g>

<g id="Layer0_0_MEMBER_0_FILL">
<path fill="#996633" stroke="none" d="
M 30.9 23.65
Q 30.9 22.75 30 22.4 29.05 22.05 26.8 22.05 22.3 22.05 22.3 23.7 22.3 24.3 23.05 24.7 23.7 25.05 23.7 25.5 23.7 25.75 23.5 26.2 23.35 26.65 22.2 29.1 21.6 30.45 21.25 30.95 20.85 31.4 20.4 31.4 19.9 31.4 19.55 30.5
L 17.8 26.55
Q 17.5 25.95 17.5 25.65 17.5 25.3 18.1 24.95 18.8 24.4 18.8 23.85 18.8 22.9 17.45 22.45 16.1 22.05 13.25 22.05 10.45 22.05 9 22.65 7.5 23.2 7.5 24.3 7.5 25.2 8.35 25.35 9.05 25.45 9.45 25.85 9.85 26.25 10.3 27.3
L 16.1 40.05
Q 16.45 40.8 16.7 41.15 16.9 41.45 17.3 41.65 17.85 41.95 18.55 41.95 19.35 41.95 19.9 41.5 20.45 41.05 21 39.8
L 27.5 26.7
Q 28.1 25.45 28.55 25.1 28.85 24.95 29.7 24.85 30.9 24.7 30.9 23.65
M 48.5 24
Q 45.8 21.95 42.15 21.95 39.8 21.95 37.9 22.65 35.05 23.75 33.35 26.05 31.45 28.6 31.45 31.95 31.45 34.85 32.9 37.25 34.45 39.75 37.15 40.95 39.35 42 41.8 42 43.65 42 45.5 41.4 48.5 40.4 50.4 38.2 52.6 35.55 52.6 32.25 52.6 29.95 51.45 27.7 50.35 25.45 48.5 24
M 43.5 27.85
Q 44.35 29.25 44.9 31.25 45.45 33.2 45.45 34.9 45.45 36.25 44.8 37.05 44.15 37.85 43.05 37.85 42.4 37.85 41.75 37.45 41.1 37.05 40.7 36.35 39.7 34.7 39.05 32.6 38.4 30.5 38.4 28.9 38.4 27.85 38.95 27.05 39.65 26 40.8 26 41.55 26 42.25 26.5 42.95 27 43.5 27.85
M 64.85 24.55
Q 65.1 24.3 65.1 23.85 65.1 22.7 63.35 22.35 61.95 22.05 59.25 22.05 56.8 22.05 55.35 22.5 53.65 23.05 53.65 24.1 53.65 24.55 54.1 24.9 54.35 25.1 55.25 25.4 55.85 25.6 56 26 56.2 26.45 56.2 27.55 56.2 28.75 56.25 31.1 56.35 33.55 56.35 34.8 56.35 37.6 56.15 38.2 55.95 38.9 55.15 39.25 54.4 39.6 54.2 39.8 54 40 54 40.4 54 41.05 54.6 41.35 55 41.6 55.95 41.6
L 65.85 41.6 68.95 42
Q 69.4 42 69.7 41.75 70 41.5 70.45 40.9 71.75 38.9 71.75 37.15 71.75 36.05 71.25 35.4 70.8 34.75 70.05 34.75 69.3 34.75 69.05 35.65 68.7 37.15 67.75 37.85 66.85 38.55 65.25 38.55 63.75 38.55 63.25 37.8 62.9 37.15 62.9 35
L 62.9 28.5
Q 62.9 26.55 63.05 25.95 63.15 25.4 63.7 25.15 64.6 24.75 64.85 24.55
M 88.45 21.9
Q 88.15 21.9 87.7 22 86.75 22.3 85.55 22.35
L 78.1 22.35
Q 77.45 22.35 77 22.3 76.5 22.2 75.7 22.05 75.35 22 75.05 22 74.05 22 72.95 23.4 72.3 24.3 71.9 25.35 71.5 26.4 71.5 27.3 71.5 28.2 72 28.75 72.5 29.3 73.25 29.3 73.95 29.3 74.65 28.75 75.25 28.3 76.2 26.85 76.7 26.05 77.25 26.05 77.7 26.05 77.9 26.6 78.1 27.15 78.1 28.4 78.1 30.2 78 32.7 77.9 35.15 77.8 36.25 77.7 37.5 77.5 37.95 77.25 38.35 76.75 38.5 75.85 38.8 75.75 38.85 75.25 39.2 75.25 39.75 75.25 40.85 76.65 41.3 78.35 41.9 81.85 41.9 84.7 41.9 86.1 41.4 87.45 40.9 87.45 39.9 87.45 39.4 87.2 39.1 86.9 38.8 86.15 38.5 85.45 38.2 85.2 37.65 84.9 37.1 84.9 35.85
L 84.9 27.95
Q 84.9 26.95 85.15 26.55 85.4 26.1 85.9 26.1 86.3 26.1 86.55 26.35 86.8 26.6 87.3 27.5 87.8 28.45 88.35 28.9 88.9 29.3 89.65 29.3 90.45 29.3 91 28.85 91.75 28.3 91.75 27.1 91.75 25.3 90.7 23.6 89.6 21.9 88.45 21.9
M 105.3 22.95
Q 104 21.85 102.6 21.85 101.05 21.85 100.1 22.85 99.65 23.3 99.5 23.75 99.35 24.25 99.35 25.45 99.35 26.6 98.95 27.8 98.6 29 97.5 31.4
L 95.5 35.75
Q 94.6 37.65 94.15 38.25 93.65 38.85 92.75 39.15 92.2 39.35 92 39.6 91.75 39.85 91.75 40.25 91.75 41.3 92.75 41.55 93.8 41.9 96.1 41.9 100.1 41.9 100.1 40.2 100.1 39.45 99.25 39.2 98.6 38.95 98.5 38.9 98.35 38.8 98.35 38.5 98.35 38.15 98.55 37.75 98.7 37.4 98.9 37.25 99.3 37.05 101.15 37.05 103.4 37.05 104.6 37.2 105.75 37.4 105.75 38.35 105.75 38.85 105.1 39.1 104.5 39.3 104.3 39.55 104.05 39.75 104.05 40.15 104.05 40.7 104.5 41.1 104.9 41.5 105.6 41.65 107.15 41.9 110.35 41.9 113.15 41.9 114.4 41.45 115.65 41 115.65 39.95 115.65 39.1 114.65 38.95 114.1 38.85 113.85 38.6 113.6 38.35 113.2 37.55
L 110.55 31.85
Q 107.1 24.5 105.3 22.95
M 100.75 33.6
Q 100.1 33.6 100.1 33.25 100.1 33 100.65 31.55 101 30.65 101.1 30.55 101.4 29.6 101.95 29.6 102.2 29.6 102.45 29.9 102.7 30.15 103.2 31 104.25 32.8 104.25 33.3 104.25 33.6 103.5 33.6
L 100.75 33.6
M 132.95 23.55
Q 130.95 22.1 127.95 22.1 127.4 22.1 126.05 22.2 123.95 22.35 122.65 22.35 121.9 22.35 121.55 22.35 119.7 22.2 119.2 22.2 118.15 22.2 117.55 22.35 116.85 22.55 116.45 22.95 116.05 23.3 116.05 23.85 116.05 24.2 116.25 24.5 116.45 24.7 117.1 25 117.7 25.35 117.9 26.05 118.1 26.75 118.1 28.7 118.1 34.9 118.05 35.9 117.95 37.25 117.75 37.85 117.55 38.4 116.9 38.8 116.35 39.15 116.2 39.35 116.05 39.55 116.05 39.9 116.05 41.9 121.25 41.9 124.1 41.9 125.25 41.5 126.45 41.1 126.45 40.15 126.45 39.4 125.6 38.95 125.2 38.7 125.05 38.55 124.9 38.4 124.85 38.15 124.6 37.15 124.6 35.35 124.6 34.15 124.75 33.8 124.9 33.5 125.45 33.5 126.4 33.55 126.9 34.1 127.4 34.65 127.7 36 128.2 38.05 128.6 39.05 128.95 40.05 129.5 40.7 130.7 42.15 133.45 42.15 135.5 42.15 136.7 41.6 137.2 41.35 137.55 40.9 137.9 40.45 137.9 40 137.9 39.7 137.7 39.4 137.55 39.15 137.25 39.05 136.4 38.8 136.15 38.5 135.9 38.25 135.8 37.3 135.5 35.05 134.8 34 134.1 32.9 132.6 32.35 131.9 32.1 131.9 31.7 131.9 31.4 132.4 31.15 133.45 30.6 134.1 29.55 134.7 28.5 134.7 27.2 134.7 24.85 132.95 23.55
M 127.6 27.85
Q 127.6 29.3 127.05 29.95 126.45 30.55 125.2 30.55 124.75 30.55 124.65 30.4 124.45 30.2 124.45 29.7 124.45 29.65 124.45 29.6
L 124.65 26.3
Q 124.65 25.65 124.9 25.4 125.1 25.15 125.65 25.15 127.6 25.15 127.6 27.85 Z"/>
</g>
</defs>

<g transform="matrix( 1, 0, 0, 1, 0,0) ">
<use xlink:href="#Layer1_0_FILL"/>
</g>

<g transform="matrix( 1, 0, 0, 1, 0,0) ">
<use xlink:href="#Layer0_0_FILL"/>
</g>

<g transform="matrix( 1, 0, 0, 1, 0,0) ">
<use xlink:href="#Layer0_0_MEMBER_0_FILL"/>
</g>
</svg>
