
<svg xmlns="http://www.w3.org/2000/svg" version="1.1" xmlns:xlink="http://www.w3.org/1999/xlink" preserveAspectRatio="none" x="0px" y="0px" width="174px" height="120px" viewBox="0 0 174 120">
<defs>
<g id="Layer2_0_FILL">
<path fill="#000000" stroke="none" d="
M 82.6 59.5
L 82.6 59.3
Q 82.6 58.95 82.6 58.7 82.05 58.7 81.45 58.85 75.7 59.05 69.95 59.75 69.35 59.75 68.8 60 66.5 60.2 64.5 60.55 62 60.8 59.8 61.15 49.65 62.75 39.5 65.65 35.25 66.65 31.1 67.95 30.75 68.05 30.5 68.3 28.65 68.85 27.3 69.9 27.05 69.9 27.05 70.1 24.85 71.5 23.15 73.6 22.55 74.6 22.2 75.65 22 75.75 21.75 76.25 21.2 77.4 20.95 79.1
L 20.95 79.25
Q 20.7 80.25 20.6 81.3 20.6 82.35 20.6 83.4 20.6 83.7 20.6 84.3 20.7 85.1 20.7 85.8 20.95 86.6 20.95 87.4 21.75 91.2 23.15 94.9 23.85 96.75 24.65 98.15 25 98.95 25.45 99.65 26.6 101.6 28.1 103.65 28.9 105.05 30.05 106.3 31 107.35 31.9 108.4 32.35 108.75 32.95 109.3
L 33.15 109.55
Q 33.5 110.1 34.2 110.6 34.3 110.8 34.8 110.95 35 111.15 35.25 111.6 35.6 111.95 36.15 112.65 36.85 113 37.45 113.6 38.45 114.4 39.6 115.3 39.85 115.4 40.1 115.9 40.9 116.25 41.45 116.7 41.95 117.05 42.5 117.5 43.9 118.05 45.4 118.75 48.15 119.55 50.8 119.55 51.85 119.55 53.1 119.35 53.7 119.35 54.25 119.1 54.95 118.9 55.55 118.75 61.4 116.9 67.05 110.6 68.55 108.95 69.95 107.35 71.55 105.5 73.05 103.9 73.85 102.65 74.65 101.6 75 100.8 75.7 100.2 81.25 92.25 84.8 83.5 85.05 82.7 85.4 81.9 85.15 81.05 85.05 80.5 84 76.8 83.55 73 83.2 71.4 82.95 69.65 82.75 68.75 82.75 67.7 82.75 67.1 82.75 66.2 82.75 66.1 82.6 65.85 82.6 64.6 82.6 63.65
L 82.6 63.45
Q 82.6 62.75 82.6 62.15 82.6 60.8 82.6 59.5
M 105.65 60
Q 105.1 59.75 104.5 59.75 98.65 59.05 92.9 58.85 92.4 58.7 91.85 58.7 91.85 58.95 91.85 59.3
L 91.85 59.5
Q 91.85 60.8 91.85 62.15 91.85 62.75 91.85 63.45
L 91.85 63.65
Q 91.6 64.6 91.6 65.85 91.6 66.1 91.6 66.2 91.6 67.1 91.6 67.7 91.5 68.75 91.5 69.65 91.05 71.4 90.8 73 90.2 76.8 89.2 80.5 89.05 81.05 88.85 81.9 89.2 82.7 89.55 83.6 93.2 92.25 98.75 100.2 99.45 100.8 99.8 101.6 100.6 102.65 101.4 103.9 102.8 105.5 104.3 107.35 105.65 108.95 107.3 110.6 113.05 116.9 118.95 118.75 119.5 118.9 119.95 119.1 120.75 119.35 121.35 119.35 122.6 119.55 123.55 119.55 126.2 119.55 128.85 118.75 130.45 118.05 131.95 117.5 132.55 117.05 133 116.7 133.55 116.25 134.15 115.9 134.6 115.4 134.7 115.3 136 114.4 136.8 113.6 137.35 113 138.05 112.65
L 138.2 112.65
Q 138.65 111.95 139.2 111.6 139.45 111.15 139.65 110.95 140 110.8 140.25 110.6 140.7 110.1 141.3 109.55
L 141.5 109.3
Q 142.1 108.75 142.45 108.4 143.5 107.35 144.3 106.3 145.3 105.05 146.15 103.65 147.75 101.6 148.8 99.65 149.35 98.95 149.6 98.15 150.4 96.75 151.2 94.9 152.7 91.2 153.5 87.4 153.5 86.6 153.6 85.8 153.6 85.1 153.6 84.3 153.85 83.7 153.85 83.4 153.85 82.35 153.6 81.3 153.6 80.25 153.5 79.25
L 153.5 79.1
Q 153.3 77.4 152.45 76.25 152.45 75.75 152.25 75.65 151.65 74.6 151.1 73.6 149.6 71.5 147.4 70.1
L 147.15 69.9
Q 145.8 68.85 143.95 68.3 143.5 68.05 143.25 67.95 139.2 66.65 134.95 65.65 124.55 62.75 114.65 61.15 112.25 60.8 109.95 60.55 107.75 60.2 105.65 60
M 83.65 47.05
Q 83.65 46.95 83.65 46.7 83.9 45.8 83.65 44.65 83.1 42.35 80.75 39.35 79.5 37.6 77.55 35.9 67.15 24.6 52.3 15.6 37.2 6.5 31.55 4.2 25.9 1.75 22.2 1.2 18.3 0.4 16.1 0.6 15.9 0.4 15.9 0.6 13.25 0.6 10.8 1.2 10 1.4 9.4 1.75 7.8 2.25 6.75 3.05
L 6.55 3.05
Q 6.2 3.4 5.75 3.6 3.65 5.25 2.25 7.3 2.05 7.9 1.95 8.35
L 1.7 8.35 1.7 8.45
Q 1 9.95 0.65 11.9 0.2 13.2 0.2 14.55
L 0.2 14.8
Q 0.45 17.8 1.7 21.95
L 1.7 22.05
Q 2.85 24.95 4.45 28.4 5.75 30.8 7.35 33.7 7.8 34.5 8.15 35.1 9.65 38.75 10.25 42.25 10.45 46.25 11.05 50.2 11.05 50.4 11.05 50.55 11.25 52.25 11.6 53.85 12.65 57.1 14.05 59.5
L 14.25 59.75
Q 17.5 65.4 23.35 66.8 23.35 67 23.6 67
L 23.85 67
Q 26.85 67.7 35.6 64.6 44.6 61.6 64.5 59.5 77.8 58 81.45 58 82.25 58 82.6 58.15
L 82.6 56.85
Q 82.4 55 82.6 53.4 82.4 53.4 82.15 53.4
L 82.95 49.35
Q 83.2 48.55 83.4 47.75
L 83.4 47.55
Q 84.25 48.1 83.65 47.05
M 173.7 11.9
Q 173.2 9.95 172.4 8.45
L 172.4 8.35
Q 172.2 7.9 171.85 7.3 170.55 5.25 168.5 3.6 168.15 3.4 167.7 3.05
L 167.55 3.05
Q 166.3 2.25 164.9 1.75 164.1 1.4 163.4 1.2 160.75 0.6 158.35 0.6 158.25 0.4 158.25 0.6 155.95 0.4 152.1 1.2 148.45 1.75 142.55 4.2 136.8 6.5 122.05 15.6 107.15 24.6 96.8 35.9 94.7 37.6 93.55 39.35 91.25 42.1 90.7 44.4 90.35 45.7 90.7 46.7 90.7 46.95 90.7 47.05 89.9 48.1 90.9 47.55
L 90.9 47.75
Q 91.05 48.55 91.25 49.35
L 91.95 53.4 91.7 53.4
Q 91.7 55 91.7 56.85
L 91.7 58.15
Q 91.95 58 92.9 58 96.45 58 109.8 59.5 129.75 61.6 138.4 64.6 147.4 67.7 150.3 67
L 150.6 67 150.85 66.8
Q 156.75 65.4 159.95 59.75
L 160.2 59.5
Q 161.7 57.1 162.6 53.85 162.85 52.25 163.05 50.55 163.05 50.4 163.3 50.2 163.9 46.25 164.1 42.25 164.45 38.75 166.05 35.1 166.55 34.5 166.75 33.7 168.4 30.8 169.55 28.4
L 169.75 28.4
Q 171.35 24.95 172.4 22.05
L 172.4 21.95
Q 173.8 17.8 173.8 14.8
L 173.8 14.55
Q 173.8 13.2 173.7 11.9 Z"/>
</g>

<g id="Layer1_0_FILL">
<path fill="#333333" stroke="none" d="
M 83.55 73
Q 83.3 73.35 83.2 73.7 78 82.7 74.8 87.65 71.8 92.7 68.9 97.55 66.15 102.4 61.05 110.1 65.35 110.6 70.75 104.45 72.6 102.05 74.2 99.65 74.65 98.8 75.25 98.15 81.25 89.25 84.7 81.4 84.8 80.95 85.05 80.5 84 76.8 83.55 73
M 82.75 67.7
Q 82.6 67.8 82.5 68.05 76.95 73.1 72.25 76.25
L 72 76.25
Q 71.2 76.8 70.5 77.4 69.7 77.85 69.15 78.3 67.05 79.7 66.95 79.9 66.5 80.05 66.15 80.5 63.25 83.5 60.6 87.2 58.4 90.4 56.1 94.1 52.05 100.8 48.6 109.2
L 48.6 109.3
Q 48.85 109.3 48.85 109.55 49.4 110 50.25 110.1 51.5 110.6 52.9 110.6 53.35 110.6 53.45 110.6 54.95 110.8 56.55 110.35 58.4 107.7 60.15 105.05
L 60.15 104.95
Q 62.45 101.45 64.65 98 65.9 96.3 66.95 94.65 69.15 91.2 71.55 87.65 72.35 86.05 73.4 84.75 78 77.6 82.75 70.1 82.85 69.9 82.95 69.65 82.75 68.75 82.75 67.7
M 82.6 63.65
Q 82.4 63.65 82.15 63.65 82.05 63.65 81.9 63.8 80.65 64 79.25 64.25 74.8 65.3 70.75 66.2 70.4 66.2 69.7 66.45 68 66.9 66.25 67.25 64.85 67.95 63.6 68.05 61.85 68.75 60 69.3 59.35 69.55 59 69.65 57.35 70.45 57.35 73.35 57.35 74.4 56.8 75.2 55.85 76.25 54.25 77.05 54.15 77.05 54.15 77.25 53.9 77.25 53.7 77.25 51.05 78.3 50.8 79.25 50.7 79.7 50.7 80.05 50.7 81.75 53.35 81.75 54.7 81.75 56.9 81.05 57.6 80.85 58.4 80.75 59.2 80.25 60.15 80.05 61.2 79.45 62.45 78.9 63.6 78.3 64.85 77.6 66.5 76.6 68.55 75.4 69.6 74.85 70.5 74.15 71.2 73.8 71.55 73.6 71.55 73.35 71.8 73.35 76.5 70.25 82.25 66.2 82.4 65.95 82.6 65.85 82.6 64.6 82.6 63.65
M 34.8 106.1
Q 34.3 106.3 34.55 106.65
L 34.55 106.9
Q 34.55 107.1 34.8 107.35 34.8 107.6 35 107.7 35.35 108.15 35.8 108.4 36.4 108.5 36.85 108.15 36.95 107.95 36.95 107.35 36.85 106.9 36.6 106.55
L 36.4 106.55
Q 36.15 106.1 35.8 105.85
L 35.35 105.85
Q 35 105.75 34.8 106.1
M 31.3 100.65
Q 31 100.2 30.5 100.45 30.3 100.65 30.05 101 30.05 101.6 30.3 102.3 30.5 102.65 31 102.85 31.3 103.2 31.8 103.1 32.15 102.85 32.15 102.4 32.35 101.8 32.15 101.45 31.9 100.8 31.3 100.65
M 59.2 113.6
Q 59 113.45 58.55 113.25 58.4 113.25 58.4 113 57.6 113 56.8 113.25 56.1 113.6 55.75 114.25 55.3 114.85 55.55 115.3 55.55 115.4 55.75 115.4 55.85 115.65 56.55 115.9 56.8 115.9 57.15 115.9 57.6 115.65 57.7 115.65 58.55 115.3 59 114.85
L 59 114.6
Q 59.35 114.05 59.2 113.6
M 50.25 114.05
L 50.25 113.8
Q 49.9 113.6 49.4 113.6 48.6 113.45 48.05 113.8 47.6 113.8 47.35 114.05 47.25 114.4 47.25 114.6 47.25 114.85 47.35 115.1
L 47.35 115.3
Q 47.6 115.4 47.6 115.65 48.05 115.9 48.15 115.9 48.6 116.1 48.95 116.1 49.9 116.25 50.25 116.1 50.8 115.65 51.05 115.3
L 51.05 115.1
Q 51.05 114.6 50.7 114.25 50.45 114.05 50.25 114.05
M 41.25 110
Q 41.1 110 40.9 110 40.65 110 40.45 110.1 40.1 110.1 40.1 110.35 39.6 110.95 39.85 111.6 40.1 111.6 40.1 111.85 40.45 112.2 40.9 112.45
L 40.9 112.65
Q 41.45 112.75 41.95 112.75
L 42.15 112.75
Q 42.75 112.75 42.95 112.65
L 42.95 112.45
Q 43.3 111.95 42.95 111.4 42.75 110.8 42.15 110.35 41.7 110.1 41.25 110
M 57.15 83.95
Q 56.9 84.2 56.8 84.2 54.15 84.75 51.85 84.2 49.9 86.85 47.8 89.25 47.6 89.25 47.6 89.5 45.4 91.7 42.95 93.75 39.5 96.75 35.25 99.65 34.8 99.75 34.3 100 35 100.8 35.6 101.6 36.6 102.85 37.8 103.9 38 104.15 38.25 104.25 38.25 104.45 38.45 104.45 38.7 104.7 38.8 104.95 40.45 106.1 42.15 106.9 42.5 107.1 42.95 107.35 43.9 107.7 44.9 107.95 45.6 106.55 46.4 105.3 48.4 101.45 50.8 97.55 50.8 97.2 51.05 97 52.4 94.65 53.9 92.5 55.75 89.6 57.7 86.85
L 57.95 86.85
Q 59.55 84.55 61.2 82.35 60 83.15 58.55 83.5 57.7 83.7 57.35 83.95
L 57.15 83.95
M 27.3 94.65
Q 27.05 94.65 26.85 94.65
L 26.6 94.9
Q 26.5 95.15 26.25 95.35 26.25 95.95 26.5 96.5 26.6 97 27.05 97.35 27.65 97.55 27.85 97.55 28.35 97.35 28.35 97.2 28.35 97 28.45 96.75 28.45 96.3 28.35 95.7 28.1 95.15 27.5 94.9
L 27.3 94.65
M 25.45 91.2
Q 25.65 91.1 25.8 90.85
L 25.8 90.65
Q 25.8 90.3 25.65 89.6 25.45 89.25 25 88.8 24.85 88.55 24.65 88.55 24.4 88.55 24.2 88.55 23.85 88.8 23.6 89.5 23.6 89.85 23.85 90.4 24.05 91.1 24.4 91.2 25 91.45 25.45 91.45
L 25.45 91.2
M 29.5 89.25
L 29.25 89.25 29.15 89.5
Q 28.45 89.85 27.65 90.4 28.9 93.05 30.75 95.7 31.3 96.5 31.9 97.2
L 31.9 97.35
Q 32.15 97.35 32.15 97.55
L 32.35 97.35
Q 32.7 97.2 33.15 97 33.4 97 33.5 96.75 35 95.95 36.4 95.15 39.6 93.05 42.75 90.65 46.4 87.4 49.9 83.7 49.2 83.4 48.4 82.7 48.15 82.55 48.05 82.35 47.6 81.75 47.6 80.5 44.7 81.3 41.95 82.35 36.85 84.3 32.15 87.2
L 32.15 87.4
Q 30.75 88.2 29.5 89.25
M 23.85 81.9
Q 23.35 81.55 23 81.75 22.55 81.75 22.35 82.1 22.2 82.1 22.2 82.35 22.2 82.7 22.2 83.15 22.2 83.7 22.35 84.2 22.8 84.55 23.15 84.55 23.6 84.55 23.85 83.95 24.05 83.5 24.05 82.9 24.05 82.35 23.85 81.9
M 24.05 75.75
Q 23.6 76.25 23.35 76.8 23.15 77.4 23.35 77.85 23.35 78.1 23.6 78.3 23.85 78.4 24.05 78.4 24.2 78.4 24.65 78.3 25 77.85 25.2 77.25 25.45 76.6 25.2 76.25 25 75.65 24.85 75.65 24.4 75.65 24.05 75.75
M 35.35 75.65
Q 32.95 75.75 31.3 76.25 27.5 77.25 26.6 78.9 26 80.5 26 82.7 26 82.9 26 83.15 26 83.7 26 84.2 26 85 26.25 85.8 26.85 85.55 27.5 85.35 27.65 85.1 27.85 85
L 28.1 85
Q 29.25 84.3 30.75 83.95 31.3 83.7 31.9 83.4 36.85 81.55 41.95 80.25 44.7 79.45 47.6 79.1 48.95 75.65 52.4 74.15 46.4 74.4 41.25 74.85 40.9 74.85 40.65 74.85 37.8 75.2 35.35 75.65
M 28.65 73.95
Q 29.95 73.8 31.3 73.6 36.05 72.55 40.9 72.3 42.95 71.95 45.4 71.95 49.9 71.75 54.5 71.95
L 55.55 68.85
Q 54.15 68.05 52.4 67.7 48.15 66.65 41.7 67.25 40.9 67.7 39.85 67.95 33.15 69.65 28.65 73.95
M 82.6 59.3
Q 82.05 59.4 81.6 59.4 75.7 60.1 70.15 61 69.6 61 68.9 61.15 68.55 61.15 68.1 61.15 66.5 61.6 64.85 61.8 63.85 61.95 62.8 62.15 61.2 62.4 59.55 62.75 54.25 63.8 48.95 65.05
L 57.35 67.1
Q 58.2 66.9 59.2 66.45 62.2 65.65 65.65 64.8 65.9 64.8 66.15 64.8 67.75 64.45 69.35 64 69.95 64 70.5 64 75.8 62.85 81.7 62.3 82.15 62.15 82.6 62.15 82.6 60.8 82.6 59.5
L 82.6 59.3
M 82.6 56.85
L 82.4 56.85
Q 81.9 56.65 81.35 56.4 81.25 56.3 81.1 56.3 75 53.05 64.85 47.05 64.85 46.95 64.75 46.95
L 64.5 46.7
Q 64.3 46.5 64.05 46.5
L 63.85 46.25
Q 63.7 46.25 63.5 46.15 63.25 45.9 63 45.9 62.1 45.9 61.05 45.9
L 60.85 45.9
Q 19.8 48.35 16.9 44.4 17.35 47.05 18.2 49.15 19.35 52.35 21.4 55 22.55 56.65 24.3 58.15 25.2 58.7 26.25 59.3 29.15 60.8 32.8 60.55
L 32.95 60.55
Q 60.6 55.7 81.35 57.1 81.9 57.1 82.4 57.1 82.4 56.85 82.6 57.1
L 82.6 56.85
M 18.2 55.5
Q 17.35 55.25 16.9 55.6 16.35 55.85 16.35 56.65 16.35 57.35 16.9 58.15 17.15 58.7 17.95 59.05 18.75 59.3 19.1 58.95
L 19.35 58.95
Q 19.8 58.5 19.8 57.9 19.8 57.35 19.35 56.5 19 55.85 18.2 55.5
M 25.1 61.6
Q 24.4 61.15 23.85 61.15 23 61.35 22.8 61.7 22.55 62.15 22.8 62.75 23 63.45 23.85 63.55 24.05 64 24.4 64 24.65 64 25.1 64 25.65 64 25.9 63.45 26.25 63.2 25.9 62.4 25.65 61.95 25.1 61.6
M 14.05 48.35
Q 13.45 48.55 13.25 49.15 13.1 49.6 13.1 49.95 13.1 50.4 13.25 50.75 13.45 51.35 14.05 52 14.7 52.35 15.3 52.25 15.9 52.25 16.1 51.35 16.35 50.75 16.1 49.95 15.9 49.15 15.3 48.55 14.5 48.1 14.05 48.35
M 13.25 40.05
Q 13.1 40.05 12.9 40.05
L 12.65 40.15
Q 12.4 40.15 12.4 40.6 12.05 41.2 12.2 41.9 12.2 42.7 12.4 43.05 12.9 43.6 13.45 43.6 13.9 43.6 14.25 43.05 14.5 42.45 14.5 41.9 14.5 40.95 14.05 40.6
L 14.05 40.4
Q 13.7 40.05 13.25 40.05
M 9.2 27.6
Q 9.4 27 8.95 26.2 8.85 25.5 8.15 25.15
L 7.9 25.15
Q 7.6 24.95 7.35 25.15 7.1 25.15 7 25.4 6.75 25.5 6.75 25.95 6.75 26.55 7 27.25 7.1 27.8 7.8 28.15 8.15 28.65 8.85 28.4 8.95 28.15 8.95 28.05 9.2 27.8 9.2 27.6
M 10.45 35.55
Q 10.8 35.9 11.4 35.9 11.85 35.75 12.05 35.1 12.2 34.5 12.2 33.7 12.05 33.1 11.4 32.65 11.05 32.3 10.55 32.3 10 32.45 9.75 32.9 9.65 33.7 9.75 34.25 10 35.1 10.45 35.55
M 3.9 20.1
Q 3.9 20.45 4.1 21.15 4.35 21.7 4.7 21.95 5.15 22.05 5.5 22.05 5.75 22.05 5.75 21.95 5.95 21.95 5.95 21.5
L 5.95 21.25
Q 6.2 20.9 5.95 20.35 5.75 20.1 5.4 19.65
L 5.15 19.5
Q 4.95 19.5 4.95 19.3 4.7 19.3 4.35 19.5 4.1 19.5 3.9 20.1
M 4.1 14.55
Q 3.9 14 3.65 13.55 3.3 13.2 3.1 13.2 2.5 13.2 2.25 13.55
L 2.25 14
Q 2.05 14.2 2.05 14.8 2.25 15.35 2.5 15.85 2.85 16.05 3.1 16.05
L 3.3 16.05
Q 3.55 16.05 3.9 15.6 4.1 15.15 4.1 14.55
M 7.6 9.5
Q 7.35 9.7 7.35 10.05 6.75 11.9 7.1 13.75 7.35 15.6 8.6 17 9.4 18 10.55 19.05 11.6 19.65 14.05 20.45 21.4 7.05 37.2 10.75 25.9 3.6 16.1 2.8 11.25 2.8 8.85 6.5 7.9 7.9 7.6 9.5
M 3.3 7.9
Q 2.85 8.35 2.75 8.9 2.5 9.5 2.75 9.95 2.85 10.05 2.85 10.3 3.1 10.55 3.3 10.55 3.55 10.75 4.1 10.3 4.45 9.95 4.7 9.25 4.7 8.9 4.7 8.35 4.45 8.1 4.35 7.9 4.35 7.65 4.1 7.65 3.65 7.65 3.3 7.9
M 6.2 5.7
L 6.2 5.8 6.55 6.25
Q 6.75 6.25 7 6.25 7.6 6.05 7.8 5.7 7.9 5.45 8.15 5 8.15 4.65 7.9 4.4 7.6 4.2 7.1 4.2 7 4.4 6.55 4.9 6.2 5.25 6.2 5.7
M 46.75 30.8
Q 46.2 30.8 45.85 30.8
L 45.6 30.8
Q 35 31.3 16.9 26.45 16.7 26.2 16.55 26.2 15.05 30.45 15.05 33.7 15.05 36.35 15.9 38.4 16.9 39.25 18.55 39.8 27.75 43.05 60.85 43.6 53.35 39.8 46.75 30.8
M 45.6 28.4
Q 44.9 27.35 44.35 26.45 41.45 22.05 39.75 17.45
L 37.9 13.75
Q 33.75 13.2 29.7 13.55 25.65 13.75 22.2 16.2 19 18.5 17.35 22.3 21.65 23.9 25.9 24.95 31 26.2 36.3 27.25 40.9 28.05 45.6 28.4
M 83.4 47.75
L 83.4 47.55
Q 84.25 48.1 83.65 47.05 83.3 46.7 82.85 46.15 80.55 43.75 74.45 37.4 63 25.4 41.35 14 45.95 21.25 49.2 25.95 54.95 34.15 63 40.85 63.7 41.2 64.3 41.9 64.85 42.25 65.55 42.7 65.55 42.8 65.65 43.05 65.9 43.05 66.15 43.25 66.35 43.25 66.35 43.5 66.5 43.5 66.5 43.6 66.7 43.6 66.95 43.85 73.05 48.35 81.45 53.75 81.8 54 82.15 54.2 81.9 53.4 82.15 53.4
L 82.95 49.35
Q 83.2 48.55 83.4 47.75
M 91.25 73.8
Q 91.05 73.35 90.8 73 90.2 76.8 89.2 80.5 89.4 80.95 89.65 81.55 93 89.35 99.2 98.15 99.55 98.8 100.25 99.65 101.85 102.05 103.7 104.45 109.15 110.6 113.4 110.1 108.3 102.4 105.45 97.55 102.65 92.7 99.45 87.65 96.45 82.8 91.25 73.8
M 92.05 68.05
Q 91.85 67.95 91.6 67.7 91.5 68.75 91.5 69.65 91.6 69.9 91.85 70.1 96.45 77.6 101.05 84.75 102 86.05 102.8 87.65 105.1 91.2 107.5 94.65 108.55 96.3 109.6 98 112 101.45 114.2 104.95
L 114.2 105.05
Q 116.05 107.7 117.65 110.35 119.5 110.8 120.9 110.6 121.1 110.6 121.35 110.6 122.75 110.6 124.25 110.1 124.8 110 125.4 109.55 125.6 109.3 125.85 109.3
L 125.6 109.2
Q 122.15 100.8 118.35 94.1 116.05 90.4 113.85 87.2 111.2 83.5 108.3 80.5 108 80.05 107.5 79.9 107.3 79.7 105.1 78.3 104.65 77.85 103.85 77.4 103 76.8 102.2 76.25 97.5 73.1 92.05 68.05
M 110.75 68.05
Q 109.35 67.95 108.1 67.25 106.25 66.9 104.65 66.45 104.05 66.2 103.7 66.2 99.45 65.3 95.05 64.25
L 94.95 64.25
Q 93.8 64 92.55 63.8 92.4 63.65 92.3 63.65 92.05 63.65 91.85 63.65 91.6 64.6 91.6 65.85 91.95 66.1 92.2 66.3 97.95 70.25 102.65 73.35
L 102.8 73.6
Q 103.25 73.8 103.85 74.15 104.85 74.85 105.9 75.4 108 76.6 109.6 77.6 110.75 78.3 111.8 78.9 113.05 79.45 114.2 80.05 115 80.25 115.8 80.75 116.85 80.85 117.45 81.05 119.75 81.75 120.9 81.75 123.75 81.75 123.75 80.05 123.75 79.7 123.55 79.25 123.4 78.3 120.75 77.25 120.55 77.25 120.1 77.25 120.1 77.05 119.95 77.05 118.45 76.25 117.65 75.2 117.1 74.4 117.1 73.35 117.1 70.45 115.45 69.65 115 69.55 114.45 69.3 112.6 68.75 110.75 68.05
M 105.45 61.15
Q 104.85 61 104.3 61 98.65 60.1 92.9 59.4 92.3 59.3 91.85 59.3
L 91.85 59.5
Q 91.85 60.8 91.85 62.15 92.2 62.15 92.55 62.3 98.5 62.85 103.85 64 104.3 64 104.85 64 106.7 64.45 108.3 64.8 108.55 64.8 108.8 64.8 112 65.65 115 66.45 116.05 66.9 117.1 67.1
L 125.4 65.05
Q 120.1 63.8 114.9 62.75 113.15 62.4 111.55 62.15 110.65 61.95 109.6 61.8 108 61.6 106.15 61.15 105.9 61.15 105.45 61.15
M 118.7 114.25
Q 118.35 113.6 117.45 113.25 116.85 113 116.05 113 116.05 113.25 115.8 113.25 115.45 113.45 115.25 113.6 115 114.05 115.25 114.6 115.45 114.6 115.45 114.85 115.8 115.3 116.5 115.65 116.85 115.65 117.1 115.9 117.65 115.9 117.9 115.9 118.35 115.65 118.7 115.4
L 118.95 115.3
Q 119.15 114.85 118.7 114.25
M 126.65 115.65
Q 126.9 115.4 127 115.3
L 127 115.1
Q 127.25 114.85 127 114.6 127 114.4 126.9 114.05 126.65 113.8 126.4 113.8 125.85 113.45 125.05 113.6
L 124.8 113.6
Q 124.55 113.6 124.25 113.8
L 124 114.05
Q 123.75 114.05 123.75 114.25 123.4 114.6 123.4 115.1
L 123.4 115.3
Q 123.4 115.65 124 116.1 124.55 116.25 125.4 116.1 125.85 116.1 126.05 115.9 126.4 115.9 126.65 115.65
M 139.45 107.7
Q 139.45 107.6 139.65 107.35 139.65 107.1 139.65 106.9 139.9 106.9 139.9 106.65 139.9 106.3 139.45 106.1 139.2 105.75 138.85 105.85
L 138.65 105.85
Q 138.2 106.1 137.85 106.55 137.35 106.9 137.35 107.35 137.35 107.95 137.6 108.15 138.05 108.5 138.4 108.4
L 138.65 108.4
Q 139 108.15 139.45 107.7
M 132.3 110.35
L 132.05 110.35
Q 131.7 110.8 131.25 111.4 131.15 111.95 131.25 112.45
L 131.25 112.65
Q 131.7 112.75 132.05 112.75 132.3 112.75 132.55 112.75 133 112.75 133.55 112.65
L 133.55 112.45
Q 133.9 112.2 134.15 111.85
L 134.35 111.6
Q 134.6 110.95 134.35 110.35 134.15 110.1 133.9 110.1 133.8 110 133.55 110 133.35 110 133.1 110 132.75 110.1 132.3 110.35
M 143.7 100.45
Q 143.25 100.2 143.15 100.65 142.45 100.8 142.35 101.45 142.1 101.8 142.35 102.4 142.35 102.85 142.65 103.1 143.15 103.2 143.5 102.85 143.95 102.65 144.15 102.3 144.3 101.6 144.3 101 144.15 100.65 143.7 100.45
M 146.7 94.9
Q 146.35 95.15 146.15 95.7 145.9 96.3 145.9 96.75 145.9 97 146.15 97.2 146.15 97.35 146.6 97.55 146.7 97.55 147.15 97.35 147.75 97 147.95 96.5 148.2 95.95 147.95 95.35 147.95 95.15 147.75 94.9
L 147.65 94.65
Q 147.4 94.65 146.95 94.65 146.95 94.9 146.7 94.9
M 149.8 88.55
Q 149.6 88.55 149.35 88.8 149 89.25 148.8 89.6 148.55 90.3 148.55 90.65
L 148.55 90.85
Q 148.8 91.1 148.8 91.2
L 149 91.45
Q 149.35 91.45 149.8 91.2 150.15 91.1 150.6 90.4 150.85 89.85 150.6 89.5 150.6 88.8 150.15 88.55 150.05 88.55 149.8 88.55
M 151.1 76.8
Q 150.85 76.25 150.4 75.75 150.05 75.65 149.6 75.65 149.25 75.65 149 76.25 149 76.6 149 77.25 149.25 77.85 149.6 78.3 150.05 78.4 150.4 78.4 150.6 78.4 150.85 78.3 150.85 78.1 151.1 77.85 151.2 77.4 151.1 76.8
M 152.25 83.15
Q 152.25 82.7 152 82.35
L 152 82.1
Q 151.9 81.75 151.45 81.75 151.1 81.55 150.6 81.9 150.4 82.35 150.15 82.9 150.15 83.5 150.6 83.95 150.85 84.55 151.2 84.55 151.65 84.55 151.9 84.2 152.25 83.7 152.25 83.15
M 126.9 80.5
Q 126.9 81.75 126.4 82.35 126.2 82.55 126.05 82.7 125.05 83.4 124.55 83.7 127.8 87.4 131.7 90.65 134.6 93.05 138.05 95.15 139.45 95.95 140.7 96.75
L 140.85 96.75 141.05 97
Q 141.5 97.2 142.1 97.35 142.1 97.55 142.35 97.55
L 142.35 97.35
Q 142.45 97.35 142.45 97.2 143.15 96.5 143.5 95.7 145.55 93.05 146.7 90.4 145.9 89.85 145.1 89.5
L 145.1 89.25 145 89.25
Q 143.5 88.2 142.35 87.4 142.35 87.2 142.1 87.2 137.6 84.3 132.3 82.35 129.65 81.3 126.9 80.5
M 133.8 74.85
Q 133.55 74.85 133.1 74.85 128.05 74.4 121.9 74.15 125.25 75.65 126.65 79.1 129.65 79.45 132.55 80.25 137.6 81.55 142.45 83.4 143.15 83.7 143.7 83.95 145 84.3 146.35 85
L 146.6 85
Q 146.7 85.1 146.95 85.35 147.65 85.55 147.95 85.8 148.2 85 148.2 84.2 148.45 83.7 148.45 83.15 148.45 82.9 148.45 82.7 148.45 80.5 147.75 78.9 146.95 77.25 143.15 76.25 141.3 75.75 139 75.65 136.55 75.2 133.8 74.85
M 115.8 83.5
Q 114.45 83.15 113.05 82.35 114.9 84.55 116.25 86.85
L 116.5 86.85
Q 118.45 89.6 120.55 92.5 121.9 94.65 123.2 97 123.4 97.2 123.55 97.55 126.05 101.45 128.05 105.3 128.85 106.55 129.55 107.95 130.45 107.7 131.25 107.35 131.7 107.1 132.05 106.9
L 132.3 106.9
Q 133.9 106.1 135.5 104.95 135.75 104.7 136 104.45
L 136.2 104.25
Q 136.45 104.15 136.55 103.9 137.6 102.85 138.65 101.6 139.45 100.8 140 100 139.65 99.75 139.2 99.65 134.95 96.75 131.5 93.75 129.05 91.7 126.9 89.5
L 126.65 89.25
Q 124.35 86.85 122.6 84.2 120.3 84.75 117.65 84.2 117.45 84.2 117.3 83.95
L 117.1 83.95
Q 116.5 83.7 115.8 83.5
M 118.7 68.85
L 119.95 71.95
Q 124.55 71.75 129.05 71.95 131.25 71.95 133.55 72.3 138.4 72.55 143.15 73.6 144.3 73.8 145.8 73.95 141.3 69.65 134.35 67.95 133.55 67.7 132.55 67.25 126.2 66.65 121.9 67.7 120.1 68.05 118.7 68.85
M 124.8 25.95
Q 128.25 21.25 133 14 111.2 25.4 99.7 37.4 93.7 43.5 91.6 46.05 90.9 46.6 90.7 47.05 89.9 48.1 90.9 47.55
L 90.9 47.75
Q 91.05 48.55 91.25 49.35
L 91.95 53.4
Q 92.3 53.4 92.05 54.2 92.55 53.85 93 53.65 101.15 48.35 107.4 43.85
L 107.5 43.6
Q 107.75 43.5 108 43.5 108 43.25 108.2 43.25 108.3 43.05 108.55 43.05 108.55 42.8 108.8 42.7 109.35 42.25 110.05 41.9 110.65 41.2 110.95 40.85
L 111.2 40.85
Q 119.4 34.15 124.8 25.95
M 156.15 49.15
Q 156.95 47.05 157.3 44.4 154.55 48.35 113.3 45.9 112.25 45.9 111.2 45.9 110.95 45.9 110.85 46.15 110.65 46.25 110.4 46.25 110.15 46.25 110.15 46.5 110.05 46.5 109.8 46.7 109.6 46.7 109.6 46.95 109.35 46.95 109.15 47.05 99.2 53.05 93.1 56.3 93 56.3 93 56.4 92.4 56.5 91.7 56.85
L 91.7 57.1
Q 92.3 57.1 92.9 57.1 113.85 55.7 141.05 60.55
L 141.3 60.55
Q 145.2 60.8 147.95 59.3 149 58.7 150.05 58.15 151.65 56.65 152.95 55 154.75 52.35 156.15 49.15
M 150.5 61.15
Q 149.6 61.15 149 61.6 148.65 61.95 148.2 62.4 147.95 63.2 148.2 63.45 148.65 64 149.25 64 149.6 64 149.8 64 150.05 64 150.5 63.55 151.3 63.45 151.45 62.75 151.65 62.15 151.3 61.7 151.1 61.35 150.5 61.15
M 154.9 56.5
Q 154.3 57.35 154.55 57.9 154.55 58.5 154.75 58.95
L 154.9 58.95
Q 155.6 59.3 156.4 59.05 156.95 58.7 157.3 58.15 158 57.35 158 56.65 158 55.85 157.3 55.6 156.75 55.25 156.15 55.5 155.35 55.85 154.9 56.5
M 161 49.15
Q 160.75 48.55 160.2 48.35 159.6 48.1 159.05 48.55 158.35 49.15 158.25 49.95 157.75 50.75 158.25 51.35 158.35 52.25 159.05 52.25 159.4 52.35 159.95 52 160.75 51.35 161 50.75 161 50.4 161 49.95 161.25 49.6 161 49.15
M 161.25 40.05
L 161 40.05
Q 160.65 40.05 160.2 40.4
L 160.2 40.6
Q 159.85 40.95 159.85 41.9 159.85 42.45 159.95 43.05 160.4 43.6 160.75 43.6 161.25 43.6 161.7 43.05 162.05 42.7 162.05 41.9 162.05 41.2 161.8 40.6 161.7 40.15 161.45 40.15 161.45 40.05 161.25 40.05
M 128.5 30.8
Q 127.9 30.8 127.25 30.8 120.75 39.8 113.4 43.6 146.6 43.05 155.6 39.8 157.3 39.25 158.25 38.4
L 158.35 38.4
Q 159.15 36.35 159.15 33.7 159.15 30.45 157.75 26.2 157.55 26.2 157.3 26.45 139.1 31.3 128.5 30.8
M 156.75 22.3
Q 155.35 18.5 151.9 16.2 148.65 13.75 144.4 13.55 140.25 13.2 136.2 13.75
L 134.6 17.45
Q 132.55 22.05 129.75 26.45 129.05 27.35 128.5 28.4 133.2 28.05 137.85 27.25 143.35 26.2 148.45 24.95 152.7 23.9 156.75 22.3
M 162.05 35.1
Q 162.5 35.75 162.85 35.9 163.3 35.9 163.65 35.55 164.25 35.1 164.45 34.25 164.45 33.7 164.25 32.9 164.1 32.45 163.65 32.3 163.05 32.3 162.6 32.65 162.25 33.1 162.05 33.7 161.8 34.5 162.05 35.1
M 167.55 25.95
Q 167.55 25.5 167.1 25.4 167.1 25.15 166.9 25.15 166.55 24.95 166.3 25.15 166.05 25.15 165.95 25.15 165.5 25.5 165.05 26.2 164.9 27 164.9 27.6 165.05 27.8 165.05 28.05 165.25 28.15 165.5 28.4 165.95 28.65 166.55 28.15 167.1 27.8 167.35 27.25 167.55 26.55 167.55 25.95
M 170.35 20.1
Q 170.2 19.5 169.75 19.5 169.55 19.3 169.4 19.3
L 169.2 19.5
Q 168.95 19.65 168.7 19.65 168.5 20.1 168.4 20.35 168.15 20.9 168.4 21.25
L 168.4 21.5
Q 168.4 21.95 168.5 21.95 168.5 22.05 168.7 22.05 169.2 22.05 169.55 21.95 170 21.7 170.2 21.15 170.35 20.45 170.35 20.1
M 171.95 13.55
Q 171.6 13.2 171.15 13.2 171.05 13.2 170.55 13.55 170.2 14 170.2 14.55 170.2 15.15 170.35 15.6 170.55 16.05 171.05 16.05
L 171.15 16.05
Q 171.35 16.05 171.85 15.85 171.95 15.35 171.95 14.8 172.2 14.2 171.95 14
L 171.95 13.55
M 171.35 8.9
Q 171.35 8.35 171.05 7.9 170.55 7.65 170.2 7.65 170 7.65 169.75 7.9 169.75 8.1 169.55 8.35 169.4 8.9 169.55 9.25 169.75 9.95 170.2 10.3 170.55 10.75 171.05 10.55 171.15 10.55 171.35 10.3 171.35 10.05 171.35 9.95 171.6 9.5 171.35 8.9
M 166.75 9.5
Q 166.3 7.9 165.5 6.5 163.05 2.8 158.25 2.8 148.2 3.6 137 10.75 152.7 7.05 160.2 20.45 162.5 19.65 163.4 19.05 164.7 18 165.5 17 166.75 15.6 167.1 13.75 167.35 11.9 166.9 10.05 166.9 9.7 166.75 9.5
M 167.9 5.7
Q 167.9 5.25 167.7 4.9 167.35 4.4 166.9 4.2 166.55 4.2 166.3 4.4 166.05 4.65 166.05 5 166.05 5.45 166.55 5.7 166.75 6.05 167.1 6.25 167.55 6.25 167.7 6.25 167.7 6.05 167.9 6.05
L 167.9 5.8
Q 168.15 5.7 167.9 5.7 Z"/>

<path fill="#000000" stroke="none" d="
M 81.6 59.4
Q 82.05 59.4 82.6 59.3 82.6 58.95 82.6 58.7 82.05 58.7 81.45 58.85 75.7 59.05 69.95 59.75 69.35 59.75 68.8 60 66.5 60.2 64.5 60.55 62 60.8 59.8 61.15 49.65 62.75 39.5 65.65 35.25 66.65 31.1 67.95 30.75 68.05 30.5 68.3 28.65 68.85 27.3 69.9 27.05 69.9 27.05 70.1 24.85 71.5 23.15 73.6 22.55 74.6 22.2 75.65 22 75.75 21.75 76.25 21.2 77.4 20.95 79.1
L 20.95 79.25
Q 20.7 80.25 20.6 81.3 20.6 82.35 20.6 83.4 20.6 83.7 20.6 84.3 20.7 85.1 20.7 85.8 20.95 86.6 20.95 87.4 21.75 91.2 23.15 94.9 23.85 96.75 24.65 98.15 25 98.95 25.45 99.65 26.6 101.6 28.1 103.65 28.9 105.05 30.05 106.3 31 107.35 31.9 108.4 32.35 108.75 32.95 109.3
L 33.15 109.55
Q 33.5 110.1 34.2 110.6 34.3 110.8 34.8 110.95 35 111.15 35.25 111.6 35.6 111.95 36.15 112.65 36.85 113 37.45 113.6 38.45 114.4 39.6 115.3 39.85 115.4 40.1 115.9 40.9 116.25 41.45 116.7 41.95 117.05 42.5 117.5 43.9 118.05 45.4 118.75 48.15 119.55 50.8 119.55 51.85 119.55 53.1 119.35 53.7 119.35 54.25 119.1 54.95 118.9 55.55 118.75 61.4 116.9 67.05 110.6 68.55 108.95 69.95 107.35 71.55 105.5 73.05 103.9 73.85 102.65 74.65 101.6 75 100.8 75.7 100.2 81.25 92.25 84.8 83.5 85.05 82.7 85.4 81.9 85.15 81.05 85.05 80.5 84.8 80.95 84.7 81.4 81.25 89.25 75.25 98.15 74.65 98.8 74.2 99.65 72.6 102.05 70.75 104.45 65.35 110.6 61.05 110.1 66.15 102.4 68.9 97.55 71.8 92.7 74.8 87.65 78 82.7 83.2 73.7 83.3 73.35 83.55 73 83.2 71.4 82.95 69.65 82.85 69.9 82.75 70.1 78 77.6 73.4 84.75 72.35 86.05 71.55 87.65 69.15 91.2 66.95 94.65 65.9 96.3 64.65 98 62.45 101.45 60.15 104.95
L 60.15 105.05
Q 58.4 107.7 56.55 110.35 54.95 110.8 53.45 110.6 53.35 110.6 52.9 110.6 51.5 110.6 50.25 110.1 49.4 110 48.85 109.55 48.85 109.3 48.6 109.3
L 48.6 109.2
Q 52.05 100.8 56.1 94.1 58.4 90.4 60.6 87.2 63.25 83.5 66.15 80.5 66.5 80.05 66.95 79.9 67.05 79.7 69.15 78.3 69.7 77.85 70.5 77.4 71.2 76.8 72 76.25
L 72.25 76.25
Q 76.95 73.1 82.5 68.05 82.6 67.8 82.75 67.7 82.75 67.1 82.75 66.2 82.75 66.1 82.6 65.85 82.4 65.95 82.25 66.2 76.5 70.25 71.8 73.35 71.55 73.35 71.55 73.6 71.2 73.8 70.5 74.15 69.6 74.85 68.55 75.4 66.5 76.6 64.85 77.6 63.6 78.3 62.45 78.9 61.2 79.45 60.15 80.05 59.2 80.25 58.4 80.75 57.6 80.85 56.9 81.05 54.7 81.75 53.35 81.75 50.7 81.75 50.7 80.05 50.7 79.7 50.8 79.25 51.05 78.3 53.7 77.25 53.9 77.25 54.15 77.25 54.15 77.05 54.25 77.05 55.85 76.25 56.8 75.2 57.35 74.4 57.35 73.35 57.35 70.45 59 69.65 59.35 69.55 60 69.3 61.85 68.75 63.6 68.05 64.85 67.95 66.25 67.25 68 66.9 69.7 66.45 70.4 66.2 70.75 66.2 74.8 65.3 79.25 64.25 80.65 64 81.9 63.8 82.05 63.65 82.15 63.65 82.4 63.65 82.6 63.65
L 82.6 63.45
Q 82.6 62.75 82.6 62.15 82.15 62.15 81.7 62.3 75.8 62.85 70.5 64 69.95 64 69.35 64 67.75 64.45 66.15 64.8 65.9 64.8 65.65 64.8 62.2 65.65 59.2 66.45 58.2 66.9 57.35 67.1
L 48.95 65.05
Q 54.25 63.8 59.55 62.75 61.2 62.4 62.8 62.15 63.85 61.95 64.85 61.8 66.5 61.6 68.1 61.15 68.55 61.15 68.9 61.15 69.6 61 70.15 61 75.7 60.1 81.6 59.4
M 31.3 73.6
Q 29.95 73.8 28.65 73.95 33.15 69.65 39.85 67.95 40.9 67.7 41.7 67.25 48.15 66.65 52.4 67.7 54.15 68.05 55.55 68.85
L 54.5 71.95
Q 49.9 71.75 45.4 71.95 42.95 71.95 40.9 72.3 36.05 72.55 31.3 73.6
M 31.3 76.25
Q 32.95 75.75 35.35 75.65 37.8 75.2 40.65 74.85 40.9 74.85 41.25 74.85 46.4 74.4 52.4 74.15 48.95 75.65 47.6 79.1 44.7 79.45 41.95 80.25 36.85 81.55 31.9 83.4 31.3 83.7 30.75 83.95 29.25 84.3 28.1 85
L 27.85 85
Q 27.65 85.1 27.5 85.35 26.85 85.55 26.25 85.8 26 85 26 84.2 26 83.7 26 83.15 26 82.9 26 82.7 26 80.5 26.6 78.9 27.5 77.25 31.3 76.25
M 23.35 76.8
Q 23.6 76.25 24.05 75.75 24.4 75.65 24.85 75.65 25 75.65 25.2 76.25 25.45 76.6 25.2 77.25 25 77.85 24.65 78.3 24.2 78.4 24.05 78.4 23.85 78.4 23.6 78.3 23.35 78.1 23.35 77.85 23.15 77.4 23.35 76.8
M 23 81.75
Q 23.35 81.55 23.85 81.9 24.05 82.35 24.05 82.9 24.05 83.5 23.85 83.95 23.6 84.55 23.15 84.55 22.8 84.55 22.35 84.2 22.2 83.7 22.2 83.15 22.2 82.7 22.2 82.35 22.2 82.1 22.35 82.1 22.55 81.75 23 81.75
M 29.25 89.25
L 29.5 89.25
Q 30.75 88.2 32.15 87.4
L 32.15 87.2
Q 36.85 84.3 41.95 82.35 44.7 81.3 47.6 80.5 47.6 81.75 48.05 82.35 48.15 82.55 48.4 82.7 49.2 83.4 49.9 83.7 46.4 87.4 42.75 90.65 39.6 93.05 36.4 95.15 35 95.95 33.5 96.75 33.4 97 33.15 97 32.7 97.2 32.35 97.35
L 32.15 97.55
Q 32.15 97.35 31.9 97.35
L 31.9 97.2
Q 31.3 96.5 30.75 95.7 28.9 93.05 27.65 90.4 28.45 89.85 29.15 89.5
L 29.25 89.25
M 25.8 90.85
Q 25.65 91.1 25.45 91.2
L 25.45 91.45
Q 25 91.45 24.4 91.2 24.05 91.1 23.85 90.4 23.6 89.85 23.6 89.5 23.85 88.8 24.2 88.55 24.4 88.55 24.65 88.55 24.85 88.55 25 88.8 25.45 89.25 25.65 89.6 25.8 90.3 25.8 90.65
L 25.8 90.85
M 26.85 94.65
Q 27.05 94.65 27.3 94.65
L 27.5 94.9
Q 28.1 95.15 28.35 95.7 28.45 96.3 28.45 96.75 28.35 97 28.35 97.2 28.35 97.35 27.85 97.55 27.65 97.55 27.05 97.35 26.6 97 26.5 96.5 26.25 95.95 26.25 95.35 26.5 95.15 26.6 94.9
L 26.85 94.65
M 56.8 84.2
Q 56.9 84.2 57.15 83.95
L 57.35 83.95
Q 57.7 83.7 58.55 83.5 60 83.15 61.2 82.35 59.55 84.55 57.95 86.85
L 57.7 86.85
Q 55.75 89.6 53.9 92.5 52.4 94.65 51.05 97 50.8 97.2 50.8 97.55 48.4 101.45 46.4 105.3 45.6 106.55 44.9 107.95 43.9 107.7 42.95 107.35 42.5 107.1 42.15 106.9 40.45 106.1 38.8 104.95 38.7 104.7 38.45 104.45 38.25 104.45 38.25 104.25 38 104.15 37.8 103.9 36.6 102.85 35.6 101.6 35 100.8 34.3 100 34.8 99.75 35.25 99.65 39.5 96.75 42.95 93.75 45.4 91.7 47.6 89.5 47.6 89.25 47.8 89.25 49.9 86.85 51.85 84.2 54.15 84.75 56.8 84.2
M 40.9 110
Q 41.1 110 41.25 110 41.7 110.1 42.15 110.35 42.75 110.8 42.95 111.4 43.3 111.95 42.95 112.45
L 42.95 112.65
Q 42.75 112.75 42.15 112.75
L 41.95 112.75
Q 41.45 112.75 40.9 112.65
L 40.9 112.45
Q 40.45 112.2 40.1 111.85 40.1 111.6 39.85 111.6 39.6 110.95 40.1 110.35 40.1 110.1 40.45 110.1 40.65 110 40.9 110
M 50.25 113.8
L 50.25 114.05
Q 50.45 114.05 50.7 114.25 51.05 114.6 51.05 115.1
L 51.05 115.3
Q 50.8 115.65 50.25 116.1 49.9 116.25 48.95 116.1 48.6 116.1 48.15 115.9 48.05 115.9 47.6 115.65 47.6 115.4 47.35 115.3
L 47.35 115.1
Q 47.25 114.85 47.25 114.6 47.25 114.4 47.35 114.05 47.6 113.8 48.05 113.8 48.6 113.45 49.4 113.6 49.9 113.6 50.25 113.8
M 58.55 113.25
Q 59 113.45 59.2 113.6 59.35 114.05 59 114.6
L 59 114.85
Q 58.55 115.3 57.7 115.65 57.6 115.65 57.15 115.9 56.8 115.9 56.55 115.9 55.85 115.65 55.75 115.4 55.55 115.4 55.55 115.3 55.3 114.85 55.75 114.25 56.1 113.6 56.8 113.25 57.6 113 58.4 113 58.4 113.25 58.55 113.25
M 30.5 100.45
Q 31 100.2 31.3 100.65 31.9 100.8 32.15 101.45 32.35 101.8 32.15 102.4 32.15 102.85 31.8 103.1 31.3 103.2 31 102.85 30.5 102.65 30.3 102.3 30.05 101.6 30.05 101 30.3 100.65 30.5 100.45
M 34.55 106.65
Q 34.3 106.3 34.8 106.1 35 105.75 35.35 105.85
L 35.8 105.85
Q 36.15 106.1 36.4 106.55
L 36.6 106.55
Q 36.85 106.9 36.95 107.35 36.95 107.95 36.85 108.15 36.4 108.5 35.8 108.4 35.35 108.15 35 107.7 34.8 107.6 34.8 107.35 34.55 107.1 34.55 106.9
L 34.55 106.65
M 83.65 47.05
Q 83.65 46.95 83.65 46.7 83.9 45.8 83.65 44.65 83.1 42.35 80.75 39.35 79.5 37.6 77.55 35.9 67.15 24.6 52.3 15.6 37.2 6.5 31.55 4.2 25.9 1.75 22.2 1.2 18.3 0.4 16.1 0.6 15.9 0.4 15.9 0.6 13.25 0.6 10.8 1.2 10 1.4 9.4 1.75 7.8 2.25 6.75 3.05
L 6.55 3.05
Q 6.2 3.4 5.75 3.6 3.65 5.25 2.25 7.3 2.05 7.9 1.95 8.35
L 1.7 8.35 1.7 8.45
Q 1 9.95 0.65 11.9 0.2 13.2 0.2 14.55
L 0.2 14.8
Q 0.45 17.8 1.7 21.95
L 1.7 22.05
Q 2.85 24.95 4.45 28.4 5.75 30.8 7.35 33.7 7.8 34.5 8.15 35.1 9.65 38.75 10.25 42.25 10.45 46.25 11.05 50.2 11.05 50.4 11.05 50.55 11.25 52.25 11.6 53.85 12.65 57.1 14.05 59.5
L 14.25 59.75
Q 17.5 65.4 23.35 66.8 23.35 67 23.6 67
L 23.85 67
Q 26.85 67.7 35.6 64.6 44.6 61.6 64.5 59.5 77.8 58 81.45 58 82.25 58 82.6 58.15
L 82.6 57.1
Q 82.4 56.85 82.4 57.1 81.9 57.1 81.35 57.1 60.6 55.7 32.95 60.55
L 32.8 60.55
Q 29.15 60.8 26.25 59.3 25.2 58.7 24.3 58.15 22.55 56.65 21.4 55 19.35 52.35 18.2 49.15 17.35 47.05 16.9 44.4 19.8 48.35 60.85 45.9
L 61.05 45.9
Q 62.1 45.9 63 45.9 63.25 45.9 63.5 46.15 63.7 46.25 63.85 46.25
L 64.05 46.5
Q 64.3 46.5 64.5 46.7
L 64.75 46.95
Q 64.85 46.95 64.85 47.05 75 53.05 81.1 56.3 81.25 56.3 81.35 56.4 81.9 56.65 82.4 56.85
L 82.6 56.85
Q 82.4 55 82.6 53.4 82.4 53.4 82.15 53.4 81.9 53.4 82.15 54.2 81.8 54 81.45 53.75 73.05 48.35 66.95 43.85 66.7 43.6 66.5 43.6 66.5 43.5 66.35 43.5 66.35 43.25 66.15 43.25 65.9 43.05 65.65 43.05 65.55 42.8 65.55 42.7 64.85 42.25 64.3 41.9 63.7 41.2 63 40.85 54.95 34.15 49.2 25.95 45.95 21.25 41.35 14 63 25.4 74.45 37.4 80.55 43.75 82.85 46.15 83.3 46.7 83.65 47.05
M 44.35 26.45
Q 44.9 27.35 45.6 28.4 40.9 28.05 36.3 27.25 31 26.2 25.9 24.95 21.65 23.9 17.35 22.3 19 18.5 22.2 16.2 25.65 13.75 29.7 13.55 33.75 13.2 37.9 13.75
L 39.75 17.45
Q 41.45 22.05 44.35 26.45
M 45.85 30.8
Q 46.2 30.8 46.75 30.8 53.35 39.8 60.85 43.6 27.75 43.05 18.55 39.8 16.9 39.25 15.9 38.4 15.05 36.35 15.05 33.7 15.05 30.45 16.55 26.2 16.7 26.2 16.9 26.45 35 31.3 45.6 30.8
L 45.85 30.8
M 6.2 5.8
L 6.2 5.7
Q 6.2 5.25 6.55 4.9 7 4.4 7.1 4.2 7.6 4.2 7.9 4.4 8.15 4.65 8.15 5 7.9 5.45 7.8 5.7 7.6 6.05 7 6.25 6.75 6.25 6.55 6.25
L 6.2 5.8
M 2.75 8.9
Q 2.85 8.35 3.3 7.9 3.65 7.65 4.1 7.65 4.35 7.65 4.35 7.9 4.45 8.1 4.7 8.35 4.7 8.9 4.7 9.25 4.45 9.95 4.1 10.3 3.55 10.75 3.3 10.55 3.1 10.55 2.85 10.3 2.85 10.05 2.75 9.95 2.5 9.5 2.75 8.9
M 7.35 10.05
Q 7.35 9.7 7.6 9.5 7.9 7.9 8.85 6.5 11.25 2.8 16.1 2.8 25.9 3.6 37.2 10.75 21.4 7.05 14.05 20.45 11.6 19.65 10.55 19.05 9.4 18 8.6 17 7.35 15.6 7.1 13.75 6.75 11.9 7.35 10.05
M 3.65 13.55
Q 3.9 14 4.1 14.55 4.1 15.15 3.9 15.6 3.55 16.05 3.3 16.05
L 3.1 16.05
Q 2.85 16.05 2.5 15.85 2.25 15.35 2.05 14.8 2.05 14.2 2.25 14
L 2.25 13.55
Q 2.5 13.2 3.1 13.2 3.3 13.2 3.65 13.55
M 4.1 21.15
Q 3.9 20.45 3.9 20.1 4.1 19.5 4.35 19.5 4.7 19.3 4.95 19.3 4.95 19.5 5.15 19.5
L 5.4 19.65
Q 5.75 20.1 5.95 20.35 6.2 20.9 5.95 21.25
L 5.95 21.5
Q 5.95 21.95 5.75 21.95 5.75 22.05 5.5 22.05 5.15 22.05 4.7 21.95 4.35 21.7 4.1 21.15
M 11.4 35.9
Q 10.8 35.9 10.45 35.55 10 35.1 9.75 34.25 9.65 33.7 9.75 32.9 10 32.45 10.55 32.3 11.05 32.3 11.4 32.65 12.05 33.1 12.2 33.7 12.2 34.5 12.05 35.1 11.85 35.75 11.4 35.9
M 8.95 26.2
Q 9.4 27 9.2 27.6 9.2 27.8 8.95 28.05 8.95 28.15 8.85 28.4 8.15 28.65 7.8 28.15 7.1 27.8 7 27.25 6.75 26.55 6.75 25.95 6.75 25.5 7 25.4 7.1 25.15 7.35 25.15 7.6 24.95 7.9 25.15
L 8.15 25.15
Q 8.85 25.5 8.95 26.2
M 12.9 40.05
Q 13.1 40.05 13.25 40.05 13.7 40.05 14.05 40.4
L 14.05 40.6
Q 14.5 40.95 14.5 41.9 14.5 42.45 14.25 43.05 13.9 43.6 13.45 43.6 12.9 43.6 12.4 43.05 12.2 42.7 12.2 41.9 12.05 41.2 12.4 40.6 12.4 40.15 12.65 40.15
L 12.9 40.05
M 13.25 49.15
Q 13.45 48.55 14.05 48.35 14.5 48.1 15.3 48.55 15.9 49.15 16.1 49.95 16.35 50.75 16.1 51.35 15.9 52.25 15.3 52.25 14.7 52.35 14.05 52 13.45 51.35 13.25 50.75 13.1 50.4 13.1 49.95 13.1 49.6 13.25 49.15
M 23.85 61.15
Q 24.4 61.15 25.1 61.6 25.65 61.95 25.9 62.4 26.25 63.2 25.9 63.45 25.65 64 25.1 64 24.65 64 24.4 64 24.05 64 23.85 63.55 23 63.45 22.8 62.75 22.55 62.15 22.8 61.7 23 61.35 23.85 61.15
M 16.9 55.6
Q 17.35 55.25 18.2 55.5 19 55.85 19.35 56.5 19.8 57.35 19.8 57.9 19.8 58.5 19.35 58.95
L 19.1 58.95
Q 18.75 59.3 17.95 59.05 17.15 58.7 16.9 58.15 16.35 57.35 16.35 56.65 16.35 55.85 16.9 55.6
M 105.65 60
Q 105.1 59.75 104.5 59.75 98.65 59.05 92.9 58.85 92.4 58.7 91.85 58.7 91.85 58.95 91.85 59.3 92.3 59.3 92.9 59.4 98.65 60.1 104.3 61 104.85 61 105.45 61.15 105.9 61.15 106.15 61.15 108 61.6 109.6 61.8 110.65 61.95 111.55 62.15 113.15 62.4 114.9 62.75 120.1 63.8 125.4 65.05
L 117.1 67.1
Q 116.05 66.9 115 66.45 112 65.65 108.8 64.8 108.55 64.8 108.3 64.8 106.7 64.45 104.85 64 104.3 64 103.85 64 98.5 62.85 92.55 62.3 92.2 62.15 91.85 62.15 91.85 62.75 91.85 63.45
L 91.85 63.65
Q 92.05 63.65 92.3 63.65 92.4 63.65 92.55 63.8 93.8 64 94.95 64.25
L 95.05 64.25
Q 99.45 65.3 103.7 66.2 104.05 66.2 104.65 66.45 106.25 66.9 108.1 67.25 109.35 67.95 110.75 68.05 112.6 68.75 114.45 69.3 115 69.55 115.45 69.65 117.1 70.45 117.1 73.35 117.1 74.4 117.65 75.2 118.45 76.25 119.95 77.05 120.1 77.05 120.1 77.25 120.55 77.25 120.75 77.25 123.4 78.3 123.55 79.25 123.75 79.7 123.75 80.05 123.75 81.75 120.9 81.75 119.75 81.75 117.45 81.05 116.85 80.85 115.8 80.75 115 80.25 114.2 80.05 113.05 79.45 111.8 78.9 110.75 78.3 109.6 77.6 108 76.6 105.9 75.4 104.85 74.85 103.85 74.15 103.25 73.8 102.8 73.6
L 102.65 73.35
Q 97.95 70.25 92.2 66.3 91.95 66.1 91.6 65.85 91.6 66.1 91.6 66.2 91.6 67.1 91.6 67.7 91.85 67.95 92.05 68.05 97.5 73.1 102.2 76.25 103 76.8 103.85 77.4 104.65 77.85 105.1 78.3 107.3 79.7 107.5 79.9 108 80.05 108.3 80.5 111.2 83.5 113.85 87.2 116.05 90.4 118.35 94.1 122.15 100.8 125.6 109.2
L 125.85 109.3
Q 125.6 109.3 125.4 109.55 124.8 110 124.25 110.1 122.75 110.6 121.35 110.6 121.1 110.6 120.9 110.6 119.5 110.8 117.65 110.35 116.05 107.7 114.2 105.05
L 114.2 104.95
Q 112 101.45 109.6 98 108.55 96.3 107.5 94.65 105.1 91.2 102.8 87.65 102 86.05 101.05 84.75 96.45 77.6 91.85 70.1 91.6 69.9 91.5 69.65 91.05 71.4 90.8 73 91.05 73.35 91.25 73.8 96.45 82.8 99.45 87.65 102.65 92.7 105.45 97.55 108.3 102.4 113.4 110.1 109.15 110.6 103.7 104.45 101.85 102.05 100.25 99.65 99.55 98.8 99.2 98.15 93 89.35 89.65 81.55 89.4 80.95 89.2 80.5 89.05 81.05 88.85 81.9 89.2 82.7 89.55 83.6 93.2 92.25 98.75 100.2 99.45 100.8 99.8 101.6 100.6 102.65 101.4 103.9 102.8 105.5 104.3 107.35 105.65 108.95 107.3 110.6 113.05 116.9 118.95 118.75 119.5 118.9 119.95 119.1 120.75 119.35 121.35 119.35 122.6 119.55 123.55 119.55 126.2 119.55 128.85 118.75 130.45 118.05 131.95 117.5 132.55 117.05 133 116.7 133.55 116.25 134.15 115.9 134.6 115.4 134.7 115.3 136 114.4 136.8 113.6 137.35 113 138.05 112.65
L 138.2 112.65
Q 138.65 111.95 139.2 111.6 139.45 111.15 139.65 110.95 140 110.8 140.25 110.6 140.7 110.1 141.3 109.55
L 141.5 109.3
Q 142.1 108.75 142.45 108.4 143.5 107.35 144.3 106.3 145.3 105.05 146.15 103.65 147.75 101.6 148.8 99.65 149.35 98.95 149.6 98.15 150.4 96.75 151.2 94.9 152.7 91.2 153.5 87.4 153.5 86.6 153.6 85.8 153.6 85.1 153.6 84.3 153.85 83.7 153.85 83.4 153.85 82.35 153.6 81.3 153.6 80.25 153.5 79.25
L 153.5 79.1
Q 153.3 77.4 152.45 76.25 152.45 75.75 152.25 75.65 151.65 74.6 151.1 73.6 149.6 71.5 147.4 70.1
L 147.15 69.9
Q 145.8 68.85 143.95 68.3 143.5 68.05 143.25 67.95 139.2 66.65 134.95 65.65 124.55 62.75 114.65 61.15 112.25 60.8 109.95 60.55 107.75 60.2 105.65 60
M 119.95 71.95
L 118.7 68.85
Q 120.1 68.05 121.9 67.7 126.2 66.65 132.55 67.25 133.55 67.7 134.35 67.95 141.3 69.65 145.8 73.95 144.3 73.8 143.15 73.6 138.4 72.55 133.55 72.3 131.25 71.95 129.05 71.95 124.55 71.75 119.95 71.95
M 113.05 82.35
Q 114.45 83.15 115.8 83.5 116.5 83.7 117.1 83.95
L 117.3 83.95
Q 117.45 84.2 117.65 84.2 120.3 84.75 122.6 84.2 124.35 86.85 126.65 89.25
L 126.9 89.5
Q 129.05 91.7 131.5 93.75 134.95 96.75 139.2 99.65 139.65 99.75 140 100 139.45 100.8 138.65 101.6 137.6 102.85 136.55 103.9 136.45 104.15 136.2 104.25
L 136 104.45
Q 135.75 104.7 135.5 104.95 133.9 106.1 132.3 106.9
L 132.05 106.9
Q 131.7 107.1 131.25 107.35 130.45 107.7 129.55 107.95 128.85 106.55 128.05 105.3 126.05 101.45 123.55 97.55 123.4 97.2 123.2 97 121.9 94.65 120.55 92.5 118.45 89.6 116.5 86.85
L 116.25 86.85
Q 114.9 84.55 113.05 82.35
M 133.1 74.85
Q 133.55 74.85 133.8 74.85 136.55 75.2 139 75.65 141.3 75.75 143.15 76.25 146.95 77.25 147.75 78.9 148.45 80.5 148.45 82.7 148.45 82.9 148.45 83.15 148.45 83.7 148.2 84.2 148.2 85 147.95 85.8 147.65 85.55 146.95 85.35 146.7 85.1 146.6 85
L 146.35 85
Q 145 84.3 143.7 83.95 143.15 83.7 142.45 83.4 137.6 81.55 132.55 80.25 129.65 79.45 126.65 79.1 125.25 75.65 121.9 74.15 128.05 74.4 133.1 74.85
M 126.4 82.35
Q 126.9 81.75 126.9 80.5 129.65 81.3 132.3 82.35 137.6 84.3 142.1 87.2 142.35 87.2 142.35 87.4 143.5 88.2 145 89.25
L 145.1 89.25 145.1 89.5
Q 145.9 89.85 146.7 90.4 145.55 93.05 143.5 95.7 143.15 96.5 142.45 97.2 142.45 97.35 142.35 97.35
L 142.35 97.55
Q 142.1 97.55 142.1 97.35 141.5 97.2 141.05 97
L 140.85 96.75 140.7 96.75
Q 139.45 95.95 138.05 95.15 134.6 93.05 131.7 90.65 127.8 87.4 124.55 83.7 125.05 83.4 126.05 82.7 126.2 82.55 126.4 82.35
M 152 82.35
Q 152.25 82.7 152.25 83.15 152.25 83.7 151.9 84.2 151.65 84.55 151.2 84.55 150.85 84.55 150.6 83.95 150.15 83.5 150.15 82.9 150.4 82.35 150.6 81.9 151.1 81.55 151.45 81.75 151.9 81.75 152 82.1
L 152 82.35
M 150.4 75.75
Q 150.85 76.25 151.1 76.8 151.2 77.4 151.1 77.85 150.85 78.1 150.85 78.3 150.6 78.4 150.4 78.4 150.05 78.4 149.6 78.3 149.25 77.85 149 77.25 149 76.6 149 76.25 149.25 75.65 149.6 75.65 150.05 75.65 150.4 75.75
M 149.35 88.8
Q 149.6 88.55 149.8 88.55 150.05 88.55 150.15 88.55 150.6 88.8 150.6 89.5 150.85 89.85 150.6 90.4 150.15 91.1 149.8 91.2 149.35 91.45 149 91.45
L 148.8 91.2
Q 148.8 91.1 148.55 90.85
L 148.55 90.65
Q 148.55 90.3 148.8 89.6 149 89.25 149.35 88.8
M 146.15 95.7
Q 146.35 95.15 146.7 94.9 146.95 94.9 146.95 94.65 147.4 94.65 147.65 94.65
L 147.75 94.9
Q 147.95 95.15 147.95 95.35 148.2 95.95 147.95 96.5 147.75 97 147.15 97.35 146.7 97.55 146.6 97.55 146.15 97.35 146.15 97.2 145.9 97 145.9 96.75 145.9 96.3 146.15 95.7
M 143.15 100.65
Q 143.25 100.2 143.7 100.45 144.15 100.65 144.3 101 144.3 101.6 144.15 102.3 143.95 102.65 143.5 102.85 143.15 103.2 142.65 103.1 142.35 102.85 142.35 102.4 142.1 101.8 142.35 101.45 142.45 100.8 143.15 100.65
M 132.05 110.35
L 132.3 110.35
Q 132.75 110.1 133.1 110 133.35 110 133.55 110 133.8 110 133.9 110.1 134.15 110.1 134.35 110.35 134.6 110.95 134.35 111.6
L 134.15 111.85
Q 133.9 112.2 133.55 112.45
L 133.55 112.65
Q 133 112.75 132.55 112.75 132.3 112.75 132.05 112.75 131.7 112.75 131.25 112.65
L 131.25 112.45
Q 131.15 111.95 131.25 111.4 131.7 110.8 132.05 110.35
M 139.65 107.35
Q 139.45 107.6 139.45 107.7 139 108.15 138.65 108.4
L 138.4 108.4
Q 138.05 108.5 137.6 108.15 137.35 107.95 137.35 107.35 137.35 106.9 137.85 106.55 138.2 106.1 138.65 105.85
L 138.85 105.85
Q 139.2 105.75 139.45 106.1 139.9 106.3 139.9 106.65 139.9 106.9 139.65 106.9 139.65 107.1 139.65 107.35
M 127 115.3
Q 126.9 115.4 126.65 115.65 126.4 115.9 126.05 115.9 125.85 116.1 125.4 116.1 124.55 116.25 124 116.1 123.4 115.65 123.4 115.3
L 123.4 115.1
Q 123.4 114.6 123.75 114.25 123.75 114.05 124 114.05
L 124.25 113.8
Q 124.55 113.6 124.8 113.6
L 125.05 113.6
Q 125.85 113.45 126.4 113.8 126.65 113.8 126.9 114.05 127 114.4 127 114.6 127.25 114.85 127 115.1
L 127 115.3
M 117.45 113.25
Q 118.35 113.6 118.7 114.25 119.15 114.85 118.95 115.3
L 118.7 115.4
Q 118.35 115.65 117.9 115.9 117.65 115.9 117.1 115.9 116.85 115.65 116.5 115.65 115.8 115.3 115.45 114.85 115.45 114.6 115.25 114.6 115 114.05 115.25 113.6 115.45 113.45 115.8 113.25 116.05 113.25 116.05 113 116.85 113 117.45 113.25
M 173.7 11.9
Q 173.2 9.95 172.4 8.45
L 172.4 8.35
Q 172.2 7.9 171.85 7.3 170.55 5.25 168.5 3.6 168.15 3.4 167.7 3.05
L 167.55 3.05
Q 166.3 2.25 164.9 1.75 164.1 1.4 163.4 1.2 160.75 0.6 158.35 0.6 158.25 0.4 158.25 0.6 155.95 0.4 152.1 1.2 148.45 1.75 142.55 4.2 136.8 6.5 122.05 15.6 107.15 24.6 96.8 35.9 94.7 37.6 93.55 39.35 91.25 42.1 90.7 44.4 90.35 45.7 90.7 46.7 90.7 46.95 90.7 47.05 90.9 46.6 91.6 46.05 93.7 43.5 99.7 37.4 111.2 25.4 133 14 128.25 21.25 124.8 25.95 119.4 34.15 111.2 40.85
L 110.95 40.85
Q 110.65 41.2 110.05 41.9 109.35 42.25 108.8 42.7 108.55 42.8 108.55 43.05 108.3 43.05 108.2 43.25 108 43.25 108 43.5 107.75 43.5 107.5 43.6
L 107.4 43.85
Q 101.15 48.35 93 53.65 92.55 53.85 92.05 54.2 92.3 53.4 91.95 53.4
L 91.7 53.4
Q 91.7 55 91.7 56.85 92.4 56.5 93 56.4 93 56.3 93.1 56.3 99.2 53.05 109.15 47.05 109.35 46.95 109.6 46.95 109.6 46.7 109.8 46.7 110.05 46.5 110.15 46.5 110.15 46.25 110.4 46.25 110.65 46.25 110.85 46.15 110.95 45.9 111.2 45.9 112.25 45.9 113.3 45.9 154.55 48.35 157.3 44.4 156.95 47.05 156.15 49.15 154.75 52.35 152.95 55 151.65 56.65 150.05 58.15 149 58.7 147.95 59.3 145.2 60.8 141.3 60.55
L 141.05 60.55
Q 113.85 55.7 92.9 57.1 92.3 57.1 91.7 57.1
L 91.7 58.15
Q 91.95 58 92.9 58 96.45 58 109.8 59.5 129.75 61.6 138.4 64.6 147.4 67.7 150.3 67
L 150.6 67 150.85 66.8
Q 156.75 65.4 159.95 59.75
L 160.2 59.5
Q 161.7 57.1 162.6 53.85 162.85 52.25 163.05 50.55 163.05 50.4 163.3 50.2 163.9 46.25 164.1 42.25 164.45 38.75 166.05 35.1 166.55 34.5 166.75 33.7 168.4 30.8 169.55 28.4
L 169.75 28.4
Q 171.35 24.95 172.4 22.05
L 172.4 21.95
Q 173.8 17.8 173.8 14.8
L 173.8 14.55
Q 173.8 13.2 173.7 11.9
M 167.7 4.9
Q 167.9 5.25 167.9 5.7 168.15 5.7 167.9 5.8
L 167.9 6.05
Q 167.7 6.05 167.7 6.25 167.55 6.25 167.1 6.25 166.75 6.05 166.55 5.7 166.05 5.45 166.05 5 166.05 4.65 166.3 4.4 166.55 4.2 166.9 4.2 167.35 4.4 167.7 4.9
M 165.5 6.5
Q 166.3 7.9 166.75 9.5 166.9 9.7 166.9 10.05 167.35 11.9 167.1 13.75 166.75 15.6 165.5 17 164.7 18 163.4 19.05 162.5 19.65 160.2 20.45 152.7 7.05 137 10.75 148.2 3.6 158.25 2.8 163.05 2.8 165.5 6.5
M 171.05 7.9
Q 171.35 8.35 171.35 8.9 171.6 9.5 171.35 9.95 171.35 10.05 171.35 10.3 171.15 10.55 171.05 10.55 170.55 10.75 170.2 10.3 169.75 9.95 169.55 9.25 169.4 8.9 169.55 8.35 169.75 8.1 169.75 7.9 170 7.65 170.2 7.65 170.55 7.65 171.05 7.9
M 171.15 13.2
Q 171.6 13.2 171.95 13.55
L 171.95 14
Q 172.2 14.2 171.95 14.8 171.95 15.35 171.85 15.85 171.35 16.05 171.15 16.05
L 171.05 16.05
Q 170.55 16.05 170.35 15.6 170.2 15.15 170.2 14.55 170.2 14 170.55 13.55 171.05 13.2 171.15 13.2
M 169.75 19.5
Q 170.2 19.5 170.35 20.1 170.35 20.45 170.2 21.15 170 21.7 169.55 21.95 169.2 22.05 168.7 22.05 168.5 22.05 168.5 21.95 168.4 21.95 168.4 21.5
L 168.4 21.25
Q 168.15 20.9 168.4 20.35 168.5 20.1 168.7 19.65 168.95 19.65 169.2 19.5
L 169.4 19.3
Q 169.55 19.3 169.75 19.5
M 167.1 25.4
Q 167.55 25.5 167.55 25.95 167.55 26.55 167.35 27.25 167.1 27.8 166.55 28.15 165.95 28.65 165.5 28.4 165.25 28.15 165.05 28.05 165.05 27.8 164.9 27.6 164.9 27 165.05 26.2 165.5 25.5 165.95 25.15 166.05 25.15 166.3 25.15 166.55 24.95 166.9 25.15 167.1 25.15 167.1 25.4
M 162.85 35.9
Q 162.5 35.75 162.05 35.1 161.8 34.5 162.05 33.7 162.25 33.1 162.6 32.65 163.05 32.3 163.65 32.3 164.1 32.45 164.25 32.9 164.45 33.7 164.45 34.25 164.25 35.1 163.65 35.55 163.3 35.9 162.85 35.9
M 151.9 16.2
Q 155.35 18.5 156.75 22.3 152.7 23.9 148.45 24.95 143.35 26.2 137.85 27.25 133.2 28.05 128.5 28.4 129.05 27.35 129.75 26.45 132.55 22.05 134.6 17.45
L 136.2 13.75
Q 140.25 13.2 144.4 13.55 148.65 13.75 151.9 16.2
M 127.25 30.8
Q 127.9 30.8 128.5 30.8 139.1 31.3 157.3 26.45 157.55 26.2 157.75 26.2 159.15 30.45 159.15 33.7 159.15 36.35 158.35 38.4
L 158.25 38.4
Q 157.3 39.25 155.6 39.8 146.6 43.05 113.4 43.6 120.75 39.8 127.25 30.8
M 161 40.05
L 161.25 40.05
Q 161.45 40.05 161.45 40.15 161.7 40.15 161.8 40.6 162.05 41.2 162.05 41.9 162.05 42.7 161.7 43.05 161.25 43.6 160.75 43.6 160.4 43.6 159.95 43.05 159.85 42.45 159.85 41.9 159.85 40.95 160.2 40.6
L 160.2 40.4
Q 160.65 40.05 161 40.05
M 160.2 48.35
Q 160.75 48.55 161 49.15 161.25 49.6 161 49.95 161 50.4 161 50.75 160.75 51.35 159.95 52 159.4 52.35 159.05 52.25 158.35 52.25 158.25 51.35 157.75 50.75 158.25 49.95 158.35 49.15 159.05 48.55 159.6 48.1 160.2 48.35
M 154.55 57.9
Q 154.3 57.35 154.9 56.5 155.35 55.85 156.15 55.5 156.75 55.25 157.3 55.6 158 55.85 158 56.65 158 57.35 157.3 58.15 156.95 58.7 156.4 59.05 155.6 59.3 154.9 58.95
L 154.75 58.95
Q 154.55 58.5 154.55 57.9
M 149 61.6
Q 149.6 61.15 150.5 61.15 151.1 61.35 151.3 61.7 151.65 62.15 151.45 62.75 151.3 63.45 150.5 63.55 150.05 64 149.8 64 149.6 64 149.25 64 148.65 64 148.2 63.45 147.95 63.2 148.2 62.4 148.65 61.95 149 61.6 Z"/>

<path fill="#666666" stroke="none" d="
M 87.25 37.6
Q 86.65 37.6 86.2 37.75 85.95 37.75 85.6 37.95 85.15 38.2 84.8 38.65 83.75 39.45 83.75 40.85 83.75 42.1 84.8 43.05 84.25 43.75 83.75 44.3 83.65 44.4 83.65 44.65 83.9 45.8 83.65 46.7 83.65 46.95 83.65 47.05 84.25 48.1 83.4 47.55
L 83.4 47.75
Q 83.2 48.55 82.95 49.35
L 82.15 53.4
Q 82.4 53.4 82.6 53.4 82.4 55 82.6 56.85
L 82.6 57.1 82.6 58.15
Q 82.25 58 81.45 58 81.45 58.35 81.45 58.85 82.05 58.7 82.6 58.7 82.6 58.95 82.6 59.3
L 82.6 59.5
Q 82.6 60.8 82.6 62.15 82.6 62.75 82.6 63.45
L 82.6 63.65
Q 82.6 64.6 82.6 65.85 82.75 66.1 82.75 66.2 82.75 67.1 82.75 67.7 82.75 68.75 82.95 69.65 83.2 71.4 83.55 73 84 76.8 85.05 80.5 85.15 81.05 85.4 81.9 85.05 82.7 84.8 83.5
L 85.85 109.3 88.6 109.3 89.55 83.6
Q 89.2 82.7 88.85 81.9 89.05 81.05 89.2 80.5 90.2 76.8 90.8 73 91.05 71.4 91.5 69.65 91.5 68.75 91.6 67.7 91.6 67.1 91.6 66.2 91.6 66.1 91.6 65.85 91.6 64.6 91.85 63.65
L 91.85 63.45
Q 91.85 62.75 91.85 62.15 91.85 60.8 91.85 59.5
L 91.85 59.3
Q 91.85 58.95 91.85 58.7 92.4 58.7 92.9 58.85 92.9 58.35 92.9 58 91.95 58 91.7 58.15
L 91.7 57.1 91.7 56.85
Q 91.7 55 91.7 53.4
L 91.95 53.4 91.25 49.35
Q 91.05 48.55 90.9 47.75
L 90.9 47.55
Q 89.9 48.1 90.7 47.05 90.7 46.95 90.7 46.7 90.35 45.7 90.7 44.4
L 90.7 44.3
Q 90.2 43.75 89.65 43.05 90.45 42.1 90.45 40.85 90.45 39.45 89.4 38.65 89.3 38.2 88.85 37.95 88.6 37.95 88.5 37.75 87.8 37.6 87.25 37.6 Z"/>

<path fill="#996600" stroke="none" d="
M 87.45 112.75
Q 88.25 112.45 88.6 109.3
L 85.85 109.3
Q 85.95 112.45 87 112.75
L 87.45 112.75 Z"/>
</g>

<g id="Layer0_0_FILL">
<path fill="#666666" stroke="none" d="
M 82.3 47.55
Q 82.1 48.15 81.9 48.95 81.5 50.4 81.5 52 81.3 54.45 81.3 57.1 81.5 59.75 81.7 62.35 81.9 64.4 82.3 66.85 82.5 69.5 82.95 71.95 83.35 74.8 83.75 77.4 83.75 78.05 83.95 78.45 84.15 79.25 84.55 79.85
L 85.8 109.35
Q 86 112.4 87 112.8
L 87.4 112.8
Q 88.2 112.4 88.6 109.35
L 89.65 79.85
Q 90.25 79.25 90.25 78.45 90.45 78.05 90.65 77.4 91.05 74.8 91.45 71.95 91.9 69.5 92.1 66.85 92.5 64.4 92.5 62.35 92.9 59.75 92.9 57.1 93.1 54.45 92.9 52 92.7 50.4 92.5 48.95 92.5 48.55 92.3 48.15 90.25 49.75 87.8 49.75 84.55 49.75 82.3 47.55
M 90.45 40.8
Q 90.45 39.4 89.45 38.6 89.25 38.2 88.85 38 88.6 38 88.4 37.75 87.8 37.55 87.2 37.55 86.6 37.55 86.2 37.75 86 37.75 85.55 38 85.15 38.2 84.75 38.6 83.75 39.4 83.75 40.8 83.75 42.05 84.75 43.05 85.55 43.85 86.8 44.1 87 44.1 87.2 44.1 87.4 44.1 87.6 44.1 88.6 43.85 89.45 43.05
L 89.65 43.05
Q 90.45 42.05 90.45 40.8 Z"/>

<path fill="#333333" stroke="none" d="
M 89.65 43.05
L 89.45 43.05
Q 88.6 43.85 87.6 44.1 87.4 44.1 87.2 44.1 87 44.1 86.8 44.1 85.55 43.85 84.75 43.05 84.15 43.65 83.75 44.3 82.75 45.9 82.3 47.55 84.55 49.75 87.8 49.75 90.25 49.75 92.3 48.15 91.65 46.1 90.65 44.3 90.25 43.65 89.65 43.05 Z"/>

<path fill="#000000" stroke="none" d="
M 86 36.95
Q 85.15 35.15 83.75 32.7 82.3 30.05 79.7 26.4 76.85 22.55 73.4 19.25 69.7 15.6 68.3 15.4 66.65 15.2 65.65 16 64.65 17.05 64.65 18.45 64.65 19.7 65.45 20.7 66.25 22.1 67.9 21.9 69.5 21.7 69.5 19.7 69.7 18.85 69.1 18.45 68.7 17.85 67.7 18.05
L 67.7 17.85
Q 67.3 17.45 66.65 17.45 66.05 17.45 65.85 17.65
L 65.85 18.65
Q 66.25 19.05 66.85 19.05 67.5 19.05 67.7 18.85
L 67.7 18.65
Q 68.5 18.45 68.7 18.85 69.1 19.05 69.1 19.7 69.1 21.1 67.9 21.3 66.45 21.3 65.85 20.5 65.25 19.5 65.25 18.45 65.25 17.25 66.05 16.65 66.85 15.8 68.3 16 69.5 16.2 72.95 19.5 76.4 22.95 79.05 26.8 81.9 30.45 83.35 32.9 84.75 35.35 85.35 37.15 85.35 37.55 85.55 38 86 37.75 86.2 37.75 86 37.35 86 36.95
M 109.75 18.45
Q 109.75 17.05 108.75 16 107.95 15.2 106.1 15.4 104.7 15.6 101 19.25 97.55 22.55 94.95 26.4 92.1 30.05 90.65 32.7 89.25 35.15 88.6 36.95 88.4 37.35 88.4 37.75 88.6 38 88.85 38 89.05 37.55 89.25 37.15 89.85 35.35 91.25 32.9
L 91.05 32.9
Q 92.5 30.45 95.35 26.8 98.2 22.95 101.45 19.5 104.9 16.2 106.3 16 107.75 15.8 108.55 16.65 109.35 17.25 109.35 18.45 109.35 19.5 108.55 20.5 107.95 21.3 106.7 21.3 105.5 21.1 105.5 19.7 105.5 19.05 105.7 18.85 106.1 18.45 106.7 18.65
L 106.9 18.65 106.9 18.85
Q 107.1 19.05 107.75 19.05 108.35 19.05 108.55 18.65
L 108.55 17.65
Q 108.35 17.45 107.75 17.45 107.1 17.45 106.9 17.85
L 106.9 18.05
Q 105.9 17.85 105.5 18.45 104.9 18.85 104.9 19.7 105.1 21.7 106.7 21.9 108.35 22.1 108.95 20.7 109.75 19.7 109.75 18.45 Z"/>
</g>
</defs>

<g transform="matrix( 1, 0, 0, 1, 0,0) ">
<use xlink:href="#Layer2_0_FILL"/>
</g>

<g transform="matrix( 1, 0, 0, 1, 0,0) ">
<use xlink:href="#Layer1_0_FILL"/>
</g>

<g transform="matrix( 1, 0, 0, 1, 0,0) ">
<use xlink:href="#Layer0_0_FILL"/>
</g>
</svg>
