
<svg xmlns="http://www.w3.org/2000/svg" version="1.1" xmlns:xlink="http://www.w3.org/1999/xlink" preserveAspectRatio="none" x="0px" y="0px" width="163px" height="163px" viewBox="0 0 163 163">
<defs>
<linearGradient id="Gradient_1" gradientUnits="userSpaceOnUse" x1="74.35" y1="-12.400000000000006" x2="74.35" y2="165.8" spreadMethod="pad">
<stop  offset="0%" stop-color="#FFFFFF"/>

<stop  offset="100%" stop-color="#3D9DDE"/>
</linearGradient>

<g id="Mask_caixa_06_0_3_MASK_0_FILL">
<path fill="#FFFFFF" stroke="none" d="
M 149.8 8
Q 149.8 0 141.8 0
L 8 0
Q 0 0 0 8
L 0 141.8
Q 0 149.8 8 149.8
L 141.8 149.8
Q 149.8 149.8 149.8 141.8
L 149.8 8 Z"/>
</g>

<g id="caixa_06_0_Layer3_0_FILL">
<path fill="url(#Gradient_1)" stroke="none" d="
M 162.9 -4.4
Q 162.9 -12.4 154.9 -12.4
L -6.2 -12.4
Q -14.2 -12.4 -14.2 -4.4
L -14.2 157.8
Q -14.2 165.8 -6.2 165.8
L 154.9 165.8
Q 162.9 165.8 162.9 157.8
L 162.9 -4.4 Z"/>
</g>

<g id="caixa_06_0_Layer2_0_MEMBER_0_MEMBER_0_FILL">
<path fill="#D0E2DE" stroke="none" d="
M 46.5 39.35
L 47.5 39.5
Q 50.25 35.85 54.35 33.8 57.85 32.15 61.6 31.3
L 61.65 31.3
Q 62.05 31.2 62.55 31.1 64 30.75 65.5 30.65 67.95 30.45 70.4 30.95 74.95 31.95 78.85 34.7 78.7 34.55 78.6 34.45 77.3 33.1 75.5 31.95 74.85 31.65 74.3 31.4 72.5 30.55 70.7 30.25 68.85 30 67.15 29.9 66.25 29.9 65.4 29.9 65.3 29.9 65.25 29.9 65.2 29.9 65.1 29.9 63.25 29.9 61.5 30.15 53.15 31.3 47.9 37.5 47.15 38.35 46.5 39.35
M 70.75 94.1
Q 70.75 94.35 70.85 94.85 70.95 95.45 71.15 96.45 71.55 98.15 71.5 98.6 71.5 99.6 72.05 99.95 72.55 100.25 73.9 100.25 74.8 100.25 75.3 99.65 75.6 99.2 75.75 98.55 75.8 98.45 75.8 98.35 75.9 97.8 75.9 95.4 75.9 93.15 74.95 92.55
L 74.85 92.5
Q 73.45 92.05 72.2 91.55 72.1 91.65 72 91.65 71.6 91.95 71.4 92.2 70.75 92.9 70.75 94.1
M 81.15 71.35
Q 81.35 71.05 81.4 70.25 81.4 70.05 81.4 69.85 81.4 66.95 80.3 66.2 80.25 66.15 80.2 66.15
L 78.4 65.8
Q 77 66.2 76.3 66.65 75.05 67.5 75.05 68.9 75.05 69.5 75.25 69.75 75.3 69.95 75.45 70 76.4 70.2 77.4 71.15 77.65 71.4 79 71.7 79.35 71.8 79.85 71.9 80.85 71.9 81.15 71.35 Z"/>

<path fill="#6A938A" stroke="none" d="
M 45.6 40.65
Q 46.2 40.6 46.85 40.7 46.9 40.7 47 40.7 49.55 41.05 52.3 43.25 56.8 46.85 58.5 50.25 58.6 50.55 58.7 50.75 58.9 51.15 59.15 51.6 59.35 51.8 59.5 52.05 60.4 53.1 62.05 54.35 62.75 54.85 63.4 55.35
L 63.45 55.4
Q 64.05 55.95 64.6 56.5 65.45 57.4 66 58.3 66.95 60 67.5 61.8 67.65 62.05 67.7 62.35 67.75 62.6 67.85 62.75 68.3 64.7 68.15 67.5 68 70.5 66.3 74.05 66.25 74.15 66.2 74.25 65.5 75.85 65 77.45 64.95 77.6 64.9 77.75 64.55 79 64.35 80.3 64.25 80.8 64.25 81.3 64.3 81.7 64.15 82.65 63.95 83.65 64.4 84.95 64.45 85.3 64.55 85.65 64.65 86.4 64.65 87.05 64.6 87.3 64.6 87.55 64.45 88.85 63.85 90.55 63.25 92.2 63.25 94.9 63.25 95.6 63.25 96.15 63.25 96.4 63.25 96.65 63.25 96.95 63.25 97.2 63.25 98 63.35 98.45 63.35 98.7 63.4 99.15 63.4 99.35 63.4 99.5 63.4 99.7 63.4 100.05 63.4 100.6 63.45 101.35 63.45 103.35 62.65 107.7 62.6 107.9 62.6 108.05 62.55 108.35 62.45 108.65 62.25 109.45 61.85 110.3 61.75 110.45 61.75 110.55 61.55 110.85 61.35 111.2 61.25 111.3 61.2 111.5 61.15 111.55 61.1 111.6 60.95 111.8 60.85 111.95 60.6 112.35 59.1 113.45 53.9 115.15 56.45 116.25 57.45 116.45 58.35 116.45 59.45 115.55 60.55 114.3 61.35 113.5 61.95 112.7 62.05 112.6 62.1 112.5 63.6 110.55 64.3 108.75 64.9 107.15 64.9 105.7 64.9 104.6 64.9 103.85
L 64.9 103.8
Q 64.85 103.45 64.85 103.25
L 64.75 100.1
Q 64.9 99.25 65 98.2 64.95 98.15 65 98.1 65 97.1 65 95.9 65 95.8 65 95.75 64.85 92.2 64.9 92.05 65.3 88.6 68.35 86.95 68.8 86.65 69.35 86.5 72.3 85.25 77.05 85.5
L 77.05 84.95
Q 76.8 84.5 76.65 84.2 76.15 83.4 75.8 83.3 75.55 83.15 73.65 83.15 71.35 83.15 70.25 83.95 68.75 85.15 66.75 85.6
L 65.1 85.6 65.1 83.15
Q 65.45 82 66.4 79.15 66.95 77.5 67.7 75.15 67.75 75 67.85 74.8 68.15 73.9 68.5 72.85 69.05 71.25 69.3 69.35 69.35 68.5 69.45 67.6 69.45 67.55 69.45 67.5 69.55 66.4 69.55 65.15 69.55 63.2 69.5 63.05 69 61.75 68.75 60.85 68.55 60.4 68.45 60.05 68.35 59.9 68.35 59.7 68.2 59.3 68 58.9 67.7 58.1 67.15 57.45 66.1 56.2 65.9 55.75 65.8 55.5 65.6 55.25 65.15 54.5 64.4 53.7 63.6 52.9 62.85 52.4 61.5 51.55 60.9 51.1 60.7 51 60.45 50.8 59.85 50.3 59.65 49.85 59.5 49.45 59.3 49.1 59.25 48.95 59.2 48.85 58.5 47.55 57.45 46.4 57.15 46.1 56.9 45.8 55.35 44.2 54.2 42.9 52.5 41.05 49.8 40.35 47.85 40 46.25 39.7 46.1 39.9 45.95 40.15 45.8 40.35 45.6 40.65
M 83.4 73.9
Q 85.4 70.4 85.65 69.05 83.6 72.15 82.25 74.05 82.1 74.3 81.95 74.5 78.45 79.85 78.45 82.95 78.45 83.75 78.6 84.65 78.95 86.1 79.75 87.9 80.5 89.7 80.85 91 80.7 90.1 80.65 89.1 80.6 88.85 80.55 88.6 80.4 87.05 80.1 85.3 80.05 85.15 80.1 85.05
L 80.1 85
Q 80.05 84.1 80.05 82.4 80.05 82.35 80.05 82.25 80.05 79.45 82.75 75 82.75 74.95 82.8 74.9 83.1 74.4 83.4 73.9
M 85.15 60.5
Q 85.1 60.45 85 60.45 83.85 60.05 81.55 58.35 80.4 57.45 79.2 56.95 77.45 56.15 75.75 56.15 73.9 56.15 73.3 56.45 70.8 57.6 70.55 57.75
L 70.4 57.85
Q 71.9 58.15 74.5 58.35 76.3 58.6 77.95 59.45 78.5 59.7 79 60.05 80.15 60.8 83.1 62.05 83.35 62.2 83.65 62.3 84.2 62.55 84.75 62.75 84.55 61.45 85.15 60.5
M 82.25 43.2
Q 81.9 43.2 81.3 43.1 81.05 43.1 80.8 43.05 79.9 42.8 78.6 42.35 78.4 42.3 78.25 42.25 77.25 41.95 76.05 41.8 75.75 41.75 75.45 41.75 75 41.65 74.55 41.6 73.8 41.75 73.05 41.85 71.35 42.25 68.55 42.25 65.7 42.25 65.4 42.3 62.95 42.6 62.95 43.95
L 65.6 44.2
Q 66.85 44.15 69.05 44.15 69.35 44.15 69.75 44.15 69.95 44.15 70.15 44.15 73.35 44.15 73.9 44.25 74.25 44.25 75.45 44.5 76.1 44.55 77 44.7 78.5 44.9 80.7 45.25 81.1 45.4 81.5 45.6 82.25 45.6 83.05 45.6 83.65 45.6 84.15 45.65 85.5 45.75 86.5 45.95
L 85.75 45.05 85.75 45
Q 85.35 44.8 85 44.7 84.8 44.6 84.7 44.6
L 84.65 44.6
Q 84.65 44.55 84.6 44.55 83.3 44.1 81.95 43.8 81.5 43.7 81.15 43.6 80.9 43.55 80.7 43.5 79.35 43.2 77.85 43 76.85 42.85 75.85 42.75 74.25 42.6 72.65 42.6
L 72.6 42.6
Q 69.85 42.45 66.9 42.7 69.85 42.45 72.6 42.6
L 72.65 42.6
Q 74.25 42.6 75.85 42.75 76.85 42.85 77.85 43 79.35 43.2 80.7 43.5 80.9 43.55 81.15 43.6 81.5 43.7 81.95 43.8 83.3 44.1 84.6 44.55 84.65 44.55 84.65 44.6
L 84.7 44.6
Q 84.8 44.6 85 44.7 85.35 44.8 85.75 45
L 85.8 45
Q 86.1 44.1 86.05 43.45 85.7 43.4 85.35 43.3 84.35 43 83.5 42.7 83.35 42.7 83.2 42.65 83.15 42.8 83.1 42.9 82.95 43.2 82.45 43.2 82.35 43.2 82.25 43.2 Z"/>

<path fill="#336600" stroke="none" d="
M 64.25 22.85
Q 64.4 21.95 65 20.6
L 65 20.15
Q 64.15 20.65 63.9 20.95 63.5 21.3 63.25 21.5 62.7 22 62.65 22.25 62.55 22.8 62.55 23.6 62.55 24.05 62.6 24.85 62.6 24.95 62.55 26.35 62.5 27.2 62.6 27.6 62.65 28.2 62.05 28.7 61.4 29.25 61.5 30.15 63.25 29.9 65.1 29.9 65.2 29.9 65.25 29.9 65.3 29.9 65.4 29.9 65.4 29.5 65.25 29.2 65.1 28.85 64.75 28.55 64.45 28.2 64.3 27.85 64.15 27.4 64.15 26.25 64.25 25.15 64.25 25.05 64.25 23.2 64.25 22.85 Z"/>

<path fill="#B9D2CD" stroke="none" d="
M 81.85 45.75
Q 81.7 45.65 81.5 45.6 81.1 45.4 80.7 45.25 78.5 44.9 77 44.7 76.1 44.55 75.45 44.5 74.25 44.25 73.9 44.25 73.35 44.15 70.15 44.15 69.95 44.15 69.75 44.15 69.35 44.15 69.05 44.15 66.85 44.15 65.6 44.2 64.2 44.2 64 44.25 63.95 44.25 63.85 44.25 62.2 44.6 62.2 46.3 62.2 46.95 62.6 47.45 63.6 49.05 67.95 49.35 69 49.4 70.2 49.5 71.25 49.55 72.5 49.6 73.3 49.65 74.2 49.7 75 49.7 75.9 49.75 78.8 50.45 81.5 52.55 81.55 52.6 81.65 52.65 83.4 54 84.25 54.75 85 55.25 85.15 55.3
L 85.9 55.3
Q 86.3 54.55 86.65 53.85 87.25 52.6 87.25 51.85 87.25 49.1 83.85 46.85
L 83.8 46.85
Q 83.75 46.8 83.65 46.75 83.55 46.65 83.4 46.65 82.7 46.15 81.85 45.75
M 82 40.75
Q 81.9 40.7 81.8 40.7 81.55 40.55 81.25 40.45 80.85 40.3 80.4 40.2 80 40.1 79.35 39.95 78.8 39.9 78.15 39.85 77.45 39.75 76.55 39.7 75.9 39.65 75.25 39.6 75 39.6 74.75 39.55 73.85 39.5 73 39.45 69.6 39.3 66.65 39.3 66.55 39.3 66.5 39.3 66.45 39.3 66.4 39.3 65.6 39.35 64.75 39.45 64.25 39.55 63.7 39.7 63.3 39.8 62.9 39.95 61.2 40.5 60.45 41.35
L 60.45 42.45
Q 61 42.8 61.25 42.85 61.4 42.85 61.8 42.75 61.85 42.75 62.35 42.7 63.1 42.55 65 42.15 65.85 42 66.8 41.85
L 66.85 41.85
Q 69.25 41.5 71.5 41.5 72.05 41.5 72.6 41.55 72.7 41.5 72.8 41.55
L 72.85 41.55
Q 73.75 41.55 74.55 41.6 75 41.65 75.45 41.75 75.75 41.75 76.05 41.8 77.25 41.95 78.25 42.25 78.4 42.3 78.6 42.35 79.9 42.8 80.8 43.05 81.05 43.1 81.3 43.1 81.9 43.2 82.25 43.2 82.35 43.2 82.45 43.2 82.95 43.2 83.1 42.9 83.15 42.8 83.2 42.65 83.25 42.5 83.25 42.35
L 83.25 42.25
Q 83.25 41.7 82.75 41.25 82.45 40.95 82 40.75
M 67.65 93.55
Q 67.65 94.1 67.7 94.75 67.7 95.15 67.75 95.6 67.8 96.05 67.85 96.5 68 97.3 68.2 98 68.75 100.25 68.75 102.4 68.75 104.85 66.75 108.25 67.05 109.95 69.8 108.35 71.7 107.3 72.8 106.35 73.3 105.85 73.65 105.35 74.75 103.9 75.45 103.3 76.2 102.7 77.25 100.95
L 77.25 100.9
Q 77.25 100.85 77.35 100.75 78.2 99.3 78.3 98.95 78.75 97.45 78.95 96.25 79.05 95.4 79.05 94.65 79.05 92.9 79 92.2 78.95 92 78.9 91.85 78.8 91.35 78.15 90.35 77.9 89.9 77.5 89.3 77.25 88.9 76.85 88.7 76.45 88.45 75.85 88.4
L 75.65 88.4
Q 75.55 88.4 75.3 88.4 75 88.35 74.5 88.3 74 88.3 73.35 88.15 73.25 88.15 73.15 88.15 72.6 88.15 72.15 88.2 69.5 88.4 68.45 89.9 67.65 91.1 67.65 93.55
M 70.85 94.85
Q 70.75 94.35 70.75 94.1 70.75 92.9 71.4 92.2 71.6 91.95 72 91.65 72.1 91.65 72.2 91.55 73.45 92.05 74.85 92.5
L 74.95 92.55
Q 75.9 93.15 75.9 95.4 75.9 97.8 75.8 98.35 75.8 98.45 75.75 98.55 75.6 99.2 75.3 99.65 74.8 100.25 73.9 100.25 72.55 100.25 72.05 99.95 71.5 99.6 71.5 98.6 71.55 98.15 71.15 96.45 70.95 95.45 70.85 94.85
M 57.45 35.6
Q 56.35 36.35 55.85 36.7 55.1 37.3 55.1 37.75 55.1 38.8 56.7 39.15 57 39.25 57.55 39.3 58.25 39.35 59.5 39.35 59.7 39.35 64.15 38.7 64.35 38.65 64.6 38.6
L 64.65 38.6
Q 65 38.55 65.3 38.5 65.8 38.45 66.3 38.4
L 66.35 38.35
Q 71 37.7 71.9 37.7 72.35 37.7 73.1 37.95 73.6 38.05 74.2 37.95 74.45 37.8 74.8 37.65 76.85 37.6 77.2 36.7 77.25 36.55 77.25 36.4 75.65 33.95 72.2 32.45 71.6 32.2 71.1 31.95
L 70.7 31.85
Q 68.8 31.2 66.85 31 66 30.95 65.2 30.95 63.5 30.95 61.65 31.45 59.5 32 58.6 32.9 58 33.5 57.85 34.5 57.7 35.35 57.45 35.6
M 82.75 64.4
Q 82.75 64.3 82.7 64.25 82.15 63.7 81.55 63.4 81.2 63.35 80.7 63.35 78.55 63.35 76.6 64.15 75.75 64.5 75 64.95 74.4 65.3 73.75 65.8 71.25 67.75 70.75 69.6 70.65 70 70.65 70.45 70.65 70.85 71.2 71.3 71.55 71.6 72.15 71.9 72.35 72 72.6 72.1 74.65 73 75.35 73.9 75.45 74 75.55 74.1 75.95 74.75 76.15 75.9 76.35 76.85 76.65 77 76.9 77.15 78.7 77.5 79.8 77.5 81.7 74.4
L 81.7 74.35
Q 81.95 73.85 82.25 73.25 82.55 72.7 82.8 72.25 82.8 72.2 82.85 72.15 84.35 69.25 84.35 68.4 84.35 66.1 82.75 64.4
M 81.4 70.25
Q 81.35 71.05 81.15 71.35 80.85 71.9 79.85 71.9 79.35 71.8 79 71.7 77.65 71.4 77.4 71.15 76.4 70.2 75.45 70 75.3 69.95 75.25 69.75 75.05 69.5 75.05 68.9 75.05 67.5 76.3 66.65 77 66.2 78.4 65.8
L 80.2 66.15
Q 80.25 66.15 80.3 66.2 81.4 66.95 81.4 69.85 81.4 70.05 81.4 70.25 Z"/>

<path fill="#A8BFBA" stroke="none" d="
M 82.05 39.05
Q 81.75 38.65 81.6 38.3 81.25 37.65 80.7 36.95 80 35.85 78.85 34.7 74.95 31.95 70.4 30.95 67.95 30.45 65.5 30.65 64 30.75 62.55 31.1 62.05 31.2 61.65 31.3
L 61.6 31.3
Q 57.85 32.15 54.35 33.8 50.25 35.85 47.5 39.5
L 46.5 39.35
Q 46.35 39.5 46.25 39.7 47.85 40 49.8 40.35 52.5 41.05 54.2 42.9 55.35 44.2 56.9 45.8 57.15 46.1 57.45 46.4 58.5 47.55 59.2 48.85 59.25 48.95 59.3 49.1 59.5 49.45 59.65 49.85 59.85 50.3 60.45 50.8 60.7 51 60.9 51.1 61.5 51.55 62.85 52.4 63.6 52.9 64.4 53.7 65.15 54.5 65.6 55.25 65.8 55.5 65.9 55.75 66.1 56.2 67.15 57.45 67.7 58.1 68 58.9 68.2 59.3 68.35 59.7 68.35 59.9 68.45 60.05 68.55 60.4 68.75 60.85 69 61.75 69.5 63.05 69.55 63.2 69.55 65.15 69.55 66.4 69.45 67.5 69.45 67.55 69.45 67.6 69.35 68.5 69.3 69.35 69.05 71.25 68.5 72.85 68.15 73.9 67.85 74.8 67.75 75 67.7 75.15 66.95 77.5 66.4 79.15 65.45 82 65.1 83.15
L 65.1 85.6 66.75 85.6
Q 68.75 85.15 70.25 83.95 71.35 83.15 73.65 83.15 75.55 83.15 75.8 83.3 76.15 83.4 76.65 84.2 76.8 84.5 77.05 84.95
L 77.05 85.5
Q 72.3 85.25 69.35 86.5 68.8 86.65 68.35 86.95 65.3 88.6 64.9 92.05 64.85 92.2 65 95.75 65 95.8 65 95.9 65 97.1 65 98.1 64.95 98.15 65 98.2 64.9 99.25 64.75 100.1
L 64.85 103.25
Q 64.85 103.45 64.9 103.8
L 64.9 103.85
Q 64.9 104.6 64.9 105.7 64.9 107.15 64.3 108.75 63.6 110.55 62.1 112.5 62.05 112.6 61.95 112.7 61.35 113.5 60.55 114.3 59.45 115.55 58.35 116.45 61.55 116.55 64.3 114.8 64.45 114.7 64.6 114.55 64.7 114.5 64.75 114.45 67 112.9 69.2 111.45 70.55 110.55 71.85 109.7 72.6 109.2 73.35 108.6 73.95 108.1 74.5 107.55 75.9 106.15 77.05 104.35 78.9 101.95 79.9 99.7 79.9 99.65 79.9 99.6 79.95 99.55 80 99.5 80 99.45 80 99.4 80.15 99.05 80.3 98.65 80.85 96.95 80.9 95.4 80.95 94.8 80.95 94.25 80.95 92.65 80.85 91 80.5 89.7 79.75 87.9 78.95 86.1 78.6 84.65 78.45 83.75 78.45 82.95 78.45 79.85 81.95 74.5 82.1 74.3 82.25 74.05 83.6 72.15 85.65 69.05 85.65 68.95 85.65 68.9 85.75 68.05 85.8 67.4 85.8 66.9 85.8 66.5 85.7 65.55 85.55 65.1 85.45 64.85 85.35 64.6 85.25 64.35 85.15 64.15 84.85 63.45 84.75 62.9 84.75 62.8 84.75 62.75 84.2 62.55 83.65 62.3 83.35 62.2 83.1 62.05 80.15 60.8 79 60.05 78.5 59.7 77.95 59.45 76.3 58.6 74.5 58.35 71.9 58.15 70.4 57.85
L 70.55 57.75
Q 70.8 57.6 73.3 56.45 73.9 56.15 75.75 56.15 77.45 56.15 79.2 56.95 80.4 57.45 81.55 58.35 83.85 60.05 85 60.45
L 85.5 60 88.4 56.75
Q 90.85 52.5 88.4 48.15
L 86.5 45.95
Q 85.5 45.75 84.15 45.65 83.65 45.6 83.05 45.6 82.25 45.6 81.5 45.6 81.7 45.65 81.85 45.75 82.7 46.15 83.4 46.65 83.55 46.65 83.65 46.75 83.75 46.8 83.8 46.85
L 83.85 46.85
Q 87.25 49.1 87.25 51.85 87.25 52.6 86.65 53.85 86.3 54.55 85.9 55.3
L 85.15 55.3
Q 85 55.25 84.25 54.75 83.4 54 81.65 52.65 81.55 52.6 81.5 52.55 78.8 50.45 75.9 49.75 75 49.7 74.2 49.7 73.3 49.65 72.5 49.6 71.25 49.55 70.2 49.5 69 49.4 67.95 49.35 63.6 49.05 62.6 47.45 62.2 46.95 62.2 46.3 62.2 44.6 63.85 44.25 63.95 44.25 64 44.25 64.2 44.2 65.6 44.2
L 62.95 43.95
Q 62.95 42.6 65.4 42.3 65.7 42.25 68.55 42.25 71.35 42.25 73.05 41.85 73.8 41.75 74.55 41.6 73.75 41.55 72.85 41.55
L 72.8 41.55
Q 72.7 41.5 72.6 41.55 72.05 41.5 71.5 41.5 69.25 41.5 66.85 41.85
L 66.8 41.85
Q 65.85 42 65 42.15 63.1 42.55 62.35 42.7 61.85 42.75 61.8 42.75 61.4 42.85 61.25 42.85 61 42.8 60.45 42.45
L 60.45 41.35
Q 61.2 40.5 62.9 39.95 63.3 39.8 63.7 39.7 64.25 39.55 64.75 39.45 65.6 39.35 66.4 39.3 66.45 39.3 66.5 39.3 66.55 39.3 66.65 39.3 69.6 39.3 73 39.45 73.85 39.5 74.75 39.55 75 39.6 75.25 39.6 75.9 39.65 76.55 39.7 77.45 39.75 78.15 39.85 78.8 39.9 79.35 39.95 80 40.1 80.4 40.2 80.85 40.3 81.25 40.45 81.55 40.55 81.8 40.7 81.9 40.7 82 40.75 82.45 40.95 82.75 41.25 83.25 41.7 83.25 42.25
L 83.25 42.35
Q 83.25 42.5 83.2 42.65 83.35 42.7 83.5 42.7 84.35 43 85.35 43.3 85.7 43.4 86.05 43.45 86 42.9 85.75 42.5 85.6 42.35 85.45 42.25 84.75 41.75 84.2 41.25 83.75 40.85 83.35 40.5 82.75 39.95 82.35 39.45 82.2 39.25 82.05 39.05
M 82.7 64.25
Q 82.75 64.3 82.75 64.4 84.35 66.1 84.35 68.4 84.35 69.25 82.85 72.15 82.8 72.2 82.8 72.25 82.55 72.7 82.25 73.25 81.95 73.85 81.7 74.35
L 81.7 74.4
Q 79.8 77.5 78.7 77.5 76.9 77.15 76.65 77 76.35 76.85 76.15 75.9 75.95 74.75 75.55 74.1 75.45 74 75.35 73.9 74.65 73 72.6 72.1 72.35 72 72.15 71.9 71.55 71.6 71.2 71.3 70.65 70.85 70.65 70.45 70.65 70 70.75 69.6 71.25 67.75 73.75 65.8 74.4 65.3 75 64.95 75.75 64.5 76.6 64.15 78.55 63.35 80.7 63.35 81.2 63.35 81.55 63.4 82.15 63.7 82.7 64.25
M 55.85 36.7
Q 56.35 36.35 57.45 35.6 57.7 35.35 57.85 34.5 58 33.5 58.6 32.9 59.5 32 61.65 31.45 63.5 30.95 65.2 30.95 66 30.95 66.85 31 68.8 31.2 70.7 31.85
L 71.1 31.95
Q 71.6 32.2 72.2 32.45 75.65 33.95 77.25 36.4 77.25 36.55 77.2 36.7 76.85 37.6 74.8 37.65 74.45 37.8 74.2 37.95 73.6 38.05 73.1 37.95 72.35 37.7 71.9 37.7 71 37.7 66.35 38.35
L 66.3 38.4
Q 65.8 38.45 65.3 38.5 65 38.55 64.65 38.6
L 64.6 38.6
Q 64.35 38.65 64.15 38.7 59.7 39.35 59.5 39.35 58.25 39.35 57.55 39.3 57 39.25 56.7 39.15 55.1 38.8 55.1 37.75 55.1 37.3 55.85 36.7
M 67.7 94.75
Q 67.65 94.1 67.65 93.55 67.65 91.1 68.45 89.9 69.5 88.4 72.15 88.2 72.6 88.15 73.15 88.15 73.25 88.15 73.35 88.15 73.9 88.15 74.2 88.2 74.9 88.25 75.3 88.4 75.55 88.4 75.65 88.4
L 75.85 88.4
Q 76.45 88.45 76.85 88.7 77.25 88.9 77.5 89.3 77.9 89.9 78.15 90.35 78.8 91.35 78.9 91.85 78.95 92 79 92.2 79.05 92.9 79.05 94.65 79.05 95.4 78.95 96.25 78.75 97.45 78.3 98.95 78.2 99.3 77.35 100.75 77.25 100.85 77.25 100.9
L 77.25 100.95
Q 76.2 102.7 75.45 103.3 74.75 103.9 73.65 105.35 73.3 105.85 72.8 106.35 71.7 107.3 69.8 108.35 67.05 109.95 66.75 108.25 68.75 104.85 68.75 102.4 68.75 100.25 68.2 98 68 97.3 67.85 96.5 67.8 96.05 67.75 95.6 67.7 95.15 67.7 94.75 Z"/>
</g>

<g id="caixa_06_0_Layer2_0_MEMBER_0_MEMBER_1_FILL">
<path fill="#8BAAA3" stroke="none" d="
M 40.1 87.7
L 39.85 88.85
Q 39.85 89 39.85 89.1 39.6 89.95 38.8 93.5 38.75 93.7 38.7 93.95 38.6 94.25 38.55 94.65 38.35 95.25 37.95 97.6 37.5 100.05 36.65 101.55 36.6 101.6 36.6 101.7 36.65 101.85 36.8 101.9 36.9 101.95 37 101.95 37.3 102.05 37.6 101.95 37.95 101.8 38.25 101.35 38.55 100.8 38.8 99.7 39.35 97.2 39.65 95.8 39.75 95.3 39.85 95
L 39.95 94.4
Q 40.05 94.15 40.15 93.85 40.55 92.55 41.35 89.6 41.65 88.45 42.05 87.05 42.6 84.85 42.9 83.6
L 42.9 83.55
Q 43.05 83.1 43.1 82.8 43.35 81.95 43.4 81.8
L 43.4 81.65
Q 43.95 79.25 44.2 77.45 44.45 75.95 44.45 74.9 44.45 74.05 44.4 73.45 44.4 73.4 44.45 72.75 44.55 71.65 44.85 69 44.9 68.9 44.95 68.75 45.3 65.45 44.8 62.1 44.75 61.8 44.65 61.45 44.6 61.9 44.4 62.5 43.65 65.6 43.4 66.9 43.2 67.6 42.65 71 42.4 72.3 42.15 74 41.8 75.8 41.5 78 41.45 78.05 41.4 79.2 41.35 79.9 41.3 80.9 41.25 81.25 41.2 81.6 41.2 81.7 41.2 81.8 41.2 82.05 41.2 82.35 41.2 82.4 41.15 82.5
L 41.15 82.55
Q 41.1 82.9 41.05 83.35 40.9 84.15 40.75 84.65 40.5 85.35 40.35 86.35 40.25 86.85 40.1 87.7
M 44.8 109.9
Q 45.1 109.5 45.45 109.15 45.55 109 45.65 108.8 45.95 108.45 46.35 107.8 46.6 107.15 46.9 106.35 47.05 106 47.15 105.7 47.45 105.05 47.6 104.7 47.25 105.05 46.95 105.45 46.35 106.15 45.7 106.7 43.95 108.05 41.95 108.2 40.1 108.3 39.75 108.45 38.8 108.85 38.45 110.55 38.15 111.7 39.9 112.1 40.35 112.2 40.85 112.2 43.2 111.9 44.8 109.9
M 47.7 84.3
Q 47.25 85.15 46.95 85.75 46.85 85.75 46.85 85.85 46.25 86.9 45.95 87.55 45.4 88.65 44.9 90.4
L 43.45 95.85
Q 43.2 96.95 42.85 98.7 42.7 99.9 43.3 100.05 44.1 100.2 45.4 99.6 46.8 98.95 47 98 46.7 97.1 46.4 95.85 46.05 94.2 46.2 92.35 46.3 91.55 46.45 90.6 46.95 88.45 49.2 84.1 49.7 83.15 50.25 82.05 53.5 76.25 53.95 74.25 54.2 73 54.15 69.35 53.4 72 52.45 74.55 50.8 79 48.35 83.25
L 48.35 83.3
Q 48.3 83.35 48.2 83.45 48.15 83.65 48 83.8 47.85 84.1 47.7 84.3
M 48.65 58.45
Q 48 60.75 47.85 61.35 47.2 64.45 46.75 66.8 46.1 70.15 45.9 71.85 45.85 72.15 45.8 72.4 45.75 73.25 45.6 74.9
L 45.6 74.95
Q 45.55 75.8 45.45 76.8 45.35 78.9 45.15 81.8
L 45.6 81.85
Q 46.75 79 47.25 76.75 47.3 76.45 47.35 76.15 47.75 74 48.15 72.35 48.5 71.15 48.8 70.15 50.55 64 50.95 62.35 50.95 62.3 50.95 62.25 51.65 59.05 51.1 57.75 50.65 56.65 49.2 56.5 49.15 56.55 49.2 56.6 48.95 57.3 48.65 58.45 Z"/>

<path fill="#B9D2CD" stroke="none" d="
M 49.35 40.5
Q 49.7 40.5 50.1 40.55 49.5 40.35 48.9 40.25 48.45 40.25 48 40.2 45.5 40.3 43.85 41.95 41.35 44.4 40.75 47.05 39.3 53.9 38.95 66.7 38.9 66.75 38.9 66.8 38.85 68.5 38.8 70.35 38.75 72.65 38.8 74.75 38.75 75.35 38.8 75.95 38.75 78.85 38.85 81.55 38.8 81.65 38.85 81.75 38.9 86.55 37.9 92.4 37.8 92.8 37.7 93.2 37.7 93.5 37.65 93.75 37.6 94.05 37.5 94.4 36.9 97.2 36.1 99.65 35.7 100.7 35.35 101.75 34.8 103.25 34.05 104.7 31.55 109.8 31.2 110.7 29.75 112.9 30.2 114.25 30.3 114.5 30.55 114.8 30.6 114.55 30.7 114.3 33.6 108.8 35.4 105 36.15 103.55 36.7 102 36.75 101.95 36.8 101.9 36.65 101.85 36.6 101.7 36.6 101.6 36.65 101.55 37.5 100.05 37.95 97.6 38.35 95.25 38.55 94.65 38.6 94.25 38.7 93.95 38.75 93.7 38.8 93.5 39.6 89.95 39.85 89.1 39.85 89 39.85 88.85 40.25 85.25 40.2 82.05 40.15 81.95 40.2 81.9 40.15 79.15 40.15 76.25 40.1 75.65 40.15 75.05 40.1 72.95 40.15 70.65 40.2 68.8 40.25 67.1 40.25 67.05 40.3 67 40.65 54.2 42.1 47.35 42.7 44.65 45.2 42.25 45.75 41.75 46.35 41.35 46.45 41.25 50.1 40.55 47.8 40.6 49.35 40.5
M 47.65 41.95
Q 47.25 42.05 47 42.3 46.55 42.7 46.4 43.55 46.1 44.9 47.7 47.9 47.75 47.9 47.8 47.95 48.5 49.25 49.6 50.85 50.55 52.3 51.7 53.85 52.45 54.85 53.35 56.1 53.8 56.65 54.3 57.25 54.55 57.6 54.85 58.05
L 54.85 58.1
Q 56.4 60.6 57.05 64.5 57.1 64.6 57.1 64.75 57.1 64.8 57.1 64.9 57.25 65.95 57.3 67 57.45 69.25 57.2 71.65 57.15 72.7 56.95 73.7 56.9 74.2 56.75 74.75
L 56.75 74.85
Q 56.7 75.1 56.6 75.4 56 78.35 55.15 79.95 53.85 82.3 53.3 83.95 53.2 84.15 53.15 84.45 52.95 85.2 52.5 87 52.3 87.85 52.1 88.9
L 52.05 88.95
Q 51.9 89.8 51.65 90.8 51.5 91.6 51.25 92.55 50.3 97.05 50.05 98.55 50.05 98.6 50.05 98.65
L 50 98.65
Q 49.95 98.95 49.9 99.05 49.9 99.3 49.9 99.55 49.8 99.55 49.85 99.6 49.6 101 49.45 102.3 49.5 102.65 49.55 102.95 49.55 103.15 49.45 103.65
L 49.45 103.7
Q 49.35 104.2 49.25 105.1 49.1 106.05 48.85 107.65 49.15 108.9 49.85 108.3 50.3 107.8 51.1 106.1 51.25 105.7 51.45 105.2
L 52.3 101.6 52.35 101.55 53.25 97.85
Q 53.8 95.4 54 92.55 54.3 91.05 54.65 89.5 54.95 88.15 55.35 86.8 55.45 86.55 55.5 86.35 56.5 83 56.95 82.35
L 56.6 83.7 57.15 82.1
Q 57.15 82.05 57.2 82.05
L 57.2 82
Q 58 80.8 59 79.55 59.2 79.35 59.35 79.15 60.35 78 61.15 76.85 61.25 76.7 61.35 76.5 62.05 75.6 62.5 74.75 62.5 74.7 62.5 74.65 63.7 72.55 64.1 70.75 64.25 69.85 64.2 68.65 64.2 68.15 64.15 67.7 64.1 67.3 64.1 66.9 63.95 66.5 63.95 66.25 64.1 65.15 64.15 64.6 64.2 64 64.1 63.35 64.1 63.2 64.1 63.1 63.95 61.75 63.4 60.3 63.4 60.25 63.4 60.2 63.2 59.65 62.55 58.9 61.9 58.15 60.85 57.1 59.8 56.15 59.15 55.35 58.5 54.5 58.25 53.9
L 58.25 53.85
Q 56.35 48.5 54.85 46.25 52.65 42.9 49.35 42.1
L 49.3 42.05
Q 49.25 42.05 49.2 42.05 48.7 41.9 48.05 41.9 47.85 41.85 47.65 41.95
M 49.35 44.6
L 50.2 44.75
Q 50.95 45.15 51.95 46.95 52.85 48.55 53.95 49.6 54 49.75 54.05 49.95 54.1 50.3 54.05 50.6 54 51.7 53.35 51.6 52.85 51.5 50.9 49.15 49.85 47.9 49.4 46.95 48.95 46.1 49.05 45.5
L 49.35 44.6
M 62.75 63.4
Q 62.8 64 62.75 64.45 62.6 65 62.1 66.1 61.8 67.6 61.8 67.65 61.3 68.9 60.25 68.65 58.75 68.35 59.05 66.85 59.65 65.05 59.65 64.45 59.6 64 59.2 62.35 58.8 61 59 60.2 59.35 58.6 60.7 59.5 62.05 60.35 62.3 61.95 62.65 62.75 62.75 63.4
M 61.15 73
Q 61 73.45 60.85 73.75 60.45 74.75 59.5 74.5 58.6 74.35 58.4 73.15 58.25 72.35 58.35 71.85 58.65 70.45 60.1 70.85 61.5 71.25 61.15 73 Z"/>

<path fill="#6A938A" stroke="none" d="
M 50.1 40.55
Q 49.7 40.5 49.35 40.5 47.8 40.6 50.1 40.55
M 47.65 41.95
Q 47.85 41.85 48.05 41.9 48.7 41.9 49.2 42.05 49.25 42.05 49.3 42.05
L 49.35 42.1
Q 52.65 42.9 54.85 46.25 56.35 48.5 58.25 53.85
L 58.25 53.9
Q 58.5 54.5 59.15 55.35 59.8 56.15 60.85 57.1 61.9 58.15 62.55 58.9 63.2 59.65 63.4 60.2 63.4 60.25 63.4 60.3 63.95 61.75 64.1 63.1 64.1 63.2 64.1 63.35 64.2 64 64.15 64.6 64.1 65.15 63.95 66.25 63.95 66.5 64.1 66.9 64.1 67.3 64.15 67.7 64.2 68.15 64.2 68.65 64.25 69.85 64.1 70.75 63.7 72.55 62.5 74.65 62.5 74.7 62.5 74.75 62.05 75.6 61.35 76.5 61.25 76.7 61.15 76.85 60.35 78 59.35 79.15 59.2 79.35 59 79.55 58 80.8 57.2 82
L 57.2 82.05
Q 57.15 82.05 57.15 82.1
L 56.6 83.7 56.95 82.35
Q 56.5 83 55.5 86.35 55.45 86.55 55.35 86.8 54.95 88.15 54.65 89.5 54.3 91.05 54 92.55 53.8 95.4 53.25 97.85
L 52.35 101.55 52.3 101.6 51.45 105.2
Q 51.25 105.7 51.1 106.1
L 50.3 108.7
Q 49.9 109.25 49.35 110 46.75 114.25 41.55 114.8 41.5 114.8 41.35 114.8 41.3 114.8 41.2 114.85 40.7 114.9 40.25 114.95 40.15 114.95 40.1 114.95 39.9 114.95 39.75 115 35.3 115.25 30.7 114.3 30.6 114.55 30.55 114.8 31.3 115.8 33.95 116 37.7 116.3 39.6 116.4 39.65 116.4 39.7 116.45 39.85 116.45 39.9 116.45 46.45 116.95 50.4 111.3 50.75 110.8 51.05 110.35
L 51.1 110.3
Q 51.2 110 51.35 109.8 51.4 109.6 51.5 109.4 53.15 105.3 53.55 103.35 53.8 102.3 53.95 101.55 53.9 101.4 53.95 101.25 54 100.8 54.05 100.55 54.1 100.05 54.25 99.2 54.25 99.05 54.35 98.75 54.35 98.5 54.45 98.2 54.55 97.7 54.7 97.05 55.25 94.4 56.2 92.9 57.1 91.35 57.6 90.15 57.65 89.9 57.7 89.65 57.9 89 57.95 88.3 57.95 87.9 57.95 87.5 57.8 86.15 58.2 85.25 58.55 84.3 58.6 83.95 58.7 83.45 58.9 82.95 59.35 81.75 59.95 80.6 60 80.45 60.15 80.35 60.9 78.85 61.95 77.5 62 77.35 62.05 77.3 64.45 74.2 65.3 71.25 66 68.55 66 66.55 65.95 66.4 65.95 66.15 65.95 65.85 65.9 65.55 65.65 63.7 65.1 61.85 64.75 60.85 64.1 59.75 63.7 59.1 63.25 58.5 63.25 58.45 63.2 58.45 62.65 57.75 62.1 57.1 60.75 55.6 60.1 54.35 59.85 53.8 59.7 53.3 59.6 53.1 59.6 52.9 59.5 52.65 59.45 52.4 58.55 48.7 54.85 44.25 52.6 41.5 50.25 40.65 50.2 40.55 50.1 40.55
L 47.65 41.95 Z"/>

<path fill="#A8BFBA" stroke="none" d="
M 47 42.3
Q 47.25 42.05 47.65 41.95
L 50.1 40.55
Q 46.45 41.25 46.35 41.35 45.75 41.75 45.2 42.25 42.7 44.65 42.1 47.35 40.65 54.2 40.3 67 40.25 67.05 40.25 67.1 40.2 68.8 40.15 70.65 40.1 72.95 40.15 75.05 40.1 75.65 40.15 76.25 40.15 79.15 40.2 81.9 40.15 81.95 40.2 82.05 40.25 85.25 39.85 88.85
L 40.1 87.7
Q 40.25 86.85 40.35 86.35 40.5 85.35 40.75 84.65 40.9 84.15 41.05 83.35 41.1 82.9 41.15 82.55
L 41.15 82.5
Q 41.2 82.4 41.2 82.35 41.2 82.05 41.2 81.8 41.2 81.7 41.2 81.6 41.25 81.25 41.3 80.9 41.35 79.9 41.4 79.2 41.45 78.05 41.5 78 41.8 75.8 42.15 74 42.4 72.3 42.65 71 43.2 67.6 43.4 66.9 43.65 65.6 44.4 62.5 44.6 61.9 44.65 61.45 44.75 61.8 44.8 62.1 45.3 65.45 44.95 68.75 44.9 68.9 44.85 69 44.55 71.65 44.45 72.75 44.4 73.4 44.4 73.45 44.45 74.05 44.45 74.9 44.45 75.95 44.2 77.45 43.95 79.25 43.4 81.65
L 43.4 81.8
Q 43.35 81.95 43.1 82.8 43.05 83.1 42.9 83.55
L 42.9 83.6
Q 42.6 84.85 42.05 87.05 41.65 88.45 41.35 89.6 40.55 92.55 40.15 93.85 40.05 94.15 39.95 94.4
L 39.85 95
Q 39.75 95.3 39.65 95.8 39.35 97.2 38.8 99.7 38.55 100.8 38.25 101.35 37.95 101.8 37.6 101.95 37.3 102.05 37 101.95 36.9 101.95 36.8 101.9 36.75 101.95 36.7 102 36.15 103.55 35.4 105 33.6 108.8 30.7 114.3 35.3 115.25 39.75 115 39.9 114.95 40.1 114.95 40.15 114.95 40.25 114.95 40.7 114.9 41.2 114.85 41.3 114.8 41.35 114.8 41.5 114.8 41.55 114.8 46.75 114.25 49.35 110 49.9 109.25 50.3 108.7
L 51.1 106.1
Q 50.3 107.8 49.85 108.3 49.15 108.9 48.85 107.65 49.1 106.05 49.25 105.1 49.35 104.2 49.45 103.7
L 49.45 103.65
Q 49.55 103.15 49.55 102.95 49.5 102.65 49.45 102.3 49.6 101 49.85 99.6 49.8 99.55 49.9 99.55 49.9 99.3 49.9 99.05 49.95 98.95 50 98.65
L 50.05 98.65
Q 50.05 98.6 50.05 98.55 50.3 97.05 51.25 92.55 51.5 91.6 51.65 90.8 51.9 89.8 52.05 88.95
L 52.1 88.9
Q 52.3 87.85 52.5 87 52.95 85.2 53.15 84.45 53.2 84.15 53.3 83.95 53.85 82.3 55.15 79.95 56 78.35 56.6 75.4 56.7 75.1 56.75 74.85
L 56.75 74.75
Q 56.9 74.2 56.95 73.7 57.15 72.7 57.2 71.65 57.45 69.25 57.3 67 57.25 65.95 57.1 64.9 57.1 64.8 57.1 64.75 57.1 64.6 57.05 64.5 56.4 60.6 54.85 58.1
L 54.85 58.05
Q 54.55 57.6 54.3 57.25 53.8 56.65 53.35 56.1 52.45 54.85 51.7 53.85 50.55 52.3 49.6 50.85 48.5 49.25 47.8 47.95 47.75 47.9 47.7 47.9 46.1 44.9 46.4 43.55 46.55 42.7 47 42.3
M 47.85 61.35
Q 48 60.75 48.65 58.45 48.95 57.3 49.2 56.6 49.15 56.55 49.2 56.5 50.65 56.65 51.1 57.75 51.65 59.05 50.95 62.25 50.95 62.3 50.95 62.35 50.55 64 48.8 70.15 48.5 71.15 48.15 72.35 47.75 74 47.35 76.15 47.3 76.45 47.25 76.75 46.75 79 45.6 81.85
L 45.15 81.8
Q 45.35 78.9 45.45 76.8 45.55 75.8 45.6 74.95
L 45.6 74.9
Q 45.75 73.25 45.8 72.4 45.85 72.15 45.9 71.85 46.1 70.15 46.75 66.8 47.2 64.45 47.85 61.35
M 46.95 85.75
Q 47.25 85.15 47.7 84.3 47.85 84.1 48 83.8 48.15 83.65 48.2 83.45 48.3 83.35 48.35 83.3
L 48.35 83.25
Q 50.8 79 52.45 74.55 53.4 72 54.15 69.35 54.2 73 53.95 74.25 53.5 76.25 50.25 82.05 49.7 83.15 49.2 84.1 46.95 88.45 46.45 90.6 46.3 91.55 46.2 92.35 46.05 94.2 46.4 95.85 46.7 97.1 47 98 46.8 98.95 45.4 99.6 44.1 100.2 43.3 100.05 42.7 99.9 42.85 98.7 43.2 96.95 43.45 95.85
L 44.9 90.4
Q 45.4 88.65 45.95 87.55 46.25 86.9 46.85 85.85 46.85 85.75 46.95 85.75
M 47.85 104.1
L 47.95 103.5
Q 47.95 104.15 47.6 104.7 47.45 105.05 47.15 105.7 47.05 106 46.9 106.35 46.6 107.15 46.35 107.8 45.95 108.45 45.65 108.8 45.55 109 45.45 109.15 45.1 109.5 44.8 109.9 43.2 111.9 40.85 112.2 40.35 112.2 39.9 112.1 38.15 111.7 38.45 110.55 38.8 108.85 39.75 108.45 40.1 108.3 41.95 108.2 43.95 108.05 45.7 106.7 46.35 106.15 46.95 105.45 47.25 105.05 47.6 104.7 47.85 104.15 47.85 104.1 Z"/>

<path fill="#D0E2DE" stroke="none" d="
M 60.85 73.75
Q 61 73.45 61.15 73 61.5 71.25 60.1 70.85 58.65 70.45 58.35 71.85 58.25 72.35 58.4 73.15 58.6 74.35 59.5 74.5 60.45 74.75 60.85 73.75
M 62.75 64.45
Q 62.8 64 62.75 63.4 62.65 62.75 62.3 61.95 62.05 60.35 60.7 59.5 59.35 58.6 59 60.2 58.8 61 59.2 62.35 59.6 64 59.65 64.45 59.65 65.05 59.05 66.85 58.75 68.35 60.25 68.65 61.3 68.9 61.8 67.65 61.8 67.6 62.1 66.1 62.6 65 62.75 64.45
M 50.2 44.75
L 49.35 44.6 49.05 45.5
Q 48.95 46.1 49.4 46.95 49.85 47.9 50.9 49.15 52.85 51.5 53.35 51.6 54 51.7 54.05 50.6 54.1 50.3 54.05 49.95 54 49.75 53.95 49.6 52.85 48.55 51.95 46.95 50.95 45.15 50.2 44.75 Z"/>
</g>

<g id="caixa_06_0_Layer2_0_MEMBER_0_MEMBER_2_FILL">
<path fill="#996600" stroke="none" d="
M 49.6 133.95
L 47.75 133.45
Q 47.35 135.5 48 135.95
L 48.2 135.95
Q 48.85 135.9 49.6 133.95 Z"/>

<path fill="#000000" stroke="none" d="
M 78.25 77.1
Q 77.9 77 77.65 77.3 77.65 77.35 77.55 77.45 76.9 77.15 76.6 77.4 76.1 77.55 76 78.15 75.75 79.45 76.75 79.85 77.8 80.3 78.5 79.6 79.25 79 79.45 78.25 79.7 77.25 79.2 76.45 78.75 75.75 77.6 75.6 76.6 75.4 73.6 77.15 70.75 78.8 68.3 80.7 65.8 82.65 64.45 84.15 63.1 85.55 62.35 86.6 62.2 86.8 62.05 87.1 62.15 87.2 62.3 87.35 62.5 87.05 62.65 86.75 63.4 85.7 64.75 84.45
L 64.7 84.4
Q 66.05 82.9 68.5 81.05 70.95 79.15 73.85 77.5 76.65 75.85 77.55 76 78.5 76.15 78.85 76.75 79.3 77.25 79.05 78.15 78.9 78.75 78.25 79.35 77.7 79.75 76.9 79.5 76.15 79.15 76.35 78.25 76.45 77.85 76.75 77.7 77 77.6 77.45 77.75 77.45 77.85 77.45 77.95 77.55 78.1 77.95 78.2 78.4 78.3 78.6 78.05
L 78.7 77.75
Q 78.8 77.5 78.75 77.5 78.7 77.2 78.25 77.1
M 50.35 71.85
Q 50.1 71.05 50.2 70.45 50.45 69.6 51.15 69.3 51.8 68.95 52.65 69.3 53.5 69.7 55.2 72.5 56.75 75.3 57.95 78.25 59.1 81.05 59.55 83.05 60.05 84.8 60.15 86.1 60.15 86.4 60.2 86.7 60.4 86.65 60.6 86.65 60.55 86.4 60.55 86.1 60.35 84.8 59.95 82.9 59.45 80.95 58.25 78.05 57.2 75.15 55.45 72.3 53.8 69.35 52.8 68.95 51.75 68.55 51 68.9 50.15 69.3 49.9 70.3 49.7 71.05 50 72 50.25 72.9 51.35 73.05 52.5 73.2 52.9 72 53.1 71.4 52.85 71.05 52.6 70.65 51.9 70.6
L 51.95 70.45
Q 51.85 70 51.5 69.9 51.05 69.8 50.85 70.05
L 50.7 70.6
Q 50.75 70.95 51.25 71.05 51.6 71.15 51.75 71.05 51.75 71 51.85 70.9 52.3 71 52.5 71.25 52.65 71.5 52.55 71.85 52.3 72.75 51.5 72.65 50.6 72.5 50.35 71.85 Z"/>

<path fill="#805705" stroke="none" d="
M 55 95.1
Q 54.45 96.75 54.05 98.45 53.65 100.2 53.35 101.9 53.1 103.4 52.95 105 52.65 106.8 52.45 108.55 52.15 110.4 52.1 112.2 52 112.55 52 113 51.95 113.45 52.15 113.9
L 47.75 133.45 49.6 133.95 55.55 114.8
Q 55.9 114.55 56.2 114.1 56.3 113.7 56.55 113.4 57.2 111.8 58 110.05 58.75 108.45 59.4 106.65 60 105.25 60.45 103.8 61.1 102.2 61.6 100.45 62.15 98.85 62.5 97.15 62.7 96.05 62.75 95.05 62.75 94.85 62.75 94.55 61.2 95.3 59.5 94.85 57.45 94.25 56.35 92.35 56.05 92.8 55.85 93.2 55.3 94.05 55 95.1
M 60.2 86.7
Q 59.85 86.8 59.55 86.95 58.75 87.4 58.5 88.3 58.25 89.1 58.75 89.9
L 58.75 89.95
Q 59.15 90.6 59.85 90.85 59.95 91 60.15 91 60.3 91.05 60.45 91 61.15 91.15 61.8 90.8
L 61.85 90.75
Q 62.6 90.3 62.85 89.4 63.1 88.55 62.6 87.8 62.45 87.5 62.3 87.35 62.15 87.2 62.05 87.1 61.7 86.9 61.3 86.75 60.9 86.65 60.6 86.65 60.4 86.65 60.2 86.7 Z"/>

<path fill="#604308" stroke="none" d="
M 57.85 90.55
Q 57 91.35 56.35 92.35 57.45 94.25 59.5 94.85 61.2 95.3 62.75 94.55 62.7 93.15 62.3 91.75 62.2 91.2 61.85 90.75
L 61.8 90.8
Q 61.15 91.15 60.45 91 60.3 91.05 60.15 91 59.95 91 59.85 90.85 59.15 90.6 58.75 89.95
L 58.75 89.9
Q 58.25 90.15 57.85 90.55 Z"/>
</g>

<g id="caixa_06_0_Layer2_0_MEMBER_0_MEMBER_3_FILL">
<path fill="#FF8C07" stroke="none" d="
M 52.35 107.65
Q 54.25 105.15 57.8 100.55 55.9 101.05 53.9 101.25 50.45 104.55 47.05 109.45 46.85 109.9 46.55 110.3 45.7 111.55 44.8 112.95 42.85 116.85 43.95 118.9 46.7 114.85 48.55 112.5 50.45 110.2 52.35 107.65
M 60.65 99.9
Q 60.15 100.05 59.6 100.15 56.75 104.1 54.05 107.8 53.6 108.55 53.05 109.3 51.65 111.15 50.4 112.95 49.75 113.8 49.2 114.65 47.9 116.45 46.7 118.25
L 46.65 118.3
Q 45.65 119.7 44.75 121.05 44.85 121.95 45.15 122.65 45.2 122.8 45.3 122.95 45.6 123.65 46.05 124.15 46.3 124.45 46.6 124.7 46.65 124.8 46.8 124.8
L 46.85 124.75
Q 50.2 121.45 52.75 118.2 54.15 116.4 55.3 114.55 56.6 112.55 57.6 110.55 57.7 110.3 57.7 110.05 57.7 109.95 58.05 108.6 58.1 108.3 58.25 107.8 58.35 107.35 58.5 106.85 58.5 106.8 58.5 106.75 59.15 103.75 60.65 99.9
M 62.65 99.2
Q 62.1 99.35 61.55 99.6 60.55 103.4 59.95 106.4 59.95 106.5 59.9 106.5 59.85 106.85 59.8 107.15 59.65 107.8 59.55 108.45 59.35 109.65 59.15 110.7 59.1 111.4 59.05 112.1 59 112.75 58.95 113.4 58.95 113.95 58.95 114.4 59 114.9 59.1 115.2 59.2 116.35 59.45 117.1 59.95 118.45 60.8 118.1 60.95 118.05 61.1 117.95 61.55 117.65 61.5 116.05 61.5 115.95 61.5 115.85 61.55 115.8 61.55 115.7 61.65 114.8 61.95 114.2 62.25 113.65 62.8 113.5 64.2 113 64.25 112 64.3 111.75 64.25 111.5 64.2 110.45 64.1 109.45 64.05 108.7 64 107.95 63.85 107 63.75 106.05 63.75 105.75 63.7 105.55 63.4 103.3 63 100.95 62.95 100.95 63 100.9 62.85 100.1 62.7 99.4 62.65 99.35 62.65 99.2
M 64.8 98.35
Q 64.75 98.35 64.65 98.4 64 98.65 63.4 98.9 64.25 102.15 64.8 105.15 64.9 105.5 65 105.75 65.15 106.65 65.3 107.55 65.3 107.7 65.3 107.75 65.6 109.6 65.75 111.25 65.8 111.8 65.8 112.35
L 68.4 115.95
Q 68 113.2 67.5 110.3 67.35 109.5 67.25 108.65 67.15 108.1 67 107.6 66.85 106.7 66.65 105.85 66.65 105.6 66.55 105.4 66.5 105.15 66.4 104.8 65.7 101.55 64.8 98.35
M 57.6 115.95
Q 57.6 115.85 57.6 115.75
L 57.6 115.7
Q 57.6 115.65 57.55 115.6 57.5 115.3 57.5 114.9 57.5 114.1 57.55 113.35 56.8 114.55 56.1 115.8 56.05 115.85 56 115.9 55 117.45 54 118.95 53.2 120.05 52.35 121.15 52.25 121.35 52.1 121.45 50.7 123.35 49.2 125.15 48.7 125.7 48.15 126.35 48.45 126.8 48.85 127.2 49 127.4 49.2 127.55 49.9 128.3 50.85 128.75 50.95 128.85 51.1 128.9 51.15 128.95 51.25 128.95 51.4 128.95 51.5 129.1 51.55 129.1 51.6 129.1 52.3 129.45 53.05 129.7 53.55 129.85 54.1 130 54.2 129.75 54.2 129.5 54.75 126.95 55.55 124.6 56.1 122.95 56.8 121.45 56.9 121.4 56.85 121.3 57.6 119.8 58.5 118.3 57.8 117.35 57.6 115.95
M 61.35 122.85
Q 61.25 121.3 61.15 119.7 60.55 119.9 60.2 119.85 60 119.85 59.9 119.7 59.35 119.4 59.15 119.2 58 121.6 57.1 124.05 56.5 126 56.1 128.1 56 128.9 55.85 129.75
L 55.9 129.8
Q 55.85 129.9 55.85 129.95 55.8 130.2 55.75 130.45 55.75 130.6 55.75 130.65 55.85 130.65 55.85 130.7
L 55.95 130.7
Q 56.45 130.85 56.95 130.95 58.6 131.35 60.15 131.45 60.25 131 60.4 130.5 60.4 130.45 60.45 130.35
L 60.4 130.35
Q 60.7 129.45 60.8 128.6
L 60.85 128.55
Q 61.35 125.8 61.35 122.85
M 61.85 119.4
Q 62.15 120.95 62.4 122.45 62.75 125.2 62.75 128 62.75 128.35 62.75 128.7 62.8 129.45 62.75 130.2 62.75 130.25 62.75 130.3 62.75 130.4 62.7 130.6 62.7 130.95 62.65 131.2 63.1 131.15 63.6 131 63.75 130.95 64 130.85 64.1 130.85 64.2 130.8 65.35 130.35 66 129.7 66.65 128.95 66.4 126.95
L 66.4 126.9
Q 66.3 126 65.95 124.8 65.65 123.45 65.3 122.05 65.2 121.9 65.15 121.7 64.4 119.1 63.35 116.15 63.25 118 61.85 119.4
M 65.3 113.5
L 64 114.7
Q 65 116.95 65.75 119.2 66.2 120.3 66.5 121.4 67.3 123.9 67.75 126.4 67.95 127.1 68 127.7 69.3 124.7 68.85 121 68.85 120.55 68.75 120.05 67.85 116.75 66.5 114.8 66 114.05 65.3 113.5 Z"/>

<path fill="#000000" stroke="none" d="
M 65.05 98.25
Q 64.95 98.3 64.8 98.35 65.7 101.55 66.4 104.8 66.5 105.15 66.55 105.4 66.65 105.6 66.65 105.85 66.85 106.7 67 107.6 67.15 108.1 67.25 108.65 67.35 109.5 67.5 110.3 68 113.2 68.4 115.95
L 65.8 112.35
Q 65.8 111.8 65.75 111.25 65.6 109.6 65.3 107.75 65.3 107.7 65.3 107.55 65.15 106.65 65 105.75 64.9 105.5 64.8 105.15 64.25 102.15 63.4 98.9 63.1 99.05 62.8 99.15 62.75 99.15 62.65 99.2 62.65 99.35 62.7 99.4 62.85 100.1 63 100.9 62.95 100.95 63 100.95 63.4 103.3 63.7 105.55 63.75 105.75 63.75 106.05 63.85 107 64 107.95 64.05 108.7 64.1 109.45 64.2 110.45 64.25 111.5 64.3 111.75 64.25 112 64.2 113 62.8 113.5 62.25 113.65 61.95 114.2 61.65 114.8 61.55 115.7 61.55 115.8 61.5 115.85 61.5 115.95 61.5 116.05 61.55 117.65 61.1 117.95 60.95 118.05 60.8 118.1 59.95 118.45 59.45 117.1 59.2 116.35 59.1 115.2 59 114.9 58.95 114.4 58.95 113.95 58.95 113.4 59 112.75 59.05 112.1 59.1 111.4 59.15 110.7 59.35 109.65 59.55 108.45 59.65 107.8 59.8 107.15 59.85 106.85 59.9 106.5 59.95 106.5 59.95 106.4 60.55 103.4 61.55 99.6 61.35 99.6 61.3 99.65 60.95 99.8 60.65 99.9 59.15 103.75 58.5 106.75 58.5 106.8 58.5 106.85 58.35 107.35 58.25 107.8 58.1 108.3 58.05 108.6 57.7 109.95 57.7 110.05 57.7 110.3 57.6 110.55 56.6 112.55 55.3 114.55 54.15 116.4 52.75 118.2 50.2 121.45 46.85 124.75
L 46.8 124.8
Q 46.65 124.8 46.6 124.7 46.3 124.45 46.05 124.15 45.6 123.65 45.3 122.95 45.2 122.8 45.15 122.65 44.85 121.95 44.75 121.05 45.65 119.7 46.65 118.3
L 46.7 118.25
Q 47.9 116.45 49.2 114.65 49.75 113.8 50.4 112.95 51.65 111.15 53.05 109.3 53.6 108.55 54.05 107.8 56.75 104.1 59.6 100.15 58.7 100.45 57.8 100.55 54.25 105.15 52.35 107.65 50.45 110.2 48.55 112.5 46.7 114.85 43.95 118.9 42.85 116.85 44.8 112.95 45.7 111.55 46.55 110.3 46.85 109.9 47.05 109.45 50.45 104.55 53.9 101.25 53.5 101.3 53.05 101.35 49.05 105.05 45.95 109.75 45.8 110.15 45.45 110.5 45.1 111.15 44.75 111.75 44.15 112.8 43.55 113.95 43 114.95 42.55 115.95 40.55 120.05 40.75 123.25 40.8 123.55 40.85 123.9 40.85 124.2 40.95 124.6 41.1 125.2 41.35 125.75 41.8 127.05 42.75 128.2 43.3 128.85 44 129.45 44.2 129.6 44.55 129.75 44.85 129.95 45.2 130.2 45.45 130.35 45.55 130.4 46.25 130.8 46.85 131.15 47.15 131.3 47.55 131.55
L 47.6 131.55
Q 47.95 131.7 48.3 131.85 48.5 131.9 48.6 132 48.75 132.1 48.9 132.2 49.3 132.35 49.6 132.5
L 49.65 132.55
Q 49.75 132.55 49.85 132.55 50.15 132.7 50.55 132.8 51.25 133.1 51.9 133.35 52.7 133.65 53.5 133.8 54.75 134.1 56.05 134.3 56.45 134.4 56.85 134.5 57.8 134.55 58.8 134.55 60.85 134.6 62.9 134.1 63.3 134.05 63.75 133.95 64.1 133.9 64.55 133.75 64.75 133.65 65.05 133.6 65.55 133.4 66 133.2 66.5 132.9 67 132.6 67.05 132.6 67.1 132.6 67.7 132.1 68.25 131.55 68.45 131.4 68.55 131.3 68.9 130.85 69.25 130.35 70 129.25 70.25 127.8 70.3 127.75 70.25 127.7 70.5 126.75 70.5 125.7 70.55 125.6 70.55 125.35 70.35 123.1 70.1 120.9 69.4 115.25 68.35 109.95 68 108.7 67.7 107.55 67.5 106.4 67.2 105.3 67.1 105 67 104.7 66.15 101.45 65.05 98.25
M 64 114.7
L 65.3 113.5
Q 66 114.05 66.5 114.8 67.85 116.75 68.75 120.05 68.85 120.55 68.85 121 69.3 124.7 68 127.7 67.95 127.1 67.75 126.4 67.3 123.9 66.5 121.4 66.2 120.3 65.75 119.2 65 116.95 64 114.7
M 62.4 122.45
Q 62.15 120.95 61.85 119.4 63.25 118 63.35 116.15 64.4 119.1 65.15 121.7 65.2 121.9 65.3 122.05 65.65 123.45 65.95 124.8 66.3 126 66.4 126.9
L 66.4 126.95
Q 66.65 128.95 66 129.7 65.35 130.35 64.2 130.8 64.1 130.85 64 130.85 63.75 130.95 63.6 131 63.1 131.15 62.65 131.2 62.7 130.95 62.7 130.6 62.75 130.4 62.75 130.3 62.75 130.25 62.75 130.2 62.8 129.45 62.75 128.7 62.75 128.35 62.75 128 62.75 125.2 62.4 122.45
M 61.15 119.7
Q 61.25 121.3 61.35 122.85 61.35 125.8 60.85 128.55
L 60.8 128.6
Q 60.7 129.45 60.4 130.35
L 60.45 130.35
Q 60.4 130.45 60.4 130.5 60.25 131 60.15 131.45 58.6 131.35 56.95 130.95 56.45 130.85 55.95 130.7
L 55.85 130.7
Q 55.85 130.65 55.75 130.65 55.75 130.6 55.75 130.45 55.8 130.2 55.85 129.95 55.85 129.9 55.9 129.8
L 55.85 129.75
Q 56 128.9 56.1 128.1 56.5 126 57.1 124.05 58 121.6 59.15 119.2 59.35 119.4 59.9 119.7 60 119.85 60.2 119.85 60.55 119.9 61.15 119.7
M 42.6 120.45
Q 42.75 120.5 42.9 120.65 42.9 120.75 43 120.75 43.2 121.1 43.2 121.5 43.2 121.95 42.95 122.25 42.75 122.55 42.5 122.5 42.45 122.55 42.35 122.45 42.2 122.45 42 122.2 41.95 122.05 41.85 121.85 41.85 121.7 41.8 121.45 41.85 121.05 42.05 120.75 42.1 120.75 42.1 120.7 42.3 120.5 42.6 120.45
M 57.6 115.75
Q 57.6 115.85 57.6 115.95 57.8 117.35 58.5 118.3 57.6 119.8 56.85 121.3 56.9 121.4 56.8 121.45 56.1 122.95 55.55 124.6 54.75 126.95 54.2 129.5 54.2 129.75 54.1 130 53.55 129.85 53.05 129.7 52.3 129.45 51.6 129.1 51.55 129.1 51.5 129.1 51.4 128.95 51.25 128.95 51.15 128.95 51.1 128.9 50.95 128.85 50.85 128.75 49.9 128.3 49.2 127.55 49 127.4 48.85 127.2 48.45 126.8 48.15 126.35 48.7 125.7 49.2 125.15 50.7 123.35 52.1 121.45 52.25 121.35 52.35 121.15 53.2 120.05 54 118.95 55 117.45 56 115.9 56.05 115.85 56.1 115.8 56.8 114.55 57.55 113.35 57.5 114.1 57.5 114.9 57.5 115.3 57.55 115.6 57.6 115.65 57.6 115.7
L 57.6 115.75
M 53.35 131.55
Q 53.6 131.4 53.85 131.45 54.2 131.4 54.45 131.6 54.65 131.75 54.65 131.95 54.65 132.15 54.45 132.35 54.2 132.4 53.85 132.4 53.55 132.4 53.35 132.25 53.1 132.15 53.1 131.9 53.1 131.7 53.35 131.55
M 50.7 131.2
Q 50.7 131.25 50.65 131.25 50.6 131.25 50.5 131.25 50.35 131.2 50.2 131.2 49.9 131.1 49.75 130.9 49.75 130.85 49.7 130.9 49.55 130.7 49.6 130.45 49.7 130.25 49.95 130.2 50.2 130.15 50.4 130.2 50.5 130.2 50.55 130.25 50.75 130.3 50.95 130.4 50.95 130.45 50.95 130.55
L 51 130.6
Q 51.15 130.75 51.1 130.95 51.05 131.2 50.7 131.2
M 60.15 132.75
Q 60.1 132.7 60.15 132.7 60.15 132.6 60.35 132.45 60.6 132.3 60.9 132.3 61.2 132.3 61.5 132.45
L 61.55 132.6
Q 61.65 132.7 61.7 132.85 61.65 133.05 61.45 133.2 61.2 133.35 60.85 133.35 60.55 133.3 60.35 133.2 60.15 133 60.15 132.75
M 56.7 132.45
Q 56.8 132.35 56.85 132.35 57.1 132.2 57.45 132.2 57.7 132.2 58 132.35 58 132.4 58.1 132.45 58.15 132.6 58.15 132.7 58.15 132.8 58.1 132.85 58.1 133 57.95 133.1 57.7 133.2 57.4 133.2 57.1 133.2 56.85 133.1
L 56.85 133.05
Q 56.6 132.9 56.6 132.7 56.6 132.55 56.7 132.45
M 47.45 128.2
L 47.5 128.25
Q 47.7 128.45 47.85 128.55 47.85 128.6 47.85 128.7 47.85 128.75 47.9 128.8 47.95 128.9 47.95 128.95 48 129.1 47.85 129.25 47.7 129.45 47.35 129.45 47.3 129.45 47.15 129.45 46.95 129.45 46.75 129.25 46.7 129.2 46.65 129.2 46.45 129 46.3 128.8 46.3 128.7 46.25 128.65 46.15 128.4 46.3 128.15
L 46.35 128.15
Q 46.45 127.95 46.85 127.95 47.15 127.95 47.45 128.2
M 44.45 125.2
L 44.5 125.25
Q 44.75 125.6 44.7 126.05 44.7 126.2 44.6 126.3 44.6 126.45 44.45 126.5 44.3 126.6 44.1 126.6
L 44.05 126.55
Q 43.95 126.5 43.9 126.55 43.7 126.4 43.55 126.25 43.4 126.1 43.35 125.95 43.1 125.6 43.1 125.25 43.15 124.95 43.3 124.75 43.35 124.75 43.4 124.75 43.6 124.7 43.95 124.75 44.05 124.8 44.1 124.85 44.15 124.85 44.2 124.9 44.35 125.05 44.45 125.2
M 64.25 132.75
Q 64.05 132.7 63.95 132.55 63.9 132.5 63.9 132.45 63.85 132.25 64.05 132.1 64.2 131.85 64.55 131.75 64.8 131.7 65.1 131.75 65.35 131.85 65.35 132.05 65.45 132.25 65.3 132.4 65.3 132.5 65.2 132.5
L 65.15 132.55
Q 65 132.7 64.8 132.75 64.45 132.85 64.25 132.75
M 68 130
Q 68.05 130.2 68.05 130.45 67.95 130.7 67.7 130.85 67.4 131.1 67.2 131.1 67.05 131.1 67 131.1 66.85 131.05 66.75 130.95 66.65 130.8 66.75 130.55 66.85 130.25 67.05 130.05 67.35 129.9 67.6 129.85 67.9 129.85 68 130 Z"/>

<path fill="#FFFFFF" stroke="none" d="
M 68.05 130.45
Q 68.05 130.2 68 130 67.9 129.85 67.6 129.85 67.35 129.9 67.05 130.05 66.85 130.25 66.75 130.55 66.65 130.8 66.75 130.95 66.85 131.05 67 131.1 67.05 131.1 67.2 131.1 67.4 131.1 67.7 130.85 67.95 130.7 68.05 130.45
M 63.95 132.55
Q 64.05 132.7 64.25 132.75 64.45 132.85 64.8 132.75 65 132.7 65.15 132.55
L 65.2 132.5
Q 65.3 132.5 65.3 132.4 65.45 132.25 65.35 132.05 65.35 131.85 65.1 131.75 64.8 131.7 64.55 131.75 64.2 131.85 64.05 132.1 63.85 132.25 63.9 132.45 63.9 132.5 63.95 132.55
M 44.5 125.25
L 44.45 125.2
Q 44.35 125.05 44.2 124.9 44.15 124.85 44.1 124.85 44.05 124.8 43.95 124.75 43.6 124.7 43.4 124.75 43.35 124.75 43.3 124.75 43.15 124.95 43.1 125.25 43.1 125.6 43.35 125.95 43.4 126.1 43.55 126.25 43.7 126.4 43.9 126.55 43.95 126.5 44.05 126.55
L 44.1 126.6
Q 44.3 126.6 44.45 126.5 44.6 126.45 44.6 126.3 44.7 126.2 44.7 126.05 44.75 125.6 44.5 125.25
M 47.5 128.25
L 47.45 128.2
Q 47.15 127.95 46.85 127.95 46.45 127.95 46.35 128.15
L 46.3 128.15
Q 46.15 128.4 46.25 128.65 46.3 128.7 46.3 128.8 46.45 129 46.65 129.2 46.7 129.2 46.75 129.25 46.95 129.45 47.15 129.45 47.3 129.45 47.35 129.45 47.7 129.45 47.85 129.25 48 129.1 47.95 128.95 47.95 128.9 47.9 128.8 47.85 128.75 47.85 128.7 47.85 128.6 47.85 128.55 47.7 128.45 47.5 128.25
M 56.85 132.35
Q 56.8 132.35 56.7 132.45 56.6 132.55 56.6 132.7 56.6 132.9 56.85 133.05
L 56.85 133.1
Q 57.1 133.2 57.4 133.2 57.7 133.2 57.95 133.1 58.1 133 58.1 132.85 58.15 132.8 58.15 132.7 58.15 132.6 58.1 132.45 58 132.4 58 132.35 57.7 132.2 57.45 132.2 57.1 132.2 56.85 132.35
M 60.15 132.7
Q 60.1 132.7 60.15 132.75 60.15 133 60.35 133.2 60.55 133.3 60.85 133.35 61.2 133.35 61.45 133.2 61.65 133.05 61.7 132.85 61.65 132.7 61.55 132.6
L 61.5 132.45
Q 61.2 132.3 60.9 132.3 60.6 132.3 60.35 132.45 60.15 132.6 60.15 132.7
M 50.65 131.25
Q 50.7 131.25 50.7 131.2 51.05 131.2 51.1 130.95 51.15 130.75 51 130.6
L 50.95 130.55
Q 50.95 130.45 50.95 130.4 50.75 130.3 50.55 130.25 50.5 130.2 50.4 130.2 50.2 130.15 49.95 130.2 49.7 130.25 49.6 130.45 49.55 130.7 49.7 130.9 49.75 130.85 49.75 130.9 49.9 131.1 50.2 131.2 50.35 131.2 50.5 131.25 50.6 131.25 50.65 131.25
M 53.85 131.45
Q 53.6 131.4 53.35 131.55 53.1 131.7 53.1 131.9 53.1 132.15 53.35 132.25 53.55 132.4 53.85 132.4 54.2 132.4 54.45 132.35 54.65 132.15 54.65 131.95 54.65 131.75 54.45 131.6 54.2 131.4 53.85 131.45
M 42.9 120.65
Q 42.75 120.5 42.6 120.45 42.3 120.5 42.1 120.7 42.1 120.75 42.05 120.75 41.85 121.05 41.8 121.45 41.85 121.7 41.85 121.85 41.95 122.05 42 122.2 42.2 122.45 42.35 122.45 42.45 122.55 42.5 122.5 42.75 122.55 42.95 122.25 43.2 121.95 43.2 121.5 43.2 121.1 43 120.75 42.9 120.75 42.9 120.65 Z"/>
</g>

<g id="caixa_06_0_Layer2_0_MEMBER_0_MEMBER_4_FILL">
<path fill="#FE5800" stroke="none" d="
M 55.85 98.85
Q 55.8046875 98.85 55.75 98.85 55.8474609375 98.8525390625 55.8 98.9 65.4 108.55 74.9 124.05
L 75 124.2
Q 76.45 126.05 78.45 126.85 79.05 127.1 79.8 127.25 81.1 127.5 82.5 127.4 84.45 127.2 86.65 126.4 87.95 125.95 89.4 125.2 86.35 125.4 70.15 104.65 70.2 104.6 70.15 104.6 69.75 104.05 69.35 103.55 69.2 103.5 69.05 103.45 68.9 103.45 68.75 103.35 68.7 103.3 68.6 103.25 68.5 103.3 68.35 103.25 68.3 103.15 68.15 103.15 68 103.15 67.95 103.15 60.8 100.8 56.75 99.2 56.35 99.05 55.85 98.85
M 83.75 105.55
Q 83.6 105.25 83.3 105 76.35 105.6 71.35 103.65 85.5 119.4 90.9 122.35 92 122.9 92.65 122.95 92.7 122.95 92.75 122.95 94 122.55 95.3 121.45 96.85 120.1 98.25 117.6 98.2 117.5 98.1 117.5 88.1 110.8 83.8 105.6
L 83.75 105.55
M 95.25 102.1
L 92.75 102.8
Q 89.75 103.8 86.5 104.3 85.75 104.4 85 104.55 87.2 106.65 89.5 108.55 92.2 110.7 94.95 112.65 97.25 114.2 99.75 115.55 101 113.2 100.7 110.65 100.4 108.05 98.8 105.9 97.3 103.8 95.25 102.1
M 110.15 114.9
Q 110.7 114 110.95 113.05 111.65 110.35 109.75 107.95 105.15 103.55 97 101.15 105.35 107.2 102.05 116.4 103.4 117.2 104.15 117.4 105.15 117.6 105.95 117.55 107.2 117.5 108.2 116.9 109.15 116.3 109.9 115.2 110 115.05 110.15 114.9
M 59.9 94.6
Q 59.55 95.05 59.25 95.5
L 57.65 97.5
Q 57.8 97.7 57.25 98 63.65 99.75 68.7 100.85 68.8 100.9 68.9 100.9 69.05 100.95 69.1 100.95 69.25 100.95 69.3 100.95 69.45 101.05 69.6 101.05 69.7 101.05 69.85 101.05 70.25 101.15 70.8 101.25 71.25 101.35 71.65 101.4
L 71.65 101.45
Q 78.45 102.45 84.65 101.8 88.35 101.45 93.85 100.55 79.1 94.95 68.65 94.45 61.75 94.05 60.15 94.2 59.35 94.25 60 94.45 60 94.55 59.9 94.6 Z"/>

<path fill="#000000" stroke="none" d="
M 60.3 94.05
Q 60.2 94.1 60.15 94.2 61.75 94.05 68.65 94.45 79.1 94.95 93.85 100.55 88.35 101.45 84.65 101.8 78.45 102.45 71.65 101.45
L 71.65 101.4
Q 71.25 101.35 70.8 101.25 70.25 101.15 69.85 101.05 69.7 101.05 69.6 101.05 69.45 101.05 69.3 100.95 69.25 100.95 69.1 100.95 69.05 100.95 68.9 100.9 68.8 100.9 68.7 100.85 63.65 99.75 57.25 98 57.8 97.7 57.65 97.5 57.6 97.45 57.5 97.35 56.7 98.15 55.85 98.85 56.35 99.05 56.75 99.2 60.8 100.8 67.95 103.15 68 103.15 68.15 103.15 68.3 103.15 68.35 103.25 68.5 103.3 68.6 103.25 68.7 103.3 68.75 103.35 68.9 103.45 69.05 103.45 69.2 103.5 69.35 103.55 69.75 104.05 70.15 104.6 70.2 104.6 70.15 104.65 86.35 125.4 89.4 125.2 87.95 125.95 86.65 126.4 84.45 127.2 82.5 127.4 81.1 127.5 79.8 127.25 79.05 127.1 78.45 126.85 76.45 126.05 75 124.2
L 74.9 124.05
Q 65.4 108.55 55.8 98.9
L 55.3 99.3
Q 56.1 99.9 62.15 108.55 69.55 119.05 71.8 124.55 74.05 130.05 75.55 131.2 75.6 131.25 75.7 131.3
L 75.75 131.35
Q 75.8 131.35 75.9 131.4 79.05 133.6 83.2 132.8 83.25 132.85 83.25 132.8
L 83.3 132.8
Q 85.15 132.4 87.15 131.55 88 131 88.85 130.45 88.95 130.4 89.05 130.35
L 89.1 130.35
Q 91.25 128.95 93.25 127.4 95.2 126.1 97.6 125.35 98 125.25 98.55 125.1 100.55 124.7 102.25 124.3
L 102.3 124.25 102.3 124.3
Q 104.65 123.65 106.5 122.9 106.55 122.9 106.55 122.85 109.05 121.8 110.6 120.55
L 110.7 120.45
Q 111.4 119.9 111.8 119.2 112.6 118.2 113.05 117.2 113.15 116.8 113.25 116.45 113.75 114.95 113.65 113.3 113.65 113 113.6 112.7
L 113.55 112.7
Q 113.55 112.6 113.55 112.55 113.45 111.7 113.05 110.8 112.9 110.3 112.65 109.8 111.95 108.3 110.9 107.1 110.95 107.1 110.9 107.05
L 110.8 107
Q 109.9 105.85 107.95 104.4 106.05 102.9 102.5 101.1 99 99.35 88.45 96 77.8 92.65 68.05 92.4 66.4 92.25 65 92.35 61.35 92.5 60.3 94.05
M 76.95 128.3
Q 77.3 128.2 77.75 128.3 78.15 128.45 78.5 128.8 78.65 129.2 78.6 129.45 78.5 129.85 78.15 129.9 77.75 130 77.25 129.85 77.05 129.85 76.9 129.7 76.75 129.6 76.6 129.4 76.35 129.05 76.4 128.7 76.55 128.45 76.95 128.3
M 111.2 116.9
Q 111.2 116.6 111.35 116.25 111.55 115.95 111.85 115.8 112.05 115.8 112.15 115.7 112.3 115.75 112.4 115.85 112.6 115.95 112.6 116.25 112.6 116.6 112.35 116.95 112.15 117.25 111.85 117.35 111.8 117.45 111.65 117.45 111.5 117.5 111.35 117.4 111.2 117.25 111.2 116.9
M 110.95 113.05
Q 110.7 114 110.15 114.9 110 115.05 109.9 115.2 109.15 116.3 108.2 116.9 107.2 117.5 105.95 117.55 105.15 117.6 104.15 117.4 103.4 117.2 102.05 116.4 105.35 107.2 97 101.15 105.15 103.55 109.75 107.95 111.65 110.35 110.95 113.05
M 105 120.65
L 105.05 120.6
Q 105.2 120.4 105.55 120.2 105.8 120.15 106.05 120.2 106.15 120.2 106.3 120.2 106.4 120.25 106.5 120.3 106.6 120.45 106.65 120.55 106.7 120.75 106.55 121.05 106.35 121.35 105.95 121.45 105.65 121.55 105.3 121.5 105 121.35 104.85 121.15 104.9 121.05 104.85 121 104.85 120.85 105 120.65
M 102.55 122.1
Q 102.3 122.45 101.85 122.65 101.4 122.8 101.05 122.65 101.05 122.7 101 122.65 100.6 122.5 100.55 122.3 100.5 122.1 100.55 121.9 100.65 121.8 100.7 121.7 100.9 121.35 101.4 121.15 101.85 121.05 102.25 121.15 102.35 121.2 102.4 121.25 102.6 121.35 102.65 121.55 102.75 121.65 102.7 121.8 102.75 121.95 102.55 122.1
M 109.1 118.7
Q 109.45 118.45 109.75 118.45 110.15 118.45 110.25 118.65 110.4 118.8 110.3 119.15 110.25 119.2 110.25 119.3
L 110.2 119.3
Q 110.1 119.5 109.85 119.7 109.5 119.9 109.2 119.9 108.9 119.9 108.8 119.75
L 108.75 119.7
Q 108.55 119.5 108.75 119.25 108.8 118.9 109.1 118.7
M 112.05 112.75
Q 112.2 112.55 112.35 112.6 112.55 112.65 112.65 112.85 112.75 113.05 112.75 113.4 112.65 113.7 112.5 113.9 112.45 114 112.3 114
L 112.25 114.05
Q 112.2 114 112.15 114 112 113.95 111.9 113.7 111.75 113.45 111.8 113.2 111.85 112.9 112.05 112.75
M 92.75 102.8
L 95.25 102.1
Q 97.3 103.8 98.8 105.9 100.4 108.05 100.7 110.65 101 113.2 99.75 115.55 97.25 114.2 94.95 112.65 92.2 110.7 89.5 108.55 87.2 106.65 85 104.55 85.75 104.4 86.5 104.3 89.75 103.8 92.75 102.8
M 83.3 105
Q 83.6 105.25 83.75 105.55
L 83.8 105.6
Q 88.1 110.8 98.1 117.5 98.2 117.5 98.25 117.6 96.85 120.1 95.3 121.45 94 122.55 92.75 122.95 92.7 122.95 92.65 122.95 92 122.9 90.9 122.35 85.5 119.4 71.35 103.65 76.35 105.6 83.3 105
M 96.45 122.85
Q 96.9 122.6 97.3 122.7 97.7 122.75 97.85 123 98 123.3 97.8 123.65 97.6 123.95 97.2 124.2 96.8 124.5 96.35 124.35 96 124.35 95.8 124.05 95.75 123.85 95.9 123.45 96.1 123.15 96.45 122.85
M 93.1 125.1
Q 93.15 125.2 93.15 125.25 93.2 125.45 93.15 125.65 93 126 92.6 126.25 92.25 126.6 91.8 126.65 91.4 126.6 91.25 126.4 91.1 126.2 91.2 125.75 91.3 125.35 91.7 125.1 92.1 124.8 92.5 124.8
L 92.55 124.8
Q 92.85 124.75 93.05 125 93.1 125.05 93.1 125.1
M 88.35 129.2
Q 88.15 129.4 87.9 129.45 87.45 129.65 86.95 129.6 86.45 129.45 86.3 129.1 86.15 128.8 86.35 128.4 86.55 127.95 87.1 127.75 87.6 127.5 88.05 127.6 88.55 127.75 88.75 128.1 88.9 128.45 88.65 128.85 88.55 129.1 88.35 129.2
M 81.7 129.4
Q 82 129.05 82.6 129 83.1 128.9 83.55 129.1 83.95 129.35 84.05 129.75 84.15 130.2 83.8 130.45 83.5 130.8 82.85 130.85 82.4 130.9 81.9 130.7 81.5 130.45 81.4 130.1 81.4 130 81.45 129.95 81.4 129.65 81.7 129.4 Z"/>

<path fill="#FFFFFF" stroke="none" d="
M 82.6 129
Q 82 129.05 81.7 129.4 81.4 129.65 81.45 129.95 81.4 130 81.4 130.1 81.5 130.45 81.9 130.7 82.4 130.9 82.85 130.85 83.5 130.8 83.8 130.45 84.15 130.2 84.05 129.75 83.95 129.35 83.55 129.1 83.1 128.9 82.6 129
M 87.9 129.45
Q 88.15 129.4 88.35 129.2 88.55 129.1 88.65 128.85 88.9 128.45 88.75 128.1 88.55 127.75 88.05 127.6 87.6 127.5 87.1 127.75 86.55 127.95 86.35 128.4 86.15 128.8 86.3 129.1 86.45 129.45 86.95 129.6 87.45 129.65 87.9 129.45
M 93.15 125.25
Q 93.15 125.2 93.1 125.1 93.1 125.05 93.05 125 92.85 124.75 92.55 124.8
L 92.5 124.8
Q 92.1 124.8 91.7 125.1 91.3 125.35 91.2 125.75 91.1 126.2 91.25 126.4 91.4 126.6 91.8 126.65 92.25 126.6 92.6 126.25 93 126 93.15 125.65 93.2 125.45 93.15 125.25
M 97.3 122.7
Q 96.9 122.6 96.45 122.85 96.1 123.15 95.9 123.45 95.75 123.85 95.8 124.05 96 124.35 96.35 124.35 96.8 124.5 97.2 124.2 97.6 123.95 97.8 123.65 98 123.3 97.85 123 97.7 122.75 97.3 122.7
M 112.35 112.6
Q 112.2 112.55 112.05 112.75 111.85 112.9 111.8 113.2 111.75 113.45 111.9 113.7 112 113.95 112.15 114 112.2 114 112.25 114.05
L 112.3 114
Q 112.45 114 112.5 113.9 112.65 113.7 112.75 113.4 112.75 113.05 112.65 112.85 112.55 112.65 112.35 112.6
M 109.75 118.45
Q 109.45 118.45 109.1 118.7 108.8 118.9 108.75 119.25 108.55 119.5 108.75 119.7
L 108.8 119.75
Q 108.9 119.9 109.2 119.9 109.5 119.9 109.85 119.7 110.1 119.5 110.2 119.3
L 110.25 119.3
Q 110.25 119.2 110.3 119.15 110.4 118.8 110.25 118.65 110.15 118.45 109.75 118.45
M 101.85 122.65
Q 102.3 122.45 102.55 122.1 102.75 121.95 102.7 121.8 102.75 121.65 102.65 121.55 102.6 121.35 102.4 121.25 102.35 121.2 102.25 121.15 101.85 121.05 101.4 121.15 100.9 121.35 100.7 121.7 100.65 121.8 100.55 121.9 100.5 122.1 100.55 122.3 100.6 122.5 101 122.65 101.05 122.7 101.05 122.65 101.4 122.8 101.85 122.65
M 105.05 120.6
L 105 120.65
Q 104.85 120.85 104.85 121 104.9 121.05 104.85 121.15 105 121.35 105.3 121.5 105.65 121.55 105.95 121.45 106.35 121.35 106.55 121.05 106.7 120.75 106.65 120.55 106.6 120.45 106.5 120.3 106.4 120.25 106.3 120.2 106.15 120.2 106.05 120.2 105.8 120.15 105.55 120.2 105.2 120.4 105.05 120.6
M 111.35 116.25
Q 111.2 116.6 111.2 116.9 111.2 117.25 111.35 117.4 111.5 117.5 111.65 117.45 111.8 117.45 111.85 117.35 112.15 117.25 112.35 116.95 112.6 116.6 112.6 116.25 112.6 115.95 112.4 115.85 112.3 115.75 112.15 115.7 112.05 115.8 111.85 115.8 111.55 115.95 111.35 116.25
M 77.75 128.3
Q 77.3 128.2 76.95 128.3 76.55 128.45 76.4 128.7 76.35 129.05 76.6 129.4 76.75 129.6 76.9 129.7 77.05 129.85 77.25 129.85 77.75 130 78.15 129.9 78.5 129.85 78.6 129.45 78.65 129.2 78.5 128.8 78.15 128.45 77.75 128.3 Z"/>
</g>

<g id="caixa_06_0_Layer2_0_MEMBER_0_MEMBER_5_FILL">
<path fill="#FE5800" stroke="none" d="
M 57.8 96.4
Q 57.75 96.65 57.2 96.65 62.2 101.15 66.2 104.3 66.3 104.35 66.35 104.45 66.5 104.5 66.5 104.6
L 66.65 104.7
Q 66.85 104.8 66.9 104.9 67 104.95 67.1 105 67.5 105.3 67.85 105.55 68.25 105.85 68.6 106.1
L 68.6 106.15
Q 74.2 110.05 80.1 112.2 83.55 113.5 88.85 115.15 78.15 103.7 68.95 98.55 62.9 95.15 61.5 94.55 60.7 94.3 61.25 94.75 61.15 94.8 61.05 94.8 60.55 95.1 60.05 95.3
L 57.8 96.4
M 55.6 96.85
L 55.55 96.8 55.45 96.85
Q 55.55 96.85 55.5 96.9 59.8 109.8 61.5 127.9
L 61.55 128
Q 62.05 130.35 63.45 131.95 63.95 132.45 64.45 132.9 65.55 133.7 66.85 134.25 68.7 134.95 71 135.2 72.4 135.35 74 135.3 71.25 134.15 65.85 108.3
L 65.8 108.3
Q 65.75 107.65 65.55 107.05 65.5 106.9 65.4 106.8 65.3 106.65 65.15 106.6 65.1 106.55 65.05 106.4 64.95 106.4 64.9 106.3 64.75 106.2 64.65 106.15 64.6 106.1 64.55 106 59.1 100.8 56.2 97.55 55.9 97.2 55.6 96.85
M 96.8 135.4
Q 97 135.35 97.15 135.25 98.05 134.6 98.75 133.95 100.55 131.85 99.9 128.85 97.75 122.85 91.5 117.1 96.3 126.2 89.25 133 90.15 134.25 90.75 134.8 91.5 135.4 92.2 135.75 93.4 136.3 94.55 136.15 95.7 136.05 96.8 135.4
M 80.65 115.25
Q 79.95 115.05 79.2 114.85 80.2 117.7 81.5 120.4 82.9 123.5 84.55 126.5 85.95 128.9 87.55 131.2 89.7 129.65 90.6 127.2 91.5 124.75 90.95 122.15 90.55 119.6 89.45 117.2
L 86.95 116.7
Q 83.75 116.25 80.65 115.25
M 77.7 115.3
Q 77.65 115.2 77.65 115.15 77.65 114.85 77.5 114.5 70.95 111.95 67.35 108 73.05 128.35 76.65 133.4 77.35 134.4 77.95 134.8
L 78 134.8
Q 79.35 134.95 80.95 134.55 83 134 85.3 132.35 85.3 132.3 85.2 132.2 79.25 121.8 77.7 115.3 Z"/>

<path fill="#000000" stroke="none" d="
M 55.5 96.9
L 54.85 97
Q 55.3 97.95 56.9 108.4 58.9 121 58.55 126.95 58.1 132.9 59 134.6
L 59 134.8
Q 59.1 134.85 59.15 134.95 61.05 138.25 65.1 139.4
L 65.2 139.4
Q 67 139.9 69.25 139.95 70.2 139.9 71.2 139.8 71.3 139.75 71.5 139.8
L 71.5 139.75
Q 74.05 139.45 76.5 139 78.8 138.7 81.25 139.1 81.75 139.15 82.25 139.25 84.2 139.75 85.95 140.15
L 86 140.1 86 140.15
Q 88.4 140.65 90.35 140.75 90.4 140.75 90.45 140.75 93.15 141 95.05 140.5
L 95.2 140.45
Q 96.1 140.2 96.8 139.85 97.9 139.25 98.75 138.55
L 98.8 138.55
Q 99.05 138.3 99.3 138.05 100.45 136.85 101.05 135.3 101.15 135.1 101.25 134.8 101.25 134.7 101.25 134.6 101.55 133.8 101.65 132.85 101.65 132.3 101.7 131.75 101.75 130.15 101.35 128.55
L 101.3 128.55
Q 101.35 128.5 101.3 128.45 101.35 128.45 101.3 128.4 100.95 127 99.9 124.8 98.8 122.65 96.4 119.5 94 116.35 86.05 108.7 78 101 69.35 96.45 67.95 95.6 66.65 95.05 63.35 93.55 61.65 94.5 61.55 94.55 61.5 94.55 62.9 95.15 68.95 98.55 78.15 103.7 88.85 115.15 83.55 113.5 80.1 112.2 74.2 110.05 68.6 106.15
L 68.6 106.1
Q 68.25 105.85 67.85 105.55 67.5 105.3 67.1 105 67 104.95 66.9 104.9 66.85 104.8 66.65 104.7
L 66.5 104.6
Q 66.5 104.5 66.35 104.45 66.3 104.35 66.2 104.3 62.2 101.15 57.2 96.65 57.75 96.65 57.8 96.4 57.75 96.35 57.65 96.25 56.7 96.55 55.55 96.8
L 55.6 96.85
Q 55.9 97.2 56.2 97.55 59.1 100.8 64.55 106 64.6 106.1 64.65 106.15 64.75 106.2 64.9 106.3 64.95 106.4 65.05 106.4 65.1 106.55 65.15 106.6 65.3 106.65 65.4 106.8 65.5 106.9 65.55 107.05 65.75 107.65 65.8 108.3
L 65.85 108.3
Q 71.25 134.15 74 135.3 72.4 135.35 71 135.2 68.7 134.95 66.85 134.25 65.55 133.7 64.45 132.9 63.95 132.45 63.45 131.95 62.05 130.35 61.55 128
L 61.5 127.9
Q 59.8 109.8 55.5 96.9
M 77.65 115.15
Q 77.65 115.2 77.7 115.3 79.25 121.8 85.2 132.2 85.3 132.3 85.3 132.35 83 134 80.95 134.55 79.35 134.95 78 134.8
L 77.95 134.8
Q 77.35 134.4 76.65 133.4 73.05 128.35 67.35 108 70.95 111.95 77.5 114.5 77.65 114.85 77.65 115.15
M 79.2 114.85
Q 79.95 115.05 80.65 115.25 83.75 116.25 86.95 116.7
L 89.45 117.2
Q 90.55 119.6 90.95 122.15 91.5 124.75 90.6 127.2 89.7 129.65 87.55 131.2 85.95 128.9 84.55 126.5 82.9 123.5 81.5 120.4 80.2 117.7 79.2 114.85
M 60.85 132.7
Q 61.05 132.55 61.5 132.65 61.85 132.65 62.25 132.95 62.55 133.25 62.6 133.7 62.65 134.15 62.45 134.3 62.2 134.65 61.85 134.55 61.4 134.5 61.1 134.1 60.9 134 60.8 133.8 60.7 133.6 60.7 133.4 60.65 133 60.85 132.7
M 64.75 136
Q 64.9 135.8 65.25 135.65 65.7 135.45 66.25 135.65 66.75 135.85 67.05 136.25 67.3 136.65 67.2 137 67.15 137.45 66.65 137.55 66.25 137.75 65.65 137.5 65.25 137.35 64.9 136.95 64.6 136.55 64.7 136.15 64.75 136.1 64.75 136
M 70.75 138.5
Q 70.3 138.45 69.9 138.15 69.5 137.85 69.5 137.45 69.45 137.1 69.9 136.85 70.25 136.55 70.85 136.55 71.35 136.6 71.75 136.9 72.1 137.25 72.1 137.55 72.15 138 71.75 138.25 71.55 138.4 71.25 138.4 71 138.5 70.75 138.5
M 80.25 137.15
Q 80.3 136.9 80.6 136.6 80.95 136.4 81.4 136.35 81.9 136.3 82.25 136.55 82.6 136.8 82.6 137.1 82.6 137.4 82.25 137.6 81.9 137.85 81.4 137.85 81 137.9 80.7 137.7 80.35 137.45 80.25 137.15
M 76.1 136.2
Q 76.6 136.15 76.9 136.3
L 77 136.35
Q 77.3 136.45 77.4 136.75 77.4 136.8 77.4 136.85 77.45 136.95 77.4 137.05 77.35 137.2 77.15 137.35 76.9 137.6 76.35 137.7 75.95 137.8 75.55 137.65 75.2 137.5 75.1 137.2 75.05 136.9 75.4 136.65 75.65 136.35 76.1 136.2
M 97.15 135.25
Q 97 135.35 96.8 135.4 95.7 136.05 94.55 136.15 93.4 136.3 92.2 135.75 91.5 135.4 90.75 134.8 90.15 134.25 89.25 133 96.3 126.2 91.5 117.1 97.75 122.85 99.9 128.85 100.55 131.85 98.75 133.95 98.05 134.6 97.15 135.25
M 100.2 134.15
Q 100.4 134.25 100.4 134.5 100.4 134.75 100.15 135.05 100.05 135.25 99.75 135.3 99.65 135.45 99.55 135.35 99.5 135.35 99.45 135.35 99.4 135.3 99.35 135.3 99.2 135.15 99.25 134.95 99.2 134.65 99.4 134.45 99.6 134.15 99.8 134.1 100.05 134 100.2 134.15
M 89.9 139
Q 89.7 138.75 89.7 138.55 89.7 138.45 89.75 138.35 89.8 138.25 90.05 138.15
L 90.1 138.1
Q 90.3 138 90.7 138 90.95 138.05 91.2 138.15 91.25 138.25 91.35 138.3 91.45 138.35 91.55 138.45 91.55 138.6 91.5 138.75 91.5 139 91.25 139.2 90.95 139.3 90.5 139.25 90.15 139.2 89.9 139
M 87.45 138.1
Q 87.4 138.3 87.15 138.35 86.85 138.5 86.35 138.5 85.85 138.4 85.6 138.15 85.55 138.2 85.55 138.15 85.3 137.85 85.3 137.6 85.35 137.4 85.5 137.3 85.6 137.2 85.7 137.15 86.1 136.9 86.5 136.95 87 137.1 87.3 137.35 87.4 137.45 87.45 137.45 87.6 137.7 87.55 137.85 87.5 138.05 87.45 138.1
M 98.8 137
Q 98.95 137.25 98.8 137.5 98.65 137.85 98.3 138.05 97.95 138.25 97.7 138.25 97.55 138.25 97.45 138.2 97.25 138.15 97.15 138 97.1 137.8 97.25 137.45 97.3 137.2 97.65 136.95 98 136.8 98.3 136.8 98.55 136.85 98.6 136.85 98.7 136.95 98.8 137
M 94.6 138.15
Q 95 138.1 95.3 138.25 95.55 138.35 95.6 138.65 95.65 138.85 95.4 139.1
L 95.3 139.2
Q 95.05 139.35 94.8 139.35 94.4 139.4 94.05 139.3 93.9 139.2 93.85 139
L 93.8 138.9
Q 93.75 138.7 94 138.5 94.2 138.25 94.6 138.15 Z"/>

<path fill="#FFFFFF" stroke="none" d="
M 95.3 138.25
Q 95 138.1 94.6 138.15 94.2 138.25 94 138.5 93.75 138.7 93.8 138.9
L 93.85 139
Q 93.9 139.2 94.05 139.3 94.4 139.4 94.8 139.35 95.05 139.35 95.3 139.2
L 95.4 139.1
Q 95.65 138.85 95.6 138.65 95.55 138.35 95.3 138.25
M 98.8 137.5
Q 98.95 137.25 98.8 137 98.7 136.95 98.6 136.85 98.55 136.85 98.3 136.8 98 136.8 97.65 136.95 97.3 137.2 97.25 137.45 97.1 137.8 97.15 138 97.25 138.15 97.45 138.2 97.55 138.25 97.7 138.25 97.95 138.25 98.3 138.05 98.65 137.85 98.8 137.5
M 87.15 138.35
Q 87.4 138.3 87.45 138.1 87.5 138.05 87.55 137.85 87.6 137.7 87.45 137.45 87.4 137.45 87.3 137.35 87 137.1 86.5 136.95 86.1 136.9 85.7 137.15 85.6 137.2 85.5 137.3 85.35 137.4 85.3 137.6 85.3 137.85 85.55 138.15 85.55 138.2 85.6 138.15 85.85 138.4 86.35 138.5 86.85 138.5 87.15 138.35
M 89.7 138.55
Q 89.7 138.75 89.9 139 90.15 139.2 90.5 139.25 90.95 139.3 91.25 139.2 91.5 139 91.5 138.75 91.55 138.6 91.55 138.45 91.45 138.35 91.35 138.3 91.25 138.25 91.2 138.15 90.95 138.05 90.7 138 90.3 138 90.1 138.1
L 90.05 138.15
Q 89.8 138.25 89.75 138.35 89.7 138.45 89.7 138.55
M 100.4 134.5
Q 100.4 134.25 100.2 134.15 100.05 134 99.8 134.1 99.6 134.15 99.4 134.45 99.2 134.65 99.25 134.95 99.2 135.15 99.35 135.3 99.4 135.3 99.45 135.35 99.5 135.35 99.55 135.35 99.65 135.45 99.75 135.3 100.05 135.25 100.15 135.05 100.4 134.75 100.4 134.5
M 76.9 136.3
Q 76.6 136.15 76.1 136.2 75.65 136.35 75.4 136.65 75.05 136.9 75.1 137.2 75.2 137.5 75.55 137.65 75.95 137.8 76.35 137.7 76.9 137.6 77.15 137.35 77.35 137.2 77.4 137.05 77.45 136.95 77.4 136.85 77.4 136.8 77.4 136.75 77.3 136.45 77 136.35
L 76.9 136.3
M 80.6 136.6
Q 80.3 136.9 80.25 137.15 80.35 137.45 80.7 137.7 81 137.9 81.4 137.85 81.9 137.85 82.25 137.6 82.6 137.4 82.6 137.1 82.6 136.8 82.25 136.55 81.9 136.3 81.4 136.35 80.95 136.4 80.6 136.6
M 69.9 138.15
Q 70.3 138.45 70.75 138.5 71 138.5 71.25 138.4 71.55 138.4 71.75 138.25 72.15 138 72.1 137.55 72.1 137.25 71.75 136.9 71.35 136.6 70.85 136.55 70.25 136.55 69.9 136.85 69.45 137.1 69.5 137.45 69.5 137.85 69.9 138.15
M 65.25 135.65
Q 64.9 135.8 64.75 136 64.75 136.1 64.7 136.15 64.6 136.55 64.9 136.95 65.25 137.35 65.65 137.5 66.25 137.75 66.65 137.55 67.15 137.45 67.2 137 67.3 136.65 67.05 136.25 66.75 135.85 66.25 135.65 65.7 135.45 65.25 135.65
M 61.5 132.65
Q 61.05 132.55 60.85 132.7 60.65 133 60.7 133.4 60.7 133.6 60.8 133.8 60.9 134 61.1 134.1 61.4 134.5 61.85 134.55 62.2 134.65 62.45 134.3 62.65 134.15 62.6 133.7 62.55 133.25 62.25 132.95 61.85 132.65 61.5 132.65 Z"/>
</g>

<g id="caixa_06_0_Layer2_0_MEMBER_1_FILL">
<path fill="#7B570F" stroke="none" d="
M 208.2 19.35
Q 212 19.55 214.5 19.6 213.95 16.2 213.55 11.95 213.45 11.45 213.4 10.9 212.85 4.95 212.3 0.85 199.75 2.2 178.8 5 141.9 9.85 140.15 9.6 140.24375 9.553125 140.4 9.55 135.883984375 9.546875 130 8.4 123.55 7.2 114.95 7 109.35 6.9 104.3 5.85 99.25 4.75 90.3 4 90 3.95 89.6 3.95 83.4 3.6 63.6 5.15 56.65 5.7 48.1 6.5 41.9 7.05 34.85 7.75 20.85 9.1 10.75 10.15 9.7 10.25 8.65 10.35 -12.85 12.55 -15.2 13.05 -18.4 13.75 -23.35 14.1 -25.45 14.25 -27.25 14.35 -30.65 14.6 -32.95 14.75 -46.65 15.75 -58.95 19.1 -68 22.05 -73.2 22.95 -79.8 24.05 -92 23.85 -90.95 29.35 -90 35.15 -89.7 36.85 -89.45 38.75 -89.1 41.35 -88.85 44.25 -82.2 42.05 -74.5 40.05 -71.75 39.35 -68.8 38.65 -67.2 38.25 -65.6 37.9 -53.55 35.15 -51.65 35.15 -51.05 35.15 -50.5 35.15 -44 33.35 -37 32.1 -32.7 31.4 -29.9 30.75 -28.35 30.45 -27.25 30.15 -26.35 29.9 -25.75 29.65 -23.6 28.85 -20.4 28.3 -17.6 27.75 -14 27.45 -12.3 27.3 -10.45 27.2 -5.05 26.9 1.85 26.65 5.4 26.15 8.65 25.75 9.75 25.6 10.75 25.45 22.8 23.95 31.4 23.55 32.45 23.45 33.5 23.45 34.3 23.4 35.1 23.4 39.55 23.3 45.5 23.1 51.45 22.85 56 22.95 60.55 23.05 62.25 22.45 63.95 21.85 89.6 23.95 97.35 24.55 107.35 25.55 118.3 26.6 137.4 28.6 146.15 29.45 149.3 29.65
L 149.35 29.65
Q 151.05 29.8 151.05 29.65 157 29.25 167.75 26.65 180.7 23.5 185.25 20.6 186.35 19.9 188.6 19.5 190.7 19.1 193.85 19 196.15 18.9 199.1 18.95 201.25 19.05 208.2 19.35 Z"/>
</g>

<g id="caixa_06_0_Layer2_0_MEMBER_2_FILL">
<path fill="#996600" stroke="none" d="
M 95.4 21.75
Q 95.15 21.75 94.8 21.8
L 94.8 22.1
Q 95 21.8 95.4 21.75
M 224.25 17.55
Q 224.2 17.05 224.15 16.5 223.6 10.65 223.05 6.6 210.65 7.95 190 10.7 153.7 15.5 151.95 15.2 152.04375 15.153125 152.2 15.15 147.7837890625 15.146875 141.95 14.05 135.6 12.9 127.15 12.7 121.65 12.55 116.65 11.5 111.65 10.5 102.85 9.7 102.55 9.7 102.2 9.65 96.05 9.3 76.5 10.85 69.7 11.4 61.25 12.15 55.15 12.75 48.2 13.4 34.45 14.75 24.5 15.75 23.4 15.85 22.4 16 1.2 18.1 -1.1 18.65 -4.25 19.3 -9.15 19.7 -11.2 19.8 -13 19.95 -16.35 20.15 -18.6 20.3 -32.05 21.3 -44.2 24.6 -53.1 27.5 -58.25 28.4 -64.75 29.5 -76.75 29.25 -75.75 34.7 -74.8 40.4 -74.5 42.1 -74.25 43.95 -68.6 43.2 -60.55 41.1 -57.9 40.4 -54.95 39.6 -50.85 38.4 -43.2 36.2 -37 34.45 -33.5 33.9 -30.6 33.5 -25.45 33.1 -22.55 32.9 -16.35 32.55 -14.6 32.4 -13 32.25 -9.4 31.9 -6.6 31.4 -2.55 30.75 -0.2 29.8 5.75 27.4 22.4 25.8 22.85 25.75 23.25 25.7 23.85 25.65 24.5 25.6 37.85 24.35 44.55 24.55 45.05 24.55 46.7 24.5 50.7 24.3 61.25 23.7 65.05 23.5 69.75 23.2 73.4 22.95 76.5 22.8 91.45 21.9 94.8 21.8
L 94.8 21.75
Q 94.8 21.3 102.2 22.1 103.8 22.25 105.75 22.5 116.05 23.75 127.05 25.6 133.85 26.7 145.2 27.55 155.85 28.35 162.6 28.35 167.85 28.35 169.85 28.15 171.65 28 174.7 27.3 183.9 25.15 195.85 23 197.5 22.7 199.2 22.4
L 199.25 22.4
Q 201.9 21.9 204.75 21.45 205.6 21.3 209.25 20.6 212.65 19.9 218.6 18.65 221.65 18.05 224.25 17.55
M 209.25 12.7
L 210.4 12.8
Q 211.6 12.9 211.8 13.05 210.65 13.75 195.15 18.45 178.95 23.3 176.3 23.3 174.7 23.3 174.5 22.9
L 174.5 22.5
Q 190.25 19.05 196.4 17.4 206.85 14.7 209.25 12.7
M 170.9 19.1
Q 174.9 18.05 178.45 17.95 173.95 19.45 171.75 20.1 168 21.2 162.4 21.9
L 128.2 21.8
Q 128.15 21.95 128.1 21.95 128 22 128 21.45 128 20.9 128.15 20.95 128.2 20.95 128.45 21.05
L 163.1 21
Q 165.4 20.6 170.9 19.1
M 124.45 15.15
Q 124.45 15.3 123.9 15.3 123.3 15.3 120.85 14.7 117.6 13.9 115.8 13.55 108.2 12.15 103.15 13.55
L 87.3 13.5
Q 87.25 13.6 87.2 13.6 87.1 13.65 87.1 13.1 87.1 12.6 87.2 12.6 87.3 12.6 87.5 12.7
L 103.65 12.55
Q 109.15 11.55 116.15 12.75 119.55 13.35 124.4 14.8 124.35 14.95 124.45 15.15
M 116.45 21.4
Q 116.5 21.55 116 21.55 114.65 21.55 112.55 20.85 110.2 20.1 109.3 19.2
L 70.95 19
Q 70.45 18.85 67.85 18.7 67.7 19.15 67.7 18.3 67.7 17.8 67.9 17.85 68 17.85 68.1 17.95
L 69.35 18
Q 70.65 18.1 70.95 18.2
L 109.55 18.35
Q 110.5 19.05 116.4 21.05 116.35 21.2 116.45 21.4
M 61 18.7
L 61.3 18.95
Q 61.35 19 61.25 19.05 60.9 19.3 58.75 20.15
L 34.65 20.35
Q 34.15 20.5 32.05 20.65 31.8 20.85 31.8 21.1 31.8 21.35 31.75 21.4 31.5 21.55 28.6 21.55 28 21.55 27.8 21.5 27.6 21.4 27.45 21.2 27.9 20.8 28.05 20.7 28.7 20.5 31.35 20.15 31.55 19.95 32.15 19.8 33.05 19.55 35.15 19.3
L 59 19.1
Q 60.25 18.7 61 18.7
M 21.05 22.05
L 20.85 22.6
Q 16.95 22.45 14.15 22.45 9 22.5 5 23.3
L -3.9 23.45
Q -8.45 25 -13 25.7 -17.35 26.4 -21.7 26.4 -23.25 26.4 -23.55 26.1 -16.8 25.3 -13 24.75 -10.35 24.35 -9.15 24.05 -7.2 23.6 -3.65 22.4
L 5.25 22.25
Q 5.65 22.05 7.25 21.9 9.2 21.7 12.25 21.55 12.25 21.45 14.9 21.55 17.75 21.7 21.05 22.05
M -67.35 36.35
L -67.5 36
Q -58.9 33.3 -46.35 31.15 -34.4 29.1 -28.25 29 -29.95 29.3 -47.75 32.65 -56.8 34.4 -67.35 36.35 Z"/>

<path fill="#7B570F" stroke="none" d="
M 209.25 20.6
Q 205.6 21.3 204.75 21.45 201.9 21.9 199.25 22.4
L 199.2 22.4
Q 197.5 22.7 195.85 23 183.9 25.15 174.7 27.3 171.65 28 169.85 28.15 167.85 28.35 162.6 28.35 155.85 28.35 145.2 27.55 133.85 26.7 127.05 25.6 116.05 23.75 105.75 22.5 103.8 22.25 102.2 22.1 94.8 21.3 94.8 21.75
L 94.8 21.8
Q 95.15 21.75 95.4 21.75 95 21.8 94.8 22.1
L 94.8 21.8
Q 91.45 21.9 76.5 22.8 73.4 22.95 69.75 23.2 65.05 23.5 61.25 23.7 50.7 24.3 46.7 24.5 45.05 24.55 44.55 24.55 37.85 24.35 24.5 25.6 23.85 25.65 23.25 25.7 22.85 25.75 22.4 25.8 5.75 27.4 -0.2 29.8 -2.55 30.75 -6.6 31.4 -9.4 31.9 -13 32.25 -14.6 32.4 -16.35 32.55 -22.55 32.9 -25.45 33.1 -30.6 33.5 -33.5 33.9 -37 34.45 -43.2 36.2 -50.85 38.4 -54.95 39.6 -57.9 40.4 -60.55 41.1 -68.6 43.2 -74.25 43.95 -73.95 46.55 -73.65 49.4 -67.1 47.2 -59.5 45.25 -56.8 44.5 -53.9 43.85 -52.35 43.45 -50.8 43.1 -38.9 40.4 -37 40.4 -36.45 40.4 -35.9 40.4 -29.45 38.6 -22.55 37.4 -18.35 36.7 -15.6 36.1 -14.05 35.75 -13 35.5 -12.1 35.25 -11.5 35 -9.35 34.2 -6.2 33.65 -3.45 33.15 0.05 32.85 1.75 32.7 3.6 32.55 8.9 32.3 15.7 32.05 19.2 31.55 22.4 31.15 23.45 30.95 24.5 30.85 36.3 29.35 44.8 28.95 45.85 28.9 46.9 28.9 47.7 28.85 48.45 28.85 52.85 28.75 58.7 28.5 64.55 28.25 69.05 28.4 73.5 28.45 75.2 27.9 76.9 27.3 102.2 29.35 109.8 29.95 119.65 30.95 130.45 32 149.25 33.95 157.9 34.8 161 35 162.7 35.1 162.7 35
L 162.7 34.95
Q 168.55 34.6 179.15 32.05 191.9 28.9 196.4 26.1 197.5 25.4 199.7 25 201.75 24.55 204.85 24.5 207.15 24.4 210 24.45 212.2 24.55 219 24.85 222.75 25.05 225.2 25.1 224.65 21.75 224.25 17.55 221.65 18.05 218.6 18.65 212.65 19.9 209.25 20.6
M -67.5 36
L -67.35 36.35
Q -56.8 34.4 -47.75 32.65 -29.95 29.3 -28.25 29 -34.4 29.1 -46.35 31.15 -58.9 33.3 -67.5 36
M 20.85 22.6
L 21.05 22.05
Q 17.75 21.7 14.9 21.55 12.25 21.45 12.25 21.55 9.2 21.7 7.25 21.9 5.65 22.05 5.25 22.25
L -3.65 22.4
Q -7.2 23.6 -9.15 24.05 -10.35 24.35 -13 24.75 -16.8 25.3 -23.55 26.1 -23.25 26.4 -21.7 26.4 -17.35 26.4 -13 25.7 -8.45 25 -3.9 23.45
L 5 23.3
Q 9 22.5 14.15 22.45 16.95 22.45 20.85 22.6
M 61.3 18.95
L 61 18.7
Q 60.25 18.7 59 19.1
L 35.15 19.3
Q 33.05 19.55 32.15 19.8 31.55 19.95 31.35 20.15 28.7 20.5 28.05 20.7 27.9 20.8 27.45 21.2 27.6 21.4 27.8 21.5 28 21.55 28.6 21.55 31.5 21.55 31.75 21.4 31.8 21.35 31.8 21.1 31.8 20.85 32.05 20.65 34.15 20.5 34.65 20.35
L 58.75 20.15
Q 60.9 19.3 61.25 19.05 61.35 19 61.3 18.95
M 116 21.55
Q 116.5 21.55 116.45 21.4 116.35 21.2 116.4 21.05 110.5 19.05 109.55 18.35
L 70.95 18.2
Q 70.65 18.1 69.35 18
L 68.1 17.95
Q 68 17.85 67.9 17.85 67.7 17.8 67.7 18.3 67.7 19.15 67.85 18.7 70.45 18.85 70.95 19
L 109.3 19.2
Q 110.2 20.1 112.55 20.85 114.65 21.55 116 21.55
M 123.9 15.3
Q 124.45 15.3 124.45 15.15 124.35 14.95 124.4 14.8 119.55 13.35 116.15 12.75 109.15 11.55 103.65 12.55
L 87.5 12.7
Q 87.3 12.6 87.2 12.6 87.1 12.6 87.1 13.1 87.1 13.65 87.2 13.6 87.25 13.6 87.3 13.5
L 103.15 13.55
Q 108.2 12.15 115.8 13.55 117.6 13.9 120.85 14.7 123.3 15.3 123.9 15.3
M 178.45 17.95
Q 174.9 18.05 170.9 19.1 165.4 20.6 163.1 21
L 128.45 21.05
Q 128.2 20.95 128.15 20.95 128 20.9 128 21.45 128 22 128.1 21.95 128.15 21.95 128.2 21.8
L 162.4 21.9
Q 168 21.2 171.75 20.1 173.95 19.45 178.45 17.95
M 210.4 12.8
L 209.25 12.7
Q 206.85 14.7 196.4 17.4 190.25 19.05 174.5 22.5
L 174.5 22.9
Q 174.7 23.3 176.3 23.3 178.95 23.3 195.15 18.45 210.65 13.75 211.8 13.05 211.6 12.9 210.4 12.8 Z"/>
</g>

<g id="caixa_06_0_Layer1_0_FILL">
<path fill="#336600" stroke="none" d="
M 141.8 -1.5
L 8 -1.5
Q -1.5 -1.5 -1.5 8
L -1.5 141.8
Q -1.5 151.3 8 151.3
L 141.8 151.3
Q 151.3 151.3 151.3 141.8
L 151.3 8
Q 151.3 -1.5 141.8 -1.5
M 141.8 1.5
Q 148.3 1.5 148.3 8
L 148.3 141.8
Q 148.3 148.3 141.8 148.3
L 8 148.3
Q 1.5 148.3 1.5 141.8
L 1.5 8
Q 1.5 1.5 8 1.5
L 141.8 1.5 Z"/>
</g>

<path id="caixa_06_0_Layer2_0_MEMBER_0_MEMBER_0_1_STROKES" stroke="#333333" stroke-width="1" stroke-linejoin="round" stroke-linecap="round" fill="none" d="
M 78.85 34.7
Q 80 35.85 80.7 36.95 81.25 37.65 81.6 38.3 81.75 38.65 82.05 39.05 82.2 39.25 82.35 39.45 82.75 39.95 83.35 40.5 83.75 40.85 84.2 41.25 84.75 41.75 85.45 42.25 85.6 42.35 85.75 42.5 86 42.9 86.05 43.45 86.1 44.1 85.8 45
L 85.75 45 85.75 45.05 86.5 45.95 88.4 48.15
Q 90.85 52.5 88.4 56.75
L 85.5 60
Q 85.3 60.2 85.15 60.5 84.55 61.45 84.75 62.75 84.75 62.8 84.75 62.9 84.85 63.45 85.15 64.15 85.25 64.35 85.35 64.6 85.45 64.85 85.55 65.1 85.7 65.55 85.8 66.5 85.8 66.9 85.8 67.4 85.75 68.05 85.65 68.9 85.65 68.95 85.65 69.05 85.4 70.4 83.4 73.9 83.1 74.4 82.8 74.9 82.75 74.95 82.75 75 80.05 79.45 80.05 82.25 80.05 82.35 80.05 82.4 80.05 84.1 80.1 85
L 80.1 85.05
Q 80.05 85.15 80.1 85.3 80.4 87.05 80.55 88.6 80.6 88.85 80.65 89.1 80.7 90.1 80.85 91 80.95 92.65 80.95 94.25 80.95 94.8 80.9 95.4 80.85 96.95 80.3 98.65 80.15 99.05 80 99.4 80 99.45 80 99.5 79.95 99.55 79.9 99.6 79.9 99.65 79.9 99.7 78.9 101.95 77.05 104.35 75.9 106.15 74.5 107.55 73.95 108.1 73.35 108.6 72.6 109.2 71.85 109.7 70.55 110.55 69.2 111.45 67 112.9 64.75 114.45 64.7 114.5 64.6 114.55 64.45 114.7 64.3 114.8 61.55 116.55 58.35 116.45 57.45 116.45 56.45 116.25 53.9 115.15 59.1 113.45 60.6 112.35 60.85 111.95 60.95 111.8 61.1 111.6 61.15 111.55 61.2 111.5 61.25 111.3 61.35 111.2 61.55 110.85 61.75 110.55 61.75 110.45 61.85 110.3 62.25 109.45 62.45 108.65 62.55 108.35 62.6 108.05 62.6 107.9 62.65 107.7 63.45 103.35 63.45 101.35 63.4 100.6 63.4 100.05 63.4 99.7 63.4 99.5 63.4 99.35 63.4 99.15 63.35 98.7 63.35 98.45 63.25 98 63.25 97.2 63.25 96.95 63.25 96.65 63.25 96.4 63.25 96.15 63.25 95.6 63.25 94.9 63.25 92.2 63.85 90.55 64.45 88.85 64.6 87.55 64.6 87.3 64.65 87.05 64.65 86.4 64.55 85.65 64.45 85.3 64.4 84.95 63.95 83.65 64.15 82.65 64.3 81.7 64.25 81.3 64.25 80.8 64.35 80.3 64.55 79 64.9 77.75 64.95 77.6 65 77.45 65.5 75.85 66.2 74.25 66.25 74.15 66.3 74.05 68 70.5 68.15 67.5 68.3 64.7 67.85 62.75 67.75 62.6 67.7 62.35 67.65 62.05 67.5 61.8 66.95 60 66 58.3 65.45 57.4 64.6 56.5 64.05 55.95 63.45 55.4
L 63.4 55.35
Q 62.75 54.85 62.05 54.35 60.4 53.1 59.5 52.05 59.35 51.8 59.15 51.6 58.9 51.15 58.7 50.75 58.6 50.55 58.5 50.25 56.8 46.85 52.3 43.25 49.55 41.05 47 40.7
M 46.85 40.7
Q 46.2 40.6 45.6 40.65 45.8 40.35 45.95 40.15 46.1 39.9 46.25 39.7 46.35 39.5 46.5 39.35 47.15 38.35 47.9 37.5 53.15 31.3 61.5 30.15 61.4 29.25 62.05 28.7 62.65 28.2 62.6 27.6 62.5 27.2 62.55 26.35 62.6 24.95 62.6 24.85 62.55 24.05 62.55 23.6 62.55 22.8 62.65 22.25 62.7 22 63.25 21.5 63.5 21.3 63.9 20.95 64.15 20.65 65 20.15
L 65 20.6
Q 64.4 21.95 64.25 22.85 64.25 23.2 64.25 25.05 64.25 25.15 64.15 26.25 64.15 27.4 64.3 27.85 64.45 28.2 64.75 28.55 65.1 28.85 65.25 29.2 65.4 29.5 65.4 29.9 66.25 29.9 67.15 29.9 68.85 30 70.7 30.25 72.5 30.55 74.3 31.4 74.85 31.65 75.5 31.95 77.3 33.1 78.6 34.45 78.7 34.55 78.85 34.7
M 66.9 42.7
Q 69.85 42.45 72.6 42.6
L 72.65 42.6
Q 74.25 42.6 75.85 42.75 76.85 42.85 77.85 43 79.35 43.2 80.7 43.5 80.9 43.55 81.15 43.6 81.5 43.7 81.95 43.8 83.3 44.1 84.6 44.55 84.65 44.55 84.65 44.6
L 84.7 44.6
Q 84.8 44.6 85 44.7 85.35 44.8 85.75 45
M 61.5 30.15
Q 63.25 29.9 65.1 29.9 65.2 29.9 65.25 29.9 65.3 29.9 65.4 29.9"/>

<path id="caixa_06_0_Layer2_0_MEMBER_0_MEMBER_1_1_STROKES" stroke="#333333" stroke-width="1" stroke-linejoin="round" stroke-linecap="round" fill="none" d="
M 50.1 40.55
Q 49.5 40.35 48.9 40.25 48.45 40.25 48 40.2 45.5 40.3 43.85 41.95 41.35 44.4 40.75 47.05 39.3 53.9 38.95 66.7 38.9 66.75 38.9 66.8 38.85 68.5 38.8 70.35 38.75 72.65 38.8 74.75 38.75 75.35 38.8 75.95 38.75 78.85 38.85 81.55 38.8 81.65 38.85 81.75 38.9 86.55 37.9 92.4 37.8 92.8 37.7 93.2 37.7 93.5 37.65 93.75 37.6 94.05 37.5 94.4 36.9 97.2 36.1 99.65 35.7 100.7 35.35 101.75 34.8 103.25 34.05 104.7 31.55 109.8 31.2 110.7 29.75 112.9 30.2 114.25 30.3 114.5 30.55 114.8 31.3 115.8 33.95 116 37.7 116.3 39.6 116.4 39.65 116.4 39.7 116.45 39.85 116.45 39.9 116.45 46.45 116.95 50.4 111.3 50.75 110.8 51.05 110.35
L 51.1 110.3
Q 51.2 110 51.35 109.8 51.4 109.6 51.5 109.4 53.15 105.3 53.55 103.35 53.8 102.3 53.95 101.55 53.9 101.4 53.95 101.25 54 100.8 54.05 100.55 54.1 100.05 54.25 99.2 54.25 99.05 54.35 98.75 54.35 98.5 54.45 98.2 54.55 97.7 54.7 97.05 55.25 94.4 56.2 92.9 57.1 91.35 57.6 90.15 57.65 89.9 57.7 89.65 57.9 89 57.95 88.3 57.95 87.9 57.95 87.5 57.8 86.15 58.2 85.25 58.55 84.3 58.6 83.95 58.7 83.45 58.9 82.95 59.35 81.75 59.95 80.6 60 80.45 60.15 80.35 60.9 78.85 61.95 77.5 62 77.35 62.05 77.3 64.45 74.2 65.3 71.25 66 68.55 66 66.55 65.95 66.4 65.95 66.15 65.95 65.85 65.9 65.55 65.65 63.7 65.1 61.85 64.75 60.85 64.1 59.75 63.7 59.1 63.25 58.5 63.25 58.45 63.2 58.45 62.65 57.75 62.1 57.1 60.75 55.6 60.1 54.35 59.85 53.8 59.7 53.3 59.6 53.1 59.6 52.9 59.5 52.65 59.45 52.4 58.55 48.7 54.85 44.25 52.6 41.5 50.25 40.65"/>
</defs>

<g id="caixa_06" transform="matrix( 1.08203125, 0, 0, 1.08203125, 0.45,0.45) ">
<mask id="Mask_Mask_1">
<g transform="matrix( 1, 0, 0, 1, 0,0) ">
<use xlink:href="#Mask_caixa_06_0_3_MASK_0_FILL"/>
</g>
</mask>

<g mask="url(#Mask_Mask_1)">
<g transform="matrix( 1, 0, 0, 1, 0,0) ">
<use xlink:href="#caixa_06_0_Layer3_0_FILL"/>
</g>
</g>

<g mask="url(#Mask_Mask_1)">
<g transform="matrix( 1, 0, 0, 1, 0,0) ">
<use xlink:href="#caixa_06_0_Layer2_0_MEMBER_0_MEMBER_0_FILL"/>

<use xlink:href="#caixa_06_0_Layer2_0_MEMBER_0_MEMBER_0_1_STROKES"/>
</g>

<g transform="matrix( 1, 0, 0, 1, 0,0) ">
<use xlink:href="#caixa_06_0_Layer2_0_MEMBER_0_MEMBER_1_FILL"/>

<use xlink:href="#caixa_06_0_Layer2_0_MEMBER_0_MEMBER_1_1_STROKES"/>
</g>

<g transform="matrix( 1, 0, 0, 1, 0,0) ">
<use xlink:href="#caixa_06_0_Layer2_0_MEMBER_0_MEMBER_2_FILL"/>
</g>

<g transform="matrix( 1, 0, 0, 1, 0,0) ">
<use xlink:href="#caixa_06_0_Layer2_0_MEMBER_0_MEMBER_3_FILL"/>
</g>

<g transform="matrix( 1, 0, 0, 1, 0,0) ">
<use xlink:href="#caixa_06_0_Layer2_0_MEMBER_0_MEMBER_4_FILL"/>
</g>

<g transform="matrix( 1, 0, 0, 1, 0,0) ">
<use xlink:href="#caixa_06_0_Layer2_0_MEMBER_0_MEMBER_5_FILL"/>
</g>

<g transform="matrix( 1, 0, 0, 1, 0,0) ">
<use xlink:href="#caixa_06_0_Layer2_0_MEMBER_1_FILL"/>
</g>

<g transform="matrix( 1, 0, 0, 1, -11.65,-6.2) ">
<use xlink:href="#caixa_06_0_Layer2_0_MEMBER_2_FILL"/>
</g>
</g>

<g mask="url(#Mask_Mask_1)">
<g transform="matrix( 1, 0, 0, 1, 0,0) ">
<use xlink:href="#caixa_06_0_Layer1_0_FILL"/>
</g>
</g>
</g>
</svg>
