
<svg xmlns="http://www.w3.org/2000/svg" version="1.1" xmlns:xlink="http://www.w3.org/1999/xlink" preserveAspectRatio="none" x="0px" y="0px" width="163px" height="163px" viewBox="0 0 163 163">
<defs>
<linearGradient id="Gradient_1" gradientUnits="userSpaceOnUse" x1="75.8" y1="-4.550000000000011" x2="75.8" y2="173.65" spreadMethod="pad">
<stop  offset="0%" stop-color="#FFFFFF"/>

<stop  offset="100%" stop-color="#3D9DDE"/>
</linearGradient>

<g id="Mask_caixa_05_0_3_MASK_0_FILL">
<path fill="#FFFFFF" stroke="none" d="
M 149.8 8
Q 149.8 0 141.8 0
L 8 0
Q 0 0 0 8
L 0 141.8
Q 0 149.8 8 149.8
L 141.8 149.8
Q 149.8 149.8 149.8 141.8
L 149.8 8 Z"/>
</g>

<g id="caixa_05_0_Layer3_0_FILL">
<path fill="url(#Gradient_1)" stroke="none" d="
M -12.75 165.65
Q -12.75 173.65 -4.75 173.65
L 156.35 173.65
Q 164.35 173.65 164.35 165.65
L 164.35 3.45
Q 164.35 -4.55 156.35 -4.55
L -4.75 -4.55
Q -12.75 -4.55 -12.75 3.45
L -12.75 165.65 Z"/>
</g>

<g id="caixa_05_0_Layer2_0_FILL">
<path fill="#805705" stroke="none" d="
M 75.25 60.75
Q 75.1 60.75 74.8 60.95 74.5 61.1 74.25 61.4 73.5 61.95 73.55 62.95 73.55 63.8 74.35 64.55 73.9 64.95 73.6 65.4 73.5734375 65.44921875 73.55 65.5 73.2185546875 66.12109375 72.95 66.7 72.7818359375 67.244140625 72.65 67.75 72.5 68.15 72.4 68.75 72.15 69.75 72.2 70.9 72.1625 71.5361328125 72.15 72.2 72.1251953125 73.0822265625 72.15 74 72.1435546875 74.2552734375 72.15 74.5 72.152734375 74.53359375 72.15 74.55 72.1845703125 74.9107421875 72.2 75.25 72.2328125 75.428515625 72.25 75.6 72.25703125 75.8091796875 72.25 76 72.371875 77.03984375 72.45 78.05 72.4919921875 78.1265625 72.5 78.2 72.5435546875 78.6203125 72.6 79.05 72.7125 79.8248046875 72.85 80.65 72.9271484375 80.9962890625 73 81.35 73.0291015625 81.6201171875 73.05 81.9 73.1455078125 82.6384765625 73.25 83.35 73.39296875 84.1650390625 73.55 84.95 73.6255859375 85.371484375 73.7 85.8 73.96484375 87.2998046875 74.2 88.75 74.2 89.2 74.35 89.5 74.4955078125 90.033203125 74.8 90.45
L 74.85 90.5 74.85 90.55 74.95 92.6 76.2 111.25
Q 76.4 113.35 77.1 113.65
L 77.4 113.65
Q 77.95 113.35 78.2 111.15
L 78.35 93.1 78.4 90.4
Q 78.8 89.95 78.8 89.4 78.95 89.1 79.1 88.65 79.2384765625 87.368359375 79.4 86 79.4732421875 85.3798828125 79.55 84.75 79.6375 84.1369140625 79.7 83.5 79.786328125 82.76484375 79.85 82 79.8765625 81.5822265625 79.9 81.15 79.93203125 80.9318359375 79.95 80.7 80.0798828125 79.763671875 80.1 78.9 80.11484375 78.4326171875 80.1 78 80.1037109375 77.9650390625 80.1 77.9 80.2142578125 76.9171875 80.25 75.9 80.268359375 75.6748046875 80.25 75.45 80.294140625 75.1892578125 80.3 74.9 80.3 74.6158203125 80.3 74.3 80.301953125 74.2615234375 80.3 74.2 80.31640625 73.9740234375 80.3 73.7 80.35234375 72.7609375 80.3 71.85 80.2662109375 71.263671875 80.2 70.7 80 69.55 79.9 68.55 79.85 68.25 79.7 67.95 79.4609375 67.2064453125 79.1 66.5 78.86171875 65.9125 78.5 65.35 78.51328125 65.3220703125 78.5 65.3 78.2 64.85 77.75 64.45 78.3 63.7 78.3 62.85 78.25 61.85 77.55 61.3 77.4 61 77.1 60.85 76.95 60.85 76.8 60.75 76.4 60.6 75.95 60.6 75.5 60.6 75.25 60.75 Z"/>

<path fill="#FF8C07" stroke="none" d="
M 34.05 84.4
Q 33.9 84.4 33.9 84.55 32.35 85.6 31.2 87.1 30.85 87.8 30.55 88.55 30.4 88.7 30.25 88.95 29.9 89.85 29.75 91
L 29.8 91.1
Q 29.65 91.85 29.5 92.6 29.55 93.3 29.55 94.05 29.55 94.3 29.55 94.75 29.75 95.3 29.75 95.7 29.9 96.3 29.9 96.85 30.55 99.6 31.6 102.15 32.1 103.4 32.65 104.4 33 104.95 33.3 105.4 34.15 106.8 35.2 108.2 35.85 109.2 36.7 110.05 37.3 110.75 38.05 111.4 38.3 111.7 38.75 112.15
L 38.9 112.3
Q 39.25 112.7 39.65 113 39.8 113.15 40.1 113.25 40.25 113.4 40.4 113.65 40.65 113.95 41.1 114.4 41.6 114.65 42 115.1 42.7 115.6 43.6 116.2 43.75 116.35 43.9 116.6 44.5 116.85 44.9 117.15 45.2 117.45 45.65 117.7 46.65 118.1 47.7 118.55 49.7 119.05 51.55 119 52.3 118.95 53.15 118.8 53.55 118.8 54 118.6 54.45 118.45 54.85 118.35 58.95 116.95 62.9 112.4 63.85 111.2 64.85 110.05 65.95 108.7 66.9 107.55 67.45 106.7 68 105.95 68.3 105.35 68.7 104.95 72.6228515625 98.994921875 74.95 92.6
L 74.85 90.55
Q 74.8400390625 90.525390625 74.8 90.45 74.4955078125 90.033203125 74.35 89.5 74.2 89.2 74.2 88.75 73.96484375 87.2998046875 73.7 85.8 73.6255859375 85.371484375 73.55 84.95 73.39296875 84.1650390625 73.25 83.35 73.1455078125 82.6384765625 73.05 81.9 73.0291015625 81.6201171875 73 81.35 72.9271484375 80.9962890625 72.85 80.65 72.7125 79.8248046875 72.6 79.05 72.5435546875 78.6203125 72.5 78.2 72.4919921875 78.1265625 72.45 78.05 72.371875 77.03984375 72.25 76 72.25703125 75.8091796875 72.25 75.6 68.0978515625 75.8947265625 64 76.5 63.55 76.5 63.15 76.65 61.55 76.85 60.1 77.2 58.4 77.35 56.8 77.7 49.7 79 42.6 81.2 39.6 82 36.7 82.95 36.45 83.1 36.35 83.25 35.05 83.7 34.05 84.4
M 32.7 88.9
Q 32.9 89.2 32.75 89.65 32.6 90.05 32.3 90.35 32.05 90.5 31.9 90.5 31.75 90.5 31.6 90.35 31.45 90.25 31.45 90.1 31.3 89.85 31.45 89.4 31.55 88.9 31.85 88.65 32.15 88.5 32.4 88.5 32.55 88.5 32.7 88.9
M 32 93.65
Q 32 94.1 31.85 94.35 31.7 94.8 31.4 94.85 31.15 94.85 30.85 94.55 30.7 94.25 30.7 93.85 30.7 93.55 30.7 93.25 30.7 93.15 30.85 93.15 30.95 92.85 31.25 92.85 31.5 92.7 31.8 92.95 32 93.2 32 93.65
M 32.5 97.65
Q 32.65 97.65 32.8 97.8 33.1 98.1 33.25 98.4 33.4 98.8 33.45 99.1
L 33.45 99.25
Q 33.3 99.4 33.15 99.55
L 33.15 99.65
Q 32.85 99.65 32.45 99.55 32.15 99.4 32 98.95 31.8 98.5 31.8 98.25 31.95 97.8 32.25 97.65 32.4 97.65 32.5 97.65
M 40.7 109.65
Q 41 109.8 41.15 110.1
L 41.3 110.1
Q 41.45 110.35 41.6 110.65 41.6 111.1 41.5 111.25 41.2 111.5 40.75 111.35 40.45 111.25 40.2 110.95 40.05 110.8 40.05 110.65 39.85 110.55 39.85 110.4
L 39.85 110.25
Q 39.7 110 40 109.8 40.15 109.5 40.4 109.65
L 40.7 109.65
M 45.85 114.15
L 45.85 114.3
Q 45.7 114.4 45.25 114.4
L 45.1 114.4
Q 44.8 114.4 44.4 114.3
L 44.4 114.15
Q 44.1 114 43.8 113.75 43.8 113.6 43.7 113.6 43.55 113.2 43.8 112.75 43.8 112.6 44.1 112.55 44.2 112.4 44.35 112.4 44.5 112.4 44.65 112.4 44.95 112.55 45.25 112.7 45.7 113 45.85 113.4 46.1 113.8 45.85 114.15
M 49.45 115.05
Q 49.9 114.75 50.45 114.85 50.75 114.85 51.05 115
L 51.05 115.15
Q 51.2 115.15 51.3 115.3 51.6 115.55 51.6 115.85
L 51.6 116
Q 51.45 116.3 51.1 116.55 50.8 116.7 50.25 116.55 49.95 116.6 49.65 116.45 49.5 116.45 49.15 116.35 49.15 116.2 49.05 116.05
L 49.05 115.9
Q 48.9 115.75 48.9 115.6 48.9 115.45 49.05 115.2 49.15 115.05 49.45 115.05
M 56.35 116.15
Q 56.2 116.15 55.95 116.25 55.65 116.3 55.55 116.3 55.05 116.2 54.9 116.05 54.75 116.05 54.75 115.9 54.6 115.6 54.9 115.2 55.2 114.75 55.6 114.45 56.2 114.25 56.75 114.25 56.75 114.4 56.9 114.4 57.2 114.55 57.35 114.7 57.5 115 57.2 115.4
L 57.2 115.55
Q 56.9 115.85 56.35 116.15
M 34.5 101.9
L 34.65 102.05
Q 35.05 102.2 35.2 102.65 35.4 103.05 35.4 103.35 35.25 103.5 35.25 103.65 35.25 103.8 34.95 103.9 34.8 103.9 34.4 103.8 34.1 103.5 33.95 103.2 33.75 102.75 33.75 102.35 33.9 102.2 34.05 102.05
L 34.2 101.9
Q 34.35 101.9 34.5 101.9
M 38.05 106.55
Q 38.2 106.85 38.1 107.25 38.1 107.55 37.8 107.75 37.5 107.9 37.2 107.6 36.95 107.45 36.8 107.15 36.6 106.75 36.6 106.3 36.75 106 36.9 105.9 37.15 105.75 37.45 106 37.9 106.1 38.05 106.55
M 89.35 76.05
Q 88.95 75.9 88.5 75.9 84.37109375 75.487109375 80.25 75.45 80.268359375 75.6748046875 80.25 75.9 80.2142578125 76.9171875 80.1 77.9 80.1037109375 77.9650390625 80.1 78 80.11484375 78.4326171875 80.1 78.9 80.0798828125 79.763671875 79.95 80.7 79.93203125 80.9318359375 79.9 81.15 79.8765625 81.5822265625 79.85 82 79.786328125 82.76484375 79.7 83.5 79.6375 84.1369140625 79.55 84.75 79.4732421875 85.3798828125 79.4 86 79.2384765625 87.368359375 79.1 88.65 78.95 89.1 78.8 89.4 78.8 89.95 78.4 90.4
L 78.35 93.1
Q 81.1728515625 99.0294921875 85.2 104.55 85.6 104.95 85.9 105.55 86.55 106.2 87.1 107.05 88.15 108.2 89.2 109.45 90.2 110.6 91.4 111.7 95.5 116.05 99.75 117.25 100.15 117.35 100.45 117.5 101 117.6 101.45 117.6 102.3 117.75 103.05 117.7 104.9 117.65 106.75 117.05 107.85 116.6 108.85 116.1 109.3 115.85 109.55 115.55 110 115.25 110.45 114.9 110.65 114.65 110.8 114.5 111.65 113.9 112.25 113.3 112.65 112.85 113.05 112.6
L 113.2 112.6
Q 113.5 112.15 113.9 111.85 114.05 111.6 114.2 111.4 114.5 111.25 114.65 111.1 114.9 110.8 115.3 110.4
L 115.45 110.25
Q 115.85 109.8 116.15 109.45 116.9 108.75 117.4 108.05 118.1 107.1 118.65 106.1 119.75 104.7 120.45 103.2 120.9 102.75 121 102.2 121.55 101.2 122.05 99.85 123.05 97.3 123.5 94.55 123.5 94 123.65 93.35 123.65 92.95 123.6 92.35 123.75 91.9 123.75 91.65 123.75 90.9 123.55 90.2 123.55 89.5 123.4 88.8
L 123.35 88.7
Q 123.2 87.55 122.6 86.65 122.6 86.4 122.45 86.25 122 85.5 121.55 84.8 120.55 83.4 118.9 82.45
L 118.75 82.3
Q 117.75 81.6 116.45 81.25 116.2 81.1 116 80.95 113.1 80.2 110.1 79.5 102.75 77.7 95.65 76.7 93.95 76.45 92.35 76.4 90.8 76.15 89.35 76.05
M 120.6 86.3
Q 120.85 86.3 121.15 86.45 121.45 86.65 121.65 87.1 121.75 87.55 121.65 87.8 121.5 87.95 121.5 88.1 121.35 88.3 121.2 88.3 120.9 88.3 120.65 88.15 120.35 87.85 120.2 87.45 120.2 87 120.15 86.7 120.3 86.3 120.6 86.3
M 121.45 92.15
Q 121.15 91.9 121.15 91.45 121.3 91 121.4 90.75 121.7 90.4 121.95 90.55 122.25 90.55 122.45 90.85
L 122.45 90.95
Q 122.6 91.25 122.6 91.55 122.6 91.95 122.3 92.25 122.15 92.55 121.85 92.55 121.6 92.55 121.45 92.15
M 120.25 96.2
Q 120.4 95.9 120.7 95.6 120.85 95.45 120.95 95.45 121.1 95.45 121.25 95.45 121.55 95.6 121.55 96.05 121.7 96.25 121.6 96.75 121.3 97.2 121 97.35 120.75 97.45 120.45 97.45
L 120.3 97.35
Q 120.3 97.2 120.15 97.05
L 120.15 96.9
Q 120.1 96.6 120.25 96.2
M 119.05 99.8
Q 119.35 99.8 119.5 99.8
L 119.65 99.95
Q 119.8 100.1 119.8 100.25 119.9 100.6 119.85 101.1 119.7 101.4 119.25 101.7 118.95 101.8 118.85 101.8 118.55 101.7 118.55 101.55 118.4 101.4 118.4 101.25 118.4 100.95 118.5 100.55 118.65 100.1 118.9 99.95 119.05 99.95 119.05 99.8
M 116.45 104
Q 116.6 103.75 116.85 103.9 117.15 104 117.3 104.3 117.3 104.75 117.2 105.15 117.05 105.45 116.8 105.6 116.5 105.9 116.2 105.75 115.9 105.65 115.9 105.35 115.75 104.95 115.85 104.65 116 104.15 116.45 104
M 113.4 107.85
L 113.55 107.85
Q 113.8 107.7 113.95 108 114.25 108.1 114.25 108.35 114.25 108.5 114.1 108.5 114.1 108.65 114.15 108.8 114 109 114 109.15 113.7 109.45 113.45 109.55
L 113.3 109.55
Q 113 109.7 112.7 109.45 112.55 109.3 112.55 108.85 112.5 108.55 112.8 108.3 113.1 108 113.4 107.85
M 108.9 111.1
L 109.05 111.1
Q 109.35 110.95 109.55 110.8 109.7 110.8 109.85 110.8 110 110.8 110.2 110.95 110.35 110.9 110.45 111.05 110.6 111.5 110.45 111.9
L 110.35 112.05
Q 110.2 112.4 109.9 112.55
L 109.9 112.7
Q 109.45 112.8 109.2 112.8 109.05 112.8 108.9 112.8 108.6 112.8 108.3 112.7
L 108.3 112.55
Q 108.2 112.3 108.3 111.8 108.6 111.4 108.9 111.1
M 103.95 113.55
Q 104.5 113.35 104.95 113.65 105.1 113.65 105.2 113.8 105.35 114.05 105.35 114.2 105.5 114.35 105.35 114.5
L 105.35 114.65
Q 105.2 114.8 105.1 114.95 105 115.05 104.7 115.05 104.55 115.2 104.25 115.25 103.7 115.4 103.25 115.25 102.8 115 102.8 114.7
L 102.8 114.55
Q 102.8 114.25 103.05 114 103.05 113.85 103.2 113.85
L 103.35 113.7
Q 103.65 113.55 103.8 113.55
L 103.95 113.55
M 97.05 114.4
Q 96.9 114 97.05 113.7 97.2 113.55 97.5 113.4 97.6 113.4 97.6 113.25 98.2 113.25 98.65 113.35 99.2 113.65 99.5 114.1 99.75 114.5 99.65 114.8
L 99.5 114.95
Q 99.2 115.1 98.95 115.2 98.8 115.2 98.4 115.25 98.2 115.15 97.9 115.15 97.5 114.85 97.2 114.55 97.2 114.4 97.05 114.4 Z"/>

<path fill="#FFFFFF" stroke="none" d="
M 38.1 107.25
Q 38.2 106.85 38.05 106.55 37.9 106.1 37.45 106 37.15 105.75 36.9 105.9 36.75 106 36.6 106.3 36.6 106.75 36.8 107.15 36.95 107.45 37.2 107.6 37.5 107.9 37.8 107.75 38.1 107.55 38.1 107.25
M 34.65 102.05
L 34.5 101.9
Q 34.35 101.9 34.2 101.9
L 34.05 102.05
Q 33.9 102.2 33.75 102.35 33.75 102.75 33.95 103.2 34.1 103.5 34.4 103.8 34.8 103.9 34.95 103.9 35.25 103.8 35.25 103.65 35.25 103.5 35.4 103.35 35.4 103.05 35.2 102.65 35.05 102.2 34.65 102.05
M 55.95 116.25
Q 56.2 116.15 56.35 116.15 56.9 115.85 57.2 115.55
L 57.2 115.4
Q 57.5 115 57.35 114.7 57.2 114.55 56.9 114.4 56.75 114.4 56.75 114.25 56.2 114.25 55.6 114.45 55.2 114.75 54.9 115.2 54.6 115.6 54.75 115.9 54.75 116.05 54.9 116.05 55.05 116.2 55.55 116.3 55.65 116.3 55.95 116.25
M 50.45 114.85
Q 49.9 114.75 49.45 115.05 49.15 115.05 49.05 115.2 48.9 115.45 48.9 115.6 48.9 115.75 49.05 115.9
L 49.05 116.05
Q 49.15 116.2 49.15 116.35 49.5 116.45 49.65 116.45 49.95 116.6 50.25 116.55 50.8 116.7 51.1 116.55 51.45 116.3 51.6 116
L 51.6 115.85
Q 51.6 115.55 51.3 115.3 51.2 115.15 51.05 115.15
L 51.05 115
Q 50.75 114.85 50.45 114.85
M 45.85 114.3
L 45.85 114.15
Q 46.1 113.8 45.85 113.4 45.7 113 45.25 112.7 44.95 112.55 44.65 112.4 44.5 112.4 44.35 112.4 44.2 112.4 44.1 112.55 43.8 112.6 43.8 112.75 43.55 113.2 43.7 113.6 43.8 113.6 43.8 113.75 44.1 114 44.4 114.15
L 44.4 114.3
Q 44.8 114.4 45.1 114.4
L 45.25 114.4
Q 45.7 114.4 45.85 114.3
M 41.15 110.1
Q 41 109.8 40.7 109.65
L 40.4 109.65
Q 40.15 109.5 40 109.8 39.7 110 39.85 110.25
L 39.85 110.4
Q 39.85 110.55 40.05 110.65 40.05 110.8 40.2 110.95 40.45 111.25 40.75 111.35 41.2 111.5 41.5 111.25 41.6 111.1 41.6 110.65 41.45 110.35 41.3 110.1
L 41.15 110.1
M 32.8 97.8
Q 32.65 97.65 32.5 97.65 32.4 97.65 32.25 97.65 31.95 97.8 31.8 98.25 31.8 98.5 32 98.95 32.15 99.4 32.45 99.55 32.85 99.65 33.15 99.65
L 33.15 99.55
Q 33.3 99.4 33.45 99.25
L 33.45 99.1
Q 33.4 98.8 33.25 98.4 33.1 98.1 32.8 97.8
M 31.85 94.35
Q 32 94.1 32 93.65 32 93.2 31.8 92.95 31.5 92.7 31.25 92.85 30.95 92.85 30.85 93.15 30.7 93.15 30.7 93.25 30.7 93.55 30.7 93.85 30.7 94.25 30.85 94.55 31.15 94.85 31.4 94.85 31.7 94.8 31.85 94.35
M 32.75 89.65
Q 32.9 89.2 32.7 88.9 32.55 88.5 32.4 88.5 32.15 88.5 31.85 88.65 31.55 88.9 31.45 89.4 31.3 89.85 31.45 90.1 31.45 90.25 31.6 90.35 31.75 90.5 31.9 90.5 32.05 90.5 32.3 90.35 32.6 90.05 32.75 89.65
M 28.45 77
L 28.6 77
Q 28.85 76.7 28.85 76.25 28.8 75.85 28.55 75.25 28.25 74.85 27.7 74.55 27.1 74.45 26.8 74.75 26.4 74.9 26.4 75.45 26.4 75.9 26.85 76.45 27 76.9 27.6 77.15 28.15 77.25 28.45 77
M 32.65 78.75
Q 32.2 78.45 31.8 78.45 31.2 78.65 31.05 78.95 30.95 79.2 31.05 79.65 31.25 80.1 31.85 80.15 32 80.45 32.25 80.45 32.4 80.45 32.7 80.45 33.15 80.45 33.3 80.05 33.55 79.9 33.25 79.3 33.1 79.05 32.65 78.75
M 24.65 69.6
Q 24.25 69.75 24.15 70.2 24 70.5 24 70.75 24 71.05 24.15 71.35 24.3 71.75 24.75 72.2 25.2 72.5 25.6 72.3 26.05 72.3 26.15 71.7 26.3 71.3 26.15 70.7 26 70.15 25.5 69.7 24.95 69.5 24.65 69.6
M 24.5 64.15
L 24.5 64.05
Q 24.2 63.75 23.95 63.75 23.8 63.75 23.65 63.75
L 23.5 63.9
Q 23.35 63.95 23.35 64.2 23.15 64.65 23.25 65.1 23.25 65.65 23.4 65.95 23.75 66.3 24.2 66.3 24.45 66.3 24.7 65.9 24.85 65.45 24.85 65.05 24.85 64.45 24.5 64.15
M 23.1 59.35
Q 23 58.9 22.55 58.65 22.2 58.35 21.9 58.35 21.55 58.5 21.4 58.8 21.25 59.4 21.4 59.8 21.6 60.35 21.9 60.65 22.15 60.95 22.6 60.95 22.9 60.8 23.05 60.35 23.1 59.9 23.1 59.35
M 20.6 55.65
Q 20.75 55.55 20.75 55.4 20.85 55.25 20.85 55.1 21 54.65 20.7 54.1 20.55 53.65 20.1 53.4
L 19.95 53.4
Q 19.65 53.25 19.55 53.4 19.4 53.4 19.25 53.5 19.1 53.7 19.1 54 19.1 54.45 19.3 54.8 19.45 55.25 19.85 55.55 20.15 55.8 20.6 55.65
M 17.7 49.25
Q 17.55 49.25 17.3 49.4 17.15 49.4 17 49.9 17 50.2 17.2 50.55 17.35 51 17.6 51.15 17.9 51.3 18.2 51.3 18.35 51.3 18.35 51.15 18.5 51.15 18.5 50.85
L 18.5 50.7
Q 18.55 50.4 18.45 50 18.3 49.85 18 49.55
L 17.85 49.4
Q 17.7 49.4 17.7 49.25
M 17.05 45.95
Q 16.9 45.6 16.75 45.3 16.45 45 16.3 45 15.9 45 15.75 45.3
L 15.75 45.6
Q 15.6 45.75 15.6 46.15 15.75 46.6 15.95 46.9 16.25 47.05 16.35 47.05
L 16.5 47.05
Q 16.65 47.05 16.95 46.75 17.05 46.4 17.05 45.95
M 17.35 41.55
Q 17.2 41.4 17.1 41.25 17.1 41.1 16.95 41.1 16.65 41.15 16.35 41.3 16.1 41.6 15.95 42 15.8 42.45 16 42.75 16.15 42.85 16.15 43 16.25 43.15 16.4 43.15 16.55 43.3 17 42.95 17.25 42.7 17.35 42.25 17.35 41.95 17.35 41.55
M 18.3 39.8
L 18.6 40.1
Q 18.75 40.1 18.9 40.05 19.3 39.9 19.45 39.6 19.6 39.45 19.75 39.2 19.75 38.9 19.6 38.75 19.25 38.6 19 38.6 18.9 38.75 18.6 39.1 18.3 39.4 18.3 39.65
L 18.3 39.8
M 97.05 113.7
Q 96.9 114 97.05 114.4 97.2 114.4 97.2 114.55 97.5 114.85 97.9 115.15 98.2 115.15 98.4 115.25 98.8 115.2 98.95 115.2 99.2 115.1 99.5 114.95
L 99.65 114.8
Q 99.75 114.5 99.5 114.1 99.2 113.65 98.65 113.35 98.2 113.25 97.6 113.25 97.6 113.4 97.5 113.4 97.2 113.55 97.05 113.7
M 104.95 113.65
Q 104.5 113.35 103.95 113.55
L 103.8 113.55
Q 103.65 113.55 103.35 113.7
L 103.2 113.85
Q 103.05 113.85 103.05 114 102.8 114.25 102.8 114.55
L 102.8 114.7
Q 102.8 115 103.25 115.25 103.7 115.4 104.25 115.25 104.55 115.2 104.7 115.05 105 115.05 105.1 114.95 105.2 114.8 105.35 114.65
L 105.35 114.5
Q 105.5 114.35 105.35 114.2 105.35 114.05 105.2 113.8 105.1 113.65 104.95 113.65
M 109.05 111.1
L 108.9 111.1
Q 108.6 111.4 108.3 111.8 108.2 112.3 108.3 112.55
L 108.3 112.7
Q 108.6 112.8 108.9 112.8 109.05 112.8 109.2 112.8 109.45 112.8 109.9 112.7
L 109.9 112.55
Q 110.2 112.4 110.35 112.05
L 110.45 111.9
Q 110.6 111.5 110.45 111.05 110.35 110.9 110.2 110.95 110 110.8 109.85 110.8 109.7 110.8 109.55 110.8 109.35 110.95 109.05 111.1
M 113.55 107.85
L 113.4 107.85
Q 113.1 108 112.8 108.3 112.5 108.55 112.55 108.85 112.55 109.3 112.7 109.45 113 109.7 113.3 109.55
L 113.45 109.55
Q 113.7 109.45 114 109.15 114 109 114.15 108.8 114.1 108.65 114.1 108.5 114.25 108.5 114.25 108.35 114.25 108.1 113.95 108 113.8 107.7 113.55 107.85
M 116.85 103.9
Q 116.6 103.75 116.45 104 116 104.15 115.85 104.65 115.75 104.95 115.9 105.35 115.9 105.65 116.2 105.75 116.5 105.9 116.8 105.6 117.05 105.45 117.2 105.15 117.3 104.75 117.3 104.3 117.15 104 116.85 103.9
M 119.5 99.8
Q 119.35 99.8 119.05 99.8 119.05 99.95 118.9 99.95 118.65 100.1 118.5 100.55 118.4 100.95 118.4 101.25 118.4 101.4 118.55 101.55 118.55 101.7 118.85 101.8 118.95 101.8 119.25 101.7 119.7 101.4 119.85 101.1 119.9 100.6 119.8 100.25 119.8 100.1 119.65 99.95
L 119.5 99.8
M 120.7 95.6
Q 120.4 95.9 120.25 96.2 120.1 96.6 120.15 96.9
L 120.15 97.05
Q 120.3 97.2 120.3 97.35
L 120.45 97.45
Q 120.75 97.45 121 97.35 121.3 97.2 121.6 96.75 121.7 96.25 121.55 96.05 121.55 95.6 121.25 95.45 121.1 95.45 120.95 95.45 120.85 95.45 120.7 95.6
M 121.15 91.45
Q 121.15 91.9 121.45 92.15 121.6 92.55 121.85 92.55 122.15 92.55 122.3 92.25 122.6 91.95 122.6 91.55 122.6 91.25 122.45 90.95
L 122.45 90.85
Q 122.25 90.55 121.95 90.55 121.7 90.4 121.4 90.75 121.3 91 121.15 91.45
M 121.15 86.45
Q 120.85 86.3 120.6 86.3 120.3 86.3 120.15 86.7 120.2 87 120.2 87.45 120.35 87.85 120.65 88.15 120.9 88.3 121.2 88.3 121.35 88.3 121.5 88.1 121.5 87.95 121.65 87.8 121.75 87.55 121.65 87.1 121.45 86.65 121.15 86.45
M 124.85 72
Q 124.3 72.35 124 72.75 123.55 73.35 123.75 73.75 123.75 74.2 123.9 74.5
L 124.05 74.5
Q 124.5 74.75 125.05 74.55 125.5 74.3 125.75 73.85 126.15 73.3 126.15 72.85 126.15 72.3 125.7 72.15 125.3 71.85 124.85 72
M 127.6 66.9
Q 127.15 66.8 126.7 67.05 126.35 67.55 126.2 68.1 125.9 68.7 126.2 69.1 126.4 69.7 126.8 69.65 127.1 69.8 127.55 69.5 128.05 69.05 128.2 68.65 128.2 68.35 128.2 68.05 128.35 67.8 128.2 67.5 128 67.05 127.6 66.9
M 127.45 61.35
L 127.45 61.45
Q 127.2 61.75 127.2 62.35 127.2 62.75 127.35 63.2 127.65 63.6 127.95 63.6 128.25 63.6 128.5 63.15 128.75 62.85 128.75 62.3 128.75 61.85 128.55 61.4 128.45 61.15 128.3 61.15 128.3 61 128.15 61.05
L 128 61.05
Q 127.7 61.05 127.45 61.35
M 129.8 57.85
Q 130.25 57.5 130.35 56.95 130.35 56.5 130.2 55.95 130.05 55.7 129.7 55.55 129.3 55.55 129.05 55.85 128.75 56.1 128.6 56.55 128.45 57.1 128.65 57.55 128.95 58 129.25 58.15 129.55 58.15 129.8 57.85
M 132.05 50.55
Q 132.05 50.45 131.9 50.5 131.6 50.35 131.5 50.5 131.35 50.5 131.2 50.5 130.9 50.75 130.6 51.2 130.5 51.75 130.5 52.2 130.65 52.35 130.65 52.5 130.8 52.65 130.95 52.75 131.25 52.9 131.65 52.65 132.1 52.3 132.25 51.85 132.35 51.45 132.35 51 132.35 50.7 132.05 50.55
M 120.95 76.1
Q 120.35 76.15 119.95 76.45 119.65 76.75 119.35 77 119.25 77.6 119.4 77.75 119.7 78.15 120.15 78.15 120.4 78.15 120.55 78.15 120.7 78.15 121 77.8 121.55 77.7 121.65 77.25 121.8 76.8 121.5 76.55 121.4 76.25 120.95 76.1
M 133.55 46.25
L 133.4 46.4
Q 133.25 46.55 133.1 46.55 132.95 46.85 132.8 47 132.65 47.4 132.85 47.7
L 132.85 47.85
Q 132.85 48.15 133 48.15 133 48.3 133.15 48.3 133.45 48.3 133.7 48.15 134 47.95 134.15 47.5 134.25 47.1 134.25 46.8 134.1 46.35 133.8 46.4 133.65 46.25 133.55 46.25
M 134.7 41.9
Q 134.55 41.9 134.3 42.2 134 42.5 134 42.9 134 43.35 134.2 43.65 134.35 43.95 134.6 43.95
L 134.75 43.95
Q 134.9 43.95 135.2 43.8 135.3 43.5 135.3 43.05 135.45 42.65 135.3 42.5
L 135.3 42.2
Q 135 41.9 134.7 41.9
M 134.75 38.9
Q 134.75 38.5 134.45 38.2 134.2 38.05 133.9 38.05 133.75 38.05 133.6 38.25 133.6 38.4 133.45 38.55 133.35 38.95 133.45 39.25 133.65 39.7 133.95 39.9 134.25 40.2 134.5 40.05 134.65 40.05 134.8 39.9 134.8 39.75 134.8 39.65 134.9 39.35 134.75 38.9
M 132.25 36.65
Q 132.25 36.4 132.15 36.1 131.85 35.8 131.5 35.7 131.2 35.7 131.15 35.85 131 36 131 36.3 131 36.55 131.25 36.7 131.4 37 131.7 37.1 132 37.1 132.15 37.1 132.15 36.95 132.25 36.95
L 132.25 36.8
Q 132.4 36.65 132.25 36.65 Z"/>

<path fill="#FE5800" stroke="none" d="
M 18.7 37.8
L 18.55 37.8
Q 18.25 38.1 18 38.25 16.6 39.45 15.65 40.85 15.5 41.3 15.35 41.6
L 15.2 41.6 15.2 41.7
Q 14.85 42.8 14.55 44.2 14.3 45.05 14.3 46.05
L 14.3 46.2
Q 14.5 48.35 15.45 51.2
L 15.45 51.35
Q 16.4 53.35 17.55 55.7 18.5 57.45 19.7 59.4 19.95 59.95 20.3 60.4 21.35 63 21.85 65.35 22.05 68.25 22.55 70.95 22.55 71.1 22.55 71.25 22.75 72.4 23.05 73.55 23.8 75.8 24.85 77.5
L 25 77.65
Q 27.4 81.6 31.6 82.5 31.6 82.65 31.75 82.65
L 31.9 82.6
Q 34.05 83 40.15 80.7 46.4 78.4 60.4 76.6 69.5822265625 75.33359375 72.2 75.25 72.1845703125 74.9107421875 72.15 74.55 72.152734375 74.53359375 72.15 74.5 72.1435546875 74.2552734375 72.15 74 72.1251953125 73.0822265625 72.15 72.2 72.1625 71.5361328125 72.2 70.9 72.15 69.75 72.4 68.75 72.5 68.15 72.65 67.75 72.7818359375 67.244140625 72.95 66.7 73.2185546875 66.12109375 73.55 65.5 73.08828125 64.007421875 71.55 62.1 70.6 60.85 69.2 59.75 61.7 51.9 51.05 45.85 40.25 39.7 36.2 38.2 32.2 36.6 29.55 36.2 26.8 35.7 25.25 35.9 25.1 35.75 25.1 35.9 23.25 35.95 21.5 36.4 20.95 36.55 20.55 36.9 19.4 37.2 18.7 37.8
M 18.6 40.1
L 18.3 39.8 18.3 39.65
Q 18.3 39.4 18.6 39.1 18.9 38.75 19 38.6 19.25 38.6 19.6 38.75 19.75 38.9 19.75 39.2 19.6 39.45 19.45 39.6 19.3 39.9 18.9 40.05 18.75 40.1 18.6 40.1
M 17.1 41.25
Q 17.2 41.4 17.35 41.55 17.35 41.95 17.35 42.25 17.25 42.7 17 42.95 16.55 43.3 16.4 43.15 16.25 43.15 16.15 43 16.15 42.85 16 42.75 15.8 42.45 15.95 42 16.1 41.6 16.35 41.3 16.65 41.15 16.95 41.1 17.1 41.1 17.1 41.25
M 16.75 45.3
Q 16.9 45.6 17.05 45.95 17.05 46.4 16.95 46.75 16.65 47.05 16.5 47.05
L 16.35 47.05
Q 16.25 47.05 15.95 46.9 15.75 46.6 15.6 46.15 15.6 45.75 15.75 45.6
L 15.75 45.3
Q 15.9 45 16.3 45 16.45 45 16.75 45.3
M 17.3 49.4
Q 17.55 49.25 17.7 49.25 17.7 49.4 17.85 49.4
L 18 49.55
Q 18.3 49.85 18.45 50 18.55 50.4 18.5 50.7
L 18.5 50.85
Q 18.5 51.15 18.35 51.15 18.35 51.3 18.2 51.3 17.9 51.3 17.6 51.15 17.35 51 17.2 50.55 17 50.2 17 49.9 17.15 49.4 17.3 49.4
M 20.75 55.4
Q 20.75 55.55 20.6 55.65 20.15 55.8 19.85 55.55 19.45 55.25 19.3 54.8 19.1 54.45 19.1 54 19.1 53.7 19.25 53.5 19.4 53.4 19.55 53.4 19.65 53.25 19.95 53.4
L 20.1 53.4
Q 20.55 53.65 20.7 54.1 21 54.65 20.85 55.1 20.85 55.25 20.75 55.4
M 22.55 58.65
Q 23 58.9 23.1 59.35 23.1 59.9 23.05 60.35 22.9 60.8 22.6 60.95 22.15 60.95 21.9 60.65 21.6 60.35 21.4 59.8 21.25 59.4 21.4 58.8 21.55 58.5 21.9 58.35 22.2 58.35 22.55 58.65
M 24.5 64.05
L 24.5 64.15
Q 24.85 64.45 24.85 65.05 24.85 65.45 24.7 65.9 24.45 66.3 24.2 66.3 23.75 66.3 23.4 65.95 23.25 65.65 23.25 65.1 23.15 64.65 23.35 64.2 23.35 63.95 23.5 63.9
L 23.65 63.75
Q 23.8 63.75 23.95 63.75 24.2 63.75 24.5 64.05
M 24.15 70.2
Q 24.25 69.75 24.65 69.6 24.95 69.5 25.5 69.7 26 70.15 26.15 70.7 26.3 71.3 26.15 71.7 26.05 72.3 25.6 72.3 25.2 72.5 24.75 72.2 24.3 71.75 24.15 71.35 24 71.05 24 70.75 24 70.5 24.15 70.2
M 31.8 78.45
Q 32.2 78.45 32.65 78.75 33.1 79.05 33.25 79.3 33.55 79.9 33.3 80.05 33.15 80.45 32.7 80.45 32.4 80.45 32.25 80.45 32 80.45 31.85 80.15 31.25 80.1 31.05 79.65 30.95 79.2 31.05 78.95 31.2 78.65 31.8 78.45
M 28.6 77
L 28.45 77
Q 28.15 77.25 27.6 77.15 27 76.9 26.85 76.45 26.4 75.9 26.4 75.45 26.4 74.9 26.8 74.75 27.1 74.45 27.7 74.55 28.25 74.85 28.55 75.25 28.8 75.85 28.85 76.25 28.85 76.7 28.6 77
M 132.65 35.25
Q 132.35 35.1 132.1 34.8
L 131.95 34.8
Q 131.1 34.3 130.05 34 129.45 33.75 129 33.6 127.15 33.25 125.45 33.3 125.3 33.15 125.3 33.3 123.7 33.15 121 33.8 118.45 34.3 114.3 36.1 110.35 37.8 100.1 44.55 89.75 51.1 82.65 59.35 81.2 60.45 80.4 61.8 78.8623046875 63.8083984375 78.5 65.35 78.86171875 65.9125 79.1 66.5 79.4609375 67.2064453125 79.7 67.95 79.85 68.25 79.9 68.55 80 69.55 80.2 70.7 80.2662109375 71.263671875 80.3 71.85 80.35234375 72.7609375 80.3 73.7 80.31640625 73.9740234375 80.3 74.2 80.301953125 74.2615234375 80.3 74.3 80.3 74.6158203125 80.3 74.9 82.8263671875 74.9021484375 92.2 75.7 106.3 76.8 112.55 78.8 118.9 80.75 120.9 80.25
L 121.2 80.25 121.35 80.1
Q 125.45 79 127.65 74.95
L 127.8 74.8
Q 128.75 73.05 129.4 70.75 129.55 69.6 129.65 68.45 129.65 68.3 129.8 68.15 130.1 65.45 130.2 62.55 130.45 60.1 131.55 57.5 131.75 57.05 131.9 56.5 133 54.45 133.8 52.7
L 133.95 52.7
Q 135.05 50.25 135.75 48.25
L 135.75 48.1
Q 136.65 45.15 136.6 43
L 136.6 42.85
Q 136.6 41.85 136.4 41 136.1 39.6 135.5 38.6
L 135.5 38.5
Q 135.35 38.2 135.05 37.75 134.15 36.35 132.65 35.25
M 132.15 36.1
Q 132.25 36.4 132.25 36.65 132.4 36.65 132.25 36.8
L 132.25 36.95
Q 132.15 36.95 132.15 37.1 132 37.1 131.7 37.1 131.4 37 131.25 36.7 131 36.55 131 36.3 131 36 131.15 35.85 131.2 35.7 131.5 35.7 131.85 35.8 132.15 36.1
M 134.45 38.2
Q 134.75 38.5 134.75 38.9 134.9 39.35 134.8 39.65 134.8 39.75 134.8 39.9 134.65 40.05 134.5 40.05 134.25 40.2 133.95 39.9 133.65 39.7 133.45 39.25 133.35 38.95 133.45 38.55 133.6 38.4 133.6 38.25 133.75 38.05 133.9 38.05 134.2 38.05 134.45 38.2
M 134.3 42.2
Q 134.55 41.9 134.7 41.9 135 41.9 135.3 42.2
L 135.3 42.5
Q 135.45 42.65 135.3 43.05 135.3 43.5 135.2 43.8 134.9 43.95 134.75 43.95
L 134.6 43.95
Q 134.35 43.95 134.2 43.65 134 43.35 134 42.9 134 42.5 134.3 42.2
M 133.4 46.4
L 133.55 46.25
Q 133.65 46.25 133.8 46.4 134.1 46.35 134.25 46.8 134.25 47.1 134.15 47.5 134 47.95 133.7 48.15 133.45 48.3 133.15 48.3 133 48.3 133 48.15 132.85 48.15 132.85 47.85
L 132.85 47.7
Q 132.65 47.4 132.8 47 132.95 46.85 133.1 46.55 133.25 46.55 133.4 46.4
M 119.95 76.45
Q 120.35 76.15 120.95 76.1 121.4 76.25 121.5 76.55 121.8 76.8 121.65 77.25 121.55 77.7 121 77.8 120.7 78.15 120.55 78.15 120.4 78.15 120.15 78.15 119.7 78.15 119.4 77.75 119.25 77.6 119.35 77 119.65 76.75 119.95 76.45
M 131.9 50.5
Q 132.05 50.45 132.05 50.55 132.35 50.7 132.35 51 132.35 51.45 132.25 51.85 132.1 52.3 131.65 52.65 131.25 52.9 130.95 52.75 130.8 52.65 130.65 52.5 130.65 52.35 130.5 52.2 130.5 51.75 130.6 51.2 130.9 50.75 131.2 50.5 131.35 50.5 131.5 50.5 131.6 50.35 131.9 50.5
M 130.35 56.95
Q 130.25 57.5 129.8 57.85 129.55 58.15 129.25 58.15 128.95 58 128.65 57.55 128.45 57.1 128.6 56.55 128.75 56.1 129.05 55.85 129.3 55.55 129.7 55.55 130.05 55.7 130.2 55.95 130.35 56.5 130.35 56.95
M 127.45 61.45
L 127.45 61.35
Q 127.7 61.05 128 61.05
L 128.15 61.05
Q 128.3 61 128.3 61.15 128.45 61.15 128.55 61.4 128.75 61.85 128.75 62.3 128.75 62.85 128.5 63.15 128.25 63.6 127.95 63.6 127.65 63.6 127.35 63.2 127.2 62.75 127.2 62.35 127.2 61.75 127.45 61.45
M 126.7 67.05
Q 127.15 66.8 127.6 66.9 128 67.05 128.2 67.5 128.35 67.8 128.2 68.05 128.2 68.35 128.2 68.65 128.05 69.05 127.55 69.5 127.1 69.8 126.8 69.65 126.4 69.7 126.2 69.1 125.9 68.7 126.2 68.1 126.35 67.55 126.7 67.05
M 124 72.75
Q 124.3 72.35 124.85 72 125.3 71.85 125.7 72.15 126.15 72.3 126.15 72.85 126.15 73.3 125.75 73.85 125.5 74.3 125.05 74.55 124.5 74.75 124.05 74.5
L 123.9 74.5
Q 123.75 74.2 123.75 73.75 123.55 73.35 124 72.75 Z"/>

<path fill="#000000" stroke="none" d="
M 60.35 45.8
Q 59.65 46.55 59.7 47.55 59.7 48.4 60.3 49.1 60.9 50.05 62.05 49.95 63.2 49.75 63.15 48.3 63.25 47.75 62.85 47.45 62.55 47.05 61.85 47.2
L 61.85 47.05
Q 61.5 46.75 61.05 46.75 60.65 46.8 60.5 46.95
L 60.55 47.7
Q 60.85 47.9 61.25 47.9 61.7 47.9 61.85 47.8
L 61.85 47.65
Q 62.4 47.5 62.55 47.8 62.85 47.85 62.85 48.3 62.9 49.3 62.05 49.5 61.05 49.5 60.55 48.95 60.1 48.25 60.1 47.55 60.05 46.7 60.65 46.25 61.2 45.65 62.2 45.75 63.1 45.85 65.55 48.1 68.05 50.5 70 53.15 72.05 55.7 73.15 57.35 74.2 59.1 74.6 60.4 74.65 60.65 74.8 60.95 75.1 60.75 75.25 60.75 75.1 60.45 75.05 60.2 74.45 58.95 73.4 57.2 72.35 55.4 70.45 52.9 68.35 50.2 65.85 47.95 63.2 45.45 62.2 45.35 61.05 45.2 60.35 45.8
M 90.75 45
Q 90.15 44.5 88.9 44.65 87.9 44.85 85.35 47.45 82.95 49.8 81.2 52.6 79.25 55.2 78.3 57.1 77.35 58.85 76.9 60.15 76.8 60.45 76.8 60.75 76.95 60.85 77.1 60.85 77.25 60.55 77.35 60.3 77.75 59 78.7 57.25
L 78.55 57.25
Q 79.55 55.5 81.5 52.85 83.4 50.1 85.65 47.6 88 45.25 89.05 45.05 90.05 44.95 90.6 45.45 91.2 45.9 91.25 46.75 91.25 47.45 90.65 48.15 90.25 48.8 89.4 48.8 88.55 48.65 88.5 47.65 88.5 47.2 88.65 47.1 88.95 46.8 89.35 46.95
L 89.5 46.95 89.5 47.1
Q 89.65 47.2 90.1 47.2 90.5 47.15 90.65 46.9
L 90.6 46.15
Q 90.45 46 90.05 46.05 89.6 46.05 89.5 46.35
L 89.5 46.5
Q 88.8 46.35 88.5 46.8 88.05 47.15 88.05 47.7 88.25 49.15 89.4 49.25 90.55 49.3 91 48.3 91.5 47.6 91.5 46.75 91.45 45.75 90.75 45 Z"/>
</g>

<g id="Tween_11_0_Layer0_0_FILL">
<path fill="#FF8C07" stroke="none" d="
M -5.4 -0.35
Q -6.15 -1.6 -7.5 -3.95 -7.65 -3 -7.9 -2.1 -7.05 -0.05 -5.45 2.25 -5.35 2.4 -5.2 2.6 -4.8 3.2 -4.35 3.8 -3 5.3 -1.95 5.2 -3.2 3.3 -3.9 2.1 -4.6 0.9 -5.4 -0.35
M -1.6 -6.45
Q -2 -6.55 -2.4 -6.6 -2.65 -6.65 -2.9 -6.7 -3.3 -6.75 -3.75 -6.85 -3.8 -6.85 -3.9 -6.85 -4.05 -6.9 -4.2 -6.9 -5.7 -7.15 -7.25 -7.3
L -7.25 -7.25
Q -7.25 -6.95 -7.25 -6.6 -5.7 -6.45 -4.3 -6.15 -4.2 -6.15 -4.05 -6.15 -3.6 -6.05 -3.2 -5.95 -3.15 -5.95 -3.1 -5.95 -2.3 -5.75 -1.55 -5.55 -1.3 -5.45 -1.05 -5.4
L 1 -5.9
Q -0.3 -6.2 -1.6 -6.45
M 1.1 5
L 1.05 4.95
Q 0.2 2.9 -0.75 1.25 -1.3 0.35 -1.85 -0.45 -2.5 -1.35 -3.2 -2.1 -3.3 -2.2 -3.4 -2.25 -3.45 -2.3 -4 -2.65 -4.1 -2.75 -4.3 -2.85 -4.5 -3 -4.7 -3.15 -5.9 -3.95 -7.3 -5.25 -7.35 -5 -7.35 -4.75 -6.15 -2.85 -5 -1.05 -4.75 -0.75 -4.55 -0.35 -4 0.55 -3.4 1.4 -3.15 1.8 -2.9 2.2 -2.3 3.05 -1.75 3.9
L -1.75 3.95
Q -1.3 4.6 -0.9 5.25 -0.45 5.35 -0.1 5.3 -0.05 5.3 0 5.3 0.35 5.3 0.7 5.2 0.85 5.15 1 5.05 1.05 5 1.1 5
M 0.6 -2.2
Q 0.6 -2.3 0.55 -2.4 0.5 -2.65 -0.15 -2.9 -0.2 -2.9 -0.3 -2.9 -0.3 -2.95 -0.35 -2.95 -0.7 -3.15 -0.9 -3.4 -1.05 -3.6 -1.05 -3.85 -1.05 -4.55 -1.45 -4.75 -1.55 -4.8 -1.7 -4.85 -2.15 -5 -2.6 -5.15 -2.95 -5.2 -3.25 -5.35 -3.7 -5.45 -4.1 -5.55 -4.25 -5.6 -4.35 -5.6 -5.4 -5.85 -6.45 -6.1
L -6.5 -6.1
Q -6.8 -6.15 -7.15 -6.25 -7.2 -6.25 -7.25 -6.25 -7.3 -6 -7.3 -5.7 -5.8 -4.65 -4.6 -3.85
L -4.55 -3.8
Q -4.45 -3.75 -4.3 -3.65 -4.05 -3.5 -3.8 -3.35 -3.3 -3.05 -2.9 -2.8 -2.6 -2.65 -2.35 -2.5 -2.05 -2.35 -1.75 -2.2 -1.55 -2.15 -1.35 -2.05 -1.1 -2 -0.95 -1.95 -0.4 -1.8 -0.1 -1.8 0.6 -1.8 0.6 -2.2
M 4.6 2.7
Q 4.5 2.65 4.4 2.6 3.35 1.9 2.5 1.15 1.9 0.65 1.35 0.1
L 1.3 0.05
Q 0.75 -0.55 0.3 -1.2 -0.25 -1.05 -0.9 -1.2 -0.95 -1.2 -1 -1.25
L -1.05 -1.25
Q -1.2 -1.3 -1.35 -1.35 -1.7 -1.45 -2.05 -1.65 -1.6 -1.1 -1.25 -0.55
L -1.2 -0.55
Q -0.7 0.15 -0.2 0.85 0.15 1.4 0.45 1.95 0.5 2 0.55 2.1 1.15 3.05 1.65 4 1.85 4.3 2 4.65 2.25 4.6 2.45 4.5 2.55 4.45 2.65 4.4
L 2.7 4.4
Q 3.1 4.2 3.5 3.9 3.55 3.85 3.6 3.8
L 3.65 3.75
Q 3.7 3.7 3.75 3.65 4 3.4 4.25 3.1 4.45 2.9 4.6 2.7
M 1.15 -1.55
Q 0.9 -1.4 0.8 -1.3 1.6 -0.4 2.55 0.4 3.25 1 4.1 1.5 4.45 1.7 4.75 1.9
L 4.8 1.9 4.85 1.95
Q 4.95 2 5.1 2.05 5.1 2.1 5.15 2.1
L 5.15 2.05
Q 5.2 2.05 5.2 2 5.35 1.85 5.45 1.65 5.95 1 6.25 0.35 6.05 0.2 5.85 0.1
L 5.85 0.05 5.8 0.05
Q 5.45 -0.2 5.15 -0.4 5.15 -0.45 5.1 -0.45 4 -1.15 2.7 -1.65 2.05 -1.9 1.35 -2.1 1.35 -1.8 1.25 -1.65 1.2 -1.6 1.15 -1.55
M 4.35 -3.3
Q 3.75 -3.4 3.05 -3.5 3 -3.5 2.9 -3.5 1.65 -3.6 0.15 -3.65 0.95 -3.3 1.3 -2.45 2.05 -2.35 2.75 -2.15 4 -1.85 5.2 -1.4 5.35 -1.3 5.5 -1.25 5.8 -1.15 6.15 -1
L 6.2 -1
Q 6.25 -0.95 6.3 -0.9 6.45 -0.85 6.55 -0.8 6.6 -1 6.6 -1.2 6.65 -1.3 6.65 -1.45 6.65 -1.5 6.65 -1.55 6.65 -2.1 6.5 -2.5 6.3 -2.9 5.35 -3.15 4.9 -3.25 4.35 -3.3
M 3.2 -5.2
Q 3 -5.25 2.75 -5.35 1.2 -5.5 0.15 -5.25 -0.3 -5.15 -0.65 -4.95
L -0.35 -4.2
Q 0.8 -4.25 1.9 -4.2 2.45 -4.2 3 -4.1 4.2 -4.05 5.35 -3.8 5.65 -3.75 6 -3.7 4.9 -4.75 3.2 -5.2 Z"/>

<path fill="#000000" stroke="none" d="
M 0.55 -2.4
Q 0.6 -2.3 0.6 -2.2 0.6 -1.8 -0.1 -1.8 -0.4 -1.8 -0.95 -1.95 -1.1 -2 -1.35 -2.05 -1.55 -2.15 -1.75 -2.2 -2.05 -2.35 -2.35 -2.5 -2.6 -2.65 -2.9 -2.8 -3.3 -3.05 -3.8 -3.35 -4.05 -3.5 -4.3 -3.65 -4.45 -3.75 -4.55 -3.8
L -4.6 -3.85
Q -5.8 -4.65 -7.3 -5.7 -7.3 -5.65 -7.3 -5.6 -7.3 -5.4 -7.3 -5.25 -5.9 -3.95 -4.7 -3.15 -4.5 -3 -4.3 -2.85 -4.1 -2.75 -4 -2.65 -3.45 -2.3 -3.4 -2.25 -3.3 -2.2 -3.2 -2.1 -2.5 -1.35 -1.85 -0.45 -1.3 0.35 -0.75 1.25 0.2 2.9 1.05 4.95
L 1.1 5
Q 1.05 5 1 5.05 0.85 5.15 0.7 5.2 0.35 5.3 0 5.3 -0.05 5.3 -0.1 5.3 -0.45 5.35 -0.9 5.25 -1.3 4.6 -1.75 3.95
L -1.75 3.9
Q -2.3 3.05 -2.9 2.2 -3.15 1.8 -3.4 1.4 -4 0.55 -4.55 -0.35 -4.75 -0.75 -5 -1.05 -6.15 -2.85 -7.35 -4.75 -7.45 -4.35 -7.5 -3.95 -6.15 -1.6 -5.4 -0.35 -4.6 0.9 -3.9 2.1 -3.2 3.3 -1.95 5.2 -3 5.3 -4.35 3.8 -4.8 3.2 -5.2 2.6 -5.35 2.4 -5.45 2.25 -7.05 -0.05 -7.9 -2.1 -7.95 -1.95 -8 -1.75 -7.05 0.6 -5.55 2.75 -5.4 2.9 -5.3 3.1 -5.1 3.35 -4.9 3.65 -4.55 4.05 -4.2 4.5 -3.85 4.9 -3.45 5.3 -2.05 6.85 -0.6 7.3 -0.45 7.35 -0.35 7.4 -0.15 7.45 0 7.45 0.3 7.5 0.55 7.5 1.2 7.5 1.85 7.3 2.25 7.15 2.6 7 2.75 6.9 2.85 6.8 3 6.7 3.15 6.6 3.25 6.5 3.3 6.45 3.6 6.25 3.8 6.05 3.95 5.9 4.1 5.8
L 4.15 5.8
Q 4.25 5.65 4.4 5.55 4.45 5.45 4.5 5.4 4.6 5.35 4.65 5.3 4.75 5.2 4.9 5.05
L 4.95 5
Q 5.1 4.85 5.2 4.75 5.45 4.5 5.65 4.25 5.9 3.95 6.1 3.6 6.5 3.1 6.75 2.6 6.9 2.45 6.95 2.25 7.15 1.9 7.35 1.45 7.7 0.55 7.9 -0.4 7.9 -0.6 7.95 -0.8 7.95 -0.95 7.95 -1.15 8 -1.3 8 -1.4 8 -1.65 7.95 -1.9 7.95 -2.15 7.9 -2.4
L 7.9 -2.45
Q 7.85 -2.85 7.65 -3.15 7.65 -3.25 7.6 -3.3 7.45 -3.55 7.3 -3.8 6.95 -4.3 6.4 -4.65
L 6.35 -4.7
Q 6 -4.95 5.55 -5.1 5.45 -5.15 5.4 -5.2 4.4 -5.5 3.35 -5.75 0.8 -6.45 -1.65 -6.85 -2.25 -6.95 -2.8 -7 -3.35 -7.1 -3.85 -7.15 -4 -7.2 -4.15 -7.2 -5.7 -7.4 -7.25 -7.45 -7.25 -7.4 -7.25 -7.3 -5.7 -7.15 -4.2 -6.9 -4.05 -6.9 -3.9 -6.85 -3.8 -6.85 -3.75 -6.85 -3.3 -6.75 -2.9 -6.7 -2.65 -6.65 -2.4 -6.6 -2 -6.55 -1.6 -6.45 -0.3 -6.2 1 -5.9
L -1.05 -5.4
Q -1.3 -5.45 -1.55 -5.55 -2.3 -5.75 -3.1 -5.95 -3.15 -5.95 -3.2 -5.95 -3.6 -6.05 -4.05 -6.15 -4.2 -6.15 -4.3 -6.15 -5.7 -6.45 -7.25 -6.6 -7.25 -6.45 -7.25 -6.3
L -7.25 -6.25
Q -7.2 -6.25 -7.15 -6.25 -6.8 -6.15 -6.5 -6.1
L -6.45 -6.1
Q -5.4 -5.85 -4.35 -5.6 -4.25 -5.6 -4.1 -5.55 -3.7 -5.45 -3.25 -5.35 -2.95 -5.2 -2.6 -5.15 -2.15 -5 -1.7 -4.85 -1.55 -4.8 -1.45 -4.75 -1.05 -4.55 -1.05 -3.85 -1.05 -3.6 -0.9 -3.4 -0.7 -3.15 -0.35 -2.95 -0.3 -2.95 -0.3 -2.9 -0.2 -2.9 -0.15 -2.9 0.5 -2.65 0.55 -2.4
M 2.75 -5.35
Q 3 -5.25 3.2 -5.2 4.9 -4.75 6 -3.7 5.65 -3.75 5.35 -3.8 4.2 -4.05 3 -4.1 2.45 -4.2 1.9 -4.2 0.8 -4.25 -0.35 -4.2
L -0.65 -4.95
Q -0.3 -5.15 0.15 -5.25 1.2 -5.5 2.75 -5.35
M 3.05 -3.5
Q 3.75 -3.4 4.35 -3.3 4.9 -3.25 5.35 -3.15 6.3 -2.9 6.5 -2.5 6.65 -2.1 6.65 -1.55 6.65 -1.5 6.65 -1.45 6.65 -1.3 6.6 -1.2 6.6 -1 6.55 -0.8 6.45 -0.85 6.3 -0.9 6.25 -0.95 6.2 -1
L 6.15 -1
Q 5.8 -1.15 5.5 -1.25 5.35 -1.3 5.2 -1.4 4 -1.85 2.75 -2.15 2.05 -2.35 1.3 -2.45 0.95 -3.3 0.15 -3.65 1.65 -3.6 2.9 -3.5 3 -3.5 3.05 -3.5
M 0.8 -1.3
Q 0.9 -1.4 1.15 -1.55 1.2 -1.6 1.25 -1.65 1.35 -1.8 1.35 -2.1 2.05 -1.9 2.7 -1.65 4 -1.15 5.1 -0.45 5.15 -0.45 5.15 -0.4 5.45 -0.2 5.8 0.05
L 5.85 0.05 5.85 0.1
Q 6.05 0.2 6.25 0.35 5.95 1 5.45 1.65 5.35 1.85 5.2 2 5.2 2.05 5.15 2.05
L 5.15 2.1
Q 5.1 2.1 5.1 2.05 4.95 2 4.85 1.95
L 4.8 1.9 4.75 1.9
Q 4.45 1.7 4.1 1.5 3.25 1 2.55 0.4 1.6 -0.4 0.8 -1.3
M 6.8 -3.15
Q 6.85 -3.3 6.95 -3.3 7.05 -3.3 7.15 -3.25 7.25 -3.15 7.3 -3 7.35 -2.85 7.3 -2.75 7.25 -2.7 7.25 -2.65 7.2 -2.6 7.15 -2.6 7.05 -2.6 6.95 -2.65 6.85 -2.75 6.8 -2.9 6.8 -3.05 6.8 -3.15
M 7.2 -1.75
Q 7.3 -1.85 7.4 -1.8 7.5 -1.8 7.55 -1.7
L 7.55 -1.65
Q 7.6 -1.55 7.6 -1.45 7.6 -1.3 7.5 -1.2 7.45 -1.1 7.35 -1.1 7.25 -1.1 7.2 -1.25 7.1 -1.35 7.1 -1.5 7.15 -1.65 7.2 -1.75
M 7 -0.1
Q 7.05 -0.1 7.1 -0.1 7.2 -0.05 7.2 0.1 7.25 0.2 7.2 0.35 7.1 0.5 7 0.55 6.9 0.6 6.8 0.6
L 6.75 0.55
Q 6.75 0.5 6.7 0.45
L 6.7 0.4
Q 6.7 0.3 6.75 0.15 6.8 0.05 6.9 -0.05 6.95 -0.1 7 -0.1
M 6.45 1.4
L 6.5 1.45
Q 6.55 1.5 6.55 1.55 6.6 1.7 6.55 1.85 6.5 1.95 6.35 2.05 6.25 2.1 6.2 2.1 6.1 2.05 6.1 2 6.05 1.95 6.05 1.9 6.05 1.8 6.1 1.65 6.15 1.5 6.25 1.45 6.3 1.45 6.3 1.4 6.4 1.4 6.45 1.4
M 5.35 2.85
Q 5.4 2.75 5.5 2.8 5.6 2.85 5.65 2.95 5.65 3.1 5.6 3.25 5.55 3.35 5.45 3.4 5.35 3.5 5.25 3.45 5.15 3.4 5.15 3.3 5.1 3.15 5.15 3.05 5.2 2.9 5.35 2.85
M 4.4 2.6
Q 4.5 2.65 4.6 2.7 4.45 2.9 4.25 3.1 4 3.4 3.75 3.65 3.7 3.7 3.65 3.75
L 3.6 3.8
Q 3.55 3.85 3.5 3.9 3.1 4.2 2.7 4.4
L 2.65 4.4
Q 2.55 4.45 2.45 4.5 2.25 4.6 2 4.65 1.85 4.3 1.65 4 1.15 3.05 0.55 2.1 0.5 2 0.45 1.95 0.15 1.4 -0.2 0.85 -0.7 0.15 -1.2 -0.55
L -1.25 -0.55
Q -1.6 -1.1 -2.05 -1.65 -1.7 -1.45 -1.35 -1.35 -1.2 -1.3 -1.05 -1.25
L -1 -1.25
Q -0.95 -1.2 -0.9 -1.2 -0.25 -1.05 0.3 -1.2 0.75 -0.55 1.3 0.05
L 1.35 0.1
Q 1.9 0.65 2.5 1.15 3.35 1.9 4.4 2.6
M 0.85 6.05
L 0.9 6.05
Q 1.1 6 1.25 6.1 1.3 6.1 1.35 6.15 1.4 6.25 1.4 6.3 1.45 6.35 1.4 6.4
L 1.4 6.45
Q 1.35 6.5 1.3 6.55 1.25 6.6 1.15 6.6 1.1 6.65 1 6.65 0.8 6.7 0.65 6.65 0.5 6.55 0.5 6.45
L 0.5 6.4
Q 0.5 6.3 0.6 6.2 0.6 6.15 0.65 6.15
L 0.7 6.1
Q 0.8 6.05 0.85 6.05
M 2.45 5.75
Q 2.4 5.65 2.45 5.5 2.55 5.35 2.65 5.25
L 2.7 5.25
Q 2.8 5.2 2.9 5.15 2.95 5.15 3 5.15 3.05 5.15 3.1 5.2 3.15 5.2 3.2 5.25 3.25 5.4 3.2 5.55
L 3.15 5.6
Q 3.1 5.7 3 5.75
L 3 5.8
Q 2.85 5.85 2.75 5.85 2.7 5.85 2.65 5.85 2.55 5.85 2.45 5.8
L 2.45 5.75
M 4.05 4.3
Q 4.15 4.2 4.25 4.15
L 4.3 4.15
Q 4.4 4.1 4.45 4.2 4.55 4.25 4.55 4.35 4.55 4.4 4.5 4.4 4.5 4.45 4.5 4.5 4.45 4.55 4.45 4.6 4.35 4.7 4.25 4.75
L 4.2 4.75
Q 4.1 4.8 4 4.7 3.95 4.65 3.95 4.5 3.95 4.4 4.05 4.3
M -1.3 5.9
Q -1.1 5.9 -0.95 5.95 -0.75 6.05 -0.65 6.2 -0.55 6.35 -0.6 6.45
L -0.65 6.5
Q -0.75 6.55 -0.85 6.6 -0.9 6.6 -1.05 6.6 -1.1 6.55 -1.2 6.55 -1.35 6.45 -1.45 6.35 -1.45 6.3 -1.5 6.3 -1.55 6.15 -1.5 6.05 -1.45 6 -1.35 5.95 -1.3 5.95 -1.3 5.9 Z"/>

<path fill="#FFFFFF" stroke="none" d="
M -0.95 5.95
Q -1.1 5.9 -1.3 5.9 -1.3 5.95 -1.35 5.95 -1.45 6 -1.5 6.05 -1.55 6.15 -1.5 6.3 -1.45 6.3 -1.45 6.35 -1.35 6.45 -1.2 6.55 -1.1 6.55 -1.05 6.6 -0.9 6.6 -0.85 6.6 -0.75 6.55 -0.65 6.5
L -0.6 6.45
Q -0.55 6.35 -0.65 6.2 -0.75 6.05 -0.95 5.95
M 4.25 4.15
Q 4.15 4.2 4.05 4.3 3.95 4.4 3.95 4.5 3.95 4.65 4 4.7 4.1 4.8 4.2 4.75
L 4.25 4.75
Q 4.35 4.7 4.45 4.6 4.45 4.55 4.5 4.5 4.5 4.45 4.5 4.4 4.55 4.4 4.55 4.35 4.55 4.25 4.45 4.2 4.4 4.1 4.3 4.15
L 4.25 4.15
M 2.45 5.5
Q 2.4 5.65 2.45 5.75
L 2.45 5.8
Q 2.55 5.85 2.65 5.85 2.7 5.85 2.75 5.85 2.85 5.85 3 5.8
L 3 5.75
Q 3.1 5.7 3.15 5.6
L 3.2 5.55
Q 3.25 5.4 3.2 5.25 3.15 5.2 3.1 5.2 3.05 5.15 3 5.15 2.95 5.15 2.9 5.15 2.8 5.2 2.7 5.25
L 2.65 5.25
Q 2.55 5.35 2.45 5.5
M 0.9 6.05
L 0.85 6.05
Q 0.8 6.05 0.7 6.1
L 0.65 6.15
Q 0.6 6.15 0.6 6.2 0.5 6.3 0.5 6.4
L 0.5 6.45
Q 0.5 6.55 0.65 6.65 0.8 6.7 1 6.65 1.1 6.65 1.15 6.6 1.25 6.6 1.3 6.55 1.35 6.5 1.4 6.45
L 1.4 6.4
Q 1.45 6.35 1.4 6.3 1.4 6.25 1.35 6.15 1.3 6.1 1.25 6.1 1.1 6 0.9 6.05
M 5.5 2.8
Q 5.4 2.75 5.35 2.85 5.2 2.9 5.15 3.05 5.1 3.15 5.15 3.3 5.15 3.4 5.25 3.45 5.35 3.5 5.45 3.4 5.55 3.35 5.6 3.25 5.65 3.1 5.65 2.95 5.6 2.85 5.5 2.8
M 6.5 1.45
L 6.45 1.4
Q 6.4 1.4 6.3 1.4 6.3 1.45 6.25 1.45 6.15 1.5 6.1 1.65 6.05 1.8 6.05 1.9 6.05 1.95 6.1 2 6.1 2.05 6.2 2.1 6.25 2.1 6.35 2.05 6.5 1.95 6.55 1.85 6.6 1.7 6.55 1.55 6.55 1.5 6.5 1.45
M 7.1 -0.1
Q 7.05 -0.1 7 -0.1 6.95 -0.1 6.9 -0.05 6.8 0.05 6.75 0.15 6.7 0.3 6.7 0.4
L 6.7 0.45
Q 6.75 0.5 6.75 0.55
L 6.8 0.6
Q 6.9 0.6 7 0.55 7.1 0.5 7.2 0.35 7.25 0.2 7.2 0.1 7.2 -0.05 7.1 -0.1
M 7.4 -1.8
Q 7.3 -1.85 7.2 -1.75 7.15 -1.65 7.1 -1.5 7.1 -1.35 7.2 -1.25 7.25 -1.1 7.35 -1.1 7.45 -1.1 7.5 -1.2 7.6 -1.3 7.6 -1.45 7.6 -1.55 7.55 -1.65
L 7.55 -1.7
Q 7.5 -1.8 7.4 -1.8
M 6.95 -3.3
Q 6.85 -3.3 6.8 -3.15 6.8 -3.05 6.8 -2.9 6.85 -2.75 6.95 -2.65 7.05 -2.6 7.15 -2.6 7.2 -2.6 7.25 -2.65 7.25 -2.7 7.3 -2.75 7.35 -2.85 7.3 -3 7.25 -3.15 7.15 -3.25 7.05 -3.3 6.95 -3.3 Z"/>
</g>

<g id="Tween_9_0_Layer0_0_FILL">
<path fill="#FE5800" stroke="none" d="
M -5.1 3
Q -5.15 3 -5.2 3.05 -5.25 3.1 -5.3 3.1 -5.35 3.1 -5.35 3.15 -5.4 3.15 -5.45 3.2 -5.5 3.2 -5.5 3.25 -5.55 3.25 -5.6 3.3 -8.05 4.75 -9.55 5.55 -9.7 5.6 -9.9 5.7
L -9.9 5.75
Q -4.65 5.4 2.25 6.6
L 2.3 6.6
Q 3.25 6.65 3.95 6.3 4.2 6.15 4.45 6 4.85 5.65 5.15 5.25 5.6 4.6 5.95 3.8 6.15 3.3 6.25 2.65 5.55 3.6 -4.6 3 -4.85 3 -5.1 3
M -5.15 1.75
L -5.1 1.75
Q -3.1 0.1 -1.75 -1.9 -0.9 -3.05 0.25 -4.85 -5.1 -2.05 -7.95 0.9 -9.8 2.8 -10.15 3.3 -10.35 3.55 -10.1 3.4
L -10.1 3.45
Q -10.05 3.65 -10 3.85
L -9.85 4.85
Q -9.75 4.85 -9.8 5.05 -7.65 3.65 -6.05 2.5
L -6 2.45
Q -5.95 2.4 -5.9 2.4 -5.9 2.35 -5.85 2.35 -5.8 2.3 -5.75 2.3 -5.75 2.25 -5.7 2.2 -5.55 2.1 -5.4 2 -5.25 1.85 -5.15 1.75
M 6.35 -1.85
Q 6.3 -1.85 6.25 -1.8 1.75 -0.6 -0.85 -0.7 -1 -0.7 -1.15 -0.7 -2.75 1.5 -4.55 2.45 3.6 2.3 5.8 1.5 6.25 1.35 6.45 1.15
L 6.5 1.15
Q 6.7 0.65 6.7 0 6.7 -0.8 6.35 -1.85
M 1.45 -1.6
Q 2.8 -1.85 4.05 -2.15 5.1 -2.4 6.1 -2.8 5.75 -3.75 4.9 -4.3 4.1 -4.9 3.05 -4.95 2.05 -5.05 1.05 -4.9
L 0.65 -4
Q 0.15 -2.85 -0.55 -1.8 -0.7 -1.55 -0.85 -1.3 0.3 -1.4 1.45 -1.6
M 8.25 -6.7
Q 7.65 -7.6 6.45 -7.6 4 -7.4 1.25 -5.65 5.1 -6.55 6.95 -3.25 7.5 -3.45 7.75 -3.6 8.05 -3.85 8.25 -4.1 8.55 -4.45 8.65 -4.9 8.7 -5.35 8.6 -5.8 8.6 -5.9 8.55 -5.95 8.45 -6.35 8.25 -6.7 Z"/>

<path fill="#000000" stroke="none" d="
M 6.5 -8.15
Q 6.45 -8.2 6.45 -8.15 5.9 -8.2 4.95 -8 4.05 -7.85 2.6 -7.25 1.2 -6.7 -2.45 -4.45 -6.1 -2.25 -8.65 0.55 -9.15 0.95 -9.45 1.4 -10.35 2.5 -10.15 3.2 -10.15 3.25 -10.15 3.3 -9.8 2.8 -7.95 0.9 -5.1 -2.05 0.25 -4.85 -0.9 -3.05 -1.75 -1.9 -3.1 0.1 -5.1 1.75
L -5.15 1.75
Q -5.25 1.85 -5.4 2 -5.55 2.1 -5.7 2.2 -5.75 2.25 -5.75 2.3 -5.8 2.3 -5.85 2.35 -5.9 2.35 -5.9 2.4 -5.95 2.4 -6 2.45
L -6.05 2.5
Q -7.65 3.65 -9.8 5.05 -9.75 4.85 -9.85 4.85
L -9.9 4.85
Q -9.9 5.25 -9.9 5.7 -9.7 5.6 -9.55 5.55 -8.05 4.75 -5.6 3.3 -5.55 3.25 -5.5 3.25 -5.5 3.2 -5.45 3.2 -5.4 3.15 -5.35 3.15 -5.35 3.1 -5.3 3.1 -5.25 3.1 -5.2 3.05 -5.15 3 -5.1 3 -4.85 3 -4.6 3 5.55 3.6 6.25 2.65 6.15 3.3 5.95 3.8 5.6 4.6 5.15 5.25 4.85 5.65 4.45 6 4.2 6.15 3.95 6.3 3.25 6.65 2.3 6.6
L 2.25 6.6
Q -4.65 5.4 -9.9 5.75
L -9.9 6
Q -9.55 5.9 -5.45 6.35 -0.55 6.85 1.6 7.6 3.8 8.35 4.5 8.2
L 4.6 8.2 4.65 8.15
Q 6.1 7.8 6.9 6.4
L 6.95 6.35
Q 7.3 5.75 7.55 4.95 7.6 4.55 7.65 4.15 7.65 4.1 7.7 4.05 7.85 3.1 7.9 2.1 8 1.25 8.4 0.35 8.5 0.2 8.55 0 8.95 -0.7 9.25 -1.3
L 9.3 -1.3
Q 9.7 -2.15 9.95 -2.85
L 9.95 -2.9
Q 10.3 -3.9 10.3 -4.65
L 10.3 -4.7
Q 10.3 -5.05 10.25 -5.35 10.15 -5.85 9.95 -6.2
L 9.95 -6.25
Q 9.9 -6.35 9.8 -6.5 9.5 -7 9 -7.4 8.9 -7.45 8.8 -7.55
L 8.75 -7.55
Q 8.45 -7.75 8.1 -7.85 7.9 -7.95 7.75 -8 7.1 -8.15 6.5 -8.15
M 8.4 -7.05
Q 8.4 -7.15 8.45 -7.2 8.5 -7.25 8.6 -7.25 8.7 -7.2 8.8 -7.1 8.85 -7 8.85 -6.9 8.9 -6.9 8.85 -6.85
L 8.85 -6.8
Q 8.8 -6.8 8.8 -6.75 8.75 -6.75 8.65 -6.75 8.55 -6.8 8.5 -6.9 8.4 -6.95 8.4 -7.05
M 9.4 -6.4
Q 9.5 -6.4 9.6 -6.35 9.7 -6.25 9.7 -6.1 9.75 -5.95 9.7 -5.85 9.7 -5.8 9.7 -5.75 9.65 -5.7 9.6 -5.7 9.5 -5.65 9.4 -5.75 9.3 -5.85 9.25 -6 9.2 -6.1 9.25 -6.25 9.3 -6.3 9.3 -6.35 9.35 -6.4 9.4 -6.4
M 6.45 -7.6
Q 7.65 -7.6 8.25 -6.7 8.45 -6.35 8.55 -5.95 8.6 -5.9 8.6 -5.8 8.7 -5.35 8.65 -4.9 8.55 -4.45 8.25 -4.1 8.05 -3.85 7.75 -3.6 7.5 -3.45 6.95 -3.25 5.1 -6.55 1.25 -5.65 4 -7.4 6.45 -7.6
M 4.05 -2.15
Q 2.8 -1.85 1.45 -1.6 0.3 -1.4 -0.85 -1.3 -0.7 -1.55 -0.55 -1.8 0.15 -2.85 0.65 -4
L 1.05 -4.9
Q 2.05 -5.05 3.05 -4.95 4.1 -4.9 4.9 -4.3 5.75 -3.75 6.1 -2.8 5.1 -2.4 4.05 -2.15
M 9.85 -4.85
Q 9.9 -4.8 9.85 -4.65 9.85 -4.5 9.8 -4.4 9.7 -4.35 9.65 -4.35
L 9.6 -4.35
Q 9.5 -4.35 9.45 -4.45 9.4 -4.55 9.4 -4.7 9.4 -4.85 9.5 -4.95 9.6 -5.05 9.65 -5.05 9.75 -5.05 9.85 -4.95
L 9.85 -4.85
M 9.45 -3.35
Q 9.45 -3.25 9.4 -3.1 9.35 -2.95 9.25 -2.9 9.15 -2.85 9.05 -2.85 9 -2.85 9 -2.9 8.95 -2.9 8.95 -3
L 8.95 -3.05
Q 8.9 -3.15 8.95 -3.3 9 -3.35 9.05 -3.45 9.1 -3.45 9.15 -3.5
L 9.2 -3.55
Q 9.25 -3.55 9.3 -3.5 9.4 -3.5 9.45 -3.35
M 6.25 -1.8
Q 6.3 -1.85 6.35 -1.85 6.7 -0.8 6.7 0 6.7 0.65 6.5 1.15
L 6.45 1.15
Q 6.25 1.35 5.8 1.5 3.6 2.3 -4.55 2.45 -2.75 1.5 -1.15 -0.7 -1 -0.7 -0.85 -0.7 1.75 -0.6 6.25 -1.8
M 8.75 -1.9
Q 8.75 -1.75 8.7 -1.6 8.65 -1.45 8.5 -1.35 8.35 -1.25 8.25 -1.3 8.2 -1.35 8.15 -1.4 8.15 -1.45 8.1 -1.5 8.1 -1.65 8.15 -1.85 8.25 -2 8.35 -2.1 8.4 -2.1 8.45 -2.1 8.5 -2.15 8.6 -2.1 8.65 -2.1 8.65 -2.05 8.75 -2 8.75 -1.9
M 7.8 -0.35
Q 7.9 -0.3 7.95 -0.2 8 0 8 0.15 7.95 0.35 7.8 0.45 7.7 0.55 7.6 0.55 7.5 0.5 7.4 0.35 7.35 0.2 7.4 0 7.45 -0.15 7.55 -0.25 7.65 -0.35 7.8 -0.35
M 7.15 1.55
L 7.2 1.55
Q 7.25 1.55 7.25 1.6 7.3 1.6 7.35 1.7 7.4 1.85 7.4 2 7.4 2.2 7.3 2.3 7.2 2.45 7.1 2.45 7 2.45 6.9 2.3 6.85 2.15 6.85 2 6.85 1.8 6.95 1.7
L 6.95 1.65
Q 7.05 1.55 7.15 1.55
M 6.65 3.65
Q 6.8 3.55 6.95 3.6 7.1 3.65 7.15 3.8 7.2 3.9 7.15 4 7.15 4.1 7.15 4.2 7.1 4.35 6.9 4.5 6.75 4.6 6.65 4.55 6.5 4.55 6.45 4.35 6.35 4.2 6.45 4 6.5 3.8 6.65 3.65
M 5.55 5.95
Q 5.5 5.8 5.65 5.6 5.75 5.45 5.95 5.35 6.1 5.3 6.25 5.4 6.4 5.45 6.4 5.65 6.4 5.8 6.25 6 6.15 6.15 6 6.25 5.8 6.3 5.65 6.2
L 5.6 6.2
Q 5.55 6.1 5.55 5.95
M 4.55 6.75
Q 4.7 6.8 4.75 6.9 4.85 7 4.8 7.15 4.75 7.3 4.55 7.35 4.45 7.45 4.4 7.45 4.35 7.45 4.25 7.45 4.1 7.45 4 7.3 3.95 7.25 4 7.05 4.1 6.95 4.2 6.85 4.35 6.75 4.55 6.75 Z"/>

<path fill="#FFFFFF" stroke="none" d="
M 4.75 6.9
Q 4.7 6.8 4.55 6.75 4.35 6.75 4.2 6.85 4.1 6.95 4 7.05 3.95 7.25 4 7.3 4.1 7.45 4.25 7.45 4.35 7.45 4.4 7.45 4.45 7.45 4.55 7.35 4.75 7.3 4.8 7.15 4.85 7 4.75 6.9
M 5.65 5.6
Q 5.5 5.8 5.55 5.95 5.55 6.1 5.6 6.2
L 5.65 6.2
Q 5.8 6.3 6 6.25 6.15 6.15 6.25 6 6.4 5.8 6.4 5.65 6.4 5.45 6.25 5.4 6.1 5.3 5.95 5.35 5.75 5.45 5.65 5.6
M 6.95 3.6
Q 6.8 3.55 6.65 3.65 6.5 3.8 6.45 4 6.35 4.2 6.45 4.35 6.5 4.55 6.65 4.55 6.75 4.6 6.9 4.5 7.1 4.35 7.15 4.2 7.15 4.1 7.15 4 7.2 3.9 7.15 3.8 7.1 3.65 6.95 3.6
M 7.2 1.55
L 7.15 1.55
Q 7.05 1.55 6.95 1.65
L 6.95 1.7
Q 6.85 1.8 6.85 2 6.85 2.15 6.9 2.3 7 2.45 7.1 2.45 7.2 2.45 7.3 2.3 7.4 2.2 7.4 2 7.4 1.85 7.35 1.7 7.3 1.6 7.25 1.6 7.25 1.55 7.2 1.55
M 7.95 -0.2
Q 7.9 -0.3 7.8 -0.35 7.65 -0.35 7.55 -0.25 7.45 -0.15 7.4 0 7.35 0.2 7.4 0.35 7.5 0.5 7.6 0.55 7.7 0.55 7.8 0.45 7.95 0.35 8 0.15 8 0 7.95 -0.2
M 8.7 -1.6
Q 8.75 -1.75 8.75 -1.9 8.75 -2 8.65 -2.05 8.65 -2.1 8.6 -2.1 8.5 -2.15 8.45 -2.1 8.4 -2.1 8.35 -2.1 8.25 -2 8.15 -1.85 8.1 -1.65 8.1 -1.5 8.15 -1.45 8.15 -1.4 8.2 -1.35 8.25 -1.3 8.35 -1.25 8.5 -1.35 8.65 -1.45 8.7 -1.6
M 9.4 -3.1
Q 9.45 -3.25 9.45 -3.35 9.4 -3.5 9.3 -3.5 9.25 -3.55 9.2 -3.55
L 9.15 -3.5
Q 9.1 -3.45 9.05 -3.45 9 -3.35 8.95 -3.3 8.9 -3.15 8.95 -3.05
L 8.95 -3
Q 8.95 -2.9 9 -2.9 9 -2.85 9.05 -2.85 9.15 -2.85 9.25 -2.9 9.35 -2.95 9.4 -3.1
M 9.85 -4.65
Q 9.9 -4.8 9.85 -4.85
L 9.85 -4.95
Q 9.75 -5.05 9.65 -5.05 9.6 -5.05 9.5 -4.95 9.4 -4.85 9.4 -4.7 9.4 -4.55 9.45 -4.45 9.5 -4.35 9.6 -4.35
L 9.65 -4.35
Q 9.7 -4.35 9.8 -4.4 9.85 -4.5 9.85 -4.65
M 9.6 -6.35
Q 9.5 -6.4 9.4 -6.4 9.35 -6.4 9.3 -6.35 9.3 -6.3 9.25 -6.25 9.2 -6.1 9.25 -6 9.3 -5.85 9.4 -5.75 9.5 -5.65 9.6 -5.7 9.65 -5.7 9.7 -5.75 9.7 -5.8 9.7 -5.85 9.75 -5.95 9.7 -6.1 9.7 -6.25 9.6 -6.35
M 8.45 -7.2
Q 8.4 -7.15 8.4 -7.05 8.4 -6.95 8.5 -6.9 8.55 -6.8 8.65 -6.75 8.75 -6.75 8.8 -6.75 8.8 -6.8 8.85 -6.8
L 8.85 -6.85
Q 8.9 -6.9 8.85 -6.9 8.85 -7 8.8 -7.1 8.7 -7.2 8.6 -7.25 8.5 -7.25 8.45 -7.2 Z"/>
</g>

<g id="Tween_7_0_Layer0_0_FILL">
<path fill="#FF8C07" stroke="none" d="
M 7.55 -3.95
Q 6.2 -1.6 5.4 -0.35 4.65 0.9 3.95 2.1 3.25 3.3 2 5.2 3.05 5.3 4.4 3.8 4.85 3.2 5.25 2.6 5.35 2.4 5.5 2.25 7.05 -0.05 7.9 -2.1 7.65 -3 7.55 -3.95
M 4.75 -3.15
L 4.7 -3.15
Q 4.5 -3 4.35 -2.85 4.15 -2.75 4 -2.65 3.5 -2.3 3.45 -2.25 3.35 -2.2 3.25 -2.1 2.55 -1.35 1.9 -0.45 1.35 0.35 0.8 1.25 -0.2 2.9 -1.05 4.95
L -1.05 5
Q -1 5 -1 5.05 -0.85 5.15 -0.65 5.2 -0.35 5.3 0 5.3 0.1 5.3 0.15 5.3 0.5 5.35 0.9 5.25 1.35 4.6 1.8 3.95
L 1.8 3.9
Q 2.35 3.05 2.9 2.2 3.2 1.8 3.45 1.4 4 0.55 4.6 -0.35 4.8 -0.75 5.05 -1.05 6.2 -2.85 7.4 -4.75 7.35 -5 7.35 -5.25 5.95 -3.95 4.75 -3.15
M 7.3 -6.25
Q 7.25 -6.25 7.2 -6.25 6.85 -6.15 6.5 -6.1 5.4 -5.85 4.4 -5.6 4.3 -5.6 4.15 -5.55 3.7 -5.45 3.3 -5.35 2.95 -5.2 2.65 -5.15 2.2 -5 1.75 -4.85 1.6 -4.8 1.5 -4.75 1.1 -4.55 1.1 -3.85 1.1 -3.6 0.95 -3.4 0.75 -3.15 0.35 -2.95 0.3 -2.95 0.3 -2.9 0.25 -2.9 0.2 -2.9 -0.45 -2.65 -0.5 -2.4 -0.55 -2.3 -0.55 -2.2 -0.55 -1.8 0.1 -1.8 0.45 -1.8 1 -1.95 1.15 -2 1.35 -2.05 1.55 -2.15 1.8 -2.2 2.05 -2.35 2.35 -2.5 2.65 -2.65 2.95 -2.8 3.35 -3.05 3.85 -3.35 4.1 -3.5 4.35 -3.65 4.5 -3.75 4.6 -3.8 4.6 -3.85 4.65 -3.85 5.85 -4.65 7.3 -5.7 7.3 -6 7.3 -6.25
M 7.3 -6.6
Q 7.3 -6.95 7.3 -7.25
L 7.3 -7.3
Q 5.75 -7.15 4.25 -6.9 4.1 -6.9 3.95 -6.85 3.85 -6.85 3.75 -6.85 3.35 -6.75 2.95 -6.7 2.7 -6.65 2.45 -6.6 2.05 -6.55 1.65 -6.45 0.35 -6.2 -0.95 -5.9
L 1.1 -5.4
Q 1.3 -5.45 1.55 -5.55 2.3 -5.75 3.15 -5.95 3.2 -5.95 3.25 -5.95 3.65 -6.05 4.05 -6.15 4.2 -6.15 4.35 -6.15 5.75 -6.45 7.3 -6.6
M -5.1 -0.45
L -5.1 -0.4
Q -5.45 -0.2 -5.75 0.05
L -5.8 0.05 -5.85 0.1
Q -6 0.2 -6.2 0.35 -5.9 1 -5.45 1.65 -5.3 1.85 -5.15 2
L -5.15 2.05
Q -5.1 2.05 -5.1 2.1
L -5.05 2.05
Q -4.95 2 -4.85 1.95 -4.8 1.95 -4.75 1.9 -4.4 1.7 -4.05 1.5 -3.25 1 -2.5 0.4 -1.6 -0.4 -0.75 -1.3 -0.9 -1.4 -1.1 -1.55 -1.15 -1.6 -1.2 -1.65 -1.3 -1.8 -1.3 -2.1 -2 -1.9 -2.7 -1.65 -3.95 -1.15 -5.1 -0.45
M -6.45 -2.5
Q -6.6 -2.1 -6.6 -1.55 -6.6 -1.5 -6.6 -1.45 -6.6 -1.3 -6.6 -1.2 -6.6 -1 -6.55 -0.8 -6.4 -0.85 -6.25 -0.9 -6.2 -0.95 -6.15 -1
L -6.1 -1
Q -5.8 -1.15 -5.45 -1.25 -5.3 -1.3 -5.15 -1.4 -3.95 -1.85 -2.7 -2.15 -2 -2.35 -1.3 -2.45 -0.95 -3.3 -0.1 -3.65 -1.6 -3.6 -2.85 -3.5 -2.95 -3.5 -3 -3.5 -3.7 -3.4 -4.3 -3.3 -4.9 -3.25 -5.3 -3.15 -6.25 -2.9 -6.45 -2.5
M 1.2 -0.55
L 1.25 -0.55
Q 1.65 -1.1 2.05 -1.65 1.75 -1.45 1.4 -1.35 1.2 -1.3 1.1 -1.25
L 1.05 -1.25
Q 1 -1.2 0.95 -1.2 0.3 -1.05 -0.25 -1.2 -0.75 -0.55 -1.25 0.05 -1.3 0.05 -1.3 0.1 -1.85 0.65 -2.45 1.15 -3.3 1.9 -4.35 2.6 -4.45 2.65 -4.55 2.7 -4.4 2.9 -4.25 3.1 -4 3.4 -3.7 3.65 -3.65 3.7 -3.6 3.75 -3.6 3.8 -3.55 3.8 -3.5 3.85 -3.45 3.9 -3.05 4.2 -2.65 4.4 -2.55 4.45 -2.45 4.5 -2.2 4.6 -1.95 4.65 -1.8 4.3 -1.6 4 -1.1 3.05 -0.5 2.1 -0.5 2 -0.45 1.95 -0.1 1.4 0.25 0.85 0.7 0.15 1.2 -0.55
M 0.4 -4.2
L 0.65 -4.95
Q 0.3 -5.15 -0.1 -5.25 -1.15 -5.5 -2.75 -5.35 -2.95 -5.25 -3.2 -5.2 -4.85 -4.75 -5.95 -3.7 -5.65 -3.75 -5.3 -3.8 -4.15 -4.05 -2.95 -4.1 -2.45 -4.2 -1.85 -4.2 -0.75 -4.25 0.4 -4.2 Z"/>

<path fill="#000000" stroke="none" d="
M 7.3 -7.3
Q 7.3 -7.4 7.3 -7.45 5.75 -7.4 4.2 -7.2 4.05 -7.2 3.9 -7.15 3.35 -7.1 2.85 -7 2.25 -6.95 1.7 -6.85 -0.8 -6.45 -3.3 -5.75 -4.35 -5.5 -5.35 -5.2 -5.45 -5.15 -5.5 -5.1 -5.95 -4.95 -6.3 -4.7 -6.35 -4.7 -6.35 -4.65 -6.9 -4.3 -7.3 -3.8 -7.45 -3.55 -7.55 -3.3 -7.6 -3.25 -7.65 -3.15 -7.8 -2.85 -7.85 -2.45
L -7.85 -2.4
Q -7.9 -2.15 -7.95 -1.9 -7.95 -1.65 -7.95 -1.4 -7.95 -1.3 -7.95 -1.15 -7.9 -0.95 -7.9 -0.8 -7.85 -0.6 -7.85 -0.4 -7.65 0.55 -7.3 1.45 -7.15 1.9 -6.95 2.25 -6.85 2.45 -6.75 2.6 -6.45 3.1 -6.1 3.6 -5.9 3.95 -5.6 4.25 -5.4 4.5 -5.15 4.75 -5.05 4.85 -4.9 5
L -4.85 5.05
Q -4.75 5.2 -4.6 5.3 -4.55 5.35 -4.45 5.4 -4.4 5.45 -4.35 5.55 -4.25 5.65 -4.1 5.8 -3.95 5.9 -3.8 6.05 -3.55 6.25 -3.25 6.45 -3.2 6.5 -3.15 6.6 -2.95 6.7 -2.8 6.8 -2.7 6.9 -2.55 7 -2.2 7.15 -1.85 7.3 -1.15 7.5 -0.5 7.5 -0.25 7.5 0.05 7.45 0.2 7.45 0.35 7.4 0.5 7.35 0.65 7.3 2.1 6.85 3.5 5.3 3.85 4.9 4.2 4.5 4.6 4.05 4.95 3.65 5.15 3.35 5.35 3.1 5.45 2.9 5.6 2.75 7.1 0.6 8 -1.75 7.95 -1.95 7.9 -2.1 7.05 -0.05 5.5 2.25 5.35 2.4 5.25 2.6 4.85 3.2 4.4 3.8 3.05 5.3 2 5.2 3.25 3.3 3.95 2.1 4.65 0.9 5.4 -0.35 6.2 -1.6 7.55 -3.95 7.45 -4.35 7.4 -4.75 6.2 -2.85 5.05 -1.05 4.8 -0.75 4.6 -0.35 4 0.55 3.45 1.4 3.2 1.8 2.9 2.2 2.35 3.05 1.8 3.9
L 1.8 3.95
Q 1.35 4.6 0.9 5.25 0.5 5.35 0.15 5.3 0.1 5.3 0 5.3 -0.35 5.3 -0.65 5.2 -0.85 5.15 -1 5.05 -1 5 -1.05 5
L -1.05 4.95
Q -0.2 2.9 0.8 1.25 1.35 0.35 1.9 -0.45 2.55 -1.35 3.25 -2.1 3.35 -2.2 3.45 -2.25 3.5 -2.3 4 -2.65 4.15 -2.75 4.35 -2.85 4.5 -3 4.7 -3.15
L 4.75 -3.15
Q 5.95 -3.95 7.35 -5.25 7.35 -5.4 7.35 -5.6 7.35 -5.65 7.3 -5.7 5.85 -4.65 4.65 -3.85 4.6 -3.85 4.6 -3.8 4.5 -3.75 4.35 -3.65 4.1 -3.5 3.85 -3.35 3.35 -3.05 2.95 -2.8 2.65 -2.65 2.35 -2.5 2.05 -2.35 1.8 -2.2 1.55 -2.15 1.35 -2.05 1.15 -2 1 -1.95 0.45 -1.8 0.1 -1.8 -0.55 -1.8 -0.55 -2.2 -0.55 -2.3 -0.5 -2.4 -0.45 -2.65 0.2 -2.9 0.25 -2.9 0.3 -2.9 0.3 -2.95 0.35 -2.95 0.75 -3.15 0.95 -3.4 1.1 -3.6 1.1 -3.85 1.1 -4.55 1.5 -4.75 1.6 -4.8 1.75 -4.85 2.2 -5 2.65 -5.15 2.95 -5.2 3.3 -5.35 3.7 -5.45 4.15 -5.55 4.3 -5.6 4.4 -5.6 5.4 -5.85 6.5 -6.1 6.85 -6.15 7.2 -6.25 7.25 -6.25 7.3 -6.25
L 7.3 -6.3
Q 7.3 -6.45 7.3 -6.6 5.75 -6.45 4.35 -6.15 4.2 -6.15 4.05 -6.15 3.65 -6.05 3.25 -5.95 3.2 -5.95 3.15 -5.95 2.3 -5.75 1.55 -5.55 1.3 -5.45 1.1 -5.4
L -0.95 -5.9
Q 0.35 -6.2 1.65 -6.45 2.05 -6.55 2.45 -6.6 2.7 -6.65 2.95 -6.7 3.35 -6.75 3.75 -6.85 3.85 -6.85 3.95 -6.85 4.1 -6.9 4.25 -6.9 5.75 -7.15 7.3 -7.3
M 0.65 -4.95
L 0.4 -4.2
Q -0.75 -4.25 -1.85 -4.2 -2.45 -4.2 -2.95 -4.1 -4.15 -4.05 -5.3 -3.8 -5.65 -3.75 -5.95 -3.7 -4.85 -4.75 -3.2 -5.2 -2.95 -5.25 -2.75 -5.35 -1.15 -5.5 -0.1 -5.25 0.3 -5.15 0.65 -4.95
M 1.25 -0.55
L 1.2 -0.55
Q 0.7 0.15 0.25 0.85 -0.1 1.4 -0.45 1.95 -0.5 2 -0.5 2.1 -1.1 3.05 -1.6 4 -1.8 4.3 -1.95 4.65 -2.2 4.6 -2.45 4.5 -2.55 4.45 -2.65 4.4 -3.05 4.2 -3.45 3.9 -3.5 3.85 -3.55 3.8 -3.6 3.8 -3.6 3.75 -3.65 3.7 -3.7 3.65 -4 3.4 -4.25 3.1 -4.4 2.9 -4.55 2.7 -4.45 2.65 -4.35 2.6 -3.3 1.9 -2.45 1.15 -1.85 0.65 -1.3 0.1 -1.3 0.05 -1.25 0.05 -0.75 -0.55 -0.25 -1.2 0.3 -1.05 0.95 -1.2 1 -1.2 1.05 -1.25
L 1.1 -1.25
Q 1.2 -1.3 1.4 -1.35 1.75 -1.45 2.05 -1.65 1.65 -1.1 1.25 -0.55
M 0.95 5.95
Q 1.15 5.9 1.35 5.9 1.35 5.95 1.4 5.95 1.5 6 1.55 6.05 1.6 6.15 1.5 6.3
L 1.5 6.35
Q 1.4 6.45 1.2 6.55 1.15 6.55 1.05 6.6 0.95 6.6 0.9 6.6 0.75 6.55 0.7 6.5 0.65 6.5 0.65 6.45 0.6 6.35 0.7 6.2 0.8 6.05 0.95 5.95
M -7.1 -3.25
Q -7 -3.3 -6.9 -3.3 -6.85 -3.3 -6.8 -3.15 -6.75 -3.05 -6.8 -2.9 -6.85 -2.75 -6.95 -2.65 -7.05 -2.6 -7.1 -2.6 -7.15 -2.6 -7.2 -2.65 -7.25 -2.7 -7.25 -2.75 -7.3 -2.85 -7.25 -3 -7.2 -3.15 -7.1 -3.25
M -7.35 -1.8
Q -7.25 -1.85 -7.15 -1.75 -7.1 -1.65 -7.1 -1.5 -7.1 -1.35 -7.15 -1.25 -7.2 -1.1 -7.3 -1.1 -7.4 -1.1 -7.5 -1.2 -7.55 -1.3 -7.55 -1.45 -7.55 -1.55 -7.55 -1.65 -7.55 -1.7 -7.5 -1.7 -7.45 -1.8 -7.35 -1.8
M -6.6 -1.55
Q -6.6 -2.1 -6.45 -2.5 -6.25 -2.9 -5.3 -3.15 -4.9 -3.25 -4.3 -3.3 -3.7 -3.4 -3 -3.5 -2.95 -3.5 -2.85 -3.5 -1.6 -3.6 -0.1 -3.65 -0.95 -3.3 -1.3 -2.45 -2 -2.35 -2.7 -2.15 -3.95 -1.85 -5.15 -1.4 -5.3 -1.3 -5.45 -1.25 -5.8 -1.15 -6.1 -1
L -6.15 -1
Q -6.2 -0.95 -6.25 -0.9 -6.4 -0.85 -6.55 -0.8 -6.6 -1 -6.6 -1.2 -6.6 -1.3 -6.6 -1.45 -6.6 -1.5 -6.6 -1.55
M -7.05 -0.1
Q -7 -0.1 -6.95 -0.1 -6.9 -0.1 -6.85 -0.05 -6.75 0.05 -6.7 0.15 -6.65 0.3 -6.65 0.4
L -6.65 0.45
Q -6.7 0.5 -6.75 0.55
L -6.75 0.6
Q -6.85 0.6 -7 0.55 -7.1 0.5 -7.15 0.35 -7.2 0.2 -7.2 0.1 -7.15 -0.05 -7.05 -0.1
M -5.1 -0.4
L -5.1 -0.45
Q -3.95 -1.15 -2.7 -1.65 -2 -1.9 -1.3 -2.1 -1.3 -1.8 -1.2 -1.65 -1.15 -1.6 -1.1 -1.55 -0.9 -1.4 -0.75 -1.3 -1.6 -0.4 -2.5 0.4 -3.25 1 -4.05 1.5 -4.4 1.7 -4.75 1.9 -4.8 1.95 -4.85 1.95 -4.95 2 -5.05 2.05
L -5.1 2.1
Q -5.1 2.05 -5.15 2.05
L -5.15 2
Q -5.3 1.85 -5.45 1.65 -5.9 1 -6.2 0.35 -6 0.2 -5.85 0.1
L -5.8 0.05 -5.75 0.05
Q -5.45 -0.2 -5.1 -0.4
M -4.5 4.35
Q -4.55 4.25 -4.45 4.2 -4.4 4.1 -4.3 4.15
L -4.2 4.15
Q -4.1 4.2 -4.05 4.3
L -4 4.3
Q -3.95 4.4 -3.9 4.5 -3.9 4.65 -3.95 4.7 -4.05 4.8 -4.2 4.75 -4.3 4.7 -4.4 4.6 -4.45 4.55 -4.45 4.5 -4.5 4.45 -4.5 4.4
L -4.5 4.35
M -2.85 5.15
Q -2.75 5.2 -2.65 5.25 -2.5 5.35 -2.45 5.5 -2.35 5.65 -2.45 5.75
L -2.45 5.8
Q -2.5 5.85 -2.65 5.85
L -2.7 5.85
Q -2.8 5.85 -2.95 5.8
L -2.95 5.75
Q -3.05 5.7 -3.15 5.6 -3.15 5.55 -3.2 5.55 -3.25 5.4 -3.15 5.25 -3.15 5.2 -3.05 5.2 -3 5.15 -2.95 5.15 -2.9 5.15 -2.85 5.15
M -1.2 6.1
Q -1.05 6 -0.85 6.05 -0.75 6.05 -0.65 6.1
L -0.65 6.15
Q -0.6 6.15 -0.55 6.2 -0.45 6.3 -0.45 6.4
L -0.45 6.45
Q -0.5 6.55 -0.65 6.65 -0.75 6.7 -0.95 6.65 -1.05 6.65 -1.15 6.6 -1.2 6.6 -1.3 6.55 -1.3 6.5 -1.35 6.45
L -1.35 6.4
Q -1.4 6.35 -1.4 6.3 -1.4 6.25 -1.35 6.15 -1.3 6.1 -1.2 6.1
M -6.3 1.4
L -6.25 1.45
Q -6.1 1.5 -6.05 1.65 -6 1.8 -6 1.9 -6.05 1.95 -6.05 2 -6.05 2.05 -6.15 2.1 -6.2 2.1 -6.35 2.05 -6.45 1.95 -6.5 1.85 -6.55 1.7 -6.55 1.55 -6.5 1.5 -6.45 1.45
L -6.4 1.4
Q -6.35 1.4 -6.3 1.4
M -5.6 2.95
Q -5.55 2.85 -5.5 2.8 -5.4 2.75 -5.3 2.85 -5.15 2.9 -5.1 3.05 -5.05 3.15 -5.1 3.3 -5.1 3.4 -5.2 3.45 -5.3 3.5 -5.4 3.4 -5.5 3.35 -5.55 3.25 -5.6 3.1 -5.6 2.95 Z"/>

<path fill="#FFFFFF" stroke="none" d="
M -5.5 2.8
Q -5.55 2.85 -5.6 2.95 -5.6 3.1 -5.55 3.25 -5.5 3.35 -5.4 3.4 -5.3 3.5 -5.2 3.45 -5.1 3.4 -5.1 3.3 -5.05 3.15 -5.1 3.05 -5.15 2.9 -5.3 2.85 -5.4 2.75 -5.5 2.8
M -6.25 1.45
L -6.3 1.4
Q -6.35 1.4 -6.4 1.4
L -6.45 1.45
Q -6.5 1.5 -6.55 1.55 -6.55 1.7 -6.5 1.85 -6.45 1.95 -6.35 2.05 -6.2 2.1 -6.15 2.1 -6.05 2.05 -6.05 2 -6.05 1.95 -6 1.9 -6 1.8 -6.05 1.65 -6.1 1.5 -6.25 1.45
M -0.85 6.05
Q -1.05 6 -1.2 6.1 -1.3 6.1 -1.35 6.15 -1.4 6.25 -1.4 6.3 -1.4 6.35 -1.35 6.4
L -1.35 6.45
Q -1.3 6.5 -1.3 6.55 -1.2 6.6 -1.15 6.6 -1.05 6.65 -0.95 6.65 -0.75 6.7 -0.65 6.65 -0.5 6.55 -0.45 6.45
L -0.45 6.4
Q -0.45 6.3 -0.55 6.2 -0.6 6.15 -0.65 6.15
L -0.65 6.1
Q -0.75 6.05 -0.85 6.05
M -2.65 5.25
Q -2.75 5.2 -2.85 5.15 -2.9 5.15 -2.95 5.15 -3 5.15 -3.05 5.2 -3.15 5.2 -3.15 5.25 -3.25 5.4 -3.2 5.55 -3.15 5.55 -3.15 5.6 -3.05 5.7 -2.95 5.75
L -2.95 5.8
Q -2.8 5.85 -2.7 5.85
L -2.65 5.85
Q -2.5 5.85 -2.45 5.8
L -2.45 5.75
Q -2.35 5.65 -2.45 5.5 -2.5 5.35 -2.65 5.25
M -4.45 4.2
Q -4.55 4.25 -4.5 4.35
L -4.5 4.4
Q -4.5 4.45 -4.45 4.5 -4.45 4.55 -4.4 4.6 -4.3 4.7 -4.2 4.75 -4.05 4.8 -3.95 4.7 -3.9 4.65 -3.9 4.5 -3.95 4.4 -4 4.3
L -4.05 4.3
Q -4.1 4.2 -4.2 4.15
L -4.3 4.15
Q -4.4 4.1 -4.45 4.2
M -6.95 -0.1
Q -7 -0.1 -7.05 -0.1 -7.15 -0.05 -7.2 0.1 -7.2 0.2 -7.15 0.35 -7.1 0.5 -7 0.55 -6.85 0.6 -6.75 0.6
L -6.75 0.55
Q -6.7 0.5 -6.65 0.45
L -6.65 0.4
Q -6.65 0.3 -6.7 0.15 -6.75 0.05 -6.85 -0.05 -6.9 -0.1 -6.95 -0.1
M -7.15 -1.75
Q -7.25 -1.85 -7.35 -1.8 -7.45 -1.8 -7.5 -1.7 -7.55 -1.7 -7.55 -1.65 -7.55 -1.55 -7.55 -1.45 -7.55 -1.3 -7.5 -1.2 -7.4 -1.1 -7.3 -1.1 -7.2 -1.1 -7.15 -1.25 -7.1 -1.35 -7.1 -1.5 -7.1 -1.65 -7.15 -1.75
M -6.9 -3.3
Q -7 -3.3 -7.1 -3.25 -7.2 -3.15 -7.25 -3 -7.3 -2.85 -7.25 -2.75 -7.25 -2.7 -7.2 -2.65 -7.15 -2.6 -7.1 -2.6 -7.05 -2.6 -6.95 -2.65 -6.85 -2.75 -6.8 -2.9 -6.75 -3.05 -6.8 -3.15 -6.85 -3.3 -6.9 -3.3
M 1.35 5.9
Q 1.15 5.9 0.95 5.95 0.8 6.05 0.7 6.2 0.6 6.35 0.65 6.45 0.65 6.5 0.7 6.5 0.75 6.55 0.9 6.6 0.95 6.6 1.05 6.6 1.15 6.55 1.2 6.55 1.4 6.45 1.5 6.35
L 1.5 6.3
Q 1.6 6.15 1.55 6.05 1.5 6 1.4 5.95 1.35 5.95 1.35 5.9 Z"/>
</g>

<g id="Tween_5_0_Layer0_0_FILL">
<path fill="#FE5800" stroke="none" d="
M 5.3 3.05
Q 5.25 3 5.2 3 4.95 3 4.7 3
L 4.65 3
Q -5.45 3.6 -6.15 2.65 -6.05 3.3 -5.85 3.8 -5.55 4.6 -5.05 5.25 -4.75 5.65 -4.35 6 -4.1 6.15 -3.85 6.3 -3.15 6.65 -2.25 6.6
L -2.2 6.6
Q 4.75 5.4 9.95 5.75 9.95 5.7 10 5.75
L 10 5.7 9.95 5.7
Q 9.8 5.6 9.65 5.55 8.15 4.75 5.65 3.3 5.65 3.25 5.6 3.25
L 5.55 3.2
Q 5.5 3.15 5.45 3.15
L 5.4 3.1
Q 5.35 3.1 5.3 3.05
M 10.2 3.45
L 10.2 3.4
Q 10.4 3.55 10.25 3.3 9.85 2.8 8 0.9 5.2 -2.05 -0.15 -4.85 1 -3.05 1.8 -1.9 3.2 0.1 5.2 1.75 5.35 1.85 5.5 2 5.65 2.1 5.8 2.2 5.8 2.25 5.85 2.3 5.9 2.3 5.95 2.35 6 2.35 6 2.4 6.05 2.4 6.05 2.45 6.1 2.45 6.15 2.5 7.7 3.65 9.9 5.05 9.85 4.85 9.9 4.85
L 10.1 3.85
Q 10.15 3.65 10.2 3.45
M -6.35 -7.6
Q -7.55 -7.6 -8.15 -6.7 -8.35 -6.35 -8.45 -5.95 -8.5 -5.9 -8.5 -5.8 -8.65 -5.35 -8.55 -4.9 -8.5 -4.45 -8.2 -4.1 -8 -3.85 -7.7 -3.6 -7.45 -3.45 -6.85 -3.25 -5.05 -6.55 -1.15 -5.65 -3.95 -7.4 -6.35 -7.6
M 0.9 -1.3
Q 0.75 -1.55 0.6 -1.8 -0.1 -2.85 -0.55 -4
L -1 -4.9
Q -2 -5.05 -3 -4.95 -4 -4.9 -4.85 -4.3 -5.65 -3.75 -6.05 -2.8 -5 -2.4 -3.95 -2.15 -2.7 -1.85 -1.4 -1.6 -0.25 -1.4 0.9 -1.3
M 0.95 -0.7
L 0.9 -0.7
Q -1.7 -0.6 -6.15 -1.8 -6.2 -1.85 -6.25 -1.85 -6.6 -0.8 -6.6 0 -6.6 0.65 -6.4 1.15 -6.15 1.35 -5.75 1.5 -3.5 2.3 4.65 2.45 2.8 1.5 1.2 -0.7 1.05 -0.7 0.95 -0.7 Z"/>

<path fill="#000000" stroke="none" d="
M 10.25 3.3
Q 10.25 3.25 10.25 3.2 10.4 2.5 9.55 1.4 9.25 0.95 8.75 0.55 6.2 -2.25 2.55 -4.45 -1.15 -6.7 -2.55 -7.25 -3.95 -7.85 -4.85 -8 -5.8 -8.2 -6.35 -8.15 -6.4 -8.2 -6.4 -8.15 -7.05 -8.15 -7.65 -8 -7.85 -7.95 -8 -7.85 -8.4 -7.75 -8.65 -7.55
L -8.7 -7.55
Q -8.8 -7.45 -8.9 -7.4 -9.4 -7 -9.75 -6.5 -9.8 -6.35 -9.85 -6.25
L -9.9 -6.25 -9.9 -6.2
Q -10.05 -5.85 -10.15 -5.35 -10.25 -5.05 -10.25 -4.7
L -10.25 -4.65
Q -10.2 -3.9 -9.9 -2.9
L -9.9 -2.85
Q -9.6 -2.15 -9.2 -1.3 -8.9 -0.7 -8.5 0 -8.4 0.2 -8.3 0.35 -7.95 1.25 -7.8 2.1 -7.75 3.1 -7.6 4.05 -7.6 4.1 -7.6 4.15 -7.55 4.55 -7.45 4.95 -7.2 5.75 -6.85 6.35
L -6.8 6.4
Q -6 7.8 -4.55 8.15 -4.55 8.2 -4.5 8.2
L -4.45 8.2
Q -3.7 8.35 -1.55 7.6 0.65 6.85 5.55 6.35 9.6 5.9 10 6
L 10 5.75
Q 9.95 5.7 9.95 5.75 4.75 5.4 -2.2 6.6
L -2.25 6.6
Q -3.15 6.65 -3.85 6.3 -4.1 6.15 -4.35 6 -4.75 5.65 -5.05 5.25 -5.55 4.6 -5.85 3.8 -6.05 3.3 -6.15 2.65 -5.45 3.6 4.65 3
L 4.7 3
Q 4.95 3 5.2 3 5.25 3 5.3 3.05 5.35 3.1 5.4 3.1
L 5.45 3.15
Q 5.5 3.15 5.55 3.2
L 5.6 3.25
Q 5.65 3.25 5.65 3.3 8.15 4.75 9.65 5.55 9.8 5.6 9.95 5.7
L 10 5.7
Q 9.95 5.25 10 4.85 9.95 4.85 9.9 4.85 9.85 4.85 9.9 5.05 7.7 3.65 6.15 2.5 6.1 2.45 6.05 2.45 6.05 2.4 6 2.4 6 2.35 5.95 2.35 5.9 2.3 5.85 2.3 5.8 2.25 5.8 2.2 5.65 2.1 5.5 2 5.35 1.85 5.2 1.75 3.2 0.1 1.8 -1.9 1 -3.05 -0.15 -4.85 5.2 -2.05 8 0.9 9.85 2.8 10.25 3.3
M 0.9 -0.7
L 0.95 -0.7
Q 1.05 -0.7 1.2 -0.7 2.8 1.5 4.65 2.45 -3.5 2.3 -5.75 1.5 -6.15 1.35 -6.4 1.15 -6.6 0.65 -6.6 0 -6.6 -0.8 -6.25 -1.85 -6.2 -1.85 -6.15 -1.8 -1.7 -0.6 0.9 -0.7
M 0.6 -1.8
Q 0.75 -1.55 0.9 -1.3 -0.25 -1.4 -1.4 -1.6 -2.7 -1.85 -3.95 -2.15 -5 -2.4 -6.05 -2.8 -5.65 -3.75 -4.85 -4.3 -4 -4.9 -3 -4.95 -2 -5.05 -1 -4.9
L -0.55 -4
Q -0.1 -2.85 0.6 -1.8
M -9.25 -6.35
Q -9.2 -6.3 -9.15 -6.25 -9.15 -6.1 -9.15 -6 -9.2 -5.85 -9.3 -5.75 -9.45 -5.65 -9.5 -5.7 -9.55 -5.7 -9.6 -5.75 -9.6 -5.8 -9.65 -5.85 -9.7 -5.95 -9.65 -6.1 -9.6 -6.25 -9.5 -6.35 -9.4 -6.4 -9.3 -6.4 -9.25 -6.4 -9.25 -6.35
M -8.7 -7.1
Q -8.6 -7.2 -8.55 -7.25 -8.45 -7.25 -8.35 -7.2 -8.3 -7.15 -8.3 -7.05 -8.35 -6.95 -8.4 -6.9 -8.45 -6.8 -8.6 -6.75 -8.65 -6.75 -8.7 -6.75
L -8.8 -6.85 -8.8 -6.9
Q -8.8 -7 -8.7 -7.1
M -8.15 -6.7
Q -7.55 -7.6 -6.35 -7.6 -3.95 -7.4 -1.15 -5.65 -5.05 -6.55 -6.85 -3.25 -7.45 -3.45 -7.7 -3.6 -8 -3.85 -8.2 -4.1 -8.5 -4.45 -8.55 -4.9 -8.65 -5.35 -8.5 -5.8 -8.5 -5.9 -8.45 -5.95 -8.35 -6.35 -8.15 -6.7
M -9.8 -4.65
Q -9.8 -4.8 -9.75 -4.85
L -9.75 -4.95
Q -9.7 -5.05 -9.55 -5.05 -9.5 -5.05 -9.4 -4.95 -9.35 -4.85 -9.3 -4.7 -9.3 -4.55 -9.35 -4.45 -9.45 -4.35 -9.5 -4.35
L -9.55 -4.35
Q -9.6 -4.35 -9.7 -4.4 -9.75 -4.5 -9.8 -4.65
M -9.3 -3.1
Q -9.35 -3.25 -9.35 -3.35 -9.3 -3.5 -9.25 -3.5 -9.15 -3.55 -9.1 -3.55 -9.1 -3.5 -9.05 -3.5
L -9 -3.45
Q -8.9 -3.35 -8.85 -3.3 -8.8 -3.15 -8.85 -3.05
L -8.85 -3
Q -8.85 -2.9 -8.9 -2.9 -8.9 -2.85 -8.95 -2.85 -9.05 -2.85 -9.15 -2.9 -9.25 -2.95 -9.3 -3.1
M -8.3 -2.1
Q -8.15 -2 -8.1 -1.85 -8 -1.65 -8.05 -1.5 -8.05 -1.45 -8.1 -1.4 -8.1 -1.35 -8.15 -1.3 -8.3 -1.25 -8.4 -1.35 -8.55 -1.45 -8.6 -1.6 -8.65 -1.75 -8.65 -1.9 -8.65 -2 -8.6 -2.05 -8.55 -2.1 -8.5 -2.1 -8.45 -2.15 -8.35 -2.1
L -8.3 -2.1
M -7.9 -0.2
Q -7.85 -0.3 -7.7 -0.35 -7.6 -0.35 -7.5 -0.25 -7.35 -0.15 -7.3 0 -7.3 0.2 -7.35 0.35 -7.4 0.5 -7.5 0.55 -7.65 0.55 -7.75 0.45 -7.85 0.35 -7.9 0.15 -7.95 0 -7.9 -0.2
M -6.75 2
Q -6.75 2.15 -6.8 2.3 -6.9 2.45 -7 2.45 -7.15 2.45 -7.25 2.3 -7.3 2.2 -7.3 2 -7.35 1.85 -7.25 1.7 -7.25 1.6 -7.2 1.6
L -7.15 1.55
Q -7.1 1.55 -7.05 1.55 -6.95 1.55 -6.85 1.65
L -6.85 1.7
Q -6.75 1.8 -6.75 2
M -6.35 4.35
Q -6.4 4.55 -6.55 4.55 -6.7 4.6 -6.85 4.5 -7 4.35 -7.05 4.2 -7.1 4.1 -7.1 4 -7.1 3.9 -7.05 3.8 -7 3.65 -6.85 3.6 -6.75 3.55 -6.55 3.65 -6.4 3.8 -6.35 4 -6.3 4.2 -6.35 4.35
M -5.55 5.6
Q -5.45 5.8 -5.45 5.95 -5.45 6.1 -5.55 6.2
L -5.6 6.2
Q -5.7 6.3 -5.9 6.25 -6.1 6.15 -6.15 6 -6.3 5.8 -6.3 5.65 -6.3 5.45 -6.15 5.4 -6.05 5.3 -5.85 5.35 -5.65 5.45 -5.55 5.6
M -4.7 6.9
Q -4.65 6.8 -4.45 6.75 -4.3 6.75 -4.15 6.85 -4 6.95 -3.95 7.05 -3.85 7.25 -3.95 7.3 -4 7.45 -4.15 7.45 -4.25 7.45 -4.3 7.45 -4.4 7.45 -4.45 7.35 -4.65 7.3 -4.7 7.15 -4.75 7 -4.7 6.9 Z"/>

<path fill="#FFFFFF" stroke="none" d="
M -4.45 6.75
Q -4.65 6.8 -4.7 6.9 -4.75 7 -4.7 7.15 -4.65 7.3 -4.45 7.35 -4.4 7.45 -4.3 7.45 -4.25 7.45 -4.15 7.45 -4 7.45 -3.95 7.3 -3.85 7.25 -3.95 7.05 -4 6.95 -4.15 6.85 -4.3 6.75 -4.45 6.75
M -5.45 5.95
Q -5.45 5.8 -5.55 5.6 -5.65 5.45 -5.85 5.35 -6.05 5.3 -6.15 5.4 -6.3 5.45 -6.3 5.65 -6.3 5.8 -6.15 6 -6.1 6.15 -5.9 6.25 -5.7 6.3 -5.6 6.2
L -5.55 6.2
Q -5.45 6.1 -5.45 5.95
M -6.55 4.55
Q -6.4 4.55 -6.35 4.35 -6.3 4.2 -6.35 4 -6.4 3.8 -6.55 3.65 -6.75 3.55 -6.85 3.6 -7 3.65 -7.05 3.8 -7.1 3.9 -7.1 4 -7.1 4.1 -7.05 4.2 -7 4.35 -6.85 4.5 -6.7 4.6 -6.55 4.55
M -6.8 2.3
Q -6.75 2.15 -6.75 2 -6.75 1.8 -6.85 1.7
L -6.85 1.65
Q -6.95 1.55 -7.05 1.55 -7.1 1.55 -7.15 1.55
L -7.2 1.6
Q -7.25 1.6 -7.25 1.7 -7.35 1.85 -7.3 2 -7.3 2.2 -7.25 2.3 -7.15 2.45 -7 2.45 -6.9 2.45 -6.8 2.3
M -7.7 -0.35
Q -7.85 -0.3 -7.9 -0.2 -7.95 0 -7.9 0.15 -7.85 0.35 -7.75 0.45 -7.65 0.55 -7.5 0.55 -7.4 0.5 -7.35 0.35 -7.3 0.2 -7.3 0 -7.35 -0.15 -7.5 -0.25 -7.6 -0.35 -7.7 -0.35
M -8.1 -1.85
Q -8.15 -2 -8.3 -2.1
L -8.35 -2.1
Q -8.45 -2.15 -8.5 -2.1 -8.55 -2.1 -8.6 -2.05 -8.65 -2 -8.65 -1.9 -8.65 -1.75 -8.6 -1.6 -8.55 -1.45 -8.4 -1.35 -8.3 -1.25 -8.15 -1.3 -8.1 -1.35 -8.1 -1.4 -8.05 -1.45 -8.05 -1.5 -8 -1.65 -8.1 -1.85
M -9.35 -3.35
Q -9.35 -3.25 -9.3 -3.1 -9.25 -2.95 -9.15 -2.9 -9.05 -2.85 -8.95 -2.85 -8.9 -2.85 -8.9 -2.9 -8.85 -2.9 -8.85 -3
L -8.85 -3.05
Q -8.8 -3.15 -8.85 -3.3 -8.9 -3.35 -9 -3.45
L -9.05 -3.5
Q -9.1 -3.5 -9.1 -3.55 -9.15 -3.55 -9.25 -3.5 -9.3 -3.5 -9.35 -3.35
M -9.75 -4.85
Q -9.8 -4.8 -9.8 -4.65 -9.75 -4.5 -9.7 -4.4 -9.6 -4.35 -9.55 -4.35
L -9.5 -4.35
Q -9.45 -4.35 -9.35 -4.45 -9.3 -4.55 -9.3 -4.7 -9.35 -4.85 -9.4 -4.95 -9.5 -5.05 -9.55 -5.05 -9.7 -5.05 -9.75 -4.95
L -9.75 -4.85
M -8.55 -7.25
Q -8.6 -7.2 -8.7 -7.1 -8.8 -7 -8.8 -6.9
L -8.8 -6.85 -8.7 -6.75
Q -8.65 -6.75 -8.6 -6.75 -8.45 -6.8 -8.4 -6.9 -8.35 -6.95 -8.3 -7.05 -8.3 -7.15 -8.35 -7.2 -8.45 -7.25 -8.55 -7.25
M -9.15 -6.25
Q -9.2 -6.3 -9.25 -6.35 -9.25 -6.4 -9.3 -6.4 -9.4 -6.4 -9.5 -6.35 -9.6 -6.25 -9.65 -6.1 -9.7 -5.95 -9.65 -5.85 -9.6 -5.8 -9.6 -5.75 -9.55 -5.7 -9.5 -5.7 -9.45 -5.65 -9.3 -5.75 -9.2 -5.85 -9.15 -6 -9.15 -6.1 -9.15 -6.25 Z"/>
</g>

<g id="Tween_3_0_Layer0_0_FILL">
<path fill="#000000" stroke="none" d="
M -4.35 -10.9
Q -4.3 -11.1 -4.45 -11.2 -4.55 -11.35 -4.8 -11.3
L -4.8 -11.35
Q -4.9 -11.45 -5.05 -11.45 -5.2 -11.45 -5.25 -11.4
L -5.25 -11.15
Q -5.15 -11.05 -5 -11.05 -4.85 -11.05 -4.8 -11.1
L -4.8 -11.15
Q -4.6 -11.2 -4.55 -11.1 -4.45 -11.05 -4.45 -10.9 -4.45 -10.55 -4.75 -10.5 -5.1 -10.5 -5.25 -10.7 -5.4 -10.95 -5.4 -11.2 -5.4 -11.5 -5.2 -11.65 -5 -11.85 -4.65 -11.8 -4.35 -11.75 -3.5 -10.95 -2.65 -10.1 -2 -9.15 -1.3 -8.25 -0.95 -7.65 -0.6 -7.05 -0.45 -6.6 -0.45 -6.5 -0.4 -6.4 -0.3 -6.45 -0.25 -6.45 -0.3 -6.55 -0.3 -6.65 -0.5 -7.1 -0.85 -7.7 -1.2 -8.35 -1.85 -9.25 -2.55 -10.2 -3.4 -11 -4.3 -11.9 -4.65 -11.95 -5.05 -12 -5.3 -11.8 -5.55 -11.55 -5.55 -11.2 -5.55 -10.9 -5.35 -10.65 -5.15 -10.3 -4.75 -10.35 -4.35 -10.4 -4.35 -10.9
M 5.55 -11.2
Q 5.55 -11.55 5.3 -11.8 5.1 -12 4.65 -11.95 4.3 -11.9 3.4 -11 2.55 -10.2 1.9 -9.25 1.2 -8.35 0.85 -7.7 0.5 -7.1 0.35 -6.65 0.3 -6.55 0.3 -6.45 0.35 -6.4 0.4 -6.4 0.45 -6.5 0.5 -6.6 0.65 -7.05 1 -7.65
L 0.95 -7.65
Q 1.3 -8.25 2 -9.15 2.7 -10.1 3.5 -10.95 4.35 -11.75 4.7 -11.8 5.05 -11.85 5.25 -11.65 5.45 -11.5 5.45 -11.2 5.45 -10.95 5.25 -10.7 5.1 -10.5 4.8 -10.5 4.5 -10.55 4.5 -10.9 4.5 -11.05 4.55 -11.1 4.65 -11.2 4.8 -11.15
L 4.85 -11.15 4.85 -11.1
Q 4.9 -11.05 5.05 -11.05 5.2 -11.05 5.25 -11.15
L 5.25 -11.4
Q 5.2 -11.45 5.05 -11.45 4.9 -11.45 4.85 -11.35
L 4.85 -11.3
Q 4.6 -11.35 4.5 -11.2 4.35 -11.1 4.35 -10.9 4.4 -10.4 4.8 -10.35 5.2 -10.3 5.35 -10.65 5.55 -10.9 5.55 -11.2 Z"/>

<path fill="#996600" stroke="none" d="
M 0.05 12
Q 0.25 11.9 0.35 11.15
L -0.35 11.15
Q -0.3 11.9 -0.05 12
L 0.05 12 Z"/>

<path fill="#604308" stroke="none" d="
M 1.25 -3.9
Q 1.1 -4.4 0.85 -4.85 0.75 -5 0.6 -5.15
L 0.55 -5.15
Q 0.35 -4.95 0.1 -4.9 0.05 -4.9 0 -4.9 -0.05 -4.9 -0.1 -4.9 -0.4 -4.95 -0.6 -5.15 -0.75 -5 -0.85 -4.85 -1.1 -4.45 -1.2 -4.05 -0.65 -3.5 0.15 -3.5 0.75 -3.5 1.25 -3.9 Z"/>

<path fill="#805705" stroke="none" d="
M 1.3 -3.7
Q 1.3 -3.8 1.25 -3.9 0.75 -3.5 0.15 -3.5 -0.65 -3.5 -1.2 -4.05 -1.25 -3.9 -1.3 -3.7 -1.4 -3.35 -1.4 -2.95 -1.45 -2.35 -1.45 -1.7 -1.4 -1.05 -1.35 -0.4 -1.3 0.1 -1.2 0.7 -1.15 1.35 -1.05 1.95 -0.95 2.65 -0.85 3.3 -0.85 3.45 -0.8 3.55 -0.75 3.75 -0.65 3.9
L -0.35 11.15 0.35 11.15 0.6 3.9
Q 0.75 3.75 0.75 3.55 0.8 3.45 0.85 3.3 0.95 2.65 1.05 1.95 1.15 1.35 1.2 0.7 1.3 0.1 1.3 -0.4 1.4 -1.05 1.4 -1.7 1.45 -2.35 1.4 -2.95 1.35 -3.35 1.3 -3.7
M 0.55 -6.25
Q 0.5 -6.35 0.4 -6.4 0.35 -6.4 0.3 -6.45 0.15 -6.5 0 -6.5 -0.15 -6.5 -0.25 -6.45 -0.3 -6.45 -0.4 -6.4 -0.5 -6.35 -0.6 -6.25 -0.85 -6.05 -0.85 -5.7 -0.85 -5.4 -0.6 -5.15 -0.4 -4.95 -0.1 -4.9 -0.05 -4.9 0 -4.9 0.05 -4.9 0.1 -4.9 0.35 -4.95 0.55 -5.15
L 0.6 -5.15
Q 0.8 -5.4 0.8 -5.7 0.8 -6.05 0.55 -6.25 Z"/>
</g>

<g id="caixa_05_0_Layer1_0_FILL">
<path fill="#336600" stroke="none" d="
M 141.8 -1.5
L 8 -1.5
Q -1.5 -1.5 -1.5 8
L -1.5 141.8
Q -1.5 151.3 8 151.3
L 141.8 151.3
Q 151.3 151.3 151.3 141.8
L 151.3 8
Q 151.3 -1.5 141.8 -1.5
M 141.8 1.5
Q 148.3 1.5 148.3 8
L 148.3 141.8
Q 148.3 148.3 141.8 148.3
L 8 148.3
Q 1.5 148.3 1.5 141.8
L 1.5 8
Q 1.5 1.5 8 1.5
L 141.8 1.5 Z"/>
</g>
</defs>

<g id="caixa_05" transform="matrix( 1.08203125, 0, 0, 1.08203125, 0.45,0.45) ">
<mask id="Mask_Mask_1">
<g transform="matrix( 1, 0, 0, 1, 0,0) ">
<use xlink:href="#Mask_caixa_05_0_3_MASK_0_FILL"/>
</g>
</mask>

<g mask="url(#Mask_Mask_1)">
<g transform="matrix( 1, 0, 0, 1, 0,0) ">
<use xlink:href="#caixa_05_0_Layer3_0_FILL"/>
</g>
</g>

<g mask="url(#Mask_Mask_1)">
<g transform="matrix( 1, 0, 0, 1, 0,0) ">
<use xlink:href="#caixa_05_0_Layer2_0_FILL"/>
</g>

<g transform="matrix( 2.8670501708984375, -0.0724334716796875, 0.0724334716796875, 2.8670501708984375, 100.9,96.25) ">
<g transform="matrix( 1, 0, 0, 1, 0,0) ">
<use xlink:href="#Tween_11_0_Layer0_0_FILL"/>
</g>
</g>

<g transform="matrix( 2.8670501708984375, -0.0724334716796875, 0.0724334716796875, 2.8670501708984375, 107.4,57.1) ">
<g transform="matrix( 1, 0, 0, 1, 0,0) ">
<use xlink:href="#Tween_9_0_Layer0_0_FILL"/>
</g>
</g>

<g transform="matrix( 2.8670501708984375, -0.0724334716796875, 0.0724334716796875, 2.8670501708984375, 52.45,97.45) ">
<g transform="matrix( 1, 0, 0, 1, 0,0) ">
<use xlink:href="#Tween_7_0_Layer0_0_FILL"/>
</g>
</g>

<g transform="matrix( 2.8670501708984375, -0.0724334716796875, 0.0724334716796875, 2.8670501708984375, 44.05,58.8) ">
<g transform="matrix( 1, 0, 0, 1, 0,0) ">
<use xlink:href="#Tween_5_0_Layer0_0_FILL"/>
</g>
</g>

<g transform="matrix( 2.8670501708984375, -0.0724334716796875, 0.0724334716796875, 2.8670501708984375, 76.4,79.25) ">
<g transform="matrix( 1, 0, 0, 1, 0,0) ">
<use xlink:href="#Tween_3_0_Layer0_0_FILL"/>
</g>
</g>
</g>

<g mask="url(#Mask_Mask_1)">
<g transform="matrix( 1, 0, 0, 1, 0,0) ">
<use xlink:href="#caixa_05_0_Layer1_0_FILL"/>
</g>
</g>
</g>
</svg>
