
<svg xmlns="http://www.w3.org/2000/svg" version="1.1" xmlns:xlink="http://www.w3.org/1999/xlink" preserveAspectRatio="none" x="0px" y="0px" width="163px" height="163px" viewBox="0 0 163 163">
<defs>
<linearGradient id="Gradient_1" gradientUnits="userSpaceOnUse" x1="74.75" y1="-9.550000000000011" x2="74.75" y2="168.65" spreadMethod="pad">
<stop  offset="0%" stop-color="#FFFFFF"/>

<stop  offset="100%" stop-color="#3D9DDE"/>
</linearGradient>

<g id="Mask_caixa_02_0_4_MASK_0_FILL">
<path fill="#FFFFFF" stroke="none" d="
M 149.8 8
Q 149.8 0 141.8 0
L 8 0
Q 0 0 0 8
L 0 141.8
Q 0 149.8 8 149.8
L 141.8 149.8
Q 149.8 149.8 149.8 141.8
L 149.8 8 Z"/>
</g>

<g id="caixa_02_0_Layer4_0_FILL">
<path fill="url(#Gradient_1)" stroke="none" d="
M 163.3 -1.55
Q 163.3 -9.55 155.3 -9.55
L -5.8 -9.55
Q -13.8 -9.55 -13.8 -1.55
L -13.8 160.65
Q -13.8 168.65 -5.8 168.65
L 155.3 168.65
Q 163.3 168.65 163.3 160.65
L 163.3 -1.55 Z"/>
</g>

<g id="caixa_02_0_Layer3_0_FILL">
<path fill="#7B570F" stroke="none" d="
M 224.25 17.55
Q 224.2 17.05 224.15 16.5 223.6 10.65 223.05 6.6 210.65 7.95 190 10.7 153.7 15.5 151.95 15.2 152.04375 15.153125 152.2 15.15 147.7837890625 15.146875 141.95 14.05 135.6 12.9 127.15 12.7 121.65 12.55 116.65 11.5 111.65 10.5 102.85 9.7 102.55 9.7 102.2 9.65 96.05 9.3 76.5 10.85 69.7 11.4 61.25 12.15 55.15 12.75 48.2 13.4 34.45 14.75 24.5 15.75 23.4 15.85 22.4 16 1.2 18.1 -1.1 18.65 -4.25 19.3 -9.15 19.7 -11.2 19.8 -13 19.95 -16.35 20.15 -18.6 20.3 -32.05 21.3 -44.2 24.6 -53.1 27.5 -58.25 28.4 -64.75 29.5 -76.75 29.25 -75.75 34.7 -74.8 40.4 -74.5 42.1 -74.25 43.95 -73.95 46.55 -73.65 49.4 -67.1 47.2 -59.5 45.25 -56.8 44.5 -53.9 43.85 -52.35 43.45 -50.8 43.1 -38.9 40.4 -37 40.4 -36.45 40.4 -35.9 40.4 -29.45 38.6 -22.55 37.4 -18.35 36.7 -15.6 36.1 -14.05 35.75 -13 35.5 -12.1 35.25 -11.5 35 -9.35 34.2 -6.2 33.65 -3.45 33.15 0.05 32.85 1.75 32.7 3.6 32.55 8.9 32.3 15.7 32.05 19.2 31.55 22.4 31.15 23.45 30.95 24.5 30.85 36.3 29.35 44.8 28.95 45.85 28.9 46.9 28.9 47.7 28.85 48.45 28.85 52.85 28.75 58.7 28.5 64.55 28.25 69.05 28.4 73.5 28.45 75.2 27.9 76.9 27.3 102.2 29.35 109.8 29.95 119.65 30.95 130.45 32 149.25 33.95 157.9 34.8 161 35 162.7 35.1 162.7 35
L 162.7 34.95
Q 168.55 34.6 179.15 32.05 191.9 28.9 196.4 26.1 197.5 25.4 199.7 25 201.75 24.55 204.85 24.5 207.15 24.4 210 24.45 212.2 24.55 219 24.85 222.75 25.05 225.2 25.1 224.65 21.75 224.25 17.55 Z"/>
</g>

<g id="caixa_02_0_Layer3_0_MEMBER_0_FILL">
<path fill="#74951C" stroke="none" d="
M 58.7 102.95
Q 58.6 103.8 58.65 105 58.65 105.6 58.7 106.6
L 58.7 107.95
Q 58.7 108 58.7 108.3 58.7 109.3 58.6 113.6 58.6 113.85 58.6 114.15 58.6 114.55 58.6 115 58.55 115.7 58.65 118.55 58.75 121.45 58.1 123.45 58.1 123.5 58.1 123.55 58.2 123.7 58.4 123.75 58.5 123.8 58.65 123.8 59.05 123.8 59.3 123.6 59.7 123.35 59.9 122.8 60.15 122 60.15 120.75 60.15 117.65 60.15 116 60.15 115.45 60.15 115.05 60.15 114.35 60.15 114.3 60.2 114 60.25 113.65 60.4 112 60.6 108.5 60.65 107.1 60.7 105.35 60.85 102.7 60.9 101.2
L 58.7 101.35
Q 58.75 102.3 58.7 102.95
M 97.6 98.8
Q 97.6 95.5 100.8 90.3 100.8 90.25 100.85 90.2 101.2 89.55 101.55 89 103.85 84.9 104.2 83.3 101.75 86.95 100.2 89.2 95.7 95.85 95.7 99.65 95.7 102 97.25 105.5 98.1 107.6 98.5 109.15 98.35 108.05 98.3 106.9 98.25 106.6 98.2 106.3 97.95 104.45 97.65 102.45 97.6 102.25 97.65 102.1
L 97.65 102.05
Q 97.6 101 97.6 99.05 97.6 98.95 97.6 98.8
M 81.1 76.75
Q 81.25 77.2 81.4 77.6 81.55 78.2 81.7 78.75 82.05 80.1 82.05 81.15 82.05 84.3 80.4 88.45 80.3 88.7 80.2 88.95 79.55 90.45 78.7 92.05 78.55 92.3 78.45 92.55 77.55 94.25 76.95 95.8 76.95 95.85 76.95 95.9 76.9 95.9 76.9 95.95
L 76.9 96
Q 76.5 97.45 76.35 99.2 76.15 100.75 76.15 104.25 76.15 109.05 76.9 113.45 77 114.35 77.15 115.1 77.25 115.8 77.35 116.4 77.6 118.4 77.6 119.2 77.6 122.8 76.25 126.65 76 127.25 75.65 128.15 74.85 129.95 73.5 132.9 72.15 135.6 67.4 137.35 66.5 137.65 65.45 137.95 65.2 138 65.05 138.1 60 139.45 54.5 139.55 54.4 139.85 54.35 140.1 55.55 141.1 58.6 140.7 63 140.1 65.25 139.75 65.3 139.75 65.35 139.75 66.55 139.5 67.2 139.4 68.9 139 69.8 138.8 73.45 136.15 75.3 133.35 75.35 133.25 75.4 133.2 75.5 133.05 75.6 132.85 75.85 132.5 76 132.15 76.05 132 76.15 131.85 76.6 130.85 76.9 129.9 76.95 129.5 77.05 129.2 77.05 129 77.1 128.75 78.1 123.65 78.1 121.3 78.05 120 78.05 119.1 78 118.95 78 118.75 77.95 118.2 77.95 117.9 77.85 117.35 77.85 116.4 77.8 116.1 77.85 115.8 77.8 115.5 77.8 115.15 77.8 114.5 77.8 113.75 77.8 110.55 78.55 108.6 79.2 106.6 79.45 105.1 79.45 104.75 79.45 104.5 79.45 103.7 79.35 102.85 79.25 102.4 79.15 102 78.65 100.45 78.9 99.3 79.05 98.15 79 97.7 79 97.1 79.1 96.55 79.35 95 79.75 93.55 79.8 93.35 79.9 93.15 80.45 91.3 81.3 89.45 81.35 89.3 81.4 89.2 83.4 85 83.6 81.5 83.75 78.2 83.2 75.9 83.15 75.7 83.1 75.45 83 75.1 82.85 74.8 82.15 72.7 81.05 70.7 80.4 69.6 79.4 68.55 78.75 67.9 78.1 67.25
L 77.4 67.95
Q 78.3 68.65 78.65 69.2 78.7 69.25 78.7 69.3 80.25 71.65 80.6 74.1 80.7 74.8 80.8 76.05 80.9 76.35 81.1 76.75
M 83.45 71.35
Q 83.05 70.45 82.4 69.7 81.2 68.2 80.95 67.7 80.8 67.35 80.6 67.05 80.05 66.15 79.15 65.25 78.25 64.3 77.4 63.7 75.75 62.7 75.05 62.2 73.95 61.45 73.6 60.7 73.4 60.25 73.15 59.8 73.1 59.65 73.05 59.55 72.2 58.05 71 56.65 70.65 56.3 70.3 55.95 68.5 54.05 67.15 52.5 65.2 50.4 62 49.55 59.7 49.15 57.8 48.8 57.65 49 57.45 49.3 57.25 49.55 57.1 49.85 57.75 49.8 58.5 49.9 58.6 49.9 58.75 49.95 61.7 50.4 64.9 53 70.25 57.15 72.2 61.2 72.35 61.5 72.45 61.8 72.8 62.5 73.45 63.3 74.45 64.5 76.45 66 77.25 66.55 78 67.25 78.05 67.25 78.1 67.25 78.75 67.9 79.4 68.55 80.4 69.6 81.05 70.7 82.15 72.7 82.85 74.8 83 75.1 83.1 75.45 83.15 75.7 83.2 75.9 83.75 78.2 83.6 81.5 83.4 85 81.4 89.2 81.35 89.3 81.3 89.45 80.45 91.3 79.9 93.15 79.8 93.35 79.75 93.55 79.35 95 79.1 96.55 79 97.1 79 97.7 79.05 98.15 78.9 99.3 78.65 100.45 79.15 102 79.25 102.4 79.35 102.85 79.45 103.7 79.45 104.5 79.45 104.75 79.45 105.1 79.2 106.6 78.55 108.6 77.8 110.55 77.8 113.75 77.8 114.5 77.8 115.15 77.8 115.5 77.85 115.8 77.8 116.1 77.85 116.4 77.85 117.35 77.95 117.9 77.95 118.2 78 118.75 78 118.95 78.05 119.1 78.05 120 78.1 121.3 78.1 123.65 77.1 128.75 77.05 129 77.05 129.2 76.95 129.5 76.9 129.9 76.6 130.85 76.15 131.85 76.05 132 76 132.15 75.85 132.5 75.6 132.85 75.5 133.05 75.4 133.2 75.35 133.25 75.3 133.35 73.45 136.15 69.8 138.8 70.95 139.05 72.05 139.1 73.35 138 74.65 136.55 75.65 135.45 76.5 134.4 78.25 132.15 79.05 130 79.75 128.15 79.75 126.4 79.75 124.45 79.7 123.55 79.7 123.4 79.7 123.35
L 79.7 123.25
Q 79.68984375 123.1193359375 79.65 123 79.55 121.95 79.4 121.1 79.45 120.9 79.45 120.65 79.55 120.25 79.6 119.85 79.75 118.85 79.85 117.6 79.8 117.5 79.85 117.45 79.9 116.3 79.85 114.9 79.85 114.8 79.85 114.7 79.7 110.55 79.75 110.3 80.25 106.3 83.8 104.35 84.35 104.05 85 103.8 88.45 102.35 94.05 102.65
L 94.05 102
Q 93.75 101.5 93.6 101.15 93 100.2 92.6 100.05 92.3 99.9 90.05 99.9 87.35 99.9 86.1 100.85 84.25 102.2 81.95 102.75
L 79.95 102.75 79.95 99.85
Q 80.4 98.55 81.55 95.2 82.15 93.2 83.1 90.45 83.15 90.3 83.2 90.05 83.6 89 84 87.75 84.6 85.85 84.95 83.65 85.05 82.65 85.15 81.6 85.2 80.25 85.2 78.75 85.2 76.4 85.2 76.2 84.55 74.7 84.25 73.65 84.05 73.1 83.95 72.75 83.85 72.5 83.8 72.3 83.6 71.85 83.45 71.35
M 103.6 73.25
Q 103.5 73.2 103.4 73.2 102.1 72.75 99.4 70.7 97.95 69.7 96.6 69.1 94.5 68.15 92.5 68.15 90.35 68.15 89.6 68.5 86.7 69.85 86.4 70
L 86.25 70.15
Q 88 70.5 91.1 70.7 93.2 71.05 95.1 72 95.75 72.3 96.35 72.75 97.7 73.6 101.15 75.1
L 101.2 75.1
Q 101.45 75.25 101.85 75.35 102.45 75.65 103.1 75.85 102.9 74.4 103.6 73.25
M 101.65 52.35
Q 101.45 52.3 101.3 52.25 101.25 52.4 101.2 52.5 101 52.9 100.4 52.95 100.3 52.95 100.2 52.95 99.75 52.95 99.05 52.8 98.75 52.75 98.45 52.7 97.4 52.4 95.85 51.9 95.65 51.85 95.45 51.8 94.3 51.4 92.85 51.25 92.55 51.15 92.2 51.15 91.65 51.05 91.15 51 90.25 51.15 89.35 51.35 87.35 51.8 84.05 51.8 80.7 51.8 80.35 51.85 77.45 52.15 77.45 53.75
L 77.45 53.8 80.6 54.05
Q 82 54 84.6 54 85.05 54 85.45 54 85.7 54 85.95 54 89.65 54 90.3 54.1 90.75 54.15 92.2 54.4 92.9 54.45 94 54.65 95.75 54.85 98.3 55.3 98.8 55.5 99.3 55.7 100.15 55.7 101.1 55.7 103.45 55.8 105.15 56.1
L 104.3 55.1
Q 104.3 55.05 104.35 55
L 104.3 55
Q 103.8 54.8 103.4 54.65 103.2 54.55 103 54.5 102.95 54.45 102.9 54.45 101.4 53.95 99.85 53.6 99.3 53.5 98.85 53.4 98.6 53.3 98.35 53.25 96.7 52.9 95 52.65 93.8 52.45 92.65 52.35 90.75 52.2 88.9 52.15
L 88.85 52.15
Q 85.6 52 82.1 52.3 85.6 52 88.85 52.15
L 88.9 52.15
Q 90.75 52.2 92.65 52.35 93.8 52.45 95 52.65 96.7 52.9 98.35 53.25 98.6 53.3 98.85 53.4 99.3 53.5 99.85 53.6 101.4 53.95 102.9 54.45 102.95 54.45 103 54.5 103.2 54.55 103.4 54.65 103.8 54.8 104.3 55
L 104.35 55
Q 104.7 53.95 104.65 53.2 103 52.8 101.65 52.35 Z"/>

<path fill="#749912" stroke="none" d="
M 59.55 83.95
Q 59.55 83.75 59.55 83.6 59.15 79.7 57.75 76.05 57.6 75.65 57.45 75.3 57.45 75.85 57.4 76.55 57.3 80.35 57.3 81.9 57.3 82.75 57.5 86.8 57.55 88.35 57.65 90.4 57.7 92.55 57.85 95.1 57.85 95.15 58.1 96.55 58.15 97.3 58.35 98.55 58.4 98.9 58.45 99.3 58.45 99.4 58.5 99.5 58.55 99.85 58.6 100.2 58.6 100.3 58.6 100.45 58.65 100.9 58.7 101.35
L 60.9 101.2
Q 60.95 100.6 60.95 100.2 61 99.2 61 99
L 61 98.85
Q 61 95.95 60.85 93.75 60.7 92.05 60.5 90.8 60.3 89.85 60.1 89.15 60.05 89.1 60 88.35 59.8 87.05 59.55 83.95
M 71.5 124.25
Q 71.25 124.8 70.95 125.35 70.4 126.3 69.8 127.1 68.15 129.05 65.9 129.75 63.8 130.3 63.4 130.6 62.4 131.25 62.4 133.3 62.4 134.75 64.5 134.75 65.45 134.75 66.35 134.35 67.15 134 67.9 133.25 69.35 131.9 70.3 129.5 70.55 129 70.8 128.15 70.95 127.4 71.15 126.35 71.25 125.9 71.3 125.55 71.45 124.7 71.5 124.25
M 69 97.6
Q 71.3 90.1 71.3 87.7 71.3 86.25 70.3 82.1 70.1 85.3 69.65 88.45 68.85 93.9 67.1 99.4
L 67.1 99.45
Q 67.05 99.6 67 99.7 66.9 99.95 66.85 100.2 66.7 100.55 66.6 100.85 66.25 101.95 66 102.8 65.55 104.2 65.35 105 65.05 106.4 64.85 108.55
L 64.55 115.15
Q 64.55 116.5 64.55 118.6 64.7 120.05 65.45 120.05 66.4 120.05 67.75 119 69.2 117.9 69.2 116.75 68.6 115.8 67.95 114.4 67.15 112.6 66.85 110.5 66.75 109.45 66.75 108.4 66.75 105.8 68.3 100.2 68.6 99 69 97.6
M 63.95 69.45
Q 63.15 68.3 61.45 68.5 61.4 68.55 61.45 68.6 61.35 69.45 61.3 70.8 61.15 73.65 61.15 74.4 61.15 78.1 61.2 80.9 61.3 84.9 61.45 87 61.45 87.3 61.5 87.55 61.6 88.6 61.85 90.5 61.85 90.55 61.85 90.6 62 91.6 62.2 92.75 62.55 95.2 63.05 98.55
L 63.6 98.55
Q 64.2 94.95 64.2 92.3 64.2 91.9 64.2 91.5 64.1 89 64.15 86.95 64.25 85.5 64.3 84.3 64.8 76.8 64.85 74.85 64.85 74.75 64.85 74.65 64.85 70.8 63.95 69.45 Z"/>

<path fill="#ACDA30" stroke="none" d="
M 57.65 50.05
Q 58.05 49.95 58.5 49.9 57.75 49.8 57.1 49.85 56.55 49.95 56.05 50.05 53.15 50.75 51.65 53.05 49.4 56.45 49.4 59.7 49.4 67.95 52.15 82.8 52.15 82.85 52.15 82.9 52.5 84.85 52.9 87 53.4 89.6 53.95 92.05 54.1 92.75 54.25 93.45 54.95 96.75 55.7 99.85 55.7 99.95 55.75 100.05 57.05 105.6 57.3 112.6 57.3 113.05 57.35 113.5 57.35 114.25 57.35 114.95 57.35 118.3 57.05 121.4 56.9 122.65 56.75 123.9 56.4 125.8 55.95 127.65 54.35 134.1 54.2 135.25 53.05 138.15 53.9 139.55 54.05 139.85 54.35 140.1 54.4 139.85 54.5 139.55 56.4 132.45 57.6 127.65 58.05 125.8 58.35 123.9 58.35 123.85 58.4 123.75 58.2 123.7 58.1 123.55 58.1 123.5 58.1 123.45 58.75 121.45 58.65 118.55 58.55 115.7 58.6 115 58.6 114.55 58.6 114.15 58.6 113.85 58.6 113.6 58.7 109.3 58.7 108.3 58.25 103.8 57.4 100.05 57.35 99.95 57.35 99.85 56.6 96.75 55.9 93.45 55.7 92.75 55.6 92.05 55.05 89.6 54.55 87 54.15 84.85 53.75 82.9 53.75 82.85 53.75 82.8 51 67.95 51 59.7 51 56.45 53.3 53.05 54.8 50.75 57.65 50.05
M 81.4 77.6
Q 81.25 77.2 81.1 76.75 80.9 76.35 80.8 76.05 80.7 74.8 80.6 74.1 80.25 71.65 78.7 69.3 78.7 69.25 78.65 69.2 78.3 68.65 77.4 67.95 76.45 67.25 74.95 66.3 73.5 65.45 72.6 64.7 71.65 63.9 71.25 63.2
L 71.25 63.15
Q 67.7 57.55 65.35 55.25 62.05 51.95 58.1 51.85 58.05 51.85 58 51.85 57.95 51.85 57.9 51.85 57.2 51.85 56.5 51.95 55 52.3 55 54.25 55 55.9 57.6 58.95 57.65 58.95 57.65 59 58.8 60.3 60.45 61.9 61.9 63.25 63.65 64.8 64.75 65.8 66.1 66.95 66.75 67.5 67.45 68.1 67.85 68.45 68.3 68.85
L 68.35 68.9
Q 70.75 71.4 72.4 75.75 72.45 75.85 72.5 76 72.55 76.1 72.6 76.2 74.35 80.8 74.6 86.35 74.65 86.95 74.65 87.55 74.65 87.6 74.65 87.7 74.65 88.05 74.65 88.4 74.65 91.95 74.05 93.95 73.2 97 72.95 99.1 72.9 99.25 72.9 99.65 72.8 100.55 72.8 102.7 72.75 104.55 72.75 107.25 72.75 108.3 72.75 109.4 72.75 114.85 72.8 116.6 72.8 117.05 72.8 117.25 72.8 117.5 72.8 117.8 72.8 117.85 72.8 117.9 72.9 119.55 73.1 121.1 73.2 121.5 73.35 121.85 73.4 121.95 73.45 122.7 73.5 123.3 73.55 124.35 73.6 125.5 73.7 127.4 74.35 128.75 74.95 127.9 75.55 127 76.05 123.95
L 76.35 115.05
Q 76.35 112.05 75.9 108.75 75.75 105.15 76.05 101.25 76.4 97.15 76.75 96.3 76.85 96.15 76.9 96
L 76.9 95.95
Q 76.9 95.9 76.95 95.9 76.95 95.85 76.95 95.8 77.55 94.25 78.45 92.55 78.55 92.3 78.7 92.05 79.55 90.45 80.2 88.95 80.3 88.7 80.4 88.45 82.05 84.3 82.05 81.15 82.05 80.1 81.7 78.75 81.55 78.2 81.4 77.6
M 64.95 61.8
Q 64.3 61.8 61.55 59.6 60.05 58.45 59.3 57.5 58.55 56.55 58.55 55.9
L 58.7 54.75 59.7 54.75
Q 60.6 55.05 62.2 56.8 63.65 58.45 65.2 59.3 65.3 59.5 65.4 59.75 65.55 60.15 65.55 60.5 65.8 61.8 64.95 61.8
M 74.4 72.75
Q 73.6 71.2 73.6 70.3 73.6 68.4 75.45 69.1 77.2 69.75 77.85 71.5 79 73.25 78.95 74.3 78.95 74.9 78.65 76.35 78.65 78.15 78.65 78.2 78.4 79.7 77.1 79.7 75.35 79.7 75.35 77.9 75.6 75.75 75.45 75 75.3 74.55 74.4 72.75
M 77.5 82.3
Q 79.25 82.4 79.25 84.5 79.25 86.65 77.7 86.65 76.65 86.65 76.1 85.35 75.75 84.5 75.75 83.8 75.75 82.15 77.5 82.3
M 102.05 57.2
Q 102 57.2 102 57.15 101.8 57 101.55 56.9 100.7 56.4 99.7 55.9 99.5 55.8 99.3 55.7 98.8 55.5 98.3 55.3 95.75 54.85 94 54.65 92.9 54.45 92.2 54.4 90.75 54.15 90.3 54.1 89.65 54 85.95 54 85.7 54 85.45 54 85.05 54 84.6 54 82 54 80.6 54.05 78.95 54.05 78.7 54.1 78.6 54.1 78.55 54.15 76.55 54.55 76.55 56.5 76.55 57.3 77 57.95 78.25 59.75 83.35 60.15 84.55 60.2 86 60.3 87.25 60.35 88.65 60.45 89.6 60.5 90.7 60.55 91.65 60.55 92.75 60.6 96.1 61.45 99.25 63.9 99.4 63.95 99.45 64.05 103.2 66.95 103.6 67.15
L 104.5 67.15
Q 104.95 66.25 105.35 65.45 106.05 63.95 106.05 63.1 106.05 59.85 102.05 57.2
M 95.35 108.4
Q 95.05 107.8 94.6 107.15 94.3 106.7 93.8 106.4 93.35 106.15 92.7 106.05 92.65 106.05 92.4 106.05 92.3 106.05 92 106.05 91.65 106 91.05 105.95 90.45 105.9 89.65 105.8 89.6 105.8 89.5 105.8 88.85 105.8 88.3 105.85 85.2 106.1 83.95 107.85 83 109.25 83 112.1 83 112.8 83.05 113.5 83.1 114 83.15 114.55 83.15 115.05 83.25 115.6 83.4 116.5 83.6 117.35 84.25 120.05 84.25 122.6 84.25 125.45 81.95 129.4 82.3 131.45 85.55 129.5 87.75 128.3 89.05 127.15 89.6 126.55 90.05 126.05 91.3 124.3 92.2 123.6 93.05 122.9 94.25 120.8 95.4 118.9 95.55 118.5 96.05 116.7 96.25 115.3 96.4 114.3 96.4 113.45 96.4 111.35 96.3 110.55 96.25 110.25 96.25 110.15 96.1 109.55 95.35 108.4
M 91.45 110.9
Q 91.5 110.9 91.6 110.9 92.75 111.65 92.75 114.3 92.75 117.15 92.6 117.8 92.6 117.9 92.55 118.05 92.35 118.8 92 119.3 91.4 120.05 90.35 120.05 88.75 120.05 88.2 119.65 87.5 119.25 87.55 118.05 87.6 117.55 87.1 115.55 86.85 114.35 86.75 113.65 86.65 113.05 86.65 112.8 86.65 111.35 87.4 110.55 87.7 110.2 88.15 109.9 88.2 109.85 88.35 109.75 89.8 110.4 91.45 110.9
M 99.4 76.65
Q 98.9 76.6 98.35 76.6 95.8 76.6 93.5 77.55 92.55 77.9 91.65 78.45 90.9 78.9 90.2 79.45 87.2 81.75 86.65 83.95 86.55 84.45 86.55 84.95 86.55 85.4 87.15 85.95 87.6 86.3 88.3 86.65 88.55 86.75 88.8 86.9 91.2 87.95 92.1 89.05 92.2 89.1 92.3 89.25 92.8 90 93 91.4 93.25 92.5 93.55 92.65 93.9 92.8 96 93.2 97.3 93.2 99.5 89.55 99.85 88.95 100.2 88.25 102.65 83.7 102.65 82.55
L 102.65 82.5
Q 102.65 79.85 100.8 77.85 100.75 77.75 100.7 77.7 100.05 77 99.4 76.65
M 97.8 79.9
Q 97.85 79.9 97.85 79.95 99.15 80.8 99.15 84.25 99.15 84.5 99.15 84.75 99.1 85.65 98.85 86 98.5 86.65 97.35 86.65 96.75 86.55 96.3 86.45 94.8 86.05 94.45 85.75 93.3 84.65 92.2 84.45 92 84.4 91.9 84.15 91.7 83.8 91.7 83.1 91.7 81.5 93.2 80.5 94 79.95 95.65 79.45
L 97.8 79.9
M 88.35 40.2
Q 87.7 39.95 87.05 39.7
L 86.6 39.55
Q 84.35 38.75 82 38.55 81.1 38.45 80.15 38.45 78.1 38.45 75.95 39.05 73.45 39.7 72.35 40.8 71.6 41.5 71.45 42.65 71.35 43.65 70.95 43.9 69.7 44.8 69.15 45.2 68.25 45.95 68.25 46.45 68.25 47.75 70.1 48.15 70.5 48.25 71.1 48.3 71.95 48.35 73.45 48.35 73.65 48.35 78.9 47.6 79.1 47.55 79.4 47.5
L 79.45 47.5
Q 79.85 47.4 80.25 47.35 80.85 47.25 81.4 47.25 81.45 47.2 81.5 47.2 86.95 46.4 88 46.4 88.55 46.4 89.45 46.7 90 46.8 90.7 46.7 91 46.55 91.4 46.35 93.8 46.3 94.2 45.2 94.25 45.05 94.3 44.9 92.4 42 88.35 40.2
M 81.6 48.3
L 81.55 48.3
Q 80.6 48.35 79.6 48.5 79 48.6 78.35 48.8 77.9 48.9 77.4 49.05 75.4 49.75 74.5 50.75
L 74.5 52
Q 75.2 52.4 75.5 52.45 75.65 52.45 76.1 52.35 76.2 52.35 76.75 52.3 77.6 52.1 79.85 51.65 80.9 51.45 82 51.3 84.9 50.9 87.5 50.9 88.2 50.9 88.85 50.95 88.95 50.9 89.05 50.95
L 89.1 50.95
Q 90.2 50.95 91.15 51 91.65 51.05 92.2 51.15 92.55 51.15 92.85 51.25 94.3 51.4 95.45 51.8 95.65 51.85 95.85 51.9 97.4 52.4 98.45 52.7 98.75 52.75 99.05 52.8 99.75 52.95 100.2 52.95 100.3 52.95 100.4 52.95 101 52.9 101.2 52.5 101.25 52.4 101.3 52.25 101.3 52.05 101.3 51.85 101.3 51.8 101.3 51.75 101.3 51.1 100.8 50.55 100.4 50.25 99.9 50 99.75 49.9 99.65 49.9 99.4 49.8 99 49.65 98.5 49.45 98 49.35 97.55 49.25 96.7 49.1 96.15 49 95.3 48.9 94.5 48.85 93.45 48.8 92.75 48.7 91.95 48.65 91.65 48.65 91.3 48.6 90.25 48.55 89.25 48.5 85.25 48.3 81.8 48.3 81.7 48.3 81.6 48.3
M 90.8 39
Q 88.7 38 86.6 37.65 84.4 37.35 82.4 37.25 81.35 37.2 80.35 37.2 80.25 37.2 80.15 37.2
L 80 37.2
Q 77.8 37.25 75.75 37.55 65.95 38.9 59.75 46.2 58.9 47.2 58.1 48.35
L 59.3 48.55
Q 62.55 44.25 67.35 41.8 71.95 39.7 76.95 38.7 78.7 38.3 80.45 38.15 83.35 37.9 86.2 38.5 91.6 39.7 96.2 42.85 96 42.7 95.9 42.6 94.35 41 92.25 39.7 91.5 39.3 90.8 39 Z"/>

<path fill="#88B11A" stroke="none" d="
M 72.45 61.8
Q 72.35 61.5 72.2 61.2 70.25 57.15 64.9 53 61.7 50.4 58.75 49.95 58.6 49.9 58.5 49.9 58.05 49.95 57.65 50.05 54.8 50.75 53.3 53.05 51 56.45 51 59.7 51 67.95 53.75 82.8 53.75 82.85 53.75 82.9 54.15 84.85 54.55 87 55.05 89.6 55.6 92.05 55.7 92.75 55.9 93.45 56.6 96.75 57.35 99.85 57.35 99.95 57.4 100.05 58.25 103.8 58.7 108.3 58.7 108 58.7 107.95
L 58.7 106.6
Q 58.65 105.6 58.65 105 58.6 103.8 58.7 102.95 58.75 102.3 58.7 101.35 58.65 100.9 58.6 100.45 58.6 100.3 58.6 100.2 58.55 99.85 58.5 99.5 58.45 99.4 58.45 99.3 58.4 98.9 58.35 98.55 58.15 97.3 58.1 96.55 57.85 95.15 57.85 95.1 57.7 92.55 57.65 90.4 57.55 88.35 57.5 86.8 57.3 82.75 57.3 81.9 57.3 80.35 57.4 76.55 57.45 75.85 57.45 75.3 57.6 75.65 57.75 76.05 59.15 79.7 59.55 83.6 59.55 83.75 59.55 83.95 59.8 87.05 60 88.35 60.05 89.1 60.1 89.15 60.3 89.85 60.5 90.8 60.7 92.05 60.85 93.75 61 95.95 61 98.85
L 61 99
Q 61 99.2 60.95 100.2 60.95 100.6 60.9 101.2 60.85 102.7 60.7 105.35 60.65 107.1 60.6 108.5 60.4 112 60.25 113.65 60.2 114 60.15 114.3 60.15 114.35 60.15 115.05 60.15 115.45 60.15 116 60.15 117.65 60.15 120.75 60.15 122 59.9 122.8 59.7 123.35 59.3 123.6 59.05 123.8 58.65 123.8 58.5 123.8 58.4 123.75 58.35 123.85 58.35 123.9 58.05 125.8 57.6 127.65 56.4 132.45 54.5 139.55 60 139.45 65.05 138.1 65.2 138 65.45 137.95 66.5 137.65 67.4 137.35 72.15 135.6 73.5 132.9 74.85 129.95 75.65 128.15 76 127.25 76.25 126.65 77.6 122.8 77.6 119.2 77.6 118.4 77.35 116.4 77.25 115.8 77.15 115.1 77 114.35 76.9 113.45 76.15 109.05 76.15 104.25 76.15 100.75 76.35 99.2 76.5 97.45 76.9 96 76.85 96.15 76.75 96.3 76.4 97.15 76.05 101.25 75.75 105.15 75.9 108.75 76.35 112.05 76.35 115.05
L 76.05 123.95
Q 75.55 127 74.95 127.9 74.35 128.75 73.7 127.4 73.6 125.5 73.55 124.35 73.5 123.3 73.45 122.7 73.4 121.95 73.35 121.85 73.2 121.5 73.1 121.1 72.9 119.55 72.8 117.9 72.8 117.85 72.8 117.8 72.8 117.5 72.8 117.25 72.8 117.05 72.8 116.6 72.75 114.85 72.75 109.4 72.75 108.3 72.75 107.25 72.75 104.55 72.8 102.7 72.8 100.55 72.9 99.65 72.9 99.25 72.95 99.1 73.2 97 74.05 93.95 74.65 91.95 74.65 88.4 74.65 88.05 74.65 87.7 74.65 87.6 74.65 87.55 74.65 86.95 74.6 86.35 74.35 80.8 72.6 76.2 72.55 76.1 72.5 76 72.45 75.85 72.4 75.75 70.75 71.4 68.35 68.9
L 68.3 68.85
Q 67.85 68.45 67.45 68.1 66.75 67.5 66.1 66.95 64.75 65.8 63.65 64.8 61.9 63.25 60.45 61.9 58.8 60.3 57.65 59 57.65 58.95 57.6 58.95 55 55.9 55 54.25 55 52.3 56.5 51.95 57.2 51.85 57.9 51.85 57.95 51.85 58 51.85 58.05 51.85 58.1 51.85 62.05 51.95 65.35 55.25 67.7 57.55 71.25 63.15
L 71.25 63.2
Q 71.65 63.9 72.6 64.7 73.5 65.45 74.95 66.3 76.45 67.25 77.4 67.95
L 78.1 67.25
Q 78.05 67.25 78 67.25 77.25 66.55 76.45 66 74.45 64.5 73.45 63.3 72.8 62.5 72.45 61.8
M 61.45 68.5
Q 63.15 68.3 63.95 69.45 64.85 70.8 64.85 74.65 64.85 74.75 64.85 74.85 64.8 76.8 64.3 84.3 64.25 85.5 64.15 86.95 64.1 89 64.2 91.5 64.2 91.9 64.2 92.3 64.2 94.95 63.6 98.55
L 63.05 98.55
Q 62.55 95.2 62.2 92.75 62 91.6 61.85 90.6 61.85 90.55 61.85 90.5 61.6 88.6 61.5 87.55 61.45 87.3 61.45 87 61.3 84.9 61.2 80.9 61.15 78.1 61.15 74.4 61.15 73.65 61.3 70.8 61.35 69.45 61.45 68.6 61.4 68.55 61.45 68.5
M 71.3 87.7
Q 71.3 90.1 69 97.6 68.6 99 68.3 100.2 66.75 105.8 66.75 108.4 66.75 109.45 66.85 110.5 67.15 112.6 67.95 114.4 68.6 115.8 69.2 116.75 69.2 117.9 67.75 119 66.4 120.05 65.45 120.05 64.7 120.05 64.55 118.6 64.55 116.5 64.55 115.15
L 64.85 108.55
Q 65.05 106.4 65.35 105 65.55 104.2 66 102.8 66.25 101.95 66.6 100.85 66.7 100.55 66.85 100.2 66.9 99.95 67 99.7 67.05 99.6 67.1 99.45
L 67.1 99.4
Q 68.85 93.9 69.65 88.45 70.1 85.3 70.3 82.1 71.3 86.25 71.3 87.7
M 71.65 123.55
L 71.65 122.85
Q 71.8 123.55 71.5 124.25 71.45 124.7 71.3 125.55 71.25 125.9 71.15 126.35 70.95 127.4 70.8 128.15 70.55 129 70.3 129.5 69.35 131.9 67.9 133.25 67.15 134 66.35 134.35 65.45 134.75 64.5 134.75 62.4 134.75 62.4 133.3 62.4 131.25 63.4 130.6 63.8 130.3 65.9 129.75 68.15 129.05 69.8 127.1 70.4 126.3 70.95 125.35 71.25 124.8 71.5 124.25
L 71.65 123.55
M 81.55 48.3
L 81.6 48.3
Q 81.7 48.3 81.8 48.3 85.25 48.3 89.25 48.5 90.25 48.55 91.3 48.6 91.65 48.65 91.95 48.65 92.75 48.7 93.45 48.8 94.5 48.85 95.3 48.9 96.15 49 96.7 49.1 97.55 49.25 98 49.35 98.5 49.45 99 49.65 99.4 49.8 99.65 49.9 99.75 49.9 99.9 50 100.4 50.25 100.8 50.55 101.3 51.1 101.3 51.75 101.3 51.8 101.3 51.85 101.3 52.05 101.3 52.25 101.45 52.3 101.65 52.35 103 52.8 104.65 53.2 104.6 52.5 104.3 52.05 104.1 51.9 103.9 51.8 103.1 51.15 102.45 50.6 101.95 50.15 101.45 49.75 100.8 49.05 100.3 48.45 100.1 48.25 99.9 48 99.6 47.55 99.45 47.15 99 46.35 98.35 45.5 97.5 44.3 96.2 42.85 91.6 39.7 86.2 38.5 83.35 37.9 80.45 38.15 78.7 38.3 76.95 38.7 71.95 39.7 67.35 41.8 62.55 44.25 59.3 48.55
L 58.1 48.35
Q 57.95 48.55 57.8 48.8 59.7 49.15 62 49.55 65.2 50.4 67.15 52.5 68.5 54.05 70.3 55.95 70.65 56.3 71 56.65 72.2 58.05 73.05 59.55 73.1 59.65 73.15 59.8 73.4 60.25 73.6 60.7 73.95 61.45 75.05 62.2 75.75 62.7 77.4 63.7 78.25 64.3 79.15 65.25 80.05 66.15 80.6 67.05 80.8 67.35 80.95 67.7 81.2 68.2 82.4 69.7 83.05 70.45 83.45 71.35 83.6 71.85 83.8 72.3 83.85 72.5 83.95 72.75 84.05 73.1 84.25 73.65 84.55 74.7 85.2 76.2 85.2 76.4 85.2 78.75 85.2 80.25 85.15 81.6 85.05 82.65 84.95 83.65 84.6 85.85 84 87.75 83.6 89 83.2 90.05 83.15 90.3 83.1 90.45 82.15 93.2 81.55 95.2 80.4 98.55 79.95 99.85
L 79.95 102.75 81.95 102.75
Q 84.25 102.2 86.1 100.85 87.35 99.9 90.05 99.9 92.3 99.9 92.6 100.05 93 100.2 93.6 101.15 93.75 101.5 94.05 102
L 94.05 102.65
Q 88.45 102.35 85 103.8 84.35 104.05 83.8 104.35 80.25 106.3 79.75 110.3 79.7 110.55 79.85 114.7 79.85 114.8 79.85 114.9 79.9 116.3 79.85 117.45 79.8 117.5 79.85 117.6 79.75 118.85 79.6 119.85
L 79.7 123.25 79.7 123.35
Q 79.7 123.4 79.7 123.55 79.75 124.45 79.75 126.4 79.75 128.15 79.05 130 78.25 132.15 76.5 134.4 75.65 135.45 74.65 136.55 73.35 138 72.05 139.1 75.85 139.15 79.05 137.15 79.25 137 79.45 136.85 79.5 136.75 79.6 136.7 82.2 134.9 84.8 133.2 86.4 132.15 87.95 131.1 88.85 130.55 89.65 129.85 90.4 129.25 91.1 128.6 92.75 126.95 94.05 124.85 96.25 122 97.4 119.4 97.4 119.35 97.4 119.25 97.45 119.2 97.5 119.1 97.5 119.05 97.55 119 97.7 118.55 97.85 118.1 98.5 116.15 98.6 114.3 98.65 113.6 98.65 112.95 98.65 111.1 98.5 109.15 98.1 107.6 97.25 105.5 95.7 102 95.7 99.65 95.7 95.85 100.2 89.2 101.75 86.95 104.2 83.3 104.2 83.2 104.2 83.15 104.3 82.15 104.35 81.35 104.35 80.8 104.35 80.3 104.25 79.2 104.05 78.7 103.9 78.35 103.8 78.05 103.7 77.8 103.6 77.55
L 103.55 77.5
Q 103.25 76.75 103.1 76.05 103.1 75.95 103.1 75.85 102.45 75.65 101.85 75.35 101.45 75.25 101.2 75.1
L 101.15 75.1
Q 97.7 73.6 96.35 72.75 95.75 72.3 95.1 72 93.2 71.05 91.1 70.7 88 70.5 86.25 70.15
L 86.4 70
Q 86.7 69.85 89.6 68.5 90.35 68.15 92.5 68.15 94.5 68.15 96.6 69.1 97.95 69.7 99.4 70.7 102.1 72.75 103.4 73.2
L 104 72.65 107.4 68.85
Q 110.3 63.8 107.4 58.7
L 105.15 56.1
Q 103.45 55.8 101.1 55.7 100.15 55.7 99.3 55.7 99.5 55.8 99.7 55.9 100.7 56.4 101.55 56.9 101.8 57 102 57.15 102 57.2 102.05 57.2 106.05 59.85 106.05 63.1 106.05 63.95 105.35 65.45 104.95 66.25 104.5 67.15
L 103.6 67.15
Q 103.2 66.95 99.45 64.05 99.4 63.95 99.25 63.9 96.1 61.45 92.75 60.6 91.65 60.55 90.7 60.55 89.6 60.5 88.65 60.45 87.25 60.35 86 60.3 84.55 60.2 83.35 60.15 78.25 59.75 77 57.95 76.55 57.3 76.55 56.5 76.55 54.55 78.55 54.15 78.6 54.1 78.7 54.1 78.95 54.05 80.6 54.05
L 77.45 53.8 77.45 53.75
Q 77.45 52.15 80.35 51.85 80.7 51.8 84.05 51.8 87.35 51.8 89.35 51.35 90.25 51.15 91.15 51 90.2 50.95 89.1 50.95
L 89.05 50.95
Q 88.95 50.9 88.85 50.95 88.2 50.9 87.5 50.9 84.9 50.9 82 51.3 80.9 51.45 79.85 51.65 77.6 52.1 76.75 52.3 76.2 52.35 76.1 52.35 75.65 52.45 75.5 52.45 75.2 52.4 74.5 52
L 74.5 50.75
Q 75.4 49.75 77.4 49.05 77.9 48.9 78.35 48.8 79 48.6 79.6 48.5 80.6 48.35 81.55 48.3
M 87.05 39.7
Q 87.7 39.95 88.35 40.2 92.4 42 94.3 44.9 94.25 45.05 94.2 45.2 93.8 46.3 91.4 46.35 91 46.55 90.7 46.7 90 46.8 89.45 46.7 88.55 46.4 88 46.4 86.95 46.4 81.5 47.2 81.45 47.2 81.4 47.25 80.85 47.25 80.25 47.35 79.85 47.4 79.45 47.5
L 79.4 47.5
Q 79.1 47.55 78.9 47.6 73.65 48.35 73.45 48.35 71.95 48.35 71.1 48.3 70.5 48.25 70.1 48.15 68.25 47.75 68.25 46.45 68.25 45.95 69.15 45.2 69.7 44.8 70.95 43.9 71.35 43.65 71.45 42.65 71.6 41.5 72.35 40.8 73.45 39.7 75.95 39.05 78.1 38.45 80.15 38.45 81.1 38.45 82 38.55 84.35 38.75 86.6 39.55
L 87.05 39.7
M 98.35 76.6
Q 98.9 76.6 99.4 76.65 100.05 77 100.7 77.7 100.75 77.75 100.8 77.85 102.65 79.85 102.65 82.5
L 102.65 82.55
Q 102.65 83.7 100.2 88.25 99.85 88.95 99.5 89.55 97.3 93.2 96 93.2 93.9 92.8 93.55 92.65 93.25 92.5 93 91.4 92.8 90 92.3 89.25 92.2 89.1 92.1 89.05 91.2 87.95 88.8 86.9 88.55 86.75 88.3 86.65 87.6 86.3 87.15 85.95 86.55 85.4 86.55 84.95 86.55 84.45 86.65 83.95 87.2 81.75 90.2 79.45 90.9 78.9 91.65 78.45 92.55 77.9 93.5 77.55 95.8 76.6 98.35 76.6
M 94.6 107.15
Q 95.05 107.8 95.35 108.4 96.1 109.55 96.25 110.15 96.25 110.25 96.3 110.55 96.4 111.35 96.4 113.45 96.4 114.3 96.25 115.3 96.05 116.7 95.55 118.5 95.4 118.9 94.25 120.8 93.05 122.9 92.2 123.6 91.3 124.3 90.05 126.05 89.6 126.55 89.05 127.15 87.75 128.3 85.55 129.5 82.3 131.45 81.95 129.4 84.25 125.45 84.25 122.6 84.25 120.05 83.6 117.35 83.4 116.5 83.25 115.6 83.15 115.05 83.15 114.55 83.1 114 83.05 113.5 83 112.8 83 112.1 83 109.25 83.95 107.85 85.2 106.1 88.3 105.85 88.85 105.8 89.5 105.8 89.6 105.8 89.65 105.8 90.3 105.8 90.7 105.85 91.55 105.85 92 106.05 92.3 106.05 92.4 106.05 92.65 106.05 92.7 106.05 93.35 106.15 93.8 106.4 94.3 106.7 94.6 107.15 Z"/>

<path fill="#336600" stroke="none" d="
M 77.1 28.25
Q 76.95 28.9 76.95 29.8 76.95 30.35 77 31.3 77 31.4 76.95 33.05 76.95 34.05 77 34.55 77.1 35.2 76.45 35.85 75.65 36.5 75.75 37.55 77.8 37.25 80 37.2
L 80.15 37.2
Q 80.25 37.2 80.35 37.2 80.35 36.75 80.15 36.4 79.95 36.05 79.55 35.6 79.2 35.25 79.05 34.85 78.9 34.3 78.9 32.95 79 31.65 79 31.55 79 29.35 79 29 79.1 28.4 79.35 27.65
L 77.55 27.65
Q 77.15 28 77.1 28.25 Z"/>

<path fill="#CFEE7C" stroke="none" d="
M 79.25 84.5
Q 79.25 82.4 77.5 82.3 75.75 82.15 75.75 83.8 75.75 84.5 76.1 85.35 76.65 86.65 77.7 86.65 79.25 86.65 79.25 84.5
M 73.6 70.3
Q 73.6 71.2 74.4 72.75 75.3 74.55 75.45 75 75.6 75.75 75.35 77.9 75.35 79.7 77.1 79.7 78.4 79.7 78.65 78.2 78.65 78.15 78.65 76.35 78.95 74.9 78.95 74.3 79 73.25 77.85 71.5 77.2 69.75 75.45 69.1 73.6 68.4 73.6 70.3
M 61.55 59.6
Q 64.3 61.8 64.95 61.8 65.8 61.8 65.55 60.5 65.55 60.15 65.4 59.75 65.3 59.5 65.2 59.3 63.65 58.45 62.2 56.8 60.6 55.05 59.7 54.75
L 58.7 54.75 58.55 55.9
Q 58.55 56.55 59.3 57.5 60.05 58.45 61.55 59.6
M 91.6 110.9
Q 91.5 110.9 91.45 110.9 89.8 110.4 88.35 109.75 88.2 109.85 88.15 109.9 87.7 110.2 87.4 110.55 86.65 111.35 86.65 112.8 86.65 113.05 86.75 113.65 86.85 114.35 87.1 115.55 87.6 117.55 87.55 118.05 87.5 119.25 88.2 119.65 88.75 120.05 90.35 120.05 91.4 120.05 92 119.3 92.35 118.8 92.55 118.05 92.6 117.9 92.6 117.8 92.75 117.15 92.75 114.3 92.75 111.65 91.6 110.9
M 97.85 79.95
Q 97.85 79.9 97.8 79.9
L 95.65 79.45
Q 94 79.95 93.2 80.5 91.7 81.5 91.7 83.1 91.7 83.8 91.9 84.15 92 84.4 92.2 84.45 93.3 84.65 94.45 85.75 94.8 86.05 96.3 86.45 96.75 86.55 97.35 86.65 98.5 86.65 98.85 86 99.1 85.65 99.15 84.75 99.15 84.5 99.15 84.25 99.15 80.8 97.85 79.95 Z"/>
</g>

<g id="caixa_02_0_Layer3_0_MEMBER_1_FILL">
<path fill="#996600" stroke="none" d="
M 95.4 21.75
Q 95.15 21.75 94.8 21.8
L 94.8 22.1
Q 95 21.8 95.4 21.75
M 224.25 17.55
Q 224.2 17.05 224.15 16.5 223.6 10.65 223.05 6.6 210.65 7.95 190 10.7 153.7 15.5 151.95 15.2 152.04375 15.153125 152.2 15.15 147.7837890625 15.146875 141.95 14.05 135.6 12.9 127.15 12.7 121.65 12.55 116.65 11.5 111.65 10.5 102.85 9.7 102.55 9.7 102.2 9.65 96.05 9.3 76.5 10.85 69.7 11.4 61.25 12.15 55.15 12.75 48.2 13.4 34.45 14.75 24.5 15.75 23.4 15.85 22.4 16 1.2 18.1 -1.1 18.65 -4.25 19.3 -9.15 19.7 -11.2 19.8 -13 19.95 -16.35 20.15 -18.6 20.3 -32.05 21.3 -44.2 24.6 -53.1 27.5 -58.25 28.4 -64.75 29.5 -76.75 29.25 -75.75 34.7 -74.8 40.4 -74.5 42.1 -74.25 43.95 -68.6 43.2 -60.55 41.1 -57.9 40.4 -54.95 39.6 -50.85 38.4 -43.2 36.2 -37 34.45 -33.5 33.9 -30.6 33.5 -25.45 33.1 -22.55 32.9 -16.35 32.55 -14.6 32.4 -13 32.25 -9.4 31.9 -6.6 31.4 -2.55 30.75 -0.2 29.8 5.75 27.4 22.4 25.8 22.85 25.75 23.25 25.7 23.85 25.65 24.5 25.6 37.85 24.35 44.55 24.55 45.05 24.55 46.7 24.5 50.7 24.3 61.25 23.7 65.05 23.5 69.75 23.2 73.4 22.95 76.5 22.8 91.45 21.9 94.8 21.8
L 94.8 21.75
Q 94.8 21.3 102.2 22.1 103.8 22.25 105.75 22.5 116.05 23.75 127.05 25.6 133.85 26.7 145.2 27.55 155.85 28.35 162.6 28.35 167.85 28.35 169.85 28.15 171.65 28 174.7 27.3 183.9 25.15 195.85 23 197.5 22.7 199.2 22.4
L 199.25 22.4
Q 201.9 21.9 204.75 21.45 205.6 21.3 209.25 20.6 212.65 19.9 218.6 18.65 221.65 18.05 224.25 17.55
M 209.25 12.7
L 210.4 12.8
Q 211.6 12.9 211.8 13.05 210.65 13.75 195.15 18.45 178.95 23.3 176.3 23.3 174.7 23.3 174.5 22.9
L 174.5 22.5
Q 190.25 19.05 196.4 17.4 206.85 14.7 209.25 12.7
M 170.9 19.1
Q 174.9 18.05 178.45 17.95 173.95 19.45 171.75 20.1 168 21.2 162.4 21.9
L 128.2 21.8
Q 128.15 21.95 128.1 21.95 128 22 128 21.45 128 20.9 128.15 20.95 128.2 20.95 128.45 21.05
L 163.1 21
Q 165.4 20.6 170.9 19.1
M 124.45 15.15
Q 124.45 15.3 123.9 15.3 123.3 15.3 120.85 14.7 117.6 13.9 115.8 13.55 108.2 12.15 103.15 13.55
L 87.3 13.5
Q 87.25 13.6 87.2 13.6 87.1 13.65 87.1 13.1 87.1 12.6 87.2 12.6 87.3 12.6 87.5 12.7
L 103.65 12.55
Q 109.15 11.55 116.15 12.75 119.55 13.35 124.4 14.8 124.35 14.95 124.45 15.15
M 116.45 21.4
Q 116.5 21.55 116 21.55 114.65 21.55 112.55 20.85 110.2 20.1 109.3 19.2
L 70.95 19
Q 70.45 18.85 67.85 18.7 67.7 19.15 67.7 18.3 67.7 17.8 67.9 17.85 68 17.85 68.1 17.95
L 69.35 18
Q 70.65 18.1 70.95 18.2
L 109.55 18.35
Q 110.5 19.05 116.4 21.05 116.35 21.2 116.45 21.4
M 61 18.7
L 61.3 18.95
Q 61.35 19 61.25 19.05 60.9 19.3 58.75 20.15
L 34.65 20.35
Q 34.15 20.5 32.05 20.65 31.8 20.85 31.8 21.1 31.8 21.35 31.75 21.4 31.5 21.55 28.6 21.55 28 21.55 27.8 21.5 27.6 21.4 27.45 21.2 27.9 20.8 28.05 20.7 28.7 20.5 31.35 20.15 31.55 19.95 32.15 19.8 33.05 19.55 35.15 19.3
L 59 19.1
Q 60.25 18.7 61 18.7
M 21.05 22.05
L 20.85 22.6
Q 16.95 22.45 14.15 22.45 9 22.5 5 23.3
L -3.9 23.45
Q -8.45 25 -13 25.7 -17.35 26.4 -21.7 26.4 -23.25 26.4 -23.55 26.1 -16.8 25.3 -13 24.75 -10.35 24.35 -9.15 24.05 -7.2 23.6 -3.65 22.4
L 5.25 22.25
Q 5.65 22.05 7.25 21.9 9.2 21.7 12.25 21.55 12.25 21.45 14.9 21.55 17.75 21.7 21.05 22.05
M -67.35 36.35
L -67.5 36
Q -58.9 33.3 -46.35 31.15 -34.4 29.1 -28.25 29 -29.95 29.3 -47.75 32.65 -56.8 34.4 -67.35 36.35 Z"/>

<path fill="#7B570F" stroke="none" d="
M 209.25 20.6
Q 205.6 21.3 204.75 21.45 201.9 21.9 199.25 22.4
L 199.2 22.4
Q 197.5 22.7 195.85 23 183.9 25.15 174.7 27.3 171.65 28 169.85 28.15 167.85 28.35 162.6 28.35 155.85 28.35 145.2 27.55 133.85 26.7 127.05 25.6 116.05 23.75 105.75 22.5 103.8 22.25 102.2 22.1 94.8 21.3 94.8 21.75
L 94.8 21.8
Q 95.15 21.75 95.4 21.75 95 21.8 94.8 22.1
L 94.8 21.8
Q 91.45 21.9 76.5 22.8 73.4 22.95 69.75 23.2 65.05 23.5 61.25 23.7 50.7 24.3 46.7 24.5 45.05 24.55 44.55 24.55 37.85 24.35 24.5 25.6 23.85 25.65 23.25 25.7 22.85 25.75 22.4 25.8 5.75 27.4 -0.2 29.8 -2.55 30.75 -6.6 31.4 -9.4 31.9 -13 32.25 -14.6 32.4 -16.35 32.55 -22.55 32.9 -25.45 33.1 -30.6 33.5 -33.5 33.9 -37 34.45 -43.2 36.2 -50.85 38.4 -54.95 39.6 -57.9 40.4 -60.55 41.1 -68.6 43.2 -74.25 43.95 -73.95 46.55 -73.65 49.4 -67.1 47.2 -59.5 45.25 -56.8 44.5 -53.9 43.85 -52.35 43.45 -50.8 43.1 -38.9 40.4 -37 40.4 -36.45 40.4 -35.9 40.4 -29.45 38.6 -22.55 37.4 -18.35 36.7 -15.6 36.1 -14.05 35.75 -13 35.5 -12.1 35.25 -11.5 35 -9.35 34.2 -6.2 33.65 -3.45 33.15 0.05 32.85 1.75 32.7 3.6 32.55 8.9 32.3 15.7 32.05 19.2 31.55 22.4 31.15 23.45 30.95 24.5 30.85 36.3 29.35 44.8 28.95 45.85 28.9 46.9 28.9 47.7 28.85 48.45 28.85 52.85 28.75 58.7 28.5 64.55 28.25 69.05 28.4 73.5 28.45 75.2 27.9 76.9 27.3 102.2 29.35 109.8 29.95 119.65 30.95 130.45 32 149.25 33.95 157.9 34.8 161 35 162.7 35.1 162.7 35
L 162.7 34.95
Q 168.55 34.6 179.15 32.05 191.9 28.9 196.4 26.1 197.5 25.4 199.7 25 201.75 24.55 204.85 24.5 207.15 24.4 210 24.45 212.2 24.55 219 24.85 222.75 25.05 225.2 25.1 224.65 21.75 224.25 17.55 221.65 18.05 218.6 18.65 212.65 19.9 209.25 20.6
M -67.5 36
L -67.35 36.35
Q -56.8 34.4 -47.75 32.65 -29.95 29.3 -28.25 29 -34.4 29.1 -46.35 31.15 -58.9 33.3 -67.5 36
M 20.85 22.6
L 21.05 22.05
Q 17.75 21.7 14.9 21.55 12.25 21.45 12.25 21.55 9.2 21.7 7.25 21.9 5.65 22.05 5.25 22.25
L -3.65 22.4
Q -7.2 23.6 -9.15 24.05 -10.35 24.35 -13 24.75 -16.8 25.3 -23.55 26.1 -23.25 26.4 -21.7 26.4 -17.35 26.4 -13 25.7 -8.45 25 -3.9 23.45
L 5 23.3
Q 9 22.5 14.15 22.45 16.95 22.45 20.85 22.6
M 61.3 18.95
L 61 18.7
Q 60.25 18.7 59 19.1
L 35.15 19.3
Q 33.05 19.55 32.15 19.8 31.55 19.95 31.35 20.15 28.7 20.5 28.05 20.7 27.9 20.8 27.45 21.2 27.6 21.4 27.8 21.5 28 21.55 28.6 21.55 31.5 21.55 31.75 21.4 31.8 21.35 31.8 21.1 31.8 20.85 32.05 20.65 34.15 20.5 34.65 20.35
L 58.75 20.15
Q 60.9 19.3 61.25 19.05 61.35 19 61.3 18.95
M 116 21.55
Q 116.5 21.55 116.45 21.4 116.35 21.2 116.4 21.05 110.5 19.05 109.55 18.35
L 70.95 18.2
Q 70.65 18.1 69.35 18
L 68.1 17.95
Q 68 17.85 67.9 17.85 67.7 17.8 67.7 18.3 67.7 19.15 67.85 18.7 70.45 18.85 70.95 19
L 109.3 19.2
Q 110.2 20.1 112.55 20.85 114.65 21.55 116 21.55
M 123.9 15.3
Q 124.45 15.3 124.45 15.15 124.35 14.95 124.4 14.8 119.55 13.35 116.15 12.75 109.15 11.55 103.65 12.55
L 87.5 12.7
Q 87.3 12.6 87.2 12.6 87.1 12.6 87.1 13.1 87.1 13.65 87.2 13.6 87.25 13.6 87.3 13.5
L 103.15 13.55
Q 108.2 12.15 115.8 13.55 117.6 13.9 120.85 14.7 123.3 15.3 123.9 15.3
M 178.45 17.95
Q 174.9 18.05 170.9 19.1 165.4 20.6 163.1 21
L 128.45 21.05
Q 128.2 20.95 128.15 20.95 128 20.9 128 21.45 128 22 128.1 21.95 128.15 21.95 128.2 21.8
L 162.4 21.9
Q 168 21.2 171.75 20.1 173.95 19.45 178.45 17.95
M 210.4 12.8
L 209.25 12.7
Q 206.85 14.7 196.4 17.4 190.25 19.05 174.5 22.5
L 174.5 22.9
Q 174.7 23.3 176.3 23.3 178.95 23.3 195.15 18.45 210.65 13.75 211.8 13.05 211.6 12.9 210.4 12.8 Z"/>
</g>

<g id="caixa_02_0_Layer1_0_FILL">
<path fill="#336600" stroke="none" d="
M 141.8 -1.5
L 8 -1.5
Q -1.5 -1.5 -1.5 8
L -1.5 141.8
Q -1.5 151.3 8 151.3
L 141.8 151.3
Q 151.3 151.3 151.3 141.8
L 151.3 8
Q 151.3 -1.5 141.8 -1.5
M 141.8 1.5
Q 148.3 1.5 148.3 8
L 148.3 141.8
Q 148.3 148.3 141.8 148.3
L 8 148.3
Q 1.5 148.3 1.5 141.8
L 1.5 8
Q 1.5 1.5 8 1.5
L 141.8 1.5 Z"/>
</g>

<path id="caixa_02_0_Layer3_0_MEMBER_0_1_STROKES" stroke="#333333" stroke-width="1" stroke-linejoin="round" stroke-linecap="round" fill="none" d="
M 80.35 37.2
Q 81.35 37.2 82.4 37.25 84.4 37.35 86.6 37.65 88.7 38 90.8 39 91.5 39.3 92.25 39.7 94.35 41 95.9 42.6 96 42.7 96.2 42.85 97.5 44.3 98.35 45.5 99 46.35 99.45 47.15 99.6 47.55 99.9 48 100.1 48.25 100.3 48.45 100.8 49.05 101.45 49.75 101.95 50.15 102.45 50.6 103.1 51.15 103.9 51.8 104.1 51.9 104.3 52.05 104.6 52.5 104.65 53.2 104.7 53.95 104.35 55 104.3 55.05 104.3 55.1
L 105.15 56.1 107.4 58.7
Q 110.3 63.8 107.4 68.85
L 104 72.65
Q 103.8 72.9 103.6 73.25 102.9 74.4 103.1 75.85 103.1 75.95 103.1 76.05 103.25 76.75 103.55 77.5
L 103.6 77.55
Q 103.7 77.8 103.8 78.05 103.9 78.35 104.05 78.7 104.25 79.2 104.35 80.3 104.35 80.8 104.35 81.35 104.3 82.15 104.2 83.15 104.2 83.2 104.2 83.3 103.85 84.9 101.55 89 101.2 89.55 100.85 90.2 100.8 90.25 100.8 90.3 97.6 95.5 97.6 98.8 97.6 98.95 97.6 99.05 97.6 101 97.65 102.05
L 97.65 102.1
Q 97.6 102.25 97.65 102.45 97.95 104.45 98.2 106.3 98.25 106.6 98.3 106.9 98.35 108.05 98.5 109.15 98.65 111.1 98.65 112.95 98.65 113.6 98.6 114.3 98.5 116.15 97.85 118.1 97.7 118.55 97.55 119 97.5 119.05 97.5 119.1 97.45 119.2 97.4 119.25 97.4 119.35 97.4 119.4 96.25 122 94.05 124.85 92.75 126.95 91.1 128.6 90.4 129.25 89.65 129.85 88.85 130.55 87.95 131.1 86.4 132.15 84.8 133.2 82.2 134.9 79.6 136.7 79.5 136.75 79.45 136.85 79.25 137 79.05 137.15 75.85 139.15 72.05 139.1 70.95 139.05 69.8 138.8 68.9 139 67.2 139.4 66.55 139.5 65.35 139.75 65.3 139.75 65.25 139.75 63 140.1 58.6 140.7 55.55 141.1 54.35 140.1 54.05 139.85 53.9 139.55 53.05 138.15 54.2 135.25 54.35 134.1 55.95 127.65 56.4 125.8 56.75 123.9 56.9 122.65 57.05 121.4 57.35 118.3 57.35 114.95 57.35 114.25 57.35 113.5 57.3 113.05 57.3 112.6 57.05 105.6 55.75 100.05 55.7 99.95 55.7 99.85 54.95 96.75 54.25 93.45 54.1 92.75 53.95 92.05 53.4 89.6 52.9 87 52.5 84.85 52.15 82.9 52.15 82.85 52.15 82.8 49.4 67.95 49.4 59.7 49.4 56.45 51.65 53.05 53.15 50.75 56.05 50.05 56.55 49.95 57.1 49.85 57.25 49.55 57.45 49.3 57.65 49 57.8 48.8 57.95 48.55 58.1 48.35 58.9 47.2 59.75 46.2 65.95 38.9 75.75 37.55 75.65 36.5 76.45 35.85 77.1 35.2 77 34.55 76.95 34.05 76.95 33.05 77 31.4 77 31.3 76.95 30.35 76.95 29.8 76.95 28.9 77.1 28.25 77.15 28 77.55 27.65
M 79.35 27.65
Q 79.1 28.4 79 29 79 29.35 79 31.55 79 31.65 78.9 32.95 78.9 34.3 79.05 34.85 79.2 35.25 79.55 35.6 79.95 36.05 80.15 36.4 80.35 36.75 80.35 37.2 80.25 37.2 80.15 37.2
L 80 37.2
Q 77.8 37.25 75.75 37.55
M 82.1 52.3
Q 85.6 52 88.85 52.15
L 88.9 52.15
Q 90.75 52.2 92.65 52.35 93.8 52.45 95 52.65 96.7 52.9 98.35 53.25 98.6 53.3 98.85 53.4 99.3 53.5 99.85 53.6 101.4 53.95 102.9 54.45 102.95 54.45 103 54.5 103.2 54.55 103.4 54.65 103.8 54.8 104.3 55
L 104.35 55
M 69.8 138.8
Q 73.45 136.15 75.3 133.35 75.35 133.25 75.4 133.2 75.5 133.05 75.6 132.85 75.85 132.5 76 132.15 76.05 132 76.15 131.85 76.6 130.85 76.9 129.9 76.95 129.5 77.05 129.2 77.05 129 77.1 128.75 78.1 123.65 78.1 121.3 78.05 120 78.05 119.1 78 118.95 78 118.75 77.95 118.2 77.95 117.9 77.85 117.35 77.85 116.4 77.8 116.1 77.85 115.8 77.8 115.5 77.8 115.15 77.8 114.5 77.8 113.75 77.8 110.55 78.55 108.6 79.2 106.6 79.45 105.1 79.45 104.75 79.45 104.5 79.45 103.7 79.35 102.85 79.25 102.4 79.15 102 78.65 100.45 78.9 99.3 79.05 98.15 79 97.7 79 97.1 79.1 96.55 79.35 95 79.75 93.55 79.8 93.35 79.9 93.15 80.45 91.3 81.3 89.45 81.35 89.3 81.4 89.2 83.4 85 83.6 81.5 83.75 78.2 83.2 75.9 83.15 75.7 83.1 75.45 83 75.1 82.85 74.8 82.15 72.7 81.05 70.7 80.4 69.6 79.4 68.55 78.75 67.9 78.1 67.25 78.05 67.25 78 67.25 77.25 66.55 76.45 66 74.45 64.5 73.45 63.3 72.8 62.5 72.45 61.8 72.35 61.5 72.2 61.2 70.25 57.15 64.9 53 61.7 50.4 58.75 49.95
M 58.5 49.9
Q 57.75 49.8 57.1 49.85"/>
</defs>

<g id="caixa_02" transform="matrix( 1.08203125, 0, 0, 1.08203125, 0.45,0.45) ">
<mask id="Mask_Mask_1">
<g transform="matrix( 1, 0, 0, 1, 0,0) ">
<use xlink:href="#Mask_caixa_02_0_4_MASK_0_FILL"/>
</g>
</mask>

<g mask="url(#Mask_Mask_1)">
<g transform="matrix( 1, 0, 0, 1, 0,0) ">
<use xlink:href="#caixa_02_0_Layer4_0_FILL"/>
</g>
</g>

<g mask="url(#Mask_Mask_1)">
<g transform="matrix( 1, 0, 0, 1, 0,0) ">
<use xlink:href="#caixa_02_0_Layer3_0_FILL"/>
</g>

<g transform="matrix( 1, 0, 0, 1, 0,0) ">
<use xlink:href="#caixa_02_0_Layer3_0_MEMBER_0_FILL"/>

<use xlink:href="#caixa_02_0_Layer3_0_MEMBER_0_1_STROKES"/>
</g>

<g transform="matrix( 1, 0, 0, 1, 0,0) ">
<use xlink:href="#caixa_02_0_Layer3_0_MEMBER_1_FILL"/>
</g>
</g>

<g mask="url(#Mask_Mask_1)"/>

<g mask="url(#Mask_Mask_1)">
<g transform="matrix( 1, 0, 0, 1, 0,0) ">
<use xlink:href="#caixa_02_0_Layer1_0_FILL"/>
</g>
</g>
</g>
</svg>
